<svg xmlns="http://www.w3.org/2000/svg" xmlns:xlink="http://www.w3.org/1999/xlink" width="32" height="32" viewBox="0 0 32 32">
  <defs>
    <path id="-40-a" d="M15.9730195,28.0096924 C15.9730195,28.0096924 12.8502942,22.0002892 11.9797647,20.0290772 L28.0276577,4.84495931 L15.9730195,28.0096924 L15.9730195,28.0096924 Z M3.99325488,15.0411928 L26.9544705,4.0678469 L10.9814509,19.0315003 C10.9774577,19.02751 3.99325488,15.0411928 3.99325488,15.0411928 L3.99325488,15.0411928 Z M30.9477254,0.0775393188 C29.7936747,0.639175111 0,15.0411928 0,15.0411928 C0,15.0411928 10.0350495,21.0855112 9.98313721,21.0266541 C9.96616588,21.0077002 15.9730195,32 15.9730195,32 C15.9730195,32 31.6964606,1.57390466 31.9460391,1.07511622 C32.1646698,0.451630655 31.6964606,-0.233704673 30.9477254,0.0775393188 L30.9477254,0.0775393188 Z"/>
  </defs>
  <use fill="#AAA" fill-rule="evenodd" xlink:href="#a"/>
</svg>
