<svg xmlns="http://www.w3.org/2000/svg" xmlns:xlink="http://www.w3.org/1999/xlink" width="32" height="32" viewBox="0 0 32 32">
  <defs>
    <path id="-103-a" d="M1.10714286,0 C0.496,0 0,0.497777778 0,1.11111111 C0,1.72555556 0.496,2.22222222 1.10714286,2.22222222 C1.71828571,2.22222222 2.21428571,1.72555556 2.21428571,1.11111111 C2.21428571,0.497777778 1.71828571,0 1.10714286,0 L1.10714286,0 Z M29.8928571,8.88888889 L7.75,8.88888889 C7.13885714,8.88888889 6.64285714,9.38666667 6.64285714,10 C6.64285714,10.6144444 7.13885714,11.1111111 7.75,11.1111111 L29.8928571,11.1111111 C30.504,11.1111111 31,10.6144444 31,10 C31,9.38666667 30.504,8.88888889 29.8928571,8.88888889 L29.8928571,8.88888889 Z M29.8928571,17.7777778 L7.75,17.7777778 C7.13885714,17.7777778 6.64285714,18.2755556 6.64285714,18.8888889 C6.64285714,19.5033333 7.13885714,20 7.75,20 L29.8928571,20 C30.504,20 31,19.5033333 31,18.8888889 C31,18.2755556 30.504,17.7777778 29.8928571,17.7777778 L29.8928571,17.7777778 Z M1.10714286,8.88888889 C0.496,8.88888889 0,9.38666667 0,10 C0,10.6144444 0.496,11.1111111 1.10714286,11.1111111 C1.71828571,11.1111111 2.21428571,10.6144444 2.21428571,10 C2.21428571,9.38666667 1.71828571,8.88888889 1.10714286,8.88888889 L1.10714286,8.88888889 Z M1.10714286,17.7777778 C0.496,17.7777778 0,18.2755556 0,18.8888889 C0,19.5033333 0.496,20 1.10714286,20 C1.71828571,20 2.21428571,19.5033333 2.21428571,18.8888889 C2.21428571,18.2755556 1.71828571,17.7777778 1.10714286,17.7777778 L1.10714286,17.7777778 Z M7.75,2.22222222 L29.8928571,2.22222222 C30.504,2.22222222 31,1.72555556 31,1.11111111 C31,0.497777778 30.504,0 29.8928571,0 L7.75,0 C7.13885714,0 6.64285714,0.497777778 6.64285714,1.11111111 C6.64285714,1.72555556 7.13885714,2.22222222 7.75,2.22222222 L7.75,2.22222222 Z"/>
  </defs>
  <use fill="#AAA" fill-rule="evenodd" xlink:href="#a"/>
</svg>
