<svg xmlns="http://www.w3.org/2000/svg" xmlns:xlink="http://www.w3.org/1999/xlink" width="32" height="32" viewBox="0 0 32 32">
  <defs>
    <path id="-25-a" d="M30.8571429,16 L1.14285714,16 C0.510857143,16 0,16.448 0,17 C0,17.553 0.510857143,18 1.14285714,18 L30.8571429,18 C31.4891429,18 32,17.553 32,17 C32,16.448 31.4891429,16 30.8571429,16 L30.8571429,16 Z M18.2857143,24 L1.14285714,24 C0.510857143,24 0,24.447 0,25 C0,25.553 0.510857143,26 1.14285714,26 L18.2857143,26 C18.9177143,26 19.4285714,25.553 19.4285714,25 C19.4285714,24.447 18.9177143,24 18.2857143,24 L18.2857143,24 Z M1.14285714,2 L30.8571429,2 C31.4891429,2 32,1.553 32,1 C32,0.448 31.4891429,0 30.8571429,0 L1.14285714,0 C0.510857143,0 0,0.448 0,1 C0,1.553 0.510857143,2 1.14285714,2 L1.14285714,2 Z M1.14285714,10 L21.7142857,10 C22.3462857,10 22.8571429,9.553 22.8571429,9 C22.8571429,8.448 22.3462857,8 21.7142857,8 L1.14285714,8 C0.510857143,8 0,8.448 0,9 C0,9.553 0.510857143,10 1.14285714,10 L1.14285714,10 Z"/>
  </defs><use fill="#AAA" fill-rule="evenodd" xlink:href="#a"/>
</svg>
