<svg xmlns="http://www.w3.org/2000/svg" xmlns:xlink="http://www.w3.org/1999/xlink" width="32" height="32" viewBox="0 0 32 32">
  <defs>
    <path id="-26-a" d="M24,24 L8,24 C7.368,24 6.85714286,24.447 6.85714286,25 C6.85714286,25.553 7.368,26 8,26 L24,26 C24.632,26 25.1428571,25.553 25.1428571,25 C25.1428571,24.447 24.632,24 24,24 L24,24 Z M30.8571429,16 L1.14285714,16 C0.510857143,16 0,16.448 0,17 C0,17.553 0.510857143,18 1.14285714,18 L30.8571429,18 C31.4891429,18 32,17.553 32,17 C32,16.448 31.4891429,16 30.8571429,16 L30.8571429,16 Z M5.71428571,8 C5.08228571,8 4.57142857,8.448 4.57142857,9 C4.57142857,9.553 5.08228571,10 5.71428571,10 L26.2857143,10 C26.9177143,10 27.4285714,9.553 27.4285714,9 C27.4285714,8.448 26.9177143,8 26.2857143,8 L5.71428571,8 L5.71428571,8 Z M1.14285714,2 L30.8571429,2 C31.4891429,2 32,1.553 32,1 C32,0.448 31.4891429,0 30.8571429,0 L1.14285714,0 C0.510857143,0 0,0.448 0,1 C0,1.553 0.510857143,2 1.14285714,2 L1.14285714,2 Z"/>
  </defs><use fill="#AAA" fill-rule="evenodd" xlink:href="#a"/>
</svg>
