<svg xmlns="http://www.w3.org/2000/svg" xmlns:xlink="http://www.w3.org/1999/xlink" width="32" height="32" viewBox="0 0 32 32">
  <defs>
    <path id="-230-a" d="M31.2236606,12.8857061 L31.2224323,12.8830905 L31.2227394,12.8830905 L31.2193613,12.8749531 C29.5192966,8.33777255 25.6299685,7.59029444 23.4631229,7.54815434 L22.7202658,7.5339139 L23.1621721,6.96865537 C24.1801842,5.66841545 24.8720639,4.042389 25.1109819,2.389916 C25.2166218,1.66016579 25.1736288,1.10943833 24.9755541,0.656650268 C24.8401262,0.346557288 24.5256634,-0.0562439037 23.374066,0.00653030796 C22.2663829,0.0693045196 21.0220436,0.459318371 19.6760566,1.16610949 C18.4246542,1.8223325 16.7912285,2.9848179 16.113168,4.7965514 L15.8705648,5.44434639 L15.4412493,4.89013147 C14.5687992,3.76252064 13.2820811,2.75493642 11.7208222,1.97636182 L11.6151823,1.92317811 C11.3105464,1.76827693 10.9936268,1.60959767 10.7252279,1.65842206 C10.3969458,1.7188713 10.241557,1.97054939 10.2059342,2.18560919 C10.1703115,2.40037837 10.2363364,2.68373418 10.5286886,2.83631039 C12.5220268,3.87440986 14.3719528,4.97528353 15.1055971,7.01689851 C15.3073569,7.57925083 15.3859726,8.16165601 15.3396017,8.74871114 L15.2984512,9.27706075 L14.7923626,9.05008548 C12.6298163,8.07882893 10.9002707,7.61761284 9.18485125,7.55425739 C9.04143899,7.54902621 8.89864092,7.54641061 8.75676413,7.54641061 C7.71602722,7.54641061 6.72872442,7.68939632 5.81635223,7.97275213 C3.06418812,8.8271789 1.0662435,11.1652277 0.334748861,14.3867653 C-0.342083286,17.3670873 0.0147583448,20.7685196 1.33894175,23.9647732 C2.14782372,25.9162955 4.02907315,29.4476356 7.53975605,31.1779951 C9.03744679,31.9158827 10.7236924,32.1684326 12.2886364,31.8891455 C12.9190976,31.7769657 13.4644941,31.5351687 14.0424424,31.2797125 C14.1923036,31.2131603 14.3437003,31.1460267 14.4990891,31.0800557 C15.3082782,30.73596 16.1712085,30.654586 16.8667733,30.8568585 L17.303459,31.0167002 C18.5536331,31.6162521 19.8925569,31.93332 21.1749757,31.93332 C25.5212577,31.93332 28.3809042,28.0799715 29.4087432,26.4234298 C31.1646989,23.5924872 32.0825987,20.2535385 31.994156,17.0229916 C31.9536198,15.5379165 31.6941265,14.1458402 31.2236606,12.8857061 M25.8150839,13.81273 C25.7042235,13.6703256 25.570024,13.5069964 25.4167848,13.3762168 C25.2856562,13.2634557 25.1459291,13.2070751 24.9994459,13.2070751 C24.9395628,13.2070751 24.8790656,13.216375 24.8173399,13.2352654 C24.5676736,13.3111176 24.3554726,13.5308273 24.3008102,13.7697181 C24.2553604,13.9693749 24.3244563,14.1495602 24.505948,14.3050426 C25.2110327,14.9542907 25.4545571,15.9508313 25.5377793,16.4881902 C25.6609234,17.2868177 25.5976623,18.1633316 25.3492244,19.0939012 C25.3093023,19.2444431 25.2521831,19.3944037 25.1972135,19.5397144 C25.0931091,19.8137703 24.9856267,20.0974167 25.0215565,20.3188702 C25.0670063,20.5967042 25.3139087,20.8219358 25.6081035,20.8533229 C26.2118476,20.9216189 26.4688841,20.299108 26.7022745,19.2069529 L26.7415823,19.0258958 C26.9289088,18.1842564 26.9832642,17.3728416 26.9024989,16.6143199 C26.7904101,15.5509363 26.4142216,14.5822954 25.8150839,13.81273 M29.3304346,23.7096076 L29.3304346,23.709317 C28.7196274,25.1319085 27.7108281,26.9421889 26.1354429,28.4240672 L26.0933712,28.4490606 L24.2333112,29.8481118 L24.232697,29.8475305 C22.754046,30.6923668 21.0628869,30.8783645 19.3422469,30.417439 C18.9626805,30.3163028 18.6178154,30.171864 18.2840058,30.0323657 C18.122475,29.9643603 17.9603301,29.8966455 17.7938859,29.8335807 L17.3805392,29.6842013 C16.7525348,29.4528667 15.9387394,29.4153766 15.085329,29.5778339 C14.5939808,29.6722859 14.1422475,29.8710709 13.6637972,30.0817713 C13.1503383,30.3078747 12.618761,30.5418249 12.0180878,30.6467392 C11.693798,30.7034104 11.3664373,30.7316007 11.0369269,30.7316007 C9.42653314,30.7316007 7.77191808,30.0620091 6.28804651,28.7922844 C3.88627508,26.7370102 2.21476992,23.6369523 1.58185201,20.0628909 C1.236987,18.1128217 0.773277131,13.2757199 3.9145276,10.4781988 C6.58654054,8.09830056 10.6739434,8.63042825 13.6088276,9.92253077 C13.7755789,9.99576735 13.9530784,10.0820819 14.1376411,10.1721745 C14.8436471,10.5165608 15.6439304,10.906284 16.2875966,10.7522547 C16.8962542,10.6054909 17.4634543,10.3477098 18.0644345,10.0748164 C18.3537158,9.94345551 18.6525169,9.80773534 18.9556173,9.68596499 C20.8657335,8.91930587 22.8068659,8.64902802 24.5701918,8.90622791 C26.1406635,9.13494691 27.5422342,9.84202866 28.5166391,10.8972748 C29.5853215,12.0539478 30.2664529,13.6526558 30.5403795,15.6489339 C30.8978354,18.2491231 30.4795752,21.0364724 29.3304346,23.7096076 M17.9563379,4.1772373 L17.9673933,4.16270623 C17.973228,4.15515008 17.9790628,4.1473033 17.9848975,4.14003777 L17.9852046,4.14003777 C17.9861259,4.13887528 17.9870472,4.13800342 17.9876614,4.13684093 L17.9873543,4.13655031 L17.9876614,4.13684093 C17.9901181,4.13393472 17.9928819,4.13102851 17.9953387,4.12812229 L17.9947245,4.12783167 L17.9953387,4.12812229 C19.4408237,2.28500169 22.2811234,1.34774784 23.4198228,1.27334877 L23.8110588,1.24777409 L23.8297915,1.61860694 C23.8565085,2.15800016 23.7069544,2.70146209 23.5868812,3.1385566 C23.3596327,3.96944304 23.0347287,4.74336769 22.621382,5.43824334 C21.5824876,7.18458703 20.0144727,8.15758731 18.2720291,8.15758731 C18.1310736,8.15758731 17.9891968,8.15119364 17.8463988,8.1384063 L17.7757675,8.12561896 C17.5374636,8.06051978 17.3888307,7.92218402 17.3224987,7.7027649 C16.942011,6.39206261 17.1499127,5.23945834 17.9563379,4.1772373"/>
  </defs><use fill="#AAA" fill-rule="evenodd" xlink:href="#a"/>
</svg>
