<svg xmlns="http://www.w3.org/2000/svg" xmlns:xlink="http://www.w3.org/1999/xlink" width="32" height="32" viewBox="0 0 32 32">
  <defs>
    <path id="-180-a" d="M30,28 C30,29.1 29.104,30 28,30 L4,30 C2.896,30 2,29.1 2,28 L2,4 C2,2.896 2.896,2 4,2 L28,2 C29.104,2 30,2.896 30,4 L30,28 L30,28 Z M28,0 L4,0 C1.791,0 0,1.791 0,4 L0,28 C0,30.21 1.791,32 4,32 L28,32 C30.209,32 32,30.21 32,28 L32,4 C32,1.791 30.209,0 28,0 L28,0 Z M21.121,16.465 L17,20.59 L17,10 C17,9.447 16.553,9 16,9 C15.448,9 15,9.447 15,10 L15,20.59 L10.879,16.465 C10.488,16.074 9.855,16.074 9.465,16.465 C9.074,16.855 9.074,17.49 9.465,17.88 L15.121,23.54 C15.361,23.78 15.689,23.85 16,23.79 C16.311,23.85 16.639,23.78 16.879,23.54 L22.535,17.88 C22.926,17.49 22.926,16.855 22.535,16.465 C22.146,16.074 21.512,16.074 21.121,16.465 L21.121,16.465 Z"/>
  </defs>
  <use fill="#AAA" fill-rule="evenodd" xlink:href="#a"/>
</svg>
