<svg xmlns="http://www.w3.org/2000/svg" xmlns:xlink="http://www.w3.org/1999/xlink" width="32" height="32" viewBox="0 0 32 32">
  <defs>
    <path id="-177-a" d="M22,15 L11.414,15 L15.535,10.879 C15.926,10.488 15.926,9.855 15.535,9.465 C15.145,9.074 14.512,9.074 14.121,9.465 L8.465,15.121 C8.225,15.361 8.15,15.689 8.205,16 C8.15,16.311 8.225,16.639 8.465,16.879 L14.121,22.54 C14.512,22.93 15.145,22.93 15.535,22.54 C15.926,22.15 15.926,21.51 15.535,21.12 L11.414,17 L22,17 C22.553,17 23,16.553 23,16 C23,15.448 22.553,15 22,15 L22,15 Z M30,28 C30,29.1 29.104,30 28,30 L4,30 C2.896,30 2,29.1 2,28 L2,4 C2,2.896 2.896,2 4,2 L28,2 C29.104,2 30,2.896 30,4 L30,28 L30,28 Z M28,0 L4,0 C1.791,0 0,1.791 0,4 L0,28 C0,30.21 1.791,32 4,32 L28,32 C30.209,32 32,30.21 32,28 L32,4 C32,1.791 30.209,0 28,0 L28,0 Z"/>
  </defs>
  <use fill="#AAA" fill-rule="evenodd" xlink:href="#a"/>
</svg>
