<svg xmlns="http://www.w3.org/2000/svg" xmlns:xlink="http://www.w3.org/1999/xlink" width="32" height="32" viewBox="0 0 32 32">
  <defs>
    <path id="-195-a" d="M16,30 C8.268,30 2,23.73 2,16 C2,8.27 8.268,2 16,2 C23.732,2 30,8.27 30,16 C30,23.73 23.732,30 16,30 L16,30 Z M16,0 C7.163,0 0,7.16 0,16 C0,24.84 7.163,32 16,32 C24.837,32 32,24.84 32,16 C32,7.16 24.837,0 16,0 L16,0 Z M22.535,15.12 L16.879,9.46 C16.488,9.07 15.855,9.07 15.465,9.46 C15.074,9.86 15.074,10.49 15.465,10.88 L19.586,15 L9,15 C8.447,15 8,15.45 8,16 C8,16.55 8.447,17 9,17 L19.586,17 L15.465,21.12 C15.074,21.51 15.074,22.15 15.465,22.54 C15.855,22.93 16.488,22.93 16.879,22.54 L22.535,16.88 C22.775,16.64 22.85,16.31 22.795,16 C22.85,15.69 22.775,15.36 22.535,15.12 L22.535,15.12 Z"/>
  </defs>
  <use fill="#AAA" fill-rule="evenodd" xlink:href="#a"/>
</svg>
