<svg xmlns="http://www.w3.org/2000/svg" xmlns:xlink="http://www.w3.org/1999/xlink" width="32" height="32" viewBox="0 0 32 32">
  <defs>
    <path id="-178-a" d="M30,28 C30,29.1 29.104,30 28,30 L4,30 C2.896,30 2,29.1 2,28 L2,4 C2,2.896 2.896,2 4,2 L28,2 C29.104,2 30,2.896 30,4 L30,28 L30,28 Z M28,0 L4,0 C1.791,0 0,1.791 0,4 L0,28 C0,30.21 1.791,32 4,32 L28,32 C30.209,32 32,30.21 32,28 L32,4 C32,1.791 30.209,0 28,0 L28,0 Z M23.535,15.121 L17.879,9.465 C17.488,9.074 16.855,9.074 16.465,9.465 C16.074,9.854 16.074,10.488 16.465,10.879 L20.586,15 L10,15 C9.447,15 9,15.447 9,16 C9,16.552 9.447,17 10,17 L20.586,17 L16.465,21.12 C16.074,21.51 16.074,22.14 16.465,22.54 C16.855,22.93 17.488,22.93 17.879,22.54 L23.535,16.879 C23.775,16.639 23.85,16.311 23.795,16 C23.85,15.689 23.775,15.361 23.535,15.121 L23.535,15.121 Z"/>
  </defs>
  <use fill="#AAA" fill-rule="evenodd" xlink:href="#a"/>
</svg>
