<svg xmlns="http://www.w3.org/2000/svg" xmlns:xlink="http://www.w3.org/1999/xlink" width="32" height="32" viewBox="0 0 32 32">
  <defs>
    <path id="-194-a" d="M23,15 L12.414,15 L16.536,10.88 C16.926,10.49 16.926,9.86 16.536,9.46 C16.145,9.07 15.512,9.07 15.121,9.46 L9.464,15.12 C9.225,15.36 9.15,15.69 9.205,16 C9.15,16.31 9.225,16.64 9.464,16.88 L15.121,22.54 C15.512,22.93 16.145,22.93 16.536,22.54 C16.926,22.15 16.926,21.51 16.536,21.12 L12.414,17 L23,17 C23.552,17 24,16.55 24,16 C24,15.45 23.552,15 23,15 L23,15 Z M16,30 C8.268,30 2,23.73 2,16 C2,8.27 8.268,2 16,2 C23.732,2 30,8.27 30,16 C30,23.73 23.732,30 16,30 L16,30 Z M16,0 C7.164,0 0,7.16 0,16 C0,24.84 7.164,32 16,32 C24.836,32 32,24.84 32,16 C32,7.16 24.836,0 16,0 L16,0 Z"/>
  </defs>
  <use fill="#AAA" fill-rule="evenodd" xlink:href="#a"/>
</svg>
