<svg xmlns="http://www.w3.org/2000/svg" xmlns:xlink="http://www.w3.org/1999/xlink" width="32" height="32" viewBox="0 0 32 32">
  <defs>
    <path id="-196-a" d="M16,30 C8.268,30 2,23.73 2,16 C2,8.27 8.268,2 16,2 C23.732,2 30,8.27 30,16 C30,23.73 23.732,30 16,30 L16,30 Z M16,0 C7.163,0 0,7.16 0,16 C0,24.84 7.163,32 16,32 C24.837,32 32,24.84 32,16 C32,7.16 24.837,0 16,0 L16,0 Z M16.879,9.46 C16.639,9.22 16.311,9.15 16,9.21 C15.689,9.15 15.361,9.22 15.121,9.46 L9.465,15.12 C9.074,15.51 9.074,16.14 9.465,16.54 C9.854,16.93 10.488,16.93 10.879,16.54 L15,12.41 L15,23 C15,23.55 15.447,24 16,24 C16.553,24 17,23.55 17,23 L17,12.41 L21.121,16.54 C21.512,16.93 22.145,16.93 22.535,16.54 C22.926,16.14 22.926,15.51 22.535,15.12 L16.879,9.46 L16.879,9.46 Z"/>
  </defs>
  <use fill="#AAA" fill-rule="evenodd" xlink:href="#a"/>
</svg>
