<svg xmlns="http://www.w3.org/2000/svg" xmlns:xlink="http://www.w3.org/1999/xlink" width="32" height="32" viewBox="0 0 32 32">
  <defs>
    <path id="-179-a" d="M30,28 C30,29.1 29.104,30 28,30 L4,30 C2.896,30 2,29.1 2,28 L2,4 C2,2.896 2.896,2 4,2 L28,2 C29.104,2 30,2.896 30,4 L30,28 L30,28 Z M28,0 L4,0 C1.791,0 0,1.791 0,4 L0,28 C0,30.21 1.791,32 4,32 L28,32 C30.209,32 32,30.21 32,28 L32,4 C32,1.791 30.209,0 28,0 L28,0 Z M16.879,8.465 C16.639,8.225 16.311,8.15 16,8.205 C15.689,8.15 15.361,8.225 15.121,8.465 L9.465,14.121 C9.074,14.512 9.074,15.146 9.465,15.535 C9.854,15.926 10.488,15.926 10.879,15.535 L15,11.414 L15,22 C15,22.55 15.447,23 16,23 C16.552,23 17,22.55 17,22 L17,11.414 L21.121,15.535 C21.512,15.926 22.145,15.926 22.535,15.535 C22.926,15.146 22.926,14.512 22.535,14.121 L16.879,8.465 L16.879,8.465 Z"/>
  </defs>
  <use fill="#AAA" fill-rule="evenodd" xlink:href="#a"/>
</svg>
