<svg xmlns="http://www.w3.org/2000/svg" xmlns:xlink="http://www.w3.org/1999/xlink" width="32" height="32" viewBox="0 0 32 32">
  <defs>
    <path id="-130-a" d="M22,24 L2,24 L2,8 C2,6.896 2.896,6 4,6 L6,6 L6,12 L8,12 L8,6 L16,6 L16,12 L18,12 L18,6 L20,6 C21.104,6 22,6.896 22,8 L22,24 L22,24 Z M22,28 C22,29.104 21.104,30 20,30 L4,30 C2.896,30 2,29.104 2,28 L2,26 L22,26 L22,28 L22,28 Z M12,2 C14.209,2 16,2.619 16,4 L8,4 C8,2.619 9.791,2 12,2 L12,2 Z M20,4 L18,4 C18,1.791 15.313,0 12,0 C8.687,0 6,1.791 6,4 L4,4 C1.791,4 0,5.791 0,8 L0,28 C0,30.209 1.791,32 4,32 L20,32 C22.209,32 24,30.209 24,28 L24,8 C24,5.791 22.209,4 20,4 L20,4 Z"/>
  </defs>
 <use fill="#AAA" fill-rule="evenodd" xlink:href="#a"/>
</svg>
