<svg xmlns="http://www.w3.org/2000/svg" xmlns:xlink="http://www.w3.org/1999/xlink" width="32" height="32" viewBox="0 0 32 32">
  <defs>
    <path id="-115-a" d="M24,29 C24,29.553 23.553,30 23,30 C22.447,30 22,29.553 22,29 L22,19 C22,18.448 22.447,18 23,18 C23.553,18 24,18.448 24,19 L24,29 L24,29 Z M24,16 L22,16 C20.896,16 20,16.896 20,18 L20,30 C20,31.104 20.896,32 22,32 L24,32 C25.104,32 26,31.104 26,30 L26,18 C26,16.896 25.104,16 24,16 L24,16 Z M4,29 C4,29.553 3.553,30 3,30 C2.447,30 2,29.553 2,29 L2,12 C2,11.448 2.447,11 3,11 C3.553,11 4,11.448 4,12 L4,29 L4,29 Z M4,9 L2,9 C0.896,9 0,9.896 0,11 L0,30 C0,31.104 0.896,32 2,32 L4,32 C5.104,32 6,31.104 6,30 L6,11 C6,9.896 5.104,9 4,9 L4,9 Z M14,29 C14,29.553 13.553,30 13,30 C12.447,30 12,29.553 12,29 L12,3 C12,2.447 12.447,2 13,2 C13.553,2 14,2.447 14,3 L14,29 L14,29 Z M14,0 L12,0 C10.896,0 10,0.896 10,2 L10,30 C10,31.104 10.896,32 12,32 L14,32 C15.104,32 16,31.104 16,30 L16,2 C16,0.896 15.104,0 14,0 L14,0 Z"/>
  </defs>
  <use fill="#AAA" fill-rule="evenodd" xlink:href="#a"/>
</svg>
