<svg xmlns="http://www.w3.org/2000/svg" xmlns:xlink="http://www.w3.org/1999/xlink" width="32" height="32" viewBox="0 0 32 32">
  <defs>
    <path id="-127-a" d="M27.429,12 L22,12 L22,8 L28,8 L27.429,12 L27.429,12 Z M26.571,18 L22,18 L22,14 L27.143,14 L26.571,18 L26.571,18 Z M26,22 C26,23.104 25.104,24 24,24 L22,24 L22,20 L26.286,20 L26,22 L26,22 Z M12,8 L20,8 L20,12 L12,12 L12,8 Z M12,14 L20,14 L20,18 L12,18 L12,14 Z M12,20 L20,20 L20,24 L12,24 L12,20 Z M10,12 L4.286,12 L4,8 L10,8 L10,12 L10,12 Z M10,18 L4.714,18 L4.429,14 L10,14 L10,18 L10,18 Z M10,24 L7,24 C5.896,24 5,23.104 5,22 L4.857,20 L10,20 L10,24 L10,24 Z M31,6 L24.474,6 L26.5,2 L29,2 C29.553,2 30,1.553 30,1 C30,0.447 29.553,0 29,0 L25,0 L21.916,6 L10.168,6 L7,0 L3,0 C2.447,0 2,0.447 2,1 C2,1.553 2.447,2 3,2 L5.5,2 L7.646,6 L1,6 C0.447,6 0,6.448 0,7 C0,7.553 0.447,8 1,8 L2,8 L3,22 C3,24.209 4.791,26 7,26 L24,26 C26.209,26 28,24.209 28,22 L30,8 L31,8 C31.553,8 32,7.553 32,7 C32,6.448 31.553,6 31,6 L31,6 Z"/>
  </defs>
  <use fill="#AAA" fill-rule="evenodd" xlink:href="#a"/>
</svg>
