<svg xmlns="http://www.w3.org/2000/svg" xmlns:xlink="http://www.w3.org/1999/xlink" width="32" height="32" viewBox="0 0 32 32">
  <defs>
    <path id="-224-a" d="M28.059448,32 L3.87261146,32 C2.37791932,32 1.01910828,31.3191489 0.407643312,30.1617021 C-0.135881104,29.2085106 -0.135881104,28.1191489 0.407643312,27.1659574 L9.64755839,11.2340426 C9.64755839,11.1659574 9.71549894,11.0978723 9.71549894,11.0978723 L9.98726115,1.36170213 C9.98726115,0.612765957 10.5987261,0.0680851064 11.3460722,0.0680851064 L11.4140127,0.0680851064 C12.1613588,0.0680851064 12.7048832,0.680851064 12.7048832,1.42978723 L12.433121,11.1659574 C12.433121,11.6425532 12.2972399,12.1191489 12.0254777,12.5957447 L2.71762208,28.4595745 C2.64968153,28.5957447 2.64968153,28.6638298 2.71762208,28.8 C2.85350318,29.0723404 3.2611465,29.3446809 3.94055202,29.3446809 L28.059448,29.3446809 C28.670913,29.3446809 29.0785563,29.0723404 29.2823779,28.8 C29.3503185,28.6638298 29.3503185,28.5957447 29.2823779,28.4595745 L19.9745223,12.5276596 C19.7027601,12.1191489 19.566879,11.5744681 19.566879,11.0978723 L19.2951168,1.36170213 C19.2951168,0.612765957 19.8386412,-3.55271368e-15 20.5859873,-3.55271368e-15 L20.6539278,-3.55271368e-15 C21.4012739,-3.55271368e-15 21.9447983,0.544680851 22.0127389,1.29361702 L22.2845011,11.0297872 C22.2845011,11.0978723 22.2845011,11.1659574 22.3524416,11.1659574 L31.5923567,27.0978723 C32.1358811,28.0510638 32.1358811,29.1404255 31.5923567,30.093617 C30.8450106,31.2510638 29.5541401,32 28.059448,32 Z"/>
  </defs>
  <use fill="#AAA" fill-rule="evenodd" xlink:href="#a"/>
</svg>
