<svg xmlns="http://www.w3.org/2000/svg" xmlns:xlink="http://www.w3.org/1999/xlink" width="32" height="32" viewBox="0 0 32 32">
  <defs>
    <path id="-234-a" d="M1.2262008,23.1621738 L30.7735237,23.1621738 L30.7735237,17.4958755 L1.2262008,17.4958755 L1.2262008,23.1621738 Z M3.62086995,9.9035526 L28.3798864,9.9035526 L30.5341342,16.274781 L1.46584829,16.274781 L3.62086995,9.9035526 Z M3.79576876,7.84375485 C3.79576876,6.56076149 4.81240036,5.55580119 6.11021146,5.55580119 L13.0669536,5.55580119 C14.3639908,5.55580119 15.3803645,6.56076149 15.3803645,7.84375485 L15.3803645,8.69524706 L3.79576876,8.69524706 L3.79576876,7.84375485 Z M28.2034398,7.84375485 L28.2034398,8.69524706 L16.619618,8.69524706 L16.619618,7.84375485 C16.619618,6.56076149 17.6359916,5.55580119 18.9330289,5.55580119 L25.890029,5.55580119 C27.1870662,5.55580119 28.2034398,6.56076149 28.2034398,7.84375485 L28.2034398,7.84375485 Z M3.79628469,1.22109456 L28.2034398,1.22109456 L28.2034398,5.09590843 L27.4955898,4.72937544 C27.0137152,4.47973399 26.4585791,4.34775142 25.890029,4.34775142 L18.9330289,4.34775142 C17.9543178,4.34775142 17.0370019,4.74139711 16.3500468,5.45604692 L15.9999912,5.82002211 L15.6496777,5.45604692 C14.9627226,4.74139711 14.0456647,4.34775142 13.0669536,4.34775142 L6.11021146,4.34775142 C5.54140337,4.34775142 4.98600936,4.47973399 4.50387679,4.72937544 L3.79628469,5.09565265 L3.79628469,1.22109456 Z M31.973051,16.6917027 L29.4297952,9.19171638 L29.4297952,0.610291498 C29.4297952,0.404132677 29.2466416,0 28.8235825,0 L3.17665792,0 C2.75334088,0 2.57018726,0.404132677 2.57018726,0.610291498 L2.57018726,9.19171638 L0.0269315092,16.6919585 C0.011711701,16.7362084 0.000103372743,16.8323818 0.000103372743,16.885584 L0.000103372743,27.3764079 C-0.00299218147,27.5296203 0.0635622341,27.6805306 0.182741071,27.8015146 C0.307337128,27.9276142 0.466500207,28 0.619988104,28 C0.763673411,28 0.921804639,27.9271027 1.04227329,27.8050955 C1.16222602,27.6833441 1.22955432,27.5308992 1.2262008,27.3871507 L1.2262008,24.3702235 L30.7735237,24.3702235 L30.7735237,27.3764079 C30.7704282,27.5306434 30.8374985,27.6830884 30.9579671,27.8050955 C31.0781778,27.9271027 31.2360511,28 31.3799944,28 C31.5337402,28 31.6931613,27.9276142 31.8177573,27.8012588 C31.9366782,27.6805306 32.0032326,27.5296203 31.9998791,27.3874065 L31.9996211,16.885584 C31.9996211,16.8323818 31.9880128,16.7362084 31.973051,16.6917027 L31.973051,16.6917027 Z"/>
  </defs>
  <use fill="#AAA" fill-rule="evenodd" xlink:href="#a"/>
</svg>
