<svg xmlns="http://www.w3.org/2000/svg" xmlns:xlink="http://www.w3.org/1999/xlink" width="32" height="32" viewBox="0 0 32 32">
  <defs>
    <path id="-156-a" d="M3.21428571,25.6 L6.42857143,19.2 L6.42857143,10.6666667 C6.42857143,5.95413333 10.2664286,2.13333333 15,2.13333333 C19.7335714,2.13333333 23.5714286,5.95413333 23.5714286,10.6666667 L23.5714286,19.2 L26.7857143,25.6 L3.21428571,25.6 L3.21428571,25.6 Z M15,29.8666667 C13.6017857,29.8666667 12.4253571,28.9738667 11.9828571,27.7333333 L18.0171429,27.7333333 C17.5746429,28.9738667 16.3982143,29.8666667 15,29.8666667 L15,29.8666667 Z M25.7142857,19.2 L25.7142857,10.6666667 C25.7142857,4.77653333 20.9164286,0 15,0 C9.08357143,0 4.28571429,4.77653333 4.28571429,10.6666667 L4.28571429,19.2 L0,27.7333333 L9.75107143,27.7333333 C10.2471429,30.1674667 12.4082143,32 15,32 C17.5917857,32 19.7528571,30.1674667 20.2489286,27.7333333 L30,27.7333333 L25.7142857,19.2 L25.7142857,19.2 Z"/>
  </defs>
  <use fill="#AAA" fill-rule="evenodd" xlink:href="#a"/>
</svg>
