<svg xmlns="http://www.w3.org/2000/svg" xmlns:xlink="http://www.w3.org/1999/xlink" width="32" height="32" viewBox="0 0 32 32">
  <defs>
    <path id="-157-a" d="M26.94,13.6123606 L22.957,20.3479243 L22.557,26.8566037 L3.583,16.1630593 L9.157,12.5708919 L13.141,5.83432873 C15.341,2.11522613 20.214,0.83987678 24.023,2.98878046 C27.834,5.13568516 29.14,9.89225848 26.94,13.6123606 L26.94,13.6123606 Z M10.58,25.7201835 C9.151,24.9145944 8.661,23.1315041 9.486,21.736216 L14.661,24.652728 C13.836,26.0480162 12.009,26.524773 10.58,25.7201835 L10.58,25.7201835 Z M25.02,1.30364018 C20.257,-1.3799907 14.166,0.212197007 11.416,4.86282437 L7.433,11.5983881 L0,16.3899435 L7.762,20.7647116 C6.387,23.0895256 7.202,26.0620091 9.584,27.4033248 C11.966,28.7466394 15.011,27.9500458 16.386,25.6252319 L24.147,30 L24.682,21.3194286 L28.665,14.5838649 C31.415,9.93423706 29.783,3.98927004 25.02,1.30364018 L25.02,1.30364018 Z"/>
  </defs>
  <use fill="#AAA" fill-rule="evenodd" xlink:href="#a"/>
</svg>
