<svg xmlns="http://www.w3.org/2000/svg" xmlns:xlink="http://www.w3.org/1999/xlink" width="32" height="32" viewBox="0 0 32 32">
  <defs>
    <path id="-245-a" d="M6.28571429,22 C9.56342857,22 12.2537143,19.4561053 12.5428571,16.2105263 L15.4285714,16.2105263 C15.5051429,16.2105263 15.584,16.1943158 15.6582857,16.1618947 C15.6708571,16.1561053 15.6788571,16.1456842 15.6902857,16.1387368 C15.7142857,16.126 15.7314286,16.1086316 15.7542857,16.0924211 C15.8102857,16.0518947 15.8571429,16.0044211 15.8948571,15.9476842 C15.9028571,15.9349474 15.9188571,15.928 15.9257143,15.9152632 L20.9051429,6.94736842 L22.1417143,6.94736842 L23.1268571,9.83168421 C20.9485714,10.8309474 19.4285714,13.0494737 19.4285714,15.6315789 C19.4285714,19.1492632 22.2434286,22 25.7142857,22 C29.1851429,22 32,19.1492632 32,15.6315789 C32,12.1138947 29.1851429,9.26315789 25.7142857,9.26315789 C25.1942857,9.26315789 24.6914286,9.33378947 24.2091429,9.45421053 L21.112,0.389052632 C21.0308571,0.156315789 20.8148571,0 20.5714286,0 L17.1428571,0 C16.8274286,0 16.5714286,0.259368421 16.5714286,0.578947368 C16.5714286,0.898526316 16.8274286,1.15789474 17.1428571,1.15789474 L20.1645714,1.15789474 L21.7474286,5.78947368 L11.7794286,5.78947368 L10.9234286,3.81989474 C10.8308571,3.60915789 10.6262857,3.47368421 10.4,3.47368421 L8,3.47368421 C7.68457143,3.47368421 7.42857143,3.73305263 7.42857143,4.05263158 C7.42857143,4.37221053 7.68457143,4.63157895 8,4.63157895 L10.0262857,4.63157895 L10.7771429,6.36031579 L8.85485714,9.82357895 C8.06971429,9.46694737 7.20228571,9.26315789 6.28571429,9.26315789 C2.81485714,9.26315789 0,12.1138947 0,15.6315789 C0,19.1492632 2.81485714,22 6.28571429,22 Z M25.1737143,15.8214737 C25.256,16.06 25.4777143,16.2105263 25.7142857,16.2105263 C25.7771429,16.2105263 25.8388571,16.2001053 25.9005714,16.1792632 C26.2,16.0750526 26.3565714,15.7450526 26.2548571,15.4428421 L24.5851429,10.5576842 C24.9497143,10.4731579 25.3257143,10.4210526 25.7142857,10.4210526 C28.5497143,10.4210526 30.8571429,12.7588421 30.8571429,15.6315789 C30.8571429,18.5043158 28.5497143,20.8421053 25.7142857,20.8421053 C22.8788571,20.8421053 20.5714286,18.5043158 20.5714286,15.6315789 C20.5714286,13.5612632 21.7782857,11.7850526 23.5074286,10.9444211 L25.1737143,15.8214737 Z M19.5942857,6.94736842 L15.4902857,14.3382105 L12.2811429,6.94736842 L19.5942857,6.94736842 Z M11.3531429,7.68494737 L14.5531429,15.0526316 L12.5428571,15.0526316 C12.3714286,13.1189474 11.3462857,11.4353684 9.85142857,10.3897895 L11.3531429,7.68494737 Z M9.28228571,11.4145263 C10.4285714,12.254 11.2057143,13.5566316 11.3702857,15.0526316 L7.26171429,15.0526316 L9.28228571,11.4145263 Z M6.28571429,10.4210526 C6.99771429,10.4210526 7.67657143,10.5692632 8.29371429,10.8355789 L5.78857143,15.3478947 C5.68914286,15.5273684 5.69028571,15.7462105 5.79314286,15.9245263 C5.89485714,16.1016842 6.08228571,16.2105263 6.28571429,16.2105263 L11.3702857,16.2105263 C11.0822857,18.8088421 8.92571429,20.8421053 6.28571429,20.8421053 C3.45028571,20.8421053 1.14285714,18.5043158 1.14285714,15.6315789 C1.14285714,12.7588421 3.45028571,10.4210526 6.28571429,10.4210526 Z"/>
  </defs>
  <use fill="#AAA" fill-rule="evenodd" xlink:href="#a"/>
</svg>
