<svg xmlns="http://www.w3.org/2000/svg" xmlns:xlink="http://www.w3.org/1999/xlink" width="32" height="32" viewBox="0 0 32 32">
  <defs>
    <path id="-24-a" d="M23,8 L3,8 C2.448,8 2,7.553 2,7 C2,6.448 2.448,6 3,6 L23,6 C23.552,6 24,6.448 24,7 C24,7.553 23.552,8 23,8 L23,8 Z M22,28 C22,29.104 21.104,30 20,30 L6,30 C4.896,30 4,29.104 4,28 L4,10 L22,10 L22,28 L22,28 Z M10,3 C10,2.447 10.448,2 11,2 L15,2 C15.552,2 16,2.447 16,3 L16,4 L10,4 L10,3 L10,3 Z M24,4 L18,4 L18,2 C18,0.896 17.104,0 16,0 L10,0 C8.896,0 8,0.896 8,2 L8,4 L2,4 C0.896,4 0,4.896 0,6 L0,8 C0,9.104 0.896,10 2,10 L2,28 C2,30.209 3.791,32 6,32 L20,32 C22.209,32 24,30.209 24,28 L24,10 C25.104,10 26,9.104 26,8 L26,6 C26,4.896 25.104,4 24,4 L24,4 Z M13,28 C13.552,28 14,27.553 14,27 L14,15 C14,14.448 13.552,14 13,14 C12.448,14 12,14.448 12,15 L12,27 C12,27.553 12.448,28 13,28 L13,28 Z M8,28 C8.552,28 9,27.553 9,27 L9,15 C9,14.448 8.552,14 8,14 C7.448,14 7,14.448 7,15 L7,27 C7,27.553 7.448,28 8,28 L8,28 Z M18,28 C18.552,28 19,27.553 19,27 L19,15 C19,14.448 18.552,14 18,14 C17.448,14 17,14.448 17,15 L17,27 C17,27.553 17.448,28 18,28 L18,28 Z"/>
  </defs>
  <use fill="#AAA" fill-rule="evenodd" xlink:href="#a"/>
</svg>
