<svg xmlns="http://www.w3.org/2000/svg" xmlns:xlink="http://www.w3.org/1999/xlink" width="32" height="32" viewBox="0 0 32 32">
  <defs>
    <path id="-7-a" d="M30,25 C30,26.104 29.073,26.656 28,27 C28,27 22.557,28.515 17,29.977 L17,5 L28,2 C29.104,2 30,2.896 30,4 L30,25 L30,25 Z M15,29.998 C9.538,28.53 4,27 4,27 C2.864,26.688 2,26.104 2,25 L2,4 C2,2.896 2.896,2 4,2 L15,5 L15,29.998 L15,29.998 Z M28,0 C28,0 22.211,1.594 16.95,3 C16.291,3.025 15.627,3 14.967,3 C9.955,1.656 4,0 4,0 C1.791,0 0,1.791 0,4 L0,25 C0,27.209 1.885,28.313 4,29 C4,29 9.393,30.5 14.967,32 L16.992,32 C22.612,30.5 28,29 28,29 C30.053,28.469 32,27.209 32,25 L32,4 C32,1.791 30.209,0 28,0 L28,0 Z"/>
  </defs>
  <use fill="#AAA" fill-rule="evenodd" xlink:href="#a"/>
</svg>
