<svg xmlns="http://www.w3.org/2000/svg" xmlns:xlink="http://www.w3.org/1999/xlink" width="32" height="32" viewBox="0 0 32 32">
  <defs>
    <path id="-233-a" d="M25.8986909,5.39650049 L21.9595846,2.32579303 L22.931103,1.1006205 L23.1365112,1.16529815 C24.1013072,1.46819694 26.2338175,3.1305608 26.7584175,3.98865061 L26.8699603,4.17132795 L25.8986909,5.39650049 Z M23.4982786,7.29807292 C23.2263928,7.81203811 23.0511112,8.29934227 22.9627234,8.78763388 L22.8713479,9.29295892 L18.8500784,6.15856126 L19.3223927,5.95070406 C19.7849968,5.7470435 20.2207111,5.46315303 20.6546825,5.08249294 L20.8488866,4.91166493 L23.6185357,7.07096054 L23.4982786,7.29807292 Z M22.1483112,14.2166071 L19.5143559,17.5378788 L11.5661801,11.3416607 L14.1998863,8.02038903 C15.0982047,6.88754261 15.5491068,6.31902109 17.1189232,6.30791233 L17.2279762,6.30717175 L23.1131071,10.8945949 L23.1380051,11.0000047 C23.4972826,12.5152392 23.0463806,13.0840076 22.1483112,14.2166071 L22.1483112,14.2166071 Z M13.8963802,24.6000863 L5.9591594,18.4125083 L10.8735188,12.2150559 L18.8112375,18.4026339 L13.8963802,24.6000863 Z M10.004331,29.5308935 C9.30295547,30.4153974 8.74897585,30.8434549 8.26097583,30.8782623 C8.23557991,30.8799904 8.20968603,30.8812247 8.18379215,30.8812247 C7.7498207,30.8812247 7.22297986,30.6104179 6.39960432,29.9685785 L2.47792659,26.9114484 C0.869020393,25.6571463 0.6516612,25.1054113 2.05590616,23.3346754 L5.25828182,19.2962717 L13.2067067,25.4924898 L10.004331,29.5308935 Z M23.0643071,0.0156651746 C22.5454336,-0.0583932093 22.2638377,0.144279901 22.1194295,0.326957248 L20.7238988,2.08658445 C20.5852172,2.2616091 20.5652988,2.50106454 20.673107,2.69657867 L21.0221764,3.32928413 L20.319556,3.14290386 C20.1021968,3.08489146 19.8721396,3.16067788 19.733209,3.33594938 C19.5763519,3.53393213 19.5756049,3.8133791 19.7314661,4.01506476 L19.9179519,4.25624823 L19.6776866,4.44485025 C18.9743192,4.99633835 18.2876334,5.23036284 17.4592783,5.20123321 L17.4229273,5.20049263 C17.340764,5.19802402 17.2605926,5.19703657 17.1826619,5.19703657 C15.1173761,5.19703657 14.3908537,5.98205544 13.3192454,7.33386781 L1.17501633,22.6479073 C-0.755571517,25.0829469 -0.134367407,26.2881237 1.78526533,27.7845968 L5.70694306,30.8419737 C6.73448188,31.6427917 7.50233498,32 8.19649011,32 C9.06667383,32 9.92092284,31.4337002 10.8852208,30.2174147 L14.4421435,25.7316984 C14.4610659,25.7079997 14.4750088,25.6820793 14.4892006,25.6566526 L14.5168373,25.6156736 L20.0207804,18.6884992 C20.0302417,18.6796122 20.0404498,18.6714658 20.0489151,18.6610976 L23.029201,14.9031284 C24.1433847,13.497994 24.7451684,12.5969503 24.1481153,10.4327174 L24.140397,10.4045753 C23.9215439,9.61585348 23.9885194,8.90415241 24.3552664,8.09592858 L24.4827439,7.81500044 L24.7663317,7.94065283 C25.0195439,8.05322158 25.2812215,7.97225108 25.434095,7.77920556 C25.5735236,7.60368719 25.5931929,7.36349116 25.4841399,7.1674833 L25.1305888,6.53107493 L25.8379399,6.72066439 C25.8929644,6.73547607 25.9405195,6.74263504 25.983593,6.74263504 C26.1571317,6.74263504 26.3177236,6.66536746 26.4245358,6.5305812 L27.8198175,4.770954 C27.9647237,4.58802979 28.0969318,4.26883816 27.9019808,3.78696494 C27.3960542,2.53389709 24.4117847,0.207476389 23.0643071,0.0156651746 L23.0643071,0.0156651746 Z"/>
  </defs>
  <use fill="#AAA" fill-rule="evenodd" xlink:href="#a"/>
</svg>
