<svg xmlns="http://www.w3.org/2000/svg" xmlns:xlink="http://www.w3.org/1999/xlink" width="32" height="32" viewBox="0 0 32 32">
  <defs>
    <path id="-70-a" d="M10,30 L2,30 L2,16 C2,14.896 2.896,14 4,14 L8,14 C9.104,14 10,14.896 10,16 L10,30 L10,30 Z M5,6 L7,6 L7,12 L5,12 L5,6 Z M5,2 L7,2 L7,4 L5,4 L5,2 Z M9.014,12 L9,12 L9,1 C9,0.448 8.553,0 8,0 L4,0 C3.447,0 3,0.448 3,1 L3,12 L2.987,12 C0.969,12 0,13.791 0,16 L0,32 L12,32 L12,16 C12,13.791 10.98,12 9.014,12 L9.014,12 Z"/>
  </defs>
  <use fill="#AAA" fill-rule="evenodd" xlink:href="#a"/>
</svg>
