<svg xmlns="http://www.w3.org/2000/svg" xmlns:xlink="http://www.w3.org/1999/xlink" width="32" height="32" viewBox="0 0 32 32">
  <defs>
    <path id="-23-a" d="M30,13 L2,13 L2,8 C2,6.896 2.896,6 4,6 L28,6 C29.104,6 30,6.896 30,8 L30,13 L30,13 Z M14,16 C14,15.634 14.105,15.296 14.277,15 L17.723,15 C17.895,15.296 18,15.634 18,16 C18,17.104 17.104,18 16,18 C14.896,18 14,17.104 14,16 L14,16 Z M30,26 C30,27.104 29.104,28 28,28 L4,28 C2.896,28 2,27.104 2,26 L2,15 L12.142,15 C12.058,15.321 12,15.652 12,16 C12,18.209 13.791,20 16,20 C18.209,20 20,18.209 20,16 C20,15.652 19.942,15.321 19.858,15 L30,15 L30,26 L30,26 Z M12,3 C12,2.448 12.448,2 13,2 L19,2 C19.552,2 20,2.448 20,3 L20,4 L12,4 L12,3 L12,3 Z M28,4 L22,4 L22,2 C22,0.896 21.104,0 20,0 L12,0 C10.896,0 10,0.896 10,2 L10,4 L4,4 C1.791,4 0,5.791 0,8 L0,26 C0,28.209 1.791,30 4,30 L28,30 C30.209,30 32,28.209 32,26 L32,8 C32,5.791 30.209,4 28,4 L28,4 Z"/>
  </defs>
  <use fill="#AAA" fill-rule="evenodd" xlink:href="#a"/>
</svg>
