<svg xmlns="http://www.w3.org/2000/svg" xmlns:xlink="http://www.w3.org/1999/xlink" width="32" height="32" viewBox="0 0 32 32">
  <defs>
    <path id="-114-a" d="M9,4 C8.448,4 8,4.448 8,5 C8,5.553 8.448,6 9,6 C9.552,6 10,5.553 10,5 C10,4.448 9.552,4 9,4 L9,4 Z M13,4 C12.448,4 12,4.448 12,5 C12,5.553 12.448,6 13,6 C13.552,6 14,5.553 14,5 C14,4.448 13.552,4 13,4 L13,4 Z M30,8 L2,8 L2,4 C2,2.896 2.896,2 4,2 L28,2 C29.104,2 30,2.896 30,4 L30,8 L30,8 Z M30,28 C30,29.104 29.104,30 28,30 L4,30 C2.896,30 2,29.104 2,28 L2,10 L30,10 L30,28 L30,28 Z M28,0 L4,0 C1.791,0 0,1.791 0,4 L0,28 C0,30.209 1.791,32 4,32 L28,32 C30.209,32 32,30.209 32,28 L32,4 C32,1.791 30.209,0 28,0 L28,0 Z M5,4 C4.448,4 4,4.448 4,5 C4,5.553 4.448,6 5,6 C5.552,6 6,5.553 6,5 C6,4.448 5.552,4 5,4 L5,4 Z"/>
  </defs>
  <use fill="#AAA" fill-rule="evenodd" xlink:href="#a"/>
</svg>
