<svg xmlns="http://www.w3.org/2000/svg" xmlns:xlink="http://www.w3.org/1999/xlink" width="32" height="32" viewBox="0 0 32 32">
  <defs>
    <path id="-30-a" d="M29.85,17 L9.15,17 C8.51405,17 8,17.448 8,18 C8,18.553 8.51405,19 9.15,19 L29.85,19 C30.48595,19 31,18.553 31,18 C31,17.448 30.48595,17 29.85,17 L29.85,17 Z M2,0 C0.896,0 0,0.896 0,2 C0,3.104 0.896,4 2,4 C3.104,4 4,3.104 4,2 C4,0.896 3.104,0 2,0 L2,0 Z M9.15,3 L29.85,3 C30.48595,3 31,2.553 31,2 C31,1.447 30.48595,1 29.85,1 L9.15,1 C8.51405,1 8,1.447 8,2 C8,2.553 8.51405,3 9.15,3 L9.15,3 Z M29.85,9 L9.15,9 C8.51405,9 8,9.448 8,10 C8,10.553 8.51405,11 9.15,11 L29.85,11 C30.48595,11 31,10.553 31,10 C31,9.448 30.48595,9 29.85,9 L29.85,9 Z M2,8 C0.896,8 0,8.896 0,10 C0,11.104 0.896,12 2,12 C3.104,12 4,11.104 4,10 C4,8.896 3.104,8 2,8 L2,8 Z M2,16 C0.896,16 0,16.896 0,18 C0,19.104 0.896,20 2,20 C3.104,20 4,19.104 4,18 C4,16.896 3.104,16 2,16 L2,16 Z"/>
  </defs>
  <use fill="#AAA" fill-rule="evenodd" xlink:href="#a"/>
</svg>
