<svg xmlns="http://www.w3.org/2000/svg" xmlns:xlink="http://www.w3.org/1999/xlink" width="32" height="32" viewBox="0 0 32 32">
  <defs>
    <path id="-55-a" d="M14,24 L16,24 L16,26 L14,26 L14,24 Z M14,28 L16,28 C17.104,28 18,27.104 18,26 L18,24 C18,22.896 17.104,22 16,22 L14,22 C12.896,22 12,22.896 12,24 L12,26 C12,27.104 12.896,28 14,28 L14,28 Z M6,24 L8,24 L8,26 L6,26 L6,24 Z M6,28 L8,28 C9.104,28 10,27.104 10,26 L10,24 C10,22.896 9.104,22 8,22 L6,22 C4.896,22 4,22.896 4,24 L4,26 C4,27.104 4.896,28 6,28 L6,28 Z M14,16 L16,16 L16,18 L14,18 L14,16 Z M14,20 L16,20 C17.104,20 18,19.104 18,18 L18,16 C18,14.896 17.104,14 16,14 L14,14 C12.896,14 12,14.896 12,16 L12,18 C12,19.104 12.896,20 14,20 L14,20 Z M6,16 L8,16 L8,18 L6,18 L6,16 Z M6,20 L8,20 C9.104,20 10,19.104 10,18 L10,16 C10,14.896 9.104,14 8,14 L6,14 C4.896,14 4,14.896 4,16 L4,18 C4,19.104 4.896,20 6,20 L6,20 Z M28,8 L2,8 L2,6 C2,4.896 2.896,4 4,4 L8,4 L8,5 C8,5.553 8.447,6 9,6 C9.553,6 10,5.553 10,5 L10,4 L20,4 L20,5 C20,5.553 20.447,6 21,6 C21.553,6 22,5.553 22,5 L22,4 L26,4 C27.104,4 28,4.896 28,6 L28,8 L28,8 Z M28,28 C28,29.104 27.104,30 26,30 L4,30 C2.896,30 2,29.104 2,28 L2,10 L28,10 L28,28 L28,28 Z M26,2 L22,2 L22,1 C22,0.448 21.553,0 21,0 C20.447,0 20,0.448 20,1 L20,2 L10,2 L10,1 C10,0.448 9.553,0 9,0 C8.447,0 8,0.448 8,1 L8,2 L4,2 C1.791,2 0,3.791 0,6 L0,28 C0,30.209 1.791,32 4,32 L26,32 C28.209,32 30,30.209 30,28 L30,6 C30,3.791 28.209,2 26,2 L26,2 Z M22,16 L24,16 L24,18 L22,18 L22,16 Z M22,20 L24,20 C25.104,20 26,19.104 26,18 L26,16 C26,14.896 25.104,14 24,14 L22,14 C20.896,14 20,14.896 20,16 L20,18 C20,19.104 20.896,20 22,20 L22,20 Z M22,24 L24,24 L24,26 L22,26 L22,24 Z M22,28 L24,28 C25.104,28 26,27.104 26,26 L26,24 C26,22.896 25.104,22 24,22 L22,22 C20.896,22 20,22.896 20,24 L20,26 C20,27.104 20.896,28 22,28 L22,28 Z"/>
  </defs>
  <use fill="#AAA" fill-rule="evenodd" xlink:href="#a"/>
</svg>
