<svg xmlns="http://www.w3.org/2000/svg" xmlns:xlink="http://www.w3.org/1999/xlink" width="32" height="32" viewBox="0 0 32 32">
  <defs>
    <path id="-74-a" d="M16,22 C12.687,22 10,19.313 10,16 C10,12.687 12.687,10 16,10 C19.313,10 22,12.687 22,16 C22,19.313 19.313,22 16,22 L16,22 Z M16,8 C11.582,8 8,11.582 8,16 C8,20.418 11.582,24 16,24 C20.418,24 24,20.418 24,16 C24,11.582 20.418,8 16,8 L16,8 Z M30,24 C30,25.104 29.104,26 28,26 L4,26 C2.896,26 2,25.104 2,24 L2,8 C2,6.896 2.896,6 4,6 L8,6 L9,4 C9.707,2.837 9.896,2 11,2 L21,2 C22.104,2 22.293,2.837 23,4 L24,6 L28,6 C29.104,6 30,6.896 30,8 L30,24 L30,24 Z M28,4 L25,4 L24,2 C23.411,0.837 23.104,0 22,0 L10,0 C8.896,0 8.53,0.954 8,2 L7,4 L4,4 C1.791,4 0,5.791 0,8 L0,24 C0,26.209 1.791,28 4,28 L28,28 C30.209,28 32,26.209 32,24 L32,8 C32,5.791 30.209,4 28,4 L28,4 Z"/>
  </defs>
  <use fill="#AAA" fill-rule="evenodd" xlink:href="#a"/>
</svg>
