<svg xmlns="http://www.w3.org/2000/svg" xmlns:xlink="http://www.w3.org/1999/xlink" width="32" height="32" viewBox="0 0 32 32">
  <defs>
    <path id="-223-a" d="M30,6 L30,4.15630522 C30,3.01182473 29.1051475,2.08333333 27.9957423,2.08333333 L4.0042577,2.08333333 C2.89358858,2.08333333 2,3.01145152 2,4.15630522 L2,6 L30,6 Z M30,11 L2,11 L2,20.8436948 C2,21.9881753 2.89485251,22.9166667 4.0042577,22.9166667 L27.9957423,22.9166667 C29.1064114,22.9166667 30,21.9885485 30,20.8436948 L30,11 Z M0,4.15630522 C0,1.86084123 1.78902751,0 4.0042577,0 L27.9957423,0 C30.2072328,0 32,1.85863883 32,4.15630522 L32,20.8436948 C32,23.1391588 30.2109725,25 27.9957423,25 L4.0042577,25 C1.79276724,25 0,23.1413612 0,20.8436948 L0,4.15630522 Z"/>
  </defs>
  <g fill="none" fill-rule="evenodd" transform="translate(0 4)">
    <use fill="#AAA" fill-rule="nonzero" xlink:href="#-223-a"/>
  </g>
</svg>
