<svg xmlns="http://www.w3.org/2000/svg" xmlns:xlink="http://www.w3.org/1999/xlink" width="32" height="32" viewBox="0 0 32 32">
  <defs>
    <path id="-128-a" d="M24,26 C22.896,26 22,26.896 22,28 C22,29.104 22.896,30 24,30 C25.104,30 26,29.104 26,28 C26,26.896 25.104,26 24,26 L24,26 Z M14,26 C12.896,26 12,26.896 12,28 C12,29.104 12.896,30 14,30 C15.104,30 16,29.104 16,28 C16,26.896 15.104,26 14,26 L14,26 Z M27,20 C27,21.104 26.104,22 25,22 L14,22 C12.896,22 12,21.104 12,20 L10.333,10 L29.5,10 L27,20 L27,20 Z M9.97,8 L7.475,0 L1,0 C0.447,0 0,0.448 0,1 C0,1.553 0.447,2 1,2 L6,2 L8.011,8 L8,8 L10,20 C10,22.209 11.791,24 14,24 L25,24 C27.209,24 29,22.209 29,20 L32,8 L9.97,8 L9.97,8 Z"/>
  </defs>
  <use fill="#AAA" fill-rule="evenodd" xlink:href="#a"/>
</svg>
