<svg xmlns="http://www.w3.org/2000/svg" xmlns:xlink="http://www.w3.org/1999/xlink" width="32" height="32" viewBox="0 0 32 32">
  <defs>
    <path id="-243-a" d="M6.24622131,30.6121874 C5.77788283,29.009205 5.42068212,27.3731549 5.27600804,25.7033705 C5.24104188,25.2998915 5.21803441,24.8953457 5.20776554,24.4904 C5.19710672,24.0673204 5.19892652,23.6461075 5.24195178,23.2248946 C5.38857566,21.7848505 5.89629981,20.3989414 6.53244983,19.1155688 C6.97414124,18.2246082 7.48758476,17.3713821 8.04977292,16.5553571 C8.58596394,15.7769333 9.16738999,15.0313105 9.80483987,14.3375559 C11.1425227,12.9360463 12.5444185,11.599072 13.8588339,10.1747618 C13.9586629,10.0546248 14.0250856,9.90942032 14.0805895,9.76328252 C14.1605307,9.5526094 14.2188943,9.33246933 14.2660791,9.11192924 C14.4416898,8.29270416 14.5187713,7.4553452 14.6354985,6.62625315 C14.6639654,6.43691402 14.6638354,6.43771405 14.694512,6.2479749 C14.7566452,5.89783085 14.8274874,5.55248695 14.9447345,5.21701001 L14.9745012,5.13860761 L15.0116771,5.04887153 C15.0593819,4.95393529 15.1086464,4.8605991 15.1607707,4.76806293 C15.6327488,3.97043852 16.2974957,3.29708457 17.085859,2.83053695 C17.1223849,2.81000299 17.1326538,2.75986812 17.1554013,2.72400036 C17.2383322,2.59306302 17.3230829,2.46359239 17.4090034,2.33478844 C17.5519877,2.12464868 17.6977017,1.91704232 17.8509548,1.71476946 C17.9533835,1.57943199 18.058542,1.44622791 18.16734,1.31609059 C18.2602798,1.20502053 18.3555593,1.09608386 18.4542184,0.990347288 C18.6693448,0.75967356 18.9001994,0.540733524 19.157831,0.360594677 C19.3474802,0.228190623 19.5537675,0.115787182 19.7757831,0.0527185851 C19.867163,0.0268511265 19.958153,0.0129840354 20.0521327,0.00218370473 C20.1318139,-0.000883055819 20.131164,-0.000483043574 20.2114951,0.0019170299 C20.2870168,0.0144507469 20.3072946,0.0139173973 20.3795666,0.041784917 C20.5424387,0.104986852 20.676194,0.235390844 20.7457364,0.399262527 C20.776543,0.471798081 20.7770629,0.492598718 20.7930512,0.569401069 C20.8022801,0.690604779 20.8022801,0.812208502 20.8089094,0.933678887 C20.839846,1.34622485 20.9080885,1.76277093 21.0608217,2.14771605 C21.1156757,2.28612029 21.1817084,2.4247912 21.2749082,2.54066141 C21.3109142,2.58559612 21.3551093,2.63559765 21.4093134,2.65773166 C21.4446695,2.67213211 21.4878247,2.6653319 21.5239608,2.66733196 C21.5485281,2.66853199 21.5729654,2.67093207 21.5975327,2.67279879 C21.6698047,2.68199907 21.6692848,2.68186574 21.7411669,2.69453279 C21.8555543,2.72040025 21.9661721,2.75386794 22.0735403,2.80226942 C22.6328688,3.05481049 23.012947,3.59042688 23.3371313,4.09884245 C23.4071936,4.20871248 23.476736,4.31898252 23.5467983,4.42885255 C23.5915133,4.49912137 23.6376583,4.56832349 23.6844531,4.63725893 C23.722019,4.6905939 23.7602348,4.74286216 23.8005303,4.79406373 C23.8864509,4.89566684 23.9873198,4.97766935 24.0914383,5.05913851 C24.3507598,5.25594454 24.6191803,5.43981683 24.8788917,5.63635618 C25.2914663,5.957166 25.7204192,6.32704399 25.9090284,6.83865965 C26.0258856,7.15506934 26.0100273,7.49294635 25.9722015,7.82415649 C25.9133179,8.33923892 25.7474562,8.8416543 25.4499189,9.26446725 C25.240252,9.56247637 24.9713116,9.81221735 24.6679249,10.0066233 C23.9718515,10.4523703 23.1356535,10.6009082 22.3285723,10.6473096 C21.9618826,10.6683769 21.594933,10.66051 21.2279833,10.6693103 C21.1232148,10.6739771 21.0194863,10.6810439 20.9152377,10.6913109 C20.6702147,10.7214452 20.4212921,10.7769135 20.213055,10.9193179 C19.9012193,11.1323911 19.7439366,11.5072026 19.6513867,11.8661469 C19.630459,11.9476161 19.612391,12.0298852 19.5969227,12.1125544 C19.5793747,12.2061573 19.5649463,12.3002935 19.5529876,12.3948297 C19.539599,12.5009663 19.5292002,12.6075029 19.521401,12.7143062 C19.5094424,12.8759111 19.5030731,13.0380494 19.5008633,13.2001877 C19.4978736,13.4219278 19.5024231,13.6439346 19.5137319,13.8654081 C19.5247807,14.0832814 19.5425887,14.3007548 19.5659861,14.5175614 C19.5983526,14.8173039 19.6405979,15.1163797 19.6929822,15.4133221 C19.7682439,15.8405352 19.8567642,16.2648149 19.9524336,16.6877612 C20.0703307,17.2084438 20.1956369,17.7272596 20.3140539,18.2476756 C20.3734573,18.5164838 20.3733273,18.5159505 20.4303911,18.7847587 C20.5437386,19.3447758 20.6449974,19.906393 20.7101203,20.4745437 C20.7682239,20.9805592 20.7966908,21.4880414 20.7998104,21.9973904 L20.7998104,27.9997074 L21.4566282,27.9997074 C21.5526876,28.0018408 21.5519077,28.0018408 21.6484871,28.008241 C21.8751821,28.0333085 22.094728,28.0822433 22.304005,28.1774462 C22.7758531,28.3921195 23.1342236,28.8051988 23.2952759,29.3073475 C23.3568891,29.4994867 23.385096,29.6961594 23.3975747,29.8973655 C23.4074536,30.3759135 23.3995245,30.8545948 23.3995245,31.3331428 C23.3938051,31.4227456 23.3839262,31.5044814 23.3501299,31.5883506 C23.2734383,31.7782231 23.1114761,31.9239609 22.9177974,31.9771625 C22.8446155,31.9972965 22.8248577,31.9947631 22.7495959,31.9998299 L7.15131175,31.9998299 L7.14403256,31.9994299 C7.08709882,32.0008966 7.06604113,31.9991632 6.97674096,31.9983632 C6.18239833,31.9766292 5.39026547,31.8723593 4.6390781,31.5962175 C4.10847647,31.4012782 3.6063417,31.1231364 3.16854986,30.7575252 C2.95745308,30.5811198 2.7618246,30.3852471 2.58491406,30.1727073 C1.73480757,29.1517427 1.37929668,27.8126351 1.31391387,26.4933947 C1.29168631,26.0437809 1.30052534,25.5936338 1.35147974,25.1462868 C1.38943556,24.8125432 1.44831908,24.4815997 1.52319085,24.1545231 C1.86310346,22.672211 2.52824029,21.2999023 3.13579346,19.9199934 C3.2254836,19.7122537 3.31426383,19.5042474 3.39953445,19.294641 C3.60621172,18.7752917 3.80599974,18.2392753 3.87801182,17.6797915 C3.90153923,17.4971193 3.9027091,17.3159137 3.90062933,17.1317748 C3.89776964,16.890434 3.8899705,16.6490933 3.87203248,16.4085526 C3.85136475,16.1300108 3.81873834,15.8502689 3.75166572,15.5790606 C3.70565078,15.3927882 3.64312765,15.2042491 3.53692934,15.0441108 C3.49377408,14.9790422 3.44255972,14.9195737 3.38250632,14.8705055 C3.18245833,14.7074339 2.9072786,14.6718328 2.66017578,14.6666326 C2.62767935,14.6659659 2.58985351,14.666766 2.55657718,14.6643659 C2.47117657,14.6582324 2.38928558,14.6455653 2.30323504,14.6511655 C1.99685874,14.6710328 1.70166122,14.830371 1.50785253,15.0738451 C1.43376069,15.1670479 1.37448721,15.2729178 1.33640139,15.386788 C1.32561258,15.4189223 1.31651358,15.45159 1.30923438,15.4845243 C1.30650468,15.4965247 1.30208517,15.5082584 1.30195518,15.5205254 C1.30130526,15.6801303 1.30195518,15.8397352 1.30195518,15.9993401 L1.29870554,16.0668088 C1.28167741,16.1805456 1.25022087,16.2848155 1.185488,16.3801517 C1.14792213,16.4356201 1.10203717,16.4852216 1.04991291,16.5265562 C0.799300476,16.7254956 0.434040654,16.7065617 0.20435592,16.4825549 C0.0884086738,16.3696181 0.0292651796,16.2264137 0.0054777962,16.0668088 C-0.00440111712,15.8668027 0.00209816796,15.6662632 0.00209816796,15.4659904 C0.0109371957,15.23305 0.0808695031,14.9970427 0.17107958,14.7842362 C0.414152842,14.2104853 0.881971382,13.751938 1.4427297,13.5092639 C1.69100239,13.4017939 1.95279359,13.3412587 2.22108408,13.3203247 C2.29959544,13.3161913 2.37758686,13.3152579 2.45622821,13.317258 C2.51979122,13.3205914 2.58374419,13.3304584 2.64717721,13.3331251 C2.74518643,13.3369919 2.8426757,13.338592 2.94055494,13.3479256 C3.18128846,13.3707263 3.42059213,13.4208612 3.64676725,13.5097972 C3.7936511,13.5675323 3.93468558,13.6415346 4.06532121,13.7316707 C4.17320935,13.8063396 4.27394826,13.8918089 4.36558818,13.9866118 C4.86356341,14.5011609 5.04944296,15.2361167 5.13263381,15.9352048 C5.14732219,16.0586752 5.15889092,16.182679 5.16811991,16.3066828 C5.17786883,16.4373535 5.18501805,16.5688242 5.19008749,16.6997615 C5.20529582,17.0843066 5.21608463,17.4716518 5.16682005,17.8541969 C5.12158502,18.2066077 5.03605443,18.5527516 4.93102599,18.8910286 C4.79259121,19.3367756 4.61919029,19.7703889 4.43695033,20.198802 C4.20648569,20.7408186 3.96055274,21.2759016 3.72332883,21.8148514 C3.6245397,22.0437918 3.52666047,22.2729988 3.43190089,22.5038059 C3.26577916,22.9163518 3.10901641,23.3327646 2.97799082,23.7586443 C2.87868174,24.0811875 2.79341112,24.4085308 2.72919819,24.7404077 C2.67564408,25.0177495 2.63664837,25.2984248 2.61689054,25.5805667 C2.59713271,25.8617753 2.59830259,26.144184 2.61221106,26.4257926 C2.66602514,27.5142259 2.94744418,28.648794 3.70357101,29.453752 C3.83914609,29.598023 3.98745978,29.7293604 4.14604233,29.8464306 C4.46203757,30.0796378 4.81624861,30.2540431 5.185408,30.3789803 C5.53129996,30.4959172 5.88681085,30.5688528 6.24622131,30.6121874 Z M19.5836642,1.71903626 C19.2913264,2.00291162 19.0327848,2.32065468 18.7902315,2.64959808 C18.5449485,2.98240827 18.3168235,3.32815219 18.1029971,3.68282971 L18.0519127,3.75616529 C17.9912094,3.82203397 17.9915993,3.82163396 17.9232268,3.87830236 C17.8175485,3.94377103 17.7074506,4.00070611 17.6017722,4.06644146 C17.2118151,4.32124926 16.8647533,4.64192574 16.5751451,5.01193707 C16.4291712,5.19847611 16.2908664,5.39981561 16.1892176,5.61582222 C16.1387831,5.72289216 16.1091464,5.84409587 16.0802896,5.95863271 C16.0236158,6.18490631 15.9835802,6.4154467 15.9477042,6.64598709 C15.8571041,7.22773823 15.7935411,7.81362283 15.7115201,8.39657401 C15.6811035,8.60071359 15.6812335,8.59991357 15.6486071,8.80431983 C15.5747752,9.23073288 15.4921043,9.65674592 15.3557493,10.0674252 C15.2661891,10.3366334 15.1540115,10.6009082 14.9986785,10.8375821 C14.9459043,10.9181179 14.8874108,10.9923868 14.8260575,11.0662557 C13.5411489,12.4584317 12.1846181,13.7792721 10.8630535,15.1349136 C10.2917663,15.7333319 9.77585305,16.3860186 9.29490596,17.0624393 C8.6963218,17.9045984 8.15194169,18.7904922 7.69114237,19.7199873 C7.37345732,20.3609403 7.09489796,21.0244272 6.88328124,21.7104482 C6.70936037,22.2740655 6.5800246,22.8546166 6.52699043,23.4441013 C6.49670376,23.7807783 6.49865355,24.1178553 6.5072326,24.4557323 C6.51685155,24.8328105 6.53829919,25.209622 6.57079561,25.5853669 C6.72079911,27.3174199 7.1145258,29.0110717 7.62315985,30.6664557 L22.0996674,30.6664557 C22.0996674,30.4288485 22.103437,30.1912412 22.0986275,29.9537673 C22.0960278,29.911766 22.0918683,29.8708314 22.085629,29.8292301 C22.0726304,29.7625614 22.0552123,29.6980261 22.0251856,29.6372242 C21.9617526,29.5084203 21.8511348,29.4184175 21.7184194,29.3736162 C21.6456274,29.3490821 21.5707556,29.3392151 21.494584,29.3341483 C21.0465233,29.324548 20.5982026,29.3330816 20.1498819,29.3330816 C20.0626615,29.3272148 19.9829803,29.3170811 19.9012193,29.2824134 C19.7161196,29.2037443 19.5740453,29.0374725 19.522181,28.8389331 C19.5025531,28.7638642 19.5048929,28.7435969 19.4999534,28.6663945 C19.4999534,26.3971251 19.5134719,24.1278556 19.4990435,21.8587195 C19.4872148,21.2251001 19.4282013,20.5958808 19.3278523,19.9706617 C19.1523716,18.8767615 18.8684829,17.804862 18.6272294,16.725229 C18.5697757,16.4581541 18.5699057,16.4586875 18.5147918,16.1909459 C18.4349806,15.7788 18.3611487,15.3659874 18.3077245,14.9493079 C18.2644393,14.6124976 18.2328528,14.2742206 18.2155647,13.9348769 C18.2028261,13.6840692 18.1977566,13.4327282 18.2011363,13.1816538 C18.203736,12.992048 18.2112752,12.8025756 18.2251836,12.6135031 C18.2897865,11.7376096 18.4923042,10.7977142 19.103757,10.1434275 C19.1825283,10.0590249 19.267409,9.9806225 19.3573591,9.90902031 C19.4861749,9.80648384 19.6255196,9.71848114 19.7720135,9.64554558 C20.1700297,9.44713951 20.6106812,9.36753707 21.049383,9.34260297 C21.3569291,9.32513577 21.6655152,9.33393604 21.9733213,9.32753584 C22.1152657,9.3227357 22.1147458,9.3227357 22.2561702,9.31593549 C22.3770569,9.30793524 22.4979436,9.29953499 22.6184404,9.28633458 C22.7151497,9.27566759 22.8117291,9.26273386 22.9076586,9.24673337 C23.4367004,9.15913069 24.0163066,8.97952519 24.3616786,8.53004476 C24.4095134,8.46790953 24.4520187,8.4015075 24.4888046,8.33190536 C24.5641963,8.18910099 24.6154107,8.03442959 24.6481671,7.87589141 C24.6716945,7.76242126 24.685863,7.6470844 24.6932721,7.53134752 C24.6952219,7.49894653 24.6967818,7.46654554 24.6978216,7.43414455 C24.6989915,7.39561004 24.7066607,7.35560881 24.6957419,7.31840767 C24.6849531,7.28694004 24.6684449,7.25880585 24.6508968,7.23093833 C24.5084325,7.01853183 24.2981156,6.85799358 24.1002774,6.7041222 C23.839916,6.5070495 23.5708456,6.32251052 23.3106142,6.12517114 C23.1816684,6.02423472 23.0537625,5.9211649 22.9389851,5.80302795 C22.821738,5.68222425 22.721519,5.54688678 22.6242897,5.40901589 C22.4434796,5.1424744 22.2778778,4.86553258 22.0973277,4.59872442 C21.9870998,4.44125293 21.8731024,4.28298142 21.7320679,4.15257743 C21.6686348,4.09377563 21.5955829,4.03404046 21.5121321,4.00870635 C21.467157,3.99510594 21.4186723,3.99843937 21.3725274,3.997106 C21.2958359,3.9907058 21.2963558,3.99083914 21.2197942,3.98003881 C21.0961778,3.95563806 20.9773709,3.9219037 20.8624635,3.86803538 C20.3300421,3.61856108 20.0057278,3.07134433 19.8104892,2.5281277 C19.7662941,2.4051906 19.7279483,2.28025344 19.694282,2.15398291 C19.6607457,2.02811239 19.6335787,1.90104183 19.6075816,1.77343793 L19.5957529,1.70770258 C19.5917233,1.71143603 19.5876938,1.71530281 19.5836642,1.71903626 Z"/>
  </defs>
  <use fill="#AAA" fill-rule="evenodd" xlink:href="#a"/>
</svg>
