<svg xmlns="http://www.w3.org/2000/svg" xmlns:xlink="http://www.w3.org/1999/xlink" width="32" height="32" viewBox="0 0 32 32">
  <defs>
    <path id="-18-a" d="M28,21 C28,22.229 27.206,23 26,23 L6,23 C4.794,23 4,22.229 4,21 C4,21 3.985,3.257 3.985,1.99 L28.015,1.99 C28.015,4.007 28,21 28,21 L28,21 Z M0,0 L0,2 L2,2 L2,21 C2,23.37 3.644,25 6,25 L12,25 L8,32 L11.012,31.987 L15,25 L17,25 L20.988,31.987 L24,32 L20,25 L26,25 C28.356,25 30,23.37 30,21 L30,2 L32,2 L32,0 L0,0 L0,0 Z M10,20 C10.553,20 11,19.553 11,19 L11,15 C11,14.448 10.553,14 10,14 C9.447,14 9,14.448 9,15 L9,19 C9,19.553 9.447,20 10,20 L10,20 Z M22,20 C22.553,20 23,19.553 23,19 L23,10 C23,9.448 22.553,9 22,9 C21.447,9 21,9.448 21,10 L21,19 C21,19.553 21.447,20 22,20 L22,20 Z M16,20 C16.553,20 17,19.553 17,19 L17,7 C17,6.448 16.553,6 16,6 C15.447,6 15,6.448 15,7 L15,19 C15,19.553 15.447,20 16,20 L16,20 Z"/>
  </defs>
  <use fill="#AAA" fill-rule="evenodd" xlink:href="#a"/>
</svg>
