<svg xmlns="http://www.w3.org/2000/svg" xmlns:xlink="http://www.w3.org/1999/xlink" width="32" height="32" viewBox="0 0 32 32">
  <defs>
    <path id="-241-a" d="M26.0200748,3.61503641 C20.1031293,15.5622909 16.0251919,27.3111592 16.0251919,27.3111592 L15.5811848,27.2985633 L13.228892,21.7374533 C12.4321984,19.489077 11.1505609,16.9667388 9.9476481,15.8519976 L8.26608935,14.9734304 C6.59712655,14.831726 6.14367251,15.9811061 5.56740799,15.9212753 C5.99881913,14.3404842 7.29620154,13.1029325 9.10686873,13.1407203 L10.6215312,13.4650659 C12.8415666,14.4947845 13.8870301,15.8960834 15.2033064,19.007282 L15.6473135,19.8575084 C15.6473135,19.8575084 19.6465263,10.5018697 21.6650266,6.17201338 C21.6650266,6.17201338 22.4333793,4.25428065 23.7937414,2.10352293 C21.4823854,0.799842551 18.8498327,0 16.003149,0 C7.16709309,0 0,7.16079512 0,16.003149 C0,24.8392049 7.16709309,32 16.003149,32 C24.8392049,32 32,24.8392049 32,16.003149 C32,10.9773667 29.6382602,6.54989175 26.0200748,3.61503641"/>
  </defs>
  <use fill="#AAA" fill-rule="evenodd" xlink:href="#a"/>
</svg>
