<svg xmlns="http://www.w3.org/2000/svg" xmlns:xlink="http://www.w3.org/1999/xlink" width="32" height="32" viewBox="0 0 32 32">
  <defs>
    <path id="-201-a" d="M22.4841131,9.13386946 C21.9899142,8.85739469 21.3595269,9.02525437 21.0747692,9.48933702 L14.4768525,20.4298386 L10.7853206,17.171386 C10.3953265,16.776422 9.74224106,16.7566738 9.32645366,17.1318896 C8.91066625,17.4972313 8.88899991,18.1291736 9.27899406,18.5241376 L13.996066,22.6910073 C14.3850285,23.0859713 15.0381139,23.1057195 15.4539013,22.7305037 C15.5797724,22.6218886 22.8617265,10.4767469 22.8617265,10.4767469 C23.1464841,10.0126643 22.9772803,9.40047013 22.4841131,9.13386946 L22.4841131,9.13386946 Z M16,30 C8.268,30 2,23.73 2,16 C2,8.27 8.268,2 16,2 C23.732,2 30,8.27 30,16 C30,23.73 23.732,30 16,30 L16,30 Z M16,0 C7.164,0 0,7.16 0,16 C0,24.84 7.164,32 16,32 C24.836,32 32,24.84 32,16 C32,7.16 24.836,0 16,0 L16,0 Z"/>
  </defs>
  <use fill="#AAA" fill-rule="evenodd" xlink:href="#a"/>
</svg>
