<svg xmlns="http://www.w3.org/2000/svg" xmlns:xlink="http://www.w3.org/1999/xlink" width="32" height="32" viewBox="0 0 32 32">
  <defs>
    <path id="-190-a" d="M16,30 C8.268,30 2,23.73 2,16 C2,8.27 8.268,2 16,2 C23.732,2 30,8.27 30,16 C30,23.73 23.732,30 16,30 L16,30 Z M16,0 C7.163,0 0,7.16 0,16 C0,24.84 7.163,32 16,32 C24.837,32 32,24.84 32,16 C32,7.16 24.837,0 16,0 L16,0 Z M20.535,7.46 C20.145,7.07 19.512,7.07 19.121,7.46 L11.465,15.12 C11.225,15.36 11.15,15.69 11.205,16 C11.15,16.31 11.225,16.64 11.465,16.88 L19.121,24.54 C19.512,24.93 20.145,24.93 20.535,24.54 C20.926,24.14 20.926,23.51 20.535,23.12 L13.414,16 L20.535,8.88 C20.926,8.49 20.926,7.86 20.535,7.46 L20.535,7.46 Z"/>
  </defs>
  <use fill="#AAA" fill-rule="evenodd" xlink:href="#a"/>
</svg>
