<svg xmlns="http://www.w3.org/2000/svg" xmlns:xlink="http://www.w3.org/1999/xlink" width="32" height="32" viewBox="0 0 32 32">
  <defs>
    <path id="-176-a" d="M30,28 C30,29.1 29.104,30 28,30 L4,30 C2.896,30 2,29.1 2,28 L2,4 C2,2.896 2.896,2 4,2 L28,2 C29.104,2 30,2.896 30,4 L30,28 L30,28 Z M28,0 L4,0 C1.791,0 0,1.791 0,4 L0,28 C0,30.21 1.791,32 4,32 L28,32 C30.209,32 32,30.21 32,28 L32,4 C32,1.791 30.209,0 28,0 L28,0 Z M24.264,10.315 L15.984,18.62 L7.705,10.315 C7.313,9.921 6.675,9.921 6.282,10.315 C5.89,10.71 5.89,11.35 6.282,11.744 L15.223,20.72 C15.432,20.93 15.71,21.02 15.984,21 C16.259,21.02 16.537,20.93 16.746,20.72 L25.687,11.744 C26.079,11.35 26.079,10.71 25.687,10.315 C25.293,9.921 24.656,9.921 24.264,10.315 L24.264,10.315 Z"/>
  </defs>
  <use fill="#AAA" fill-rule="evenodd" xlink:href="#a"/>
</svg>
