<svg xmlns="http://www.w3.org/2000/svg" xmlns:xlink="http://www.w3.org/1999/xlink" width="32" height="32" viewBox="0 0 32 32">
  <defs>
    <path id="-174-a" d="M30,28 C30,29.1 29.104,30 28,30 L4,30 C2.896,30 2,29.1 2,28 L2,4 C2,2.896 2.896,2 4,2 L28,2 C29.104,2 30,2.896 30,4 L30,28 L30,28 Z M28,0 L4,0 C1.791,0 0,1.791 0,4 L0,28 C0,30.21 1.791,32 4,32 L28,32 C30.209,32 32,30.21 32,28 L32,4 C32,1.791 30.209,0 28,0 L28,0 Z M11.744,6.313 C11.35,5.921 10.71,5.921 10.315,6.313 C9.92,6.707 9.92,7.344 10.315,7.736 L18.624,16.016 L10.315,24.29 C9.92,24.69 9.92,25.33 10.315,25.72 C10.71,26.11 11.35,26.11 11.744,25.72 L20.716,16.777 C20.927,16.568 21.017,16.29 21.002,16.016 C21.017,15.741 20.927,15.464 20.716,15.254 L11.744,6.313 L11.744,6.313 Z"/>
  </defs>
  <use fill="#AAA" fill-rule="evenodd" xlink:href="#a"/>
</svg>
