<svg xmlns="http://www.w3.org/2000/svg" xmlns:xlink="http://www.w3.org/1999/xlink" width="32" height="32" viewBox="0 0 32 32">
  <defs>
    <path id="-191-a" d="M2,16 C2,8.27 8.268,2 16,2 C23.732,2 30,8.27 30,16 C30,23.73 23.732,30 16,30 C8.268,30 2,23.73 2,16 Z M0,16 C0,24.84 7.164,32 16,32 C24.836,32 32,24.84 32,16 C32,7.16 24.836,0 16,0 C7.164,0 0,7.16 0,16 Z M12.879,7.46 C12.488,7.07 11.855,7.07 11.464,7.46 C11.074,7.86 11.074,8.49 11.464,8.88 L18.586,16 L11.464,23.12 C11.074,23.51 11.074,24.14 11.464,24.54 C11.855,24.93 12.488,24.93 12.879,24.54 L20.536,16.88 C20.775,16.64 20.85,16.31 20.795,16 C20.85,15.69 20.775,15.36 20.536,15.12 L12.879,7.46 Z"/>
  </defs>
  <use fill="#AAA" fill-rule="evenodd" xlink:href="#a"/>
</svg>
