<svg xmlns="http://www.w3.org/2000/svg" xmlns:xlink="http://www.w3.org/1999/xlink" width="32" height="32" viewBox="0 0 32 32">
  <defs>
    <path id="-173-a" d="M30,28 C30,29.1 29.104,30 28,30 L4,30 C2.896,30 2,29.1 2,28 L2,4 C2,2.896 2.896,2 4,2 L28,2 C29.104,2 30,2.896 30,4 L30,28 L30,28 Z M28,0 L4,0 C1.791,0 0,1.791 0,4 L0,28 C0,30.21 1.791,32 4,32 L28,32 C30.209,32 32,30.21 32,28 L32,4 C32,1.791 30.209,0 28,0 L28,0 Z M21.685,6.313 C21.29,5.921 20.65,5.921 20.256,6.313 L11.284,15.254 C11.073,15.464 10.983,15.741 10.998,16.016 C10.983,16.29 11.073,16.568 11.284,16.777 L20.256,25.72 C20.65,26.11 21.29,26.11 21.685,25.72 C22.08,25.33 22.08,24.69 21.685,24.29 L13.376,16.016 L21.685,7.736 C22.08,7.344 22.08,6.707 21.685,6.313 L21.685,6.313 Z"/>
  </defs>
  <use fill="#AAA" fill-rule="evenodd" xlink:href="#a"/>
</svg>
