<svg xmlns="http://www.w3.org/2000/svg" xmlns:xlink="http://www.w3.org/1999/xlink" width="32" height="32" viewBox="0 0 32 32">
  <defs>
    <path id="-192-a" d="M16,30 C8.268,30 2,23.73 2,16 C2,8.27 8.268,2 16,2 C23.732,2 30,8.27 30,16 C30,23.73 23.732,30 16,30 L16,30 Z M16,0 C7.164,0 0,7.16 0,16 C0,24.84 7.164,32 16,32 C24.836,32 32,24.84 32,16 C32,7.16 24.836,0 16,0 L16,0 Z M16.879,11.46 C16.639,11.22 16.311,11.15 16,11.21 C15.689,11.15 15.361,11.22 15.121,11.46 L7.464,19.12 C7.074,19.51 7.074,20.15 7.464,20.54 C7.855,20.93 8.488,20.93 8.879,20.54 L16,13.41 L23.121,20.54 C23.512,20.93 24.145,20.93 24.536,20.54 C24.926,20.15 24.926,19.51 24.536,19.12 L16.879,11.46 L16.879,11.46 Z"/>
  </defs>
  <use fill="#AAA" fill-rule="evenodd" xlink:href="#a"/>
</svg>
