<svg xmlns="http://www.w3.org/2000/svg" xmlns:xlink="http://www.w3.org/1999/xlink" width="32" height="32" viewBox="0 0 32 32">
  <defs>
    <path id="-14-a" d="M30.3715762,11.6487952 L14.0907687,27.7311063 C11.39312,30.3960705 7.01901809,30.3960705 4.32136937,27.7311063 C1.62372065,25.0672843 1.62372065,20.7471408 4.32136937,18.0821766 L18.9748966,3.60706853 C20.7725667,1.83080645 23.6886346,1.83080645 25.4874483,3.60706853 C27.2851184,5.3833306 27.2851184,8.2641878 25.4874483,10.0393076 L10.8339211,24.5144156 C9.93508602,25.4031178 8.47705206,25.4031178 7.57707345,24.5144156 C6.67823839,23.6268557 6.67823839,22.1864271 7.57707345,21.2977249 L20.6033204,8.43210453 L18.9748966,6.8237592 L5.94979319,19.6905219 C4.15097952,21.4656417 4.15097952,24.3464989 5.94979319,26.1239032 C7.7474633,27.899023 10.6635312,27.899023 12.4623449,26.1227609 L27.1147286,11.6487952 C29.8123773,8.98497324 29.8135208,4.66254515 27.1158721,1.99872319 C24.4170798,-0.666241063 20.0441215,-0.666241063 17.3464728,1.99872319 L1.87873365,17.2768616 L1.93591145,17.3328338 C-0.874949317,20.9013501 -0.626797655,26.059935 2.69294556,29.3394516 C6.01383233,32.6189683 11.2353092,32.8645608 14.8478028,30.087652 L14.9038371,30.1436243 L32,13.2571405 L30.3715762,11.6487952"/>
  </defs>
  <use fill="#AAA" fill-rule="evenodd" xlink:href="#a"/>
</svg>
