<svg xmlns="http://www.w3.org/2000/svg" xmlns:xlink="http://www.w3.org/1999/xlink" width="32" height="32" viewBox="0 0 32 32">
  <defs>
    <path id="-8-a" d="M21,14 L7,14 C6.447,14 6,14.448 6,15 C6,15.553 6.447,16 7,16 L21,16 C21.553,16 22,15.553 22,15 C22,14.448 21.553,14 21,14 L21,14 Z M26,28 C26,29.104 25.104,30 24,30 L4,30 C2.896,30 2,29.104 2,28 L2,8 C2,6.896 2.896,6 4,6 L7,6 L7,10 L21,10 L21,6 L24,6 C25.104,6 26,6.896 26,8 L26,28 L26,28 Z M9,4 L11.223,4 C11.223,2.896 12.466,2 14,2 C15.534,2 16.777,2.896 16.777,4 L19,4 L19,8 L9,8 L9,4 L9,4 Z M24,4 L21,4 L21,2 L18.307,2 C17.44,0.81 15.846,0 14,0 C12.154,0 10.56,0.81 9.693,2 L7,2 L7,4 L4,4 C1.791,4 0,5.791 0,8 L0,28 C0,30.209 1.791,32 4,32 L24,32 C26.209,32 28,30.209 28,28 L28,8 C28,5.791 26.209,4 24,4 L24,4 Z M21,24 L7,24 C6.447,24 6,24.448 6,25 C6,25.553 6.447,26 7,26 L21,26 C21.553,26 22,25.553 22,25 C22,24.448 21.553,24 21,24 L21,24 Z M21,19 L7,19 C6.447,19 6,19.448 6,20 C6,20.553 6.447,21 7,21 L21,21 C21.553,21 22,20.553 22,20 C22,19.448 21.553,19 21,19 L21,19 Z"/>
  </defs>
  <use fill="#AAA" fill-rule="evenodd" xlink:href="#a"/>
</svg>
