<svg xmlns="http://www.w3.org/2000/svg" xmlns:xlink="http://www.w3.org/1999/xlink" width="32" height="32" viewBox="0 0 32 32">
  <defs>
    <path id="-13-a" d="M14,4 L14,24 C14,27.313 11.313,30 8,30 C4.687,30 2,27.313 2,24 L2,6 C2,3.791 3.791,2 6,2 C8.209,2 10,3.791 10,6 L10,24 C10,25.104 9.104,26 8,26 C6.896,26 6,25.104 6,24 L6,8 L4,8 L4,24 C4,26.209 5.791,28 8,28 C10.209,28 12,26.209 12,24 L12,6 C12,2.687 9.313,0 6,0 C2.687,0 0,2.687 0,6 L0,25 C0.493,28.945 3.921,32 8,32 C12.079,32 15.507,28.945 16,25 L16,4 L14,4"/>
  </defs>
  <use fill="#AAA" fill-rule="evenodd" xlink:href="#a"/>
</svg>
