<svg xmlns="http://www.w3.org/2000/svg" xmlns:xlink="http://www.w3.org/1999/xlink" width="32" height="32" viewBox="0 0 32 32">
  <defs>
    <path id="-56-a" d="M27,0 L25,0 L25,2 L27,2 C28.657,2 30,3.343 30,5 L30,7 L32,7 L32,5 C32,2.238 29.762,0 27,0 L27,0 Z M16,28 C9.373,28 4,22.628 4,16 C4,9.373 9.373,4 16,4 C22.627,4 28,9.373 28,16 C28,22.628 22.627,28 16,28 L16,28 Z M30,16 C30,8.269 23.732,2 16,2 C8.268,2 2,8.269 2,16 C2,21.303 4.949,25.915 9.296,28.291 L6,32 L9,32 L11.685,29.315 C13.045,29.756 14.493,30 16,30 C17.507,30 18.955,29.756 20.315,29.315 L23,32 L26,32 L22.705,28.291 C27.051,25.915 30,21.303 30,16 L30,16 Z M23,15 L17,15 L17,8 C17,7.447 16.553,7 16,7 C15.447,7 15,7.447 15,8 L15,16 C15,16.553 15.447,17 16,17 L23,17 C23.553,17 24,16.553 24,16 C24,15.448 23.553,15 23,15 L23,15 Z M2,5 C2,3.343 3.343,2 5,2 L7,2 L7,0 L5,0 C2.238,0 0,2.238 0,5 L0,7 L2,7 L2,5 L2,5 Z"/>
  </defs>
  <use fill="#AAA" fill-rule="evenodd" xlink:href="#a"/>
</svg>
