<svg xmlns="http://www.w3.org/2000/svg" xmlns:xlink="http://www.w3.org/1999/xlink" width="32" height="32" viewBox="0 0 32 32">
  <defs>
    <path id="-68-a" d="M2,20 C2,12.268 8.268,6 16,6 C23.732,6 30,12.268 30,20 L2,20 L2,20 Z M17,4 L17,2 L19,2 C19.553,2 20,1.553 20,1 C20,0.448 19.553,0 19,0 L13,0 C12.447,0 12,0.448 12,1 C12,1.553 12.447,2 13,2 L15,2 C15,2 14.993,4.082 15,4 C6.632,4.519 0,11.501 0,20 L0,21 C0,21.553 0.447,22 1,22 L31,22 C31.553,22 32,21.553 32,21 L32,20 C32,11.501 25.368,4.519 17,4 L17,4 Z M31,24 L1,24 C0.447,24 0,24.448 0,25 C0,25.553 0.447,26 1,26 L31,26 C31.553,26 32,25.553 32,25 C32,24.448 31.553,24 31,24 L31,24 Z"/>
  </defs>
  <use fill="#AAA" fill-rule="evenodd" xlink:href="#a"/>
</svg>
