<svg xmlns="http://www.w3.org/2000/svg" xmlns:xlink="http://www.w3.org/1999/xlink" width="32" height="32" viewBox="0 0 32 32">
  <defs>
    <path id="-140-a" d="M22,22 L9,22 C3.99,21.942 2,18.111 2,16 C2,13.272 4.423,10.21 8,10 C7.968,5.937 10.483,2 15,2 C18.428,2 20.699,4.1 21.518,7.012 C26.142,6.799 30,10.057 30,14 C30,18.199 26.976,22 22,22 L22,22 Z M23.067,5.029 C21.599,2.053 18.543,0 15,0 C10.251,0 6.37,3.682 6.033,8.345 C2.542,9.341 0,12.39 0,16 C0,20.26 3.54,23.755 8,24 L23,24 C27.903,24 32,19.747 32,14.5 C32,9.008 28.049,5.324 23.067,5.029 L23.067,5.029 Z M23,26 C22.447,26 22,26.448 22,27 C22,27.553 22.447,28 23,28 C23.553,28 24,27.553 24,27 C24,26.448 23.553,26 23,26 L23,26 Z M19,30 C18.447,30 18,30.448 18,31 C18,31.553 18.447,32 19,32 C19.553,32 20,31.553 20,31 C20,30.448 19.553,30 19,30 L19,30 Z M13,30 C12.447,30 12,30.448 12,31 C12,31.553 12.447,32 13,32 C13.553,32 14,31.553 14,31 C14,30.448 13.553,30 13,30 L13,30 Z M11,26 C10.447,26 10,26.448 10,27 C10,27.553 10.447,28 11,28 C11.553,28 12,27.553 12,27 C12,26.448 11.553,26 11,26 L11,26 Z M17,26 C16.447,26 16,26.448 16,27 C16,27.553 16.447,28 17,28 C17.553,28 18,27.553 18,27 C18,26.448 17.553,26 17,26 L17,26 Z"/>
  </defs>
  <use fill="#AAA" fill-rule="evenodd" xlink:href="#a"/>
</svg>
