<svg xmlns="http://www.w3.org/2000/svg" xmlns:xlink="http://www.w3.org/1999/xlink" width="32" height="32" viewBox="0 0 32 32">
  <defs>
    <path id="-141-a" d="M22,22 L8,22 C8,22 1.962,21.381 2,16 C2.021,12.964 4.813,10.25 8,10 C8,5.858 10.651,2 15,2 C18.433,2 20.723,4.096 21.539,7.014 C26.493,6.798 29.844,10.718 30,14 C30.21,18.413 25.601,22 22,22 L22,22 Z M23.067,5.028 C21.599,2.053 18.543,0 15,0 C10.25,0 6.37,3.682 6.033,8.345 C2.542,9.34 0,12.39 0,16 C0,20.26 3.54,23.731 8,23.977 C8,23.977 21.831,24 22,24 C27.247,24 32,19.747 32,14.5 C32,9.445 28.048,5.323 23.067,5.028 L23.067,5.028 Z M19,11 L15,11 L16.554,6.831 C16.765,6.32 16.522,5.735 16.012,5.525 C15.501,5.314 14.917,5.558 14.706,6.068 L12.417,11.614 C12.307,11.878 12.324,12.159 12.432,12.401 C12.577,12.773 12.935,13.039 13.359,13.039 L17.625,13.01 L15.082,17.52 C14.864,18.044 15.076,18.662 15.556,18.899 C16.035,19.137 16.599,18.904 16.816,18.381 C16.816,18.381 20,12.594 20,12 C20,11.448 19.552,11 19,11 L19,11 Z"/>
  </defs>
  <use fill="#AAA" fill-rule="evenodd" xlink:href="#a"/>
</svg>
