<svg xmlns="http://www.w3.org/2000/svg" xmlns:xlink="http://www.w3.org/1999/xlink" width="32" height="32" viewBox="0 0 32 32">
  <defs>
    <path id="-142-a" d="M22,22 L8,22 C8,22 1.962,21.381 2,16 C2.021,12.964 4.813,10.25 8,10 C8,5.858 10.651,2 15,2 C18.433,2 20.723,4.096 21.539,7.014 C26.493,6.798 29.844,10.718 30,14 C30.21,18.413 25.601,22 22,22 L22,22 Z M23.067,5.028 C21.599,2.053 18.543,0 15,0 C10.25,0 6.37,3.682 6.033,8.345 C2.542,9.34 0,12.39 0,16 C0,20.26 3.54,23.731 8,23.977 C8,23.977 21.831,24 22,24 C27.247,24 32,19.747 32,14.5 C32,9.445 28.048,5.323 23.067,5.028 L23.067,5.028 Z M25,27 C24.448,27 24,27.447 24,28 L24,31 C24,31.553 24.448,32 25,32 C25.552,32 26,31.553 26,31 L26,28 C26,27.447 25.552,27 25,27 L25,27 Z M19,27 C18.448,27 18,27.447 18,28 L18,31 C18,31.553 18.448,32 19,32 C19.552,32 20,31.553 20,31 L20,28 C20,27.447 19.552,27 19,27 L19,27 Z M7,27 C6.448,27 6,27.447 6,28 L6,31 C6,31.553 6.448,32 7,32 C7.552,32 8,31.553 8,31 L8,28 C8,27.447 7.552,27 7,27 L7,27 Z M13,27 C12.448,27 12,27.447 12,28 L12,31 C12,31.553 12.448,32 13,32 C13.552,32 14,31.553 14,31 L14,28 C14,27.447 13.552,27 13,27 L13,27 Z"/>
  </defs>
  <use fill="#AAA" fill-rule="evenodd" xlink:href="#a"/>
</svg>
