<svg xmlns="http://www.w3.org/2000/svg" xmlns:xlink="http://www.w3.org/1999/xlink" width="32" height="32" viewBox="0 0 32 32">
  <defs>
    <path id="-207-a" d="M25,22 L8,22 C8,22 1.962,21.38 2,16 C2.021,12.96 4.688,10.18 8,10 C8,5.86 10.65,2 15,2 C18.433,2 20.723,4.1 21.538,7.01 C26.493,6.8 29.844,10.72 30,14 C30.135,16.83 27.68,20.48 25,22 L25,22 Z M23.067,5.03 C21.599,2.05 18.543,0 15,0 C10.251,0 6.37,3.68 6.033,8.34 C2.542,9.34 0,12.39 0,16 C0,20.26 3.54,23.73 8,23.98 L25,24 C28.437,22.51 32,18.35 32,14.5 C32,9.44 28.049,5.32 23.067,5.03 L23.067,5.03 Z M21.295,12.39 L17,16.66 L17,7.01 C17,6.46 16.553,6.01 16,6.01 C15.448,6.01 15,6.46 15,7.01 L15,16.63 L10.736,12.39 C10.344,12 9.707,12 9.313,12.39 C8.921,12.78 8.921,13.41 9.313,13.81 L15.254,19.72 C15.464,19.93 15.741,20.02 16.016,20 C16.29,20.02 16.568,19.93 16.777,19.72 L22.718,13.81 C23.11,13.41 23.11,12.78 22.718,12.39 C22.325,12 21.688,12 21.295,12.39 L21.295,12.39 Z"/>
  </defs>
  <use fill="#AAA" fill-rule="evenodd" xlink:href="#a"/>
</svg>
