<svg xmlns="http://www.w3.org/2000/svg" xmlns:xlink="http://www.w3.org/1999/xlink" width="32" height="32" viewBox="0 0 32 32">
  <defs>
    <path id="-139-a" d="M22,22 L8,22 C8,22 1.963,21.381 2,16 C2.021,12.964 4.688,10.183 8,10 C8,5.858 10.65,2 15,2 C18.433,2 20.723,4.096 21.538,7.014 C26.493,6.798 29.844,10.718 30,14 C30.21,18.413 25.601,22 22,22 L22,22 Z M23.067,5.028 C21.599,2.053 18.543,0 15,0 C10.251,0 6.37,3.682 6.033,8.345 C2.542,9.34 0,12.39 0,16 C0,20.26 3.54,23.731 8,23.977 C8,23.977 21.831,24 22,24 C27.247,24 32,19.747 32,14.5 C32,9.444 28.049,5.323 23.067,5.028 L23.067,5.028 Z"/>
  </defs>
  <use fill="#AAA" fill-rule="evenodd" xlink:href="#a"/>
</svg>
