<svg xmlns="http://www.w3.org/2000/svg" xmlns:xlink="http://www.w3.org/1999/xlink" width="32" height="32" viewBox="0 0 32 32">
  <defs>
    <path id="-208-a" d="M25,22 L8,22 C8,22 1.962,21.38 2,16 C2.021,12.96 4.688,10.18 8,10 C8,5.86 10.65,2 15,2 C18.433,2 20.723,4.1 21.538,7.01 C26.493,6.8 29.844,10.72 30,14 C30.135,16.83 27.68,20.48 25,22 L25,22 Z M23.067,5.03 C21.599,2.05 18.543,0 15,0 C10.251,0 6.37,3.68 6.033,8.34 C2.542,9.34 0,12.39 0,16 C0,20.26 3.54,23.73 8,23.98 L25,24 C28.437,22.51 32,18.35 32,14.5 C32,9.44 28.049,5.32 23.067,5.03 L23.067,5.03 Z M16.777,6.28 C16.568,6.07 16.29,5.98 16.016,6 C15.741,5.98 15.464,6.07 15.254,6.28 L9.313,12.19 C8.921,12.59 8.921,13.22 9.313,13.61 C9.707,14 10.344,14 10.736,13.61 L15,9.37 L15,18.99 C15,19.54 15.447,19.99 16,19.99 C16.553,19.99 17,19.54 17,18.99 L17,9.34 L21.295,13.61 C21.688,14 22.325,14 22.718,13.61 C23.11,13.22 23.11,12.59 22.718,12.19 L16.777,6.28 L16.777,6.28 Z"/>
  </defs>
  <use fill="#AAA" fill-rule="evenodd" xlink:href="#a"/>
</svg>
