<svg xmlns="http://www.w3.org/2000/svg" xmlns:xlink="http://www.w3.org/1999/xlink" width="32" height="32" viewBox="0 0 32 32">
  <defs>
    <path id="-124-a" d="M31.6945533,13.4989483 L25.3056107,8.28545221 C24.8854398,7.87207569 24.2039953,7.87207569 23.7848909,8.28545221 C23.3647201,8.69882873 23.3647201,9.36841257 23.7848909,9.78286559 L29.3206948,14.3009418 L23.7848909,18.8200944 C23.3647201,19.2323945 23.3647201,19.9030548 23.7848909,20.3164313 C24.2039953,20.7308843 24.8854398,20.7308843 25.3056107,20.3164313 L31.6945533,15.1029353 C31.9185022,14.8822525 32.0134139,14.5894441 31.998484,14.3009418 C32.0134139,14.0124394 31.9185022,13.7185545 31.6945533,13.4989483 L31.6945533,13.4989483 Z M8.21510911,18.8190179 L2.67930519,14.3009418 L8.21510911,9.78286559 C8.63527993,9.36841257 8.63527993,8.69775223 8.21510911,8.28545221 C7.79600471,7.87099919 7.11456015,7.87099919 6.69438933,8.28545221 L0.305446682,13.4989483 C0.0814977663,13.7185545 -0.0134139171,14.0124394 0.00151601058,14.3009418 C-0.0134139171,14.5894441 0.0814977663,14.8822525 0.305446682,15.1029353 L6.69438933,20.3164313 C7.11456015,20.7308843 7.79600471,20.7308843 8.21510911,20.3164313 C8.63527993,19.9030548 8.63527993,19.2323945 8.21510911,18.8190179 L8.21510911,18.8190179 Z M23.4223069,0.141719486 C22.9114901,-0.15001238 22.2599054,0.0233043374 21.9655726,0.52710697 L8.63527993,26.456795 C8.33988065,26.9616742 8.46251934,27.7335256 9.0255909,27.8982303 C9.713434,28.0995361 10.1879924,28.017722 10.4823253,27.5128429 L23.8126179,1.58207829 C24.1069508,1.07719916 23.9320573,0.433451352 23.4223069,0.141719486 L23.4223069,0.141719486 Z"/>
  </defs>
  <use fill="#AAA" fill-rule="evenodd" xlink:href="#a"/>
</svg>
