<svg xmlns="http://www.w3.org/2000/svg" xmlns:xlink="http://www.w3.org/1999/xlink" width="32" height="32" viewBox="0 0 32 32">
  <defs>
    <path id="-237-a" d="M18.816455,9.68806963 L16.4677819,30.6750272 C16.3840196,31.4302611 15.7559559,32 15.0073039,32 L4.99321078,32 C4.24400735,32 3.61594363,31.4302611 3.53169118,30.6745294 L1.67482843,13.8164554 L1.62599265,13.6472636 L1.18350327,9.68806963 L0.5,9.68806963 C0.223625,9.68806963 0,9.49089539 0,9.24770283 L0,7.04586882 C0,6.56014424 0.44875,6.16513522 1,6.16513522 L2.94117647,6.16513522 L2.94117647,3.6697109 C2.94117647,3.10303222 3.37484244,2.64218836 3.90756303,2.64218836 L7.05882353,2.64218836 L7.05882353,0.880733602 L6.4,0.880733602 C6.11387059,0.880733602 5.88235294,0.683559367 5.88235294,0.440366801 C5.88235294,0.197174235 6.11387059,0 6.4,0 L16.7529412,0 C17.8948706,0 18.8235294,0.790183179 18.8235294,1.7614672 C18.8235294,2.73275123 17.8948706,3.52293441 16.7529412,3.52293441 L16.4607584,3.52293441 C16.4672358,3.57088089 16.4705882,3.61988682 16.4705882,3.6697109 L16.4705882,6.16513522 L19,6.16513522 C19.55125,6.16513522 20,6.56014424 20,7.04586882 L20,9.24770283 C20,9.49089539 19.776375,9.68806963 19.5,9.68806963 L18.816455,9.68806963 Z M15.5089958,2.64220081 L16.7529412,2.64220081 C17.3236471,2.64220081 17.7882353,2.24719179 17.7882353,1.7614672 C17.7882353,1.27574262 17.3236471,0.880733602 16.7529412,0.880733602 L11.7647059,0.880733602 L11.7647059,2.64218836 L15.5042017,2.64218836 C15.5058006,2.64218836 15.5073986,2.64219251 15.5089958,2.64220081 Z M1,8.80733602 L19,8.80733602 L19,7.04586882 L1,7.04586882 L1,8.80733602 Z M3.90756303,5.72476842 L15.5042017,5.72476842 L15.5042017,3.66972334 L3.90756303,3.66972334 L3.90756303,5.72476842 Z M8,2.64220081 L10.8235294,2.64220081 L10.8235294,0.880733602 L8,0.880733602 L8,2.64220081 Z M15.4936397,30.5629587 C15.4658824,30.8145374 15.2566912,31.0043881 15.0073039,31.0043881 L4.99321078,31.0043881 C4.74333333,31.0043881 4.53414216,30.8145374 4.50589461,30.5624609 L2.64848039,13.7041379 L2.59964461,13.5350084 L2.2157598,10.0965382 L17.7842647,10.0965382 L15.4936397,30.5629587 Z M14.2156863,29.0642089 L12.254902,29.0642089 C11.9839461,29.0642089 11.7647059,28.8013099 11.7647059,28.4770531 C11.7647059,28.1527964 11.9839461,27.8898974 12.254902,27.8898974 L14.2156863,27.8898974 C14.4866422,27.8898974 14.7058824,28.1527964 14.7058824,28.4770531 C14.7058824,28.8013099 14.4866422,29.0642089 14.2156863,29.0642089 M14.2156863,26.1284302 L12.254902,26.1284302 C11.9839461,26.1284302 11.7647059,25.8655312 11.7647059,25.5412745 C11.7647059,25.2170177 11.9839461,24.9541187 12.254902,24.9541187 L14.2156863,24.9541187 C14.4866422,24.9541187 14.7058824,25.2170177 14.7058824,25.5412745 C14.7058824,25.8655312 14.4866422,26.1284302 14.2156863,26.1284302 M14.2156863,23.7798073 L12.254902,23.7798073 C11.9839461,23.7798073 11.7647059,23.5169083 11.7647059,23.1926515 C11.7647059,22.8683948 11.9839461,22.6054958 12.254902,22.6054958 L14.2156863,22.6054958 C14.4866422,22.6054958 14.7058824,22.8683948 14.7058824,23.1926515 C14.7058824,23.5169083 14.4866422,23.7798073 14.2156863,23.7798073 M14.2156863,21.4311843 L12.254902,21.4311843 C11.9839461,21.4311843 11.7647059,21.1682853 11.7647059,20.8440286 C11.7647059,20.5197718 11.9839461,20.2568729 12.254902,20.2568729 L14.2156863,20.2568729 C14.4866422,20.2568729 14.7058824,20.5197718 14.7058824,20.8440286 C14.7058824,21.1682853 14.4866422,21.4311843 14.2156863,21.4311843 M14.2156863,19.0825614 L12.254902,19.0825614 C11.9839461,19.0825614 11.7647059,18.8196624 11.7647059,18.4954057 C11.7647059,18.1711489 11.9839461,17.9082499 12.254902,17.9082499 L14.2156863,17.9082499 C14.4866422,17.9082499 14.7058824,18.1711489 14.7058824,18.4954057 C14.7058824,18.8196624 14.4866422,19.0825614 14.2156863,19.0825614 M14.2156863,16.1467827 L12.254902,16.1467827 C11.9839461,16.1467827 11.7647059,15.8838837 11.7647059,15.559627 C11.7647059,15.2353702 11.9839461,14.9724712 12.254902,14.9724712 L14.2156863,14.9724712 C14.4866422,14.9724712 14.7058824,15.2353702 14.7058824,15.559627 C14.7058824,15.8838837 14.4866422,16.1467827 14.2156863,16.1467827 M14.2156863,13.7981598 L12.254902,13.7981598 C11.9839461,13.7981598 11.7647059,13.5352608 11.7647059,13.211004 C11.7647059,12.8867473 11.9839461,12.6238483 12.254902,12.6238483 L14.2156863,12.6238483 C14.4866422,12.6238483 14.7058824,12.8867473 14.7058824,13.211004 C14.7058824,13.5352608 14.4866422,13.7981598 14.2156863,13.7981598"/>
  </defs>
  <use fill="#AAA" fill-rule="evenodd" xlink:href="#a"/>
</svg>
