<svg xmlns="http://www.w3.org/2000/svg" xmlns:xlink="http://www.w3.org/1999/xlink" width="32" height="32" viewBox="0 0 32 32">
  <defs>
    <path id="-51-a" d="M29.3550798,22.5429333 L28.2969045,24.3904 C28.0046262,24.9013333 27.3582006,25.0752 26.8515138,24.7808 L23.9127306,23.0698667 C22.4214715,24.7669333 20.4043248,25.9829333 18.1151674,26.4522667 L18.1151674,28.8 C18.1151674,29.3898667 17.6426153,29.8666667 17.0580588,29.8666667 L14.9417082,29.8666667 C14.3571517,29.8666667 13.8845996,29.3898667 13.8845996,28.8 L13.8845996,26.4522667 C11.5954422,25.9829333 9.57829555,24.7669333 8.08703642,23.0698667 L5.14825322,24.7808 C4.64156647,25.0752 3.99514083,24.9013333 3.70286258,24.3904 L2.64468729,22.5429333 C2.35240903,22.0330667 2.52628259,21.3802667 3.03190264,21.0869333 L5.98241963,19.3674667 C5.63147239,18.3072 5.42133072,17.1797333 5.42133072,16 C5.42133072,14.8202667 5.63147239,13.6938667 5.98241963,12.6325333 L3.03190264,10.9141333 C2.52628259,10.6197333 2.35240903,9.968 2.64468729,9.45706667 L3.70286258,7.6096 C3.99514083,7.09973333 4.64156647,6.9248 5.14825322,7.2192 L8.08703642,8.93013333 C9.57829555,7.23306667 11.5954422,6.01706667 13.8845996,5.54773333 L13.8845996,3.2 C13.8845996,2.61013333 14.3571517,2.13333333 14.9417082,2.13333333 L17.0580588,2.13333333 C17.6426153,2.13333333 18.1151674,2.61013333 18.1151674,3.2 L18.1151674,5.54773333 C20.4043248,6.01706667 22.4214715,7.23306667 23.9127306,8.93013333 L26.8515138,7.2192 C27.3582006,6.9248 28.0046262,7.09973333 28.2969045,7.6096 L29.3550798,9.45706667 C29.647358,9.968 29.4734845,10.6197333 28.9678644,10.9141333 L26.0173474,12.6325333 C26.3682947,13.6938667 26.5784363,14.8202667 26.5784363,16 C26.5784363,17.1797333 26.3682947,18.3072 26.0173474,19.3674667 L28.9678644,21.0869333 C29.4734845,21.3802667 29.647358,22.0330667 29.3550798,22.5429333 L29.3550798,22.5429333 Z M30.9423427,19.7717333 L28.4643778,18.3296 C28.6030499,17.5722667 28.6947869,16.7989333 28.6947869,16 C28.6947869,15.2021333 28.6030499,14.4277333 28.4643778,13.6704 L30.9423427,12.2282667 C31.9546495,11.6394667 32.3002632,10.3338667 31.7157067,9.31413333 L29.6004228,5.6192 C29.016933,4.59946667 27.7219483,4.24853333 26.7107082,4.8384 L24.2071423,6.2944 C23.0380293,5.29173333 21.7089099,4.47146667 20.231518,3.94346667 L20.231518,2.13333333 C20.231518,0.955733333 19.2842804,0 18.1151674,0 L13.8845996,0 C12.7154866,0 11.7682491,0.955733333 11.7682491,2.13333333 L11.7682491,3.94346667 C10.2908571,4.47146667 8.96173777,5.29173333 7.79262475,6.2944 L5.28905881,4.8384 C4.27781871,4.24853333 2.98283403,4.59946667 2.39934422,5.6192 L0.284060347,9.31413333 C-0.300496166,10.3338667 0.0461842476,11.6394667 1.05742435,12.2282667 L3.53538927,13.6704 C3.39671711,14.4277333 3.30498013,15.2021333 3.30498013,16 C3.30498013,16.7989333 3.39671711,17.5722667 3.53538927,18.3296 L1.05742435,19.7717333 C0.0461842476,20.3605333 -0.300496166,21.6661333 0.284060347,22.6858667 L2.39934422,26.3808 C2.98283403,27.4005333 4.27781871,27.7514667 5.28905881,27.1616 L7.79262475,25.7056 C8.96173777,26.7082667 10.2908571,27.5296 11.7682491,28.0565333 L11.7682491,29.8666667 C11.7682491,31.0442667 12.7154866,32 13.8845996,32 L18.1151674,32 C19.2842804,32 20.231518,31.0442667 20.231518,29.8666667 L20.231518,28.0565333 C21.7089099,27.5296 23.0380293,26.7082667 24.2071423,25.7056 L26.7107082,27.1616 C27.7219483,27.7514667 29.016933,27.4005333 29.6004228,26.3808 L31.7157067,22.6858667 C32.3002632,21.6661333 31.9546495,20.3605333 30.9423427,19.7717333 L30.9423427,19.7717333 Z M15.9998835,19.2 C14.2472807,19.2 12.8264244,17.7674667 12.8264244,16 C12.8264244,14.2336 14.2472807,12.8 15.9998835,12.8 C17.7524863,12.8 19.1733427,14.2336 19.1733427,16 C19.1733427,17.7674667 17.7524863,19.2 15.9998835,19.2 L15.9998835,19.2 Z M15.9998835,10.6666667 C13.0781677,10.6666667 10.7111405,13.0538667 10.7111405,16 C10.7111405,18.9461333 13.0781677,21.3333333 15.9998835,21.3333333 C18.9215994,21.3333333 21.2896933,18.9461333 21.2896933,16 C21.2896933,13.0538667 18.9215994,10.6666667 15.9998835,10.6666667 L15.9998835,10.6666667 Z"/>
  </defs>
  <use fill="#AAA" fill-rule="evenodd" xlink:href="#a"/>
</svg>
