<svg xmlns="http://www.w3.org/2000/svg" xmlns:xlink="http://www.w3.org/1999/xlink" width="32" height="32" viewBox="0 0 32 32">
  <defs>
    <path id="-58-a" d="M14.8742164,14.3406696 L18.6346539,11.0294785 L17.6465253,15.9413099 L19.4947312,17.0084034 L20.8990263,7.10790983 L13.0260104,13.2735761 L14.8742164,14.3406696 L14.8742164,14.3406696 Z M15.9935974,29.865813 C8.33079899,29.865813 2.12138189,23.6563959 2.12138189,15.9935974 C2.12138189,8.33186608 8.33079899,2.12138189 15.9935974,2.12138189 C23.6563959,2.12138189 29.865813,8.33186608 29.865813,15.9935974 C29.865813,23.6563959 23.6563959,29.865813 15.9935974,29.865813 L15.9935974,29.865813 Z M16,0 C7.16339869,0 0,7.16446579 0,16 C0,24.8366013 7.16339869,32 16,32 C24.8366013,32 32,24.8366013 32,16 C32,7.16446579 24.8366013,0 16,0 L16,0 Z M17.0606909,16.5271442 C17.0606909,15.6435908 16.3436041,14.9265039 15.4600507,14.9265039 C14.5764973,14.9265039 13.8594104,15.6435908 13.8594104,16.5271442 C13.8594104,17.4106976 14.5764973,18.1277844 15.4600507,18.1277844 C16.3436041,18.1277844 17.0606909,17.4106976 17.0606909,16.5271442 L17.0606909,16.5271442 Z M12.2854475,22.0248099 L13.2735761,17.1129785 L11.4253701,16.045885 L10.0221422,25.9463786 L17.894091,19.7807123 L16.045885,18.7136188 L12.2854475,22.0248099 L12.2854475,22.0248099 Z"/>
  </defs>
  <use fill="#AAA" fill-rule="evenodd" xlink:href="#a"/>
</svg>
