<svg xmlns="http://www.w3.org/2000/svg" xmlns:xlink="http://www.w3.org/1999/xlink" width="32" height="32" viewBox="0 0 32 32">
  <defs>
    <path id="-80-a" d="M29,18 L2,18 L2,4 C2,2.896 2.896,2 4,2 L27,2 C28.104,2 29,2.896 29,4 L29,18 L29,18 Z M29,22 C29,23.104 28.104,24 27,24 L4,24 C2.896,24 2,23.104 2,22 L2,20 L29,20 L29,22 L29,22 Z M14,26 L18,26 L18,30 L14,30 L14,26 Z M27,0 L4,0 C1.791,0 0,1.791 0,4 L0,22 C0,24.209 1.791,26 4,26 L12,26 L12,30 L10,30 C9.447,30 9,30.448 9,31 C9,31.553 9.447,32 10,32 L22,32 C22.553,32 23,31.553 23,31 C23,30.448 22.553,30 22,30 L20,30 L20,26 L27,26 C29.209,26 31,24.209 31,22 L31,4 C31,1.791 29.209,0 27,0 L27,0 Z"/>
  </defs>
  <use fill="#AAA" fill-rule="evenodd" xlink:href="#a"/>
</svg>
