<svg xmlns="http://www.w3.org/2000/svg" xmlns:xlink="http://www.w3.org/1999/xlink" width="32" height="32" viewBox="0 0 32 32">
  <defs>
    <path id="-216-a" d="M27.876608,12.0375235 L21.3213438,12.0375235 L32,1.39086929 L30.6012239,0 L19.9345573,10.6366479 L19.9655302,4.15259537 C19.9655302,3.60225141 19.5229174,3.16197624 18.9763957,3.16197624 C18.430873,3.16197624 17.9872611,3.60225141 17.9872611,4.15259537 L17.9872611,13.0281426 C17.9872611,13.318324 18.1091545,13.558474 18.2999875,13.7185741 C18.478831,13.8986867 18.7276133,14.0087555 19.0053703,14.0087555 L27.876608,14.0087555 C28.4231298,14.0087555 28.8647433,13.5684803 28.8647433,13.0281426 C28.8647433,12.4777986 28.4231298,12.0375235 27.876608,12.0375235 L27.876608,12.0375235 Z M12.9946297,17.9912445 L4.12339203,17.9912445 C3.57687024,17.9912445 3.13525665,18.4315197 3.13525665,18.9718574 C3.13525665,19.5222014 3.57687024,19.9624765 4.12339203,19.9624765 L10.6786562,19.9624765 L0,30.6091307 L1.39877607,32 L12.0664419,21.3633521 L12.0344698,27.8474046 C12.0344698,28.3977486 12.4770826,28.8380238 13.0236043,28.8380238 C13.569127,28.8380238 14.0127389,28.3977486 14.0127389,27.8474046 L14.0127389,18.9718574 C14.0127389,18.681676 13.8908455,18.441526 13.6990134,18.2814259 C13.521169,18.1013133 13.2723867,17.9912445 12.9946297,17.9912445 L12.9946297,17.9912445 Z"/>
  </defs>
  <use fill="#AAA" fill-rule="evenodd" xlink:href="#a"/>
</svg>
