<svg xmlns="http://www.w3.org/2000/svg" xmlns:xlink="http://www.w3.org/1999/xlink" width="32" height="32" viewBox="0 0 32 32">
  <defs>
    <path id="-171-a" d="M30,28 C30,29.1 29.104,30 28,30 L4,30 C2.896,30 2,29.1 2,28 L2,4 C2,2.896 2.896,2 4,2 L28,2 C29.104,2 30,2.896 30,4 L30,28 L30,28 Z M28,0 L4,0 C1.791,0 0,1.791 0,4 L0,28 C0,30.21 1.791,32 4,32 L28,32 C30.209,32 32,30.21 32,28 L32,4 C32,1.791 30.209,0 28,0 L28,0 Z M27,13 L20.372,13 L27.17,6.201 L25.756,4.787 L18.969,11.575 L19,5 C19,4.447 18.552,4 18,4 C17.448,4 17,4.447 17,5 L17,14 C17,14.296 17.123,14.535 17.316,14.699 C17.497,14.885 17.749,15 18.028,15 L27,15 C27.552,15 28,14.553 28,14 C28,13.448 27.552,13 27,13 L27,13 Z M13.972,17 L5,17 C4.448,17 4,17.45 4,18 C4,18.55 4.448,19 5,19 L11.628,19 L4.83,25.8 L6.244,27.21 L13.032,20.43 L13,27 C13,27.55 13.448,28 14,28 C14.552,28 15,27.55 15,27 L15,18 C15,17.7 14.877,17.46 14.684,17.3 C14.502,17.12 14.251,17 13.972,17 L13.972,17 Z"/>
  </defs>
  <use fill="#AAA" fill-rule="evenodd" xlink:href="#a"/>
</svg>
