<svg xmlns="http://www.w3.org/2000/svg" xmlns:xlink="http://www.w3.org/1999/xlink" width="32" height="32" viewBox="0 0 32 32">
  <defs>
    <path id="-155-a" d="M31,26 L28,26 L28,9 L26,11 L26,26 L7.372,26 L29.213,3.201 L27.799,1.787 L6,24.542 L6,6 L20.021,6 L21.861,4 L6,4 L6,1 C6,0.447 5.553,0 5,0 C4.447,0 4,0.447 4,1 L4,4 L1,4 C0.447,4 0,4.448 0,5 C0,5.553 0.447,6 1,6 L4,6 L4,28 L26,28 L26,31 C26,31.553 26.447,32 27,32 C27.553,32 28,31.553 28,31 L28,28 L31,28 C31.553,28 32,27.553 32,27 C32,26.448 31.553,26 31,26"/>
  </defs>
  <use fill="#AAA" fill-rule="evenodd" xlink:href="#a"/>
</svg>
