<svg xmlns="http://www.w3.org/2000/svg" xmlns:xlink="http://www.w3.org/1999/xlink" width="32" height="32" viewBox="0 0 32 32">
  <defs>
    <path id="-158-a" d="M17.0666667,29.8122667 L17.0666667,24.5333333 C17.0666667,23.9445333 16.5898667,23.4666667 16,23.4666667 C15.4101333,23.4666667 14.9333333,23.9445333 14.9333333,24.5333333 L14.9333333,29.8122667 C8.128,29.2938667 2.704,23.8709333 2.18453333,17.0666667 L7.46666667,17.0666667 C8.05653333,17.0666667 8.53333333,16.5898667 8.53333333,16 C8.53333333,15.4101333 8.05653333,14.9333333 7.46666667,14.9333333 L2.18453333,14.9333333 C2.704,8.12906667 8.128,2.70613333 14.9333333,2.18773333 L14.9333333,7.46666667 C14.9333333,8.05653333 15.4101333,8.53333333 16,8.53333333 C16.5898667,8.53333333 17.0666667,8.05653333 17.0666667,7.46666667 L17.0666667,2.18773333 C23.872,2.70613333 29.296,8.12906667 29.8154667,14.9333333 L24.5333333,14.9333333 C23.9434667,14.9333333 23.4666667,15.4101333 23.4666667,16 C23.4666667,16.5898667 23.9434667,17.0666667 24.5333333,17.0666667 L29.8154667,17.0666667 C29.296,23.8709333 23.872,29.2938667 17.0666667,29.8122667 L17.0666667,29.8122667 Z M16,0 C7.16373333,0 0,7.16373333 0,16 C0,24.8362667 7.16373333,32 16,32 C24.8362667,32 32,24.8362667 32,16 C32,7.16373333 24.8362667,0 16,0 L16,0 Z"/>
  </defs>
  <use fill="#AAA" fill-rule="evenodd" xlink:href="#a"/>
</svg>
