<svg xmlns="http://www.w3.org/2000/svg" xmlns:xlink="http://www.w3.org/1999/xlink" width="32" height="32" viewBox="0 0 32 32">
  <defs>
    <path id="-232-a" d="M20.0252678,0 C21.1142963,0 22,0.873302978 22,1.94643446 L22,30.1735209 C22,31.1805284 21.1689693,31.9999417 20.1473218,31.9999417 L18.4870336,31.9999417 C17.464795,31.9999417 16.6331733,31.1805284 16.6331733,30.1735209 L16.6331733,21.6327459 C16.6331733,21.4419476 16.5693388,21.2514405 16.4505356,21.0921021 L14.1660879,18.08914 C13.6840783,17.4561555 13.47041,16.7049052 13.5643886,15.973463 C14.9418545,5.22496181 17.0551902,0 20.0252678,0 Z M20.8010344,30.172647 L20.8010344,1.94905611 C20.8022165,1.74456689 20.7221278,1.55202077 20.5755449,1.40666447 C20.4286664,1.26101688 20.233321,1.1809107 20.0252678,1.1809107 C19.5745844,1.1809107 18.6717399,1.4835664 17.6888068,3.51243739 C16.4978205,5.9706775 15.5098633,10.2131006 14.7524197,16.1226061 C14.6986332,16.5470232 14.8301441,16.9938701 15.1233099,17.3807101 L17.4086443,20.3845461 C17.6802364,20.7419653 17.8300702,21.1850252 17.8300702,21.6315808 L17.8300702,30.172647 C17.8300702,30.5286097 18.1241226,30.8181572 18.4858515,30.8181572 L20.1461396,30.8181572 C20.5072774,30.8181572 20.8010344,30.5286097 20.8010344,30.172647 Z M8.41581086,5.82590379e-05 C9.60797931,5.82590379e-05 10.5782047,0.956089071 10.5782047,2.13146516 L10.5782047,11.8907279 C10.5782047,13.3390476 9.86479498,14.7349341 8.66967122,15.6245496 L8.49353528,15.7556325 L8.49353528,15.97323 L8.49353528,28.841195 C8.49353528,30.5828489 7.05607684,32 5.28910233,32 C3.52212782,32 2.08437385,30.5828489 2.08437385,28.841195 L2.08437385,15.97323 L2.08437385,15.7556325 L1.90853343,15.6245496 C0.713409679,14.7349341 0,13.3390476 0,11.8907279 L0,2.13146516 C0,0.956089071 0.969929812,5.82590379e-05 2.16239379,5.82590379e-05 C2.63346878,5.82590379e-05 3.08208349,0.14774492 3.45947543,0.427097007 L3.72604359,0.624595145 L3.99231622,0.427097007 C4.33749538,0.171048535 4.79793129,0.0300616636 5.28910233,0.0300616636 C5.78027337,0.0300616636 6.24070927,0.171048535 6.58588844,0.427097007 L6.85216106,0.624595145 L7.11872922,0.427097007 C7.49612117,0.14774492 7.94473587,5.82590379e-05 8.41581086,5.82590379e-05 Z M9.3801256,11.8907279 L9.3801256,2.13146516 C9.3801256,1.61616397 8.93860362,1.18067766 8.41581086,1.18067766 C7.8841522,1.18067766 7.45149612,1.60713382 7.45149612,2.13146516 L7.45149612,8.80882479 C7.45149612,9.13449281 7.18256372,9.39928014 6.85245659,9.39928014 C6.52234946,9.39928014 6.25341707,9.13449281 6.25341707,8.80882479 L6.25341707,2.13146516 C6.25341707,1.60713382 5.82076099,1.18067766 5.28910233,1.18067766 C4.76630957,1.18067766 4.32478759,1.61616397 4.32478759,2.13146516 L4.32478759,8.80882479 C4.32478759,9.13449281 4.05585519,9.39928014 3.72574806,9.39928014 C3.39564093,9.39928014 3.12670853,9.13449281 3.12670853,8.80882479 L3.12670853,2.13146516 C3.12670853,1.60713382 2.69405246,1.18067766 2.16239379,1.18067766 C1.63960103,1.18067766 1.19778352,1.61616397 1.19778352,2.13146516 L1.19778352,11.8907279 C1.19778352,13.1229065 1.88518655,14.2834266 2.99135574,14.919324 C3.17753971,15.0268119 3.29102327,15.2240187 3.28895456,15.4360816 L3.28363502,15.5059925 L3.2824529,15.522305 L3.2824529,15.5386175 L3.2824529,28.841195 C3.2824529,29.9318042 4.18263761,30.8190893 5.28910233,30.8190893 C6.39556705,30.8190893 7.29575175,29.9318042 7.29575175,28.841195 L7.29575175,15.5377437 L7.29575175,15.5240528 L7.29486516,15.5103619 L7.29013668,15.4369555 C7.28688585,15.22431 7.40007388,15.0262293 7.58743997,14.9187414 C8.69331363,14.2834266 9.3801256,13.1231978 9.3801256,11.8907279 Z"/>
  </defs>
  <use fill="#AAA" fill-rule="evenodd" xlink:href="#a"/>
</svg>
