<svg xmlns="http://www.w3.org/2000/svg" xmlns:xlink="http://www.w3.org/1999/xlink" width="32" height="32" viewBox="0 0 32 32">
  <defs>
    <path id="-225-a" d="M9,0 C9.552,0 10,0.448 10,1 L10,8 C10,10.419 8.282,12.437 6,12.899 L6,31 C6,31.553 5.552,32 5,32 C4.448,32 4,31.553 4,31 L4,12.899 C1.718,12.437 0,10.419 0,8 L0,1 C0,0.448 0.448,0 1,0 C1.552,0 2,0.448 2,1 L2,8 C2,9.407 2.837,10.356 4,10.802 L4,1 C4,0.448 4.448,0 5,0 C5.552,0 6,0.448 6,1 L6,10.802 C7.163,10.356 8,9.407 8,8 L8,1 C8,0.448 8.448,0 9,0 Z M18,0 C18,0 24,6.22 24,18 L18,18 L18,31 C18,31.553 17.552,32 17,32 C16.448,32 16,31.553 16,31 L16,1 C16,0.448 16.448,0 17,0 L18,0 Z M18,3 C18,3 21.807,9.693 22,16 L18,16 L18,3 L18,3 Z"/>
  </defs>
  <use fill="#AAA" fill-rule="evenodd" xlink:href="#a"/>
</svg>
