<svg xmlns="http://www.w3.org/2000/svg" xmlns:xlink="http://www.w3.org/1999/xlink" width="32" height="32" viewBox="0 0 32 32">
  <defs>
    <path id="-104-a" d="M18.8203785,15.5 L29.6154406,4.81907271 C30.1281865,4.31156402 30.1281865,3.48896086 29.6154406,2.9801608 C29.1026947,2.4726521 28.2716028,2.4726521 27.7588569,2.9801608 L16.1327029,14.4836912 C15.8508883,14.7626273 15.7399891,15.1345421 15.7673877,15.5 C15.7399891,15.8667493 15.8508883,16.2386641 16.1327029,16.5176001 L27.7588569,28.0198392 C28.2716028,28.5273479 29.1026947,28.5273479 29.6154406,28.0198392 C30.1281865,27.5123305 30.1281865,26.688436 29.6154406,26.1822187 L18.8203785,15.5 L18.8203785,15.5 Z M3.0570306,15.5 L16.4797523,2.21954344 C16.9924981,1.71203474 16.9924981,0.889431589 16.4797523,0.380631522 C15.9657017,-0.126877174 15.1346098,-0.126877174 14.6218639,0.380631522 L0.369354994,14.4836912 C0.0875404647,14.7626273 -0.0233587713,15.1345421 0.00403986346,15.5 C-0.0233587713,15.8667493 0.0875404647,16.2386641 0.369354994,16.5176001 L14.6218639,30.6193685 C15.1346098,31.1268772 15.9657017,31.1268772 16.4797523,30.6193685 C16.9924981,30.1118598 16.9924981,29.2892566 16.4797523,28.7817479 L3.0570306,15.5 L3.0570306,15.5 Z"/>
  </defs>
  <use fill="#AAA" fill-rule="evenodd" xlink:href="#a"/>
</svg>
