<svg xmlns="http://www.w3.org/2000/svg" xmlns:xlink="http://www.w3.org/1999/xlink" width="32" height="32" viewBox="0 0 32 32">
  <defs>
    <path id="-105-a" d="M14.2323918,15.5 C14.2610552,15.1345421 14.1490071,14.7626273 13.8675839,14.4836912 L2.24193964,2.9801608 C1.72990577,2.4726521 0.898665039,2.4726521 0.384025401,2.9801608 C-0.128008467,3.48896086 -0.128008467,4.31156402 0.384025401,4.81907271 L11.1797318,15.5 L0.384025401,26.1822187 C-0.128008467,26.688436 -0.128008467,27.5123305 0.384025401,28.0198392 C0.898665039,28.5273479 1.72990577,28.5273479 2.24193964,28.0198392 L13.8675839,16.5176001 C14.1490071,16.2386641 14.2610552,15.8667493 14.2323918,15.5 L14.2323918,15.5 Z M29.6311915,14.4836912 L15.3789307,0.380631522 C14.8668968,-0.126877174 14.0343532,-0.126877174 13.5210165,0.380631522 C13.0076797,0.889431589 13.0076797,1.71203474 13.5210165,2.21954344 L26.9420365,15.5 L13.5210165,28.7817479 C13.0076797,29.2892566 13.0076797,30.1118598 13.5210165,30.6193685 C14.0343532,31.1268772 14.8668968,31.1268772 15.3789307,30.6193685 L29.6311915,16.5176001 C29.9113118,16.2386641 30.0233599,15.8667493 29.9959993,15.5 C30.0233599,15.1345421 29.9113118,14.7626273 29.6311915,14.4836912 L29.6311915,14.4836912 Z"/>
  </defs>
  <use fill="#AAA" fill-rule="evenodd" xlink:href="#a"/>
</svg>
