<svg xmlns="http://www.w3.org/2000/svg" xmlns:xlink="http://www.w3.org/1999/xlink" width="32" height="32" viewBox="0 0 32 32">
  <defs>
    <path id="-dropbox-a" d="M25.3287174,11.5417393 L21.7148709,14.5531807 L25.3287174,17.650534 L21.5442156,19.9211912 L19.7360874,21.0061704 L16.0370593,18.1670638 L12.3368263,21.0061704 L10.5531974,19.9498529 L6.6712826,17.650534 L10.5728407,14.6820667 L6.6712826,11.7140376 L12.3367898,8.02366271 L16.0370228,11.1979824 L19.8224009,8.02366271 L25.3287174,11.5417393 Z M16.0485239,11.3624673 L10.6403871,14.6300742 L15.9998174,18.0065587 L21.3927654,14.4328384 L16.0485239,11.3624673 Z M19.8960813,21.5281769 L21.5442156,20.5393694 L21.5442156,21.4385409 L15.9871479,25.043004 L10.5531974,21.4139686 L10.5531974,20.566388 L12.1784389,21.5293818 L12.3593539,21.6362148 L12.5263215,21.5085337 L16.0370228,18.8147068 L19.5465191,21.5085337 L19.7147281,21.6370545 L19.8960813,21.5281769 Z M16,30 C23.7319869,30 30,23.7319869 30,16 C30,8.26801307 23.7319869,2 16,2 C8.26801307,2 2,8.26801307 2,16 C2,23.7319869 8.26801307,30 16,30 Z M16,32 C7.16344357,32 0,24.8365564 0,16 C0,7.16344357 7.16344357,0 16,0 C24.8365564,0 32,7.16344357 32,16 C32,24.8365564 24.8365564,32 16,32 Z"/>
  </defs>
  <use fill="#AAA" fill-rule="evenodd" xlink:href="#a"/>
</svg>
