<svg xmlns="http://www.w3.org/2000/svg" xmlns:xlink="http://www.w3.org/1999/xlink" width="32" height="32" viewBox="0 0 32 32">
  <defs>
    <path id="9-a" d="M30,12 L32,12 L32,28 C32,30.196 30.012,32 27.817,32 L3.974,32 C1.779,32 0,30.22 0,28.023 L0,4.165 C0,1.969 1.806,0 4,0 L20,0 L20,2 L4,2 C2.902,2 1.987,3.066 1.987,4.165 L1.987,28.023 C1.987,29.122 2.877,30.012 3.974,30.012 L27.817,30.012 C28.914,30.012 30,29.099 30,28 L30,12 Z M29.4350288,6.80761184 C30.2899203,7.66391875 30.2979454,8.77312244 29.4338457,9.63722215 L13.7137417,25.3573261 L5.88754867,27.5266649 C4.80158899,27.7584396 4.24156042,27.198411 4.47333511,26.1124513 L6.64267389,18.2862583 L22.3627778,2.56615434 C23.2268776,1.70205463 24.336789,1.70937195 25.1923882,2.56497116 L29.4350288,6.80761184 Z M24.4811402,11.7615005 L20.2384995,7.51885977 L23.069293,4.68806628 C23.7465787,3.96693997 23.814487,3.9725708 24.4840982,4.68747468 L27.3125253,7.51590181 C28.0005361,8.21382034 28.0458146,8.20248297 27.3119337,8.93070696 L24.4811402,11.7615005 L24.4811402,11.7615005 Z M13.8656646,22.376976 C12.413975,20.923871 10.0345601,18.5458715 9.62302395,18.1343354 L18.8231028,8.93425651 L23.0657435,13.1768972 L13.8656646,22.376976 L13.8656646,22.376976 Z M6.60857721,25.3914228 L8.20762721,19.5497321 L12.4502679,23.7923728 L6.60857721,25.3914228 L6.60857721,25.3914228 Z"/>
  </defs>
  <use fill="#AAA" fill-rule="evenodd" xlink:href="#a"/>
</svg>
