<svg xmlns="http://www.w3.org/2000/svg" xmlns:xlink="http://www.w3.org/1999/xlink" width="34" height="32" viewBox="0 0 34 32">
  <defs>
    <path id="-60-a" d="M17,30 L5,30 L5,23 C5,20.238 7.351,18 10.25,18 L11.75,18 C14.649,18 17,20.238 17,23 L17,30 L17,30 Z M5,9 L5,2 L17,2 L17,9 C17,11.762 14.649,14 11.75,14 L10.25,14 C7.351,14 5,11.762 5,9 L5,9 Z M21,30 L19,30 L19,23 C19,19.134 15.866,16 12,16 C15.866,16 19,12.866 19,9 L19,2 L21,2 C21.553,2 22,1.553 22,1 C22,0.448 21.553,0 21,0 L1,0 C0.447,0 0,0.448 0,1 C0,1.553 0.447,2 1,2 L3,2 L3,9 C3,12.866 6.134,16 10,16 C6.134,16 3,19.134 3,23 L3,30 L1,30 C0.447,30 0,30.448 0,31 C0,31.553 0.447,32 1,32 L21,32 C21.553,32 22,31.553 22,31 C22,30.448 21.553,30 21,30 L21,30 Z"/>
  </defs>
  <use fill="#AAA" fill-rule="evenodd" xlink:href="#a"/>
</svg>
