<svg xmlns="http://www.w3.org/2000/svg" xmlns:xlink="http://www.w3.org/1999/xlink" width="32" height="32" viewBox="0 0 32 32">
  <defs>
    <path id="-102-a" d="M16,3 L29,23 L3,23 L16,3 L16,3 Z M2.28746318,25 L29.6976162,25 C32.3890731,25 32.298863,23.4277061 31.5360742,22.2555706 L17.6186044,0.695759606 C16.9814246,-0.192977542 15.0835878,-0.270061887 14.3299342,0.695759606 L0.41246438,22.2555706 C-0.277242853,23.5353975 -0.369736703,25 2.28746318,25 L2.28746318,25 Z M30.8571429,28 L1.14285714,28 C0.512,28 0,28.4475524 0,29 C0,29.5524476 0.512,30 1.14285714,30 L30.8571429,30 C31.488,30 32,29.5524476 32,29 C32,28.4475524 31.488,28 30.8571429,28 L30.8571429,28 Z"/>
  </defs>
  <use fill="#AAA" fill-rule="evenodd" xlink:href="#a"/>
</svg>
