<svg xmlns="http://www.w3.org/2000/svg" xmlns:xlink="http://www.w3.org/1999/xlink" width="32" height="32" viewBox="0 0 32 32">
  <defs>
    <path id="-39-a" d="M16,20.656 L2,10 L15.98,2.331 L30,10 L16,20.656 L16,20.656 Z M30,28 C30,28.203 29.961,28.395 29.905,28.578 L20.935,19.607 L30,12.375 L30,28 L30,28 Z M3.556,29.946 L12.742,20.76 L16,23 L19.258,20.76 L28.444,29.946 C28.301,29.979 3.699,29.979 3.556,29.946 L3.556,29.946 Z M2,28 L2,12.375 L11.066,19.607 L2.095,28.578 C2.039,28.395 2,28.203 2,28 L2,28 Z M16,0 L0,9 L0,28 C0,30.209 1.791,32 4,32 L28,32 C30.209,32 32,30.209 32,28 L32,9 L16,0 L16,0 Z"/>
  </defs>
  <use fill="#AAA" fill-rule="evenodd" xlink:href="#a"/>
</svg>
