<svg xmlns="http://www.w3.org/2000/svg" xmlns:xlink="http://www.w3.org/1999/xlink" width="32" height="32" viewBox="0 0 32 32">
  <defs>
    <path id="-215-a" d="M31.685,0.3 C31.503,0.12 31.251,0 30.972,0 L22,0 C21.447,0 21,0.45 21,1 C21,1.55 21.447,2 22,2 L28.629,2 L17.83,12.8 L19.244,14.21 L30.031,3.42 L30,10 C30,10.55 30.447,11 31,11 C31.553,11 32,10.55 32,10 L32,1 C32,0.7 31.878,0.46 31.685,0.3 L31.685,0.3 Z M12.756,17.79 L1.969,28.58 L2,22 C2,21.45 1.553,21 1,21 C0.447,21 0,21.45 0,22 L0,31 C0,31.3 0.122,31.54 0.315,31.7 C0.497,31.88 0.749,32 1.028,32 L10,32 C10.553,32 11,31.55 11,31 C11,30.45 10.553,30 10,30 L3.371,30 L14.17,19.2 L12.756,17.79 L12.756,17.79 Z"/>
  </defs>
  <use fill="#AAA" fill-rule="evenodd" xlink:href="#a"/>
</svg>
