<svg xmlns="http://www.w3.org/2000/svg" xmlns:xlink="http://www.w3.org/1999/xlink" width="32" height="32" viewBox="0 0 32 32">
  <defs>
    <path id="-165-a" d="M29.714284,27.4285718 C29.714284,28.6708574 28.6708555,29.7142859 27.4285698,29.7142859 L4.49714259,29.7520002 C3.25485695,29.7520002 2.24799987,28.7451431 2.24799987,27.5028575 L2.28571415,4.57143027 C2.28571415,3.32914463 3.32914266,2.28571612 4.5714283,2.28571612 L17.1428561,2.28571612 L17.1428561,1.96649302e-06 L4.5714283,1.96649302e-06 C2.08799988,1.96649302e-06 0,2.53828753 0,5.02171596 L0,27.5028575 C0,29.9862859 2.01371417,32.0000001 4.49714259,32.0000001 L26.9782841,32.0000001 C29.4617126,32.0000001 31.9999981,29.9120002 31.9999981,27.4285718 L31.9999981,14.857144 L29.714284,14.857144 L29.714284,27.4285718 L29.714284,27.4285718 Z M30.833141,1.96649302e-06 L22.8571415,1.96649302e-06 C22.2091416,0.00114482357 21.7154273,0.524573364 21.7142844,1.14285904 C21.7131416,1.76114472 22.2091416,2.28685897 22.8571415,2.28571612 L27.8799984,2.24914469 L10.6377137,18.6937152 C10.1805708,19.1291437 10.1805708,19.8342865 10.6377137,20.2697151 C11.0925708,20.7051436 11.8331422,20.7051436 12.2891421,20.2697151 L29.6811411,3.68228746 L29.714284,9.14285857 C29.7131411,9.76114425 30.2091411,10.2868585 30.857141,10.2857156 C31.505141,10.2845728 31.9988553,9.76114425 31.9999981,9.14285857 L31.9999981,1.11428762 C32.001141,0.496001937 31.481141,-0.00114089058 30.833141,1.96649302e-06 L30.833141,1.96649302e-06 Z"/>
  </defs>
  <use fill="#AAA" fill-rule="evenodd" xlink:href="#a"/>
</svg>
