<svg xmlns="http://www.w3.org/2000/svg" xmlns:xlink="http://www.w3.org/1999/xlink" width="32" height="32" viewBox="0 0 32 32">
  <defs>
    <path id="-facebook-a" d="M13.7967851,24.4076511 L13.7967851,15.7031461 L12,15.7031461 L12,12.7034084 L13.7967851,12.7034084 L13.7967851,10.9023768 C13.7967851,8.45519552 14.8113623,7 17.6938962,7 L20.0936864,7 L20.0936864,10.0000774 L18.5936477,10.0000774 C17.4715487,10.0000774 17.3973197,10.4192933 17.3973197,11.2016711 L17.393243,12.7030687 L20.1106725,12.7030687 L19.7926935,15.7028064 L17.393243,15.7028064 L17.393243,24.4076511 L13.7967851,24.4076511 Z M16,30 C23.7319869,30 30,23.7319869 30,16 C30,8.26801307 23.7319869,2 16,2 C8.26801307,2 2,8.26801307 2,16 C2,23.7319869 8.26801307,30 16,30 Z M16,32 C7.16344357,32 0,24.8365564 0,16 C0,7.16344357 7.16344357,0 16,0 C24.8365564,0 32,7.16344357 32,16 C32,24.8365564 24.8365564,32 16,32 Z"/>
  </defs>
  <use fill="#AAA" fill-rule="evenodd" xlink:href="#a"/>
</svg>
