<svg xmlns="http://www.w3.org/2000/svg" xmlns:xlink="http://www.w3.org/1999/xlink" width="32" height="32" viewBox="0 0 32 32">
  <defs>
    <path id="-100-a" d="M14.0308728,25.2476703 L14.0308728,16.8342797 L2.00486956,25.2476703 L2.00486956,2.81196203 L14.0308728,11.2253526 L14.0308728,2.81196203 L30.0645426,14.0298162 L14.0308728,25.2476703 L14.0308728,25.2476703 Z M31.4521584,12.5885222 L14.4463566,0.380091506 C13.3190439,-0.224871342 12.0275401,-0.368099301 12.0265389,1.96160862 L12.0265389,7.27506542 L2.42035335,0.380091506 C1.29304069,-0.224871342 -0.0305004579,-0.242900036 0.00053568098,2.02470905 L0.00053568098,26.0038739 C0.0325729857,28.0521338 1.38715027,28.3486057 2.42035335,27.6795408 L12.0265389,20.7845669 L12.0265389,26.0349233 C12.0275401,28.0210844 13.4121524,28.3486057 14.4463566,27.6795408 L31.4521584,15.4721117 C32.1649884,14.9592955 32.2000292,13.1003368 31.4521584,12.5885222 L31.4521584,12.5885222 Z"/>
  </defs>
  <use fill="#AAA" fill-rule="evenodd" xlink:href="#a"/>
</svg>
