<svg xmlns="http://www.w3.org/2000/svg" xmlns:xlink="http://www.w3.org/1999/xlink" width="32" height="32" viewBox="0 0 32 32">
  <defs>
    <path id="-1-a" d="M19,16.0026155 L7,16.0026155 C6.448,16.0026155 6,16.4505423 6,17.002452 C6,17.5553616 6.448,18.0022886 7,18.0022886 L19,18.0022886 C19.552,18.0022886 20,17.5553616 20,17.002452 C20,16.4505423 19.552,16.0026155 19,16.0026155 L19,16.0026155 Z M19,22.0016347 L7,22.0016347 C6.448,22.0016347 6,22.4485616 6,23.0014712 C6,23.5543808 6.448,24.0013077 7,24.0013077 L19,24.0013077 C19.552,24.0013077 20,23.5543808 20,23.0014712 C20,22.4485616 19.552,22.0016347 19,22.0016347 L19,22.0016347 Z M20,8.00392323 C18.896,8.00392323 18,7.1080697 18,6.00425017 L18,2.00490404 L24,8.00392323 L20,8.00392323 L20,8.00392323 Z M24,28.0006539 C24,29.1044734 23.104,30.0003269 22,30.0003269 L4,30.0003269 C2.896,30.0003269 2,29.1044734 2,28.0006539 L2,4.00457711 C2,2.90075758 2.896,2.00490404 4,2.00490404 L15.972,2.00490404 C15.954,4.39951254 16,6.00425017 16,6.00425017 C16,8.21288907 17.791,10.0035963 20,10.0035963 L24,10.0035963 L24,28.0006539 L24,28.0006539 Z M18,0.00523097867 L18,0.0332264016 C17.872,0.0332264016 17.338,-0.0157655885 16,0.00523097867 L4,0.00523097867 C1.791,0.00523097867 0,1.79593821 0,4.00457711 L0,28.0006539 C0,30.2092928 1.791,32 4,32 L22,32 C24.209,32 26,30.2092928 26,28.0006539 L26,8.00392323 L18,0.00523097867 L18,0.00523097867 Z"/>
  </defs>
  <use fill="#AAA" fill-rule="evenodd" xlink:href="#a"/>
</svg>
