<svg xmlns="http://www.w3.org/2000/svg" xmlns:xlink="http://www.w3.org/1999/xlink" width="32" height="30" viewBox="0 0 32 30">
  <defs>
    <path id="-84-a" d="M20,6 L22,6 L22,8 L20,8 L20,6 Z M20,10 L22,10 L22,12 L20,12 L20,10 Z M20,14 L22,14 L22,16 L20,16 L20,14 Z M20,18 L22,18 L22,20 L20,20 L20,18 Z M20,22 L22,22 L22,24 L20,24 L20,22 Z M20,26 L22,26 L22,28 L20,28 L20,26 Z M18,13 C18,13.553 17.552,14 17,14 L7,14 C6.448,14 6,13.553 6,13 L6,3 C6,2.448 6.448,2 7,2 L17,2 C17.552,2 18,2.448 18,3 L18,13 L18,13 Z M18,27 C18,27.553 17.552,28 17,28 L7,28 C6.448,28 6,27.553 6,27 L6,17 C6,16.448 6.448,16 7,16 L17,16 C17.552,16 18,16.448 18,17 L18,27 L18,27 Z M2,6 L4,6 L4,8 L2,8 L2,6 Z M2,10 L4,10 L4,12 L2,12 L2,10 Z M2,14 L4,14 L4,16 L2,16 L2,14 Z M2,18 L4,18 L4,20 L2,20 L2,18 Z M2,22 L4,22 L4,24 L2,24 L2,22 Z M2,26 L4,26 L4,28 L2,28 L2,26 Z M20,0 L4,0 C1.791,0 0,1.791 0,4 L0,30 L4,30 L20,30 L24,30 L24,4 C24,1.791 22.209,0 20,0 L20,0 Z"/>
  </defs>
  <use fill="#AAA" fill-rule="evenodd" xlink:href="#a"/>
</svg>
