<svg xmlns="http://www.w3.org/2000/svg" xmlns:xlink="http://www.w3.org/1999/xlink" width="32" height="32" viewBox="0 0 32 32">
  <defs>
    <path id="-83-a" d="M30,26 L24,21 L24,18 L30,14 L30,26 L30,26 Z M19,12.012 C16.232,12.012 13.989,9.768 13.989,7 C13.989,4.232 16.232,1.989 19,1.989 C21.768,1.989 24.011,4.232 24.011,7 C24.011,9.768 21.768,12.012 19,12.012 L19,12.012 Z M22,24 C22,25.104 21.104,26 20,26 L4,26 C2.896,26 2,25.104 2,24 L2,16 C2,14.896 2.896,14 4,14 L20,14 C21.104,14 22,14.896 22,16 L22,24 L22,24 Z M2,8 C2,5.791 3.791,4 6,4 C8.209,4 10,5.791 10,8 C10,10.209 8.209,12 6,12 C3.791,12 2,10.209 2,8 L2,8 Z M30,12 L24,16 C24,14.786 23.448,13.712 22.594,12.979 C24.626,11.753 26,9.546 26,7 C26,3.134 22.866,0 19,0 C15.134,0 12,3.134 12,7 C12,8.962 12.812,10.729 14.111,12 L10.443,12 C11.4,10.937 12,9.544 12,8 C12,4.687 9.313,2 6,2 C2.687,2 0,4.687 0,8 C0,9.809 0.816,11.41 2.082,12.511 C0.847,13.191 0,14.49 0,16 L0,24 C0,26.209 1.791,28 4,28 L20,28 C22.209,28 24,26.209 24,24 L24,23 L30,28 C31.104,28 32,27.104 32,26 L32,14 C32,12.896 31.104,12 30,12 L30,12 Z"/>
  </defs>
  <use fill="#AAA" fill-rule="evenodd" xlink:href="#a"/>
</svg>
