<svg xmlns="http://www.w3.org/2000/svg" xmlns:xlink="http://www.w3.org/1999/xlink" width="32" height="32" viewBox="0 0 32 32">
  <defs>
    <path id="-67-a" d="M13.5,30 C7.148,30 2,24.641 2,18.625 C2,17.228 2.031,16.094 3,15 C2.895,15.634 4.397,21.055 9.305,20.771 C9.092,16.652 7.978,6.561 13.152,3.073 C12.695,8.557 14.038,15.924 20.029,17 C19.686,14.801 19.727,11.143 21.267,10.467 C21.433,13.836 23.924,15.914 23.924,19.152 C23.924,25.016 18.251,30 13.5,30 L13.5,30 Z M22.905,6.953 C18.52,8.203 17.717,11.748 18,14 C14.872,10.322 15,6.093 15,0 C4.968,3.783 7.301,14.688 7,18 C4.477,15.935 4,11 4,11 C1.336,12.371 0,16.031 0,19 C0,26.18 5.82,32 13,32 C20.18,32 26,26.18 26,19 C26,14.733 22.867,12.765 22.905,6.953 L22.905,6.953 Z"/>
  </defs>
  <use fill="#AAA" fill-rule="evenodd" xlink:href="#a"/>
</svg>
