<svg xmlns="http://www.w3.org/2000/svg" xmlns:xlink="http://www.w3.org/1999/xlink" width="32" height="32" viewBox="0 0 32 32">
  <defs>
    <path id="-123-a" d="M23,21 C23,21.552 22.552,22 22,22 L17,22 L17,9 L22,9 C22.552,9 23,9.448 23,10 L23,21 L23,21 Z M15,18 C15,18.553 14.552,19 14,19 L6,19 L6,5 L14,5 C14.552,5 15,5.448 15,6 L15,18 L15,18 Z M4,29 C4,29.553 3.552,30 3,30 C2.448,30 2,29.553 2,29 L2,3 C2,2.448 2.448,2 3,2 C3.552,2 4,2.448 4,3 L4,29 L4,29 Z M23,7 L17,7 L17,5 C17,3.896 16.104,3 15,3 L6,3 L6,2 C6,0.896 5.104,0 4,0 L2,0 C0.896,0 0,0.896 0,2 L0,30 C0,31.104 0.896,32 2,32 L4,32 C5.104,32 6,31.104 6,30 L6,21 L15,21 L15,22 C15,23.104 15.94,24 17,24 L23,24 C24.104,24 25,23.104 25,22 L25,9 C25,7.896 24.104,7 23,7 L23,7 Z"/>
  </defs>
  <use fill="#AAA" fill-rule="evenodd" xlink:href="#a"/>
</svg>
