<svg xmlns="http://www.w3.org/2000/svg" xmlns:xlink="http://www.w3.org/1999/xlink" width="32" height="32" viewBox="0 0 32 32">
  <defs>
    <path id="-16-a" d="M30,10 L2,10 L2,4 C2,2.896 2.896,2 4,2 L10,2 C11.104,2 12,2.896 12,4 L12,6 L28,6 C29.104,6 30,6.896 30,8 L30,10 L30,10 Z M30,28 C30,29.104 29.104,30 28,30 L4,30 C2.896,30 2,29.104 2,28 L2,12 L30,12 L30,28 L30,28 Z M28,4 L14,4 C14,1.791 12.209,0 10,0 L4,0 C1.791,0 0,1.791 0,4 L0,28 C0,30.209 1.791,32 4,32 L28,32 C30.209,32 32,30.209 32,28 L32,8 C32,5.791 30.209,4 28,4 L28,4 Z"/>
  </defs>
  <use fill="#AAA" fill-rule="evenodd" xlink:href="#a"/>
</svg>
