<svg xmlns="http://www.w3.org/2000/svg" xmlns:xlink="http://www.w3.org/1999/xlink" width="32" height="32" viewBox="0 0 32 32">
  <defs>
    <path id="-71-a" d="M9,0 C8.448,0 8,0.448 8,1 L8,8 C8,9.407 7.163,10.356 6,10.802 L6,1 C6,0.448 5.552,0 5,0 C4.448,0 4,0.448 4,1 L4,10.802 C2.837,10.356 2,9.407 2,8 L2,1 C2,0.448 1.552,0 1,0 C0.448,0 0,0.448 0,1 L0,8 C0,10.419 1.718,12.437 4,12.899 L4,31 C4,31.553 4.448,32 5,32 C5.552,32 6,31.553 6,31 L6,12.899 C8.282,12.437 10,10.419 10,8 L10,1 C10,0.448 9.552,0 9,0"/>
  </defs>
  <use fill="#AAA" fill-rule="evenodd" xlink:href="#a"/>
</svg>
