<svg xmlns="http://www.w3.org/2000/svg" xmlns:xlink="http://www.w3.org/1999/xlink" width="32" height="32" viewBox="0 0 32 32">
  <defs>
    <path id="-76-a" d="M23.5,4 C22.672,4 22,4.672 22,5.5 C22,6.328 22.672,7 23.5,7 C24.328,7 25,6.328 25,5.5 C25,4.672 24.328,4 23.5,4 L23.5,4 Z M26.5,8 C25.672,8 25,8.672 25,9.5 C25,10.328 25.672,11 26.5,11 C27.328,11 28,10.328 28,9.5 C28,8.672 27.328,8 26.5,8 L26.5,8 Z M30,12 C30,14.209 28.209,16 26,16 L6,16 C3.791,16 2,14.209 2,12 L2,6 C2,3.791 3.791,2 6,2 L26,2 C28.209,2 30,3.791 30,6 L30,12 L30,12 Z M26,0 L6,0 C2.687,0 0,2.687 0,6 L0,12 C0,15.313 2.687,18 6,18 L26,18 C29.313,18 32,15.313 32,12 L32,6 C32,2.687 29.313,0 26,0 L26,0 Z M22.5,11 C21.672,11 21,11.672 21,12.5 C21,13.328 21.672,14 22.5,14 C23.328,14 24,13.328 24,12.5 C24,11.672 23.328,11 22.5,11 L22.5,11 Z M13,8 L10,8 L10,5 C10,4.448 9.553,4 9,4 C8.447,4 8,4.448 8,5 L8,8 L5,8 C4.447,8 4,8.448 4,9 C4,9.553 4.447,10 5,10 L8,10 L8,13 C8,13.553 8.447,14 9,14 C9.553,14 10,13.553 10,13 L10,10 L13,10 C13.553,10 14,9.553 14,9 C14,8.448 13.553,8 13,8 L13,8 Z M19.5,7 C18.672,7 18,7.672 18,8.5 C18,9.328 18.672,10 19.5,10 C20.328,10 21,9.328 21,8.5 C21,7.672 20.328,7 19.5,7 L19.5,7 Z"/>
  </defs>
  <use fill="#AAA" fill-rule="evenodd" xlink:href="#a"/>
</svg>
