<svg xmlns="http://www.w3.org/2000/svg" xmlns:xlink="http://www.w3.org/1999/xlink" width="32" height="32" viewBox="0 0 32 32">
  <defs>
    <path id="-77-a" d="M20,17 C20,17.553 19.553,18 19,18 L7,18 C6.447,18 6,17.553 6,17 L6,7 C6,6.447 6.447,6 7,6 L19,6 C19.553,6 20,6.447 20,7 L20,17 L20,17 Z M20,4 L6,4 C4.896,4 4,4.896 4,6 L4,18 C4,19.104 4.896,20 6,20 L20,20 C21.104,20 22,19.104 22,18 L22,6 C22,4.896 21.104,4 20,4 L20,4 Z M21,22 C20.448,22 20,22.448 20,23 C20,23.553 20.448,24 21,24 C21.553,24 22,23.553 22,23 C22,22.448 21.553,22 21,22 L21,22 Z M24,28 C24,29.104 23.104,30 22,30 L4,30 C2.896,30 2,29.104 2,28 L2,4 C2,2.896 2.896,2 4,2 L22,2 C23.104,2 24,2.896 24,4 L24,28 L24,28 Z M22,0 L4,0 C1.791,0 0,1.791 0,4 L0,28 C0,30.209 1.791,32 4,32 L22,32 C24.209,32 26,30.209 26,28 L26,4 C26,1.791 24.209,0 22,0 L22,0 Z M9,24 L8,24 L8,23 C8,22.448 7.553,22 7,22 C6.447,22 6,22.448 6,23 L6,24 L5,24 C4.447,24 4,24.447 4,25 C4,25.553 4.447,26 5,26 L6,26 L6,27 C6,27.553 6.447,28 7,28 C7.553,28 8,27.553 8,27 L8,26 L9,26 C9.553,26 10,25.553 10,25 C10,24.447 9.553,24 9,24 L9,24 Z M15,26 C14.448,26 14,26.448 14,27 C14,27.553 14.448,28 15,28 C15.553,28 16,27.553 16,27 C16,26.448 15.553,26 15,26 L15,26 Z M16,22 C15.448,22 15,22.448 15,23 C15,23.553 15.448,24 16,24 C16.553,24 17,23.553 17,23 C17,22.448 16.553,22 16,22 L16,22 Z M20,26 C19.447,26 19,26.448 19,27 C19,27.553 19.447,28 20,28 C20.553,28 21,27.553 21,27 C21,26.448 20.553,26 20,26 L20,26 Z"/>
  </defs>
  <use fill="#AAA" fill-rule="evenodd" xlink:href="#a"/>
</svg>
