<svg xmlns="http://www.w3.org/2000/svg" xmlns:xlink="http://www.w3.org/1999/xlink" width="32" height="32" viewBox="0 0 32 32">
  <defs>
    <path id="-131-a" d="M29,10 L3,10 C2.448,10 2,9.553 2,9 C2,8.448 2.448,8 3,8 L29,8 C29.552,8 30,8.448 30,9 C30,9.553 29.552,10 29,10 L29,10 Z M17,12 L28,12 L28,20 L17,20 L17,12 Z M28,28 C28,29.104 27.104,30 26,30 L17,30 L17,22 L28,22 L28,28 L28,28 Z M4,12 L15,12 L15,20 L4,20 L4,12 Z M15,30 L6,30 C4.896,30 4,29.104 4,28 L4,22 L15,22 L15,30 L15,30 Z M13,2 C14.104,2 15,2.896 15,4 C15,5.104 14.104,6 13,6 C11.896,6 11,5.104 11,4 C11,2.896 11.896,2 13,2 L13,2 Z M19,2 C20.104,2 21,2.896 21,4 C21,5.104 20.104,6 19,6 C17.896,6 17,5.104 17,4 C17,2.896 17.896,2 19,2 L19,2 Z M30,6 L22.445,6 C22.789,5.41 23,4.732 23,4 C23,1.791 21.209,0 19,0 C17.798,0 16.733,0.541 16,1.38 C15.267,0.541 14.202,0 13,0 C10.791,0 9,1.791 9,4 C9,4.732 9.211,5.41 9.555,6 L2,6 C0.896,6 0,6.896 0,8 L0,10 C0,11.104 0.896,12 2,12 L2,28 C2,30.209 3.791,32 6,32 L26,32 C28.209,32 30,30.209 30,28 L30,12 C31.104,12 32,11.104 32,10 L32,8 C32,6.896 31.104,6 30,6 L30,6 Z"/>
  </defs>
  <use fill="#AAA" fill-rule="evenodd" xlink:href="#a"/>
</svg>
