<svg xmlns="http://www.w3.org/2000/svg" xmlns:xlink="http://www.w3.org/1999/xlink" width="32" height="32" viewBox="0 0 32 32">
  <defs>
    <path id="-69-a" d="M14.0058955,15.0025988 L3.10384178,2.00259876 L23.9843682,2.00259876 L14.0058955,15.0025988 L14.0058955,15.0025988 Z M26.6521578,1.75559876 C26.8600635,1.57159876 27,1.30859876 27,1.00259876 C27,0.571598758 26.7341206,0.212598758 26.3662875,0.0715987581 C26.2223528,0.0105987581 26.0684227,-0.00740124192 25.9144925,0.00259875808 L1.06576646,0.00259875808 C0.78789253,-0.0154012419 0.506020417,0.0725987581 0.293117012,0.285598758 C-0.0977056706,0.678598758 -0.0977056706,1.31559876 0.293117012,1.70959876 L13.006349,17.0025988 L13.006349,26.0025988 L9.00816296,26.0025988 C8.45541375,26.0025988 8.00861646,26.4505988 8.00861646,27.0025988 C8.00861646,27.5555988 8.45541375,28.0025988 9.00816296,28.0025988 L19.003628,28.0025988 C19.5563772,28.0025988 20.0031745,27.5555988 20.0031745,27.0025988 C20.0031745,26.4505988 19.5563772,26.0025988 19.003628,26.0025988 L15.005442,26.0025988 L15.005442,17.0025988 L26.6521578,1.75559876 L26.6521578,1.75559876 Z"/>
  </defs>
  <use fill="#AAA" fill-rule="evenodd" xlink:href="#a"/>
</svg>
