<svg xmlns="http://www.w3.org/2000/svg" xmlns:xlink="http://www.w3.org/1999/xlink" width="32" height="32" viewBox="0 0 32 32">
  <defs>
    <path id="-113-a" d="M27.596,23.829 C25.681,23.192 23.622,22.716 21.455,22.408 C21.75,20.675 21.907,18.859 21.957,17 L29.962,17 C29.783,19.521 28.936,21.854 27.596,23.829 L27.596,23.829 Z M19.434,29.559 C20.1,27.95 20.645,26.211 21.064,24.379 C22.862,24.645 24.586,25.038 26.219,25.554 C24.415,27.477 22.073,28.892 19.434,29.559 L19.434,29.559 Z M16.971,29.951 C16.649,29.974 16.328,30 16,30 C15.672,30 15.352,29.974 15.029,29.951 C14.178,28.179 13.489,26.207 12.979,24.114 C13.973,24.027 14.98,23.976 16,23.976 C17.02,23.976 18.027,24.027 19.022,24.114 C18.511,26.207 17.822,28.179 16.971,29.951 L16.971,29.951 Z M5.781,25.554 C7.414,25.038 9.138,24.645 10.936,24.379 C11.355,26.211 11.9,27.95 12.566,29.559 C9.927,28.892 7.586,27.477 5.781,25.554 L5.781,25.554 Z M4.404,23.829 C3.064,21.854 2.217,19.521 2.038,17 L10.043,17 C10.093,18.859 10.25,20.675 10.545,22.408 C8.378,22.716 6.319,23.192 4.404,23.829 L4.404,23.829 Z M4.404,8.171 C6.319,8.808 8.378,9.285 10.545,9.592 C10.25,11.325 10.093,13.141 10.043,15 L2.038,15 C2.217,12.479 3.064,10.146 4.404,8.171 L4.404,8.171 Z M12.566,2.441 C11.9,4.05 11.355,5.789 10.936,7.621 C9.138,7.356 7.414,6.962 5.781,6.446 C7.586,4.523 9.927,3.108 12.566,2.441 L12.566,2.441 Z M15.029,2.049 C15.352,2.027 15.672,2 16,2 C16.328,2 16.649,2.027 16.971,2.049 C17.822,3.821 18.511,5.794 19.022,7.886 C18.027,7.973 17.02,8.024 16,8.024 C14.98,8.024 13.973,7.973 12.979,7.886 C13.489,5.794 14.178,3.821 15.029,2.049 L15.029,2.049 Z M19.954,17 C19.9,18.761 19.74,20.493 19.439,22.156 C18.313,22.058 17.168,22 16,22 C14.832,22 13.687,22.058 12.562,22.156 C12.26,20.493 12.1,18.761 12.047,17 L19.954,17 L19.954,17 Z M12.047,15 C12.1,13.239 12.26,11.507 12.562,9.844 C13.687,9.942 14.832,10 16,10 C17.168,10 18.313,9.942 19.438,9.844 C19.74,11.507 19.9,13.239 19.954,15 L12.047,15 L12.047,15 Z M26.219,6.446 C24.586,6.962 22.862,7.356 21.064,7.621 C20.645,5.789 20.1,4.05 19.434,2.441 C22.073,3.108 24.415,4.523 26.219,6.446 L26.219,6.446 Z M27.596,8.171 C28.936,10.146 29.783,12.479 29.962,15 L21.957,15 C21.907,13.141 21.75,11.325 21.455,9.592 C23.622,9.285 25.681,8.808 27.596,8.171 L27.596,8.171 Z M16,0 C7.164,0 0,7.163 0,16 C0,24.837 7.164,32 16,32 C24.836,32 32,24.837 32,16 C32,7.163 24.836,0 16,0 L16,0 Z"/>
  </defs>
  <use fill="#AAA" fill-rule="evenodd" xlink:href="#a"/>
</svg>
