<svg xmlns="http://www.w3.org/2000/svg" xmlns:xlink="http://www.w3.org/1999/xlink" width="32" height="32" viewBox="0 0 32 32">
  <defs>
    <path id="-gmail-a" d="M0,16 C0,19.9490958 1.43070819,23.5640315 3.80207231,26.3547551 C4.24946061,25.6024069 4.94317024,24.8627325 5.97085922,24.254892 C8.28967923,22.8341121 11.4127143,22.646462 13.1015658,22.5392333 C12.5788261,21.8690541 11.9756648,21.1586642 11.9756648,19.9925524 C11.9756648,19.3625839 12.163315,18.9872836 12.3509651,18.5449653 C11.935454,18.5851761 11.5333465,18.6253868 11.1580462,18.6253868 C7.20398893,18.6253868 4.96559043,15.6765984 4.96559043,12.7680207 C4.96559043,11.0523619 5.75640188,9.14637231 7.35142836,7.76714353 C9.48259819,6.01529512 12.0158755,5.7163952 14.0264131,5.7163952 L21.7066667,5.7163952 L19.3208287,7.05809394 L17.0154123,7.05809394 C17.8732417,7.76714353 19.6559183,9.25896241 19.6559183,12.0978415 C19.6559183,14.8589797 18.087699,16.1591274 16.5328833,17.3922571 C16.0369507,17.8747861 15.4874038,18.3975259 15.4874038,19.2151445 C15.4874038,20.0327631 16.0369507,20.488485 16.4524618,20.8235746 L17.7928202,21.8690541 C19.441461,23.2362197 20.9292588,24.5095601 20.9292588,27.0830482 C20.9292588,28.7801683 20.1372644,30.4835491 18.5941221,31.7907764 C17.7638351,31.9261407 16.9120821,31.9976 16.0440767,31.9999406 C17.6110186,31.3125911 18.4227886,30.0549741 18.4227886,28.5440389 C18.4227886,26.64073 17.2030625,25.6354612 14.3615027,23.61152 C14.0666239,23.5847128 13.8789737,23.5847128 13.5036733,23.5847128 C13.1685838,23.5847128 11.1580462,23.6517308 9.58982686,24.1744705 C8.77220825,24.4693494 6.38637032,25.3673895 6.38637032,28.0212991 C6.38637032,28.3097142 6.41707353,28.5893341 6.4769778,28.8586391 C2.54700089,25.9433216 0,21.2691029 0,16 Z M15.447193,16.5344277 C16.3050224,15.6765984 16.3720403,14.4836794 16.3720403,13.8135002 C16.3720403,11.1193799 14.7770138,6.9468442 11.6807859,6.9468442 C10.7157279,6.9468442 9.67024836,7.43205393 9.06708709,8.17863355 C8.43711865,8.96140285 8.24946848,9.96667164 8.24946848,10.9317297 C8.24946848,13.4381999 9.69705553,17.5799073 12.9139157,17.5799073 C13.8387629,17.5799073 14.8440317,17.1241854 15.447193,16.5344277 Z M31.3968725,11.6333552 L27.6077284,11.6333552 L27.6077284,15.8374768 L25.8216868,15.8374768 L25.8216868,11.6333552 L21.6542788,11.6333552 L21.6542788,9.8835792 L25.8216868,9.8835792 L25.8216868,5.7163952 L27.6077284,5.7163952 L27.6077284,9.8835792 L30.789303,9.8835792 C31.0242891,10.4511364 31.2275567,11.0351581 31.3968725,11.6333552 Z M16,30 C23.7319869,30 30,23.7319869 30,16 C30,8.26801307 23.7319869,2 16,2 C8.26801307,2 2,8.26801307 2,16 C2,23.7319869 8.26801307,30 16,30 Z M16,32 C7.16344357,32 0,24.8365564 0,16 C0,7.16344357 7.16344357,0 16,0 C24.8365564,0 32,7.16344357 32,16 C32,24.8365564 24.8365564,32 16,32 Z"/>
  </defs>
  <use fill="#AAA" fill-rule="evenodd" xlink:href="#a"/>
</svg>
