<svg xmlns="http://www.w3.org/2000/svg" xmlns:xlink="http://www.w3.org/1999/xlink" width="32" height="32" viewBox="0 0 32 32">
  <defs>
    <path id="-162-a" d="M16,16 C14.896,16 14,15.104 14,14 C14,12.896 14.896,12 16,12 C17.104,12 18,12.896 18,14 C18,15.104 17.104,16 16,16 L16,16 Z M16,10 C13.791,10 12,11.791 12,14 C12,16.209 13.791,18 16,18 C18.209,18 20,16.209 20,14 C20,11.791 18.209,10 16,10 L16,10 Z M16,26 C14.896,26 14,25.104 14,24 C14,22.896 14.896,22 16,22 C17.104,22 18,22.896 18,24 C18,25.104 17.104,26 16,26 L16,26 Z M16,20 C13.791,20 12,21.791 12,24 C12,26.209 13.791,28 16,28 C18.209,28 20,26.209 20,24 C20,21.791 18.209,20 16,20 L16,20 Z M16,6 C14.896,6 14,5.104 14,4 C14,2.896 14.896,2 16,2 C17.104,2 18,2.896 18,4 C18,5.104 17.104,6 16,6 L16,6 Z M16,0 C13.791,0 12,1.791 12,4 C12,6.209 13.791,8 16,8 C18.209,8 20,6.209 20,4 C20,1.791 18.209,0 16,0 L16,0 Z M28,16 C26.896,16 26,15.104 26,14 C26,12.896 26.896,12 28,12 C29.104,12 30,12.896 30,14 C30,15.104 29.104,16 28,16 L28,16 Z M28,10 C25.791,10 24,11.791 24,14 C24,16.209 25.791,18 28,18 C30.209,18 32,16.209 32,14 C32,11.791 30.209,10 28,10 L28,10 Z M4,6 C2.896,6 2,5.104 2,4 C2,2.896 2.896,2 4,2 C5.104,2 6,2.896 6,4 C6,5.104 5.104,6 4,6 L4,6 Z M4,0 C1.791,0 0,1.791 0,4 C0,6.209 1.791,8 4,8 C6.209,8 8,6.209 8,4 C8,1.791 6.209,0 4,0 L4,0 Z M28,26 C26.896,26 26,25.104 26,24 C26,22.896 26.896,22 28,22 C29.104,22 30,22.896 30,24 C30,25.104 29.104,26 28,26 L28,26 Z M28,20 C25.791,20 24,21.791 24,24 C24,26.209 25.791,28 28,28 C30.209,28 32,26.209 32,24 C32,21.791 30.209,20 28,20 L28,20 Z M4,26 C2.896,26 2,25.104 2,24 C2,22.896 2.896,22 4,22 C5.104,22 6,22.896 6,24 C6,25.104 5.104,26 4,26 L4,26 Z M4,20 C1.791,20 0,21.791 0,24 C0,26.209 1.791,28 4,28 C6.209,28 8,26.209 8,24 C8,21.791 6.209,20 4,20 L4,20 Z M28,2 C29.104,2 30,2.896 30,4 C30,5.104 29.104,6 28,6 C26.896,6 26,5.104 26,4 C26,2.896 26.896,2 28,2 L28,2 Z M28,8 C30.209,8 32,6.209 32,4 C32,1.791 30.209,0 28,0 C25.791,0 24,1.791 24,4 C24,6.209 25.791,8 28,8 L28,8 Z M4,16 C2.896,16 2,15.104 2,14 C2,12.896 2.896,12 4,12 C5.104,12 6,12.896 6,14 C6,15.104 5.104,16 4,16 L4,16 Z M4,10 C1.791,10 0,11.791 0,14 C0,16.209 1.791,18 4,18 C6.209,18 8,16.209 8,14 C8,11.791 6.209,10 4,10 L4,10 Z"/>
  </defs>
  <use fill="#AAA" fill-rule="evenodd" xlink:href="#a"/>
</svg>
