<svg xmlns="http://www.w3.org/2000/svg" xmlns:xlink="http://www.w3.org/1999/xlink" width="32" height="32" viewBox="0 0 32 32">
  <defs>
    <path id="-161-a" d="M29.7142857,9.14285714 C29.7142857,10.4045714 28.6902857,11.4285714 27.4285714,11.4285714 L22.8571429,11.4285714 C21.5954286,11.4285714 20.5714286,10.4045714 20.5714286,9.14285714 L20.5714286,4.57142857 C20.5714286,3.30971429 21.5954286,2.28571429 22.8571429,2.28571429 L27.4285714,2.28571429 C28.6902857,2.28571429 29.7142857,3.30971429 29.7142857,4.57142857 L29.7142857,9.14285714 L29.7142857,9.14285714 Z M27.4285714,0 L22.8571429,0 C20.3325714,0 18.2857143,2.04685714 18.2857143,4.57142857 L18.2857143,9.14285714 C18.2857143,11.6674286 20.3325714,13.7142857 22.8571429,13.7142857 L27.4285714,13.7142857 C29.9531429,13.7142857 32,11.6674286 32,9.14285714 L32,4.57142857 C32,2.04685714 29.9531429,0 27.4285714,0 L27.4285714,0 Z M29.7142857,27.4285714 C29.7142857,28.6902857 28.6902857,29.7142857 27.4285714,29.7142857 L22.8571429,29.7142857 C21.5954286,29.7142857 20.5714286,28.6902857 20.5714286,27.4285714 L20.5714286,22.8571429 C20.5714286,21.5954286 21.5954286,20.5714286 22.8571429,20.5714286 L27.4285714,20.5714286 C28.6902857,20.5714286 29.7142857,21.5954286 29.7142857,22.8571429 L29.7142857,27.4285714 L29.7142857,27.4285714 Z M27.4285714,18.2857143 L22.8571429,18.2857143 C20.3325714,18.2857143 18.2857143,20.3325714 18.2857143,22.8571429 L18.2857143,27.4285714 C18.2857143,29.9531429 20.3325714,32 22.8571429,32 L27.4285714,32 C29.9531429,32 32,29.9531429 32,27.4285714 L32,22.8571429 C32,20.3325714 29.9531429,18.2857143 27.4285714,18.2857143 L27.4285714,18.2857143 Z M11.4285714,9.14285714 C11.4285714,10.4045714 10.4045714,11.4285714 9.14285714,11.4285714 L4.57142857,11.4285714 C3.30971429,11.4285714 2.28571429,10.4045714 2.28571429,9.14285714 L2.28571429,4.57142857 C2.28571429,3.30971429 3.30971429,2.28571429 4.57142857,2.28571429 L9.14285714,2.28571429 C10.4045714,2.28571429 11.4285714,3.30971429 11.4285714,4.57142857 L11.4285714,9.14285714 L11.4285714,9.14285714 Z M9.14285714,0 L4.57142857,0 C2.04685714,0 0,2.04685714 0,4.57142857 L0,9.14285714 C0,11.6674286 2.04685714,13.7142857 4.57142857,13.7142857 L9.14285714,13.7142857 C11.6674286,13.7142857 13.7142857,11.6674286 13.7142857,9.14285714 L13.7142857,4.57142857 C13.7142857,2.04685714 11.6674286,0 9.14285714,0 L9.14285714,0 Z M11.4285714,27.4285714 C11.4285714,28.6902857 10.4045714,29.7142857 9.14285714,29.7142857 L4.57142857,29.7142857 C3.30971429,29.7142857 2.28571429,28.6902857 2.28571429,27.4285714 L2.28571429,22.8571429 C2.28571429,21.5954286 3.30971429,20.5714286 4.57142857,20.5714286 L9.14285714,20.5714286 C10.4045714,20.5714286 11.4285714,21.5954286 11.4285714,22.8571429 L11.4285714,27.4285714 L11.4285714,27.4285714 Z M9.14285714,18.2857143 L4.57142857,18.2857143 C2.04685714,18.2857143 0,20.3325714 0,22.8571429 L0,27.4285714 C0,29.9531429 2.04685714,32 4.57142857,32 L9.14285714,32 C11.6674286,32 13.7142857,29.9531429 13.7142857,27.4285714 L13.7142857,22.8571429 C13.7142857,20.3325714 11.6674286,18.2857143 9.14285714,18.2857143 L9.14285714,18.2857143 Z"/>
  </defs>
  <use fill="#AAA" fill-rule="evenodd" xlink:href="#a"/>
</svg>
