<svg xmlns="http://www.w3.org/2000/svg" xmlns:xlink="http://www.w3.org/1999/xlink" width="32" height="32" viewBox="0 0 32 32">
  <defs>
    <path id="-246-a" d="M1.07212406,29.2991984 L8.14309397,31.9449364 C8.2021866,31.9664246 8.38617954,32 8.44930121,32 C8.4855626,32 8.52451001,31.995971 8.56077139,31.9879129 L19.2081882,29.7168758 C20.231565,31.147186 21.9465942,32 23.8711336,32 C27.0809376,32 29.4997062,29.7128468 29.4997062,26.6803206 C29.4997062,26.5043858 29.4634448,26.339195 29.4473287,26.1672892 C29.4513577,26.1390859 29.4634448,26.1149117 29.4634448,26.0853653 L29.4634448,21.5755236 C29.4634448,18.1736685 28.915495,15.5668779 28.3339699,12.8083267 C27.7457296,10.0108281 27.1386872,7.12066143 27.0164729,3.07013052 L27.7081252,3.07013052 C28.0049314,3.07013052 28.2453309,2.82973098 28.2453309,2.53292483 L28.2453309,1.95542872 C28.2453309,0.876988291 27.3669996,0 26.2885592,0 L20.8681538,0 C19.7897134,0 18.9127251,0.876988291 18.9127251,1.95542872 L18.9127251,2.53292483 C18.9127251,2.82973098 19.1544676,3.07013052 19.4499308,3.07013052 L20.2530533,3.07013052 C20.1509842,6.3618584 19.7185336,8.91224241 19.2135602,11.3592143 L17.3534855,9.1284677 L17.3534855,6.03819197 C17.3534855,5.78704831 17.2447014,5.54664876 17.0526504,5.37608595 C16.8646284,5.2108952 16.6148277,5.13434339 16.362341,5.1638897 L6.86588744,6.31888194 C6.42537877,6.37528854 6.09365426,6.75133252 6.09365426,7.19452722 L6.09365426,10.5184874 L0.889474126,13.9149704 C0.886788098,13.9163134 0.882759055,13.9163134 0.880073026,13.9189995 C0.877386998,13.9203425 0.877386998,13.9230285 0.874700969,13.9257145 L0.866642884,13.9310866 C0.788748059,13.9821211 0.73502749,14.0533009 0.694737063,14.1298527 C0.581923868,14.2802703 0.5,14.4521761 0.5,14.6455702 L0.5,28.4759307 C0.5,28.8398875 0.730998447,29.171612 1.07212406,29.2991984 Z M18.6535233,28.7364754 L8.86697864,30.8235195 L8.91264112,17.3853192 L20.6129811,14.8819407 L20.6129811,22.089898 C19.1343224,23.1374491 18.2398749,24.8350191 18.2398749,26.6803206 C18.2398749,27.4001763 18.3849205,28.0972007 18.6535233,28.7364754 Z M23.8684476,30.9255886 C22.2044529,30.9255886 20.7338524,30.1681286 19.9361019,28.8976371 C19.5224535,28.2422462 19.3142863,27.4955303 19.3142863,26.6803206 C19.3142863,24.9840937 20.2463382,23.4382843 21.7491711,22.6485919 C22.396504,22.3074663 23.1284467,22.1261594 23.8671045,22.1261594 C26.3785412,22.1261594 28.4212658,24.168884 28.4212658,26.6803206 C28.4226088,29.1004323 26.4658371,30.9255886 23.8684476,30.9255886 Z M24.3573047,19.2198766 C24.190771,19.44416 24.0860159,19.6832165 24.0108071,19.92093 C23.8791917,19.7839426 23.716687,19.6738154 23.5098628,19.6120368 C23.2278298,19.5287699 22.9269946,19.6885886 22.8423847,19.9733076 C22.7577748,20.2580266 22.9189365,20.5575188 23.2036555,20.6421287 C23.2775213,20.6636169 23.3285558,20.8543249 23.346015,21.0826373 C22.773891,21.1363579 22.215197,21.2773744 21.6887355,21.4989718 L21.6887355,14.6442271 C21.6887355,14.6227389 21.6766483,14.6039367 21.6753053,14.5824485 C21.8216939,14.2184916 21.9721115,13.8625929 22.1413313,13.5442985 L25.0543291,13.5442985 C25.3726235,14.1808872 26.1327695,15.9106896 26.4094305,18.1991858 C25.4706635,18.3025979 24.7937844,18.6356654 24.3573047,19.2198766 Z M27.0393042,19.2252487 C27.1131699,19.2252487 27.1897217,19.2265917 27.2689596,19.2292777 C27.1977798,20.010912 26.4201746,20.58035 24.946888,20.9268477 C24.9321148,20.6058673 24.9737483,20.1868469 25.2222059,19.8578084 C25.5391573,19.4387879 26.1502287,19.2252487 27.0393042,19.2252487 Z M28.3876904,21.5755236 L28.3876904,23.3550174 C27.8397406,22.6123305 27.115856,22.0120032 26.2751291,21.6117849 C27.685294,21.0329458 28.1889243,20.2150502 28.3057666,19.4911655 C28.3527721,20.1599866 28.3876904,20.8449238 28.3876904,21.5755236 Z M19.9884795,1.99571914 L19.9884795,1.95542872 C19.9884795,1.46925756 20.3833256,1.07441138 20.8681538,1.07441138 L26.2872162,1.07441138 C26.7733873,1.07441138 27.1682335,1.46925756 27.1682335,1.95542872 L19.9884795,1.99571914 Z M21.3288077,3.07013052 L25.9407185,3.07013052 C26.0642758,7.23213162 26.6847484,10.1773618 27.2837327,13.029924 C27.6530617,14.7906157 27.9941873,16.5069879 28.1983254,18.3858648 C28.1110295,18.2824527 27.9874722,18.2112729 27.8424267,18.1951568 C27.7108113,18.1817266 27.6087422,18.1924707 27.4838419,18.1844126 C27.123914,14.9974399 25.896399,12.8311579 25.8413355,12.7371469 C25.7446384,12.5719562 25.5687036,12.4712301 25.3766525,12.4712301 L21.8243799,12.4712301 C21.6323289,12.4712301 21.456394,12.5732992 21.359697,12.7384899 C21.2253956,12.9694884 21.0978092,13.217946 20.9755949,13.4731187 L20.0905485,12.4121375 C20.6801318,9.64552818 21.2159945,6.83862845 21.3288077,3.07013052 Z M16.5946825,9.89801486 L19.9535611,13.9257145 L8.75416544,16.3216519 L7.3157972,11.2531162 L16.5946825,9.89801486 Z M7.16940865,7.36509002 L16.2777311,6.25576027 L16.2777311,8.85852184 L7.16940865,10.1881059 L7.16940865,7.36509002 Z M6.31390859,11.6587065 L7.56559785,16.0664792 L2.51855038,14.1352247 L6.31390859,11.6587065 Z M1.5757544,14.9249171 L7.83688673,17.3195115 L7.8247996,21.1027826 L1.5757544,19.0211105 L1.5757544,14.9249171 Z M1.5757544,20.1532715 L7.82077055,22.2336005 L7.80868343,25.9215176 L1.5757544,23.7444915 L1.5757544,20.1532715 Z M1.5757544,24.8820246 L7.80465438,27.0577076 L7.79256726,30.6663869 L1.5757544,28.3402862 L1.5757544,24.8820246 Z M17.2594745,18.6047761 C17.4166072,18.5738868 17.7080413,18.6396945 17.8302556,18.7431066 C17.9941033,18.8733789 18.0881143,19.069459 18.0881143,19.2803123 L18.0881143,25.298359 C18.0881143,25.6247115 17.865174,25.9000294 17.5468796,25.9698661 L12.1358753,27.1235153 C12.0996139,27.1315734 12.0606665,27.1356025 12.0244051,27.1356025 C11.9639694,27.1356025 11.8524993,27.1168003 11.7960927,27.0966551 C11.7893776,27.093969 11.7853486,27.08994 11.7799765,27.087254 C11.7423721,27.0724808 11.7114828,27.0483065 11.6779074,27.0268183 C11.6523901,27.0093591 11.6241868,26.997272 11.6026986,26.9757838 C11.5771813,26.9516095 11.5610652,26.9220632 11.54092,26.8938599 C11.5207748,26.8656566 11.4979435,26.8401393 11.4845134,26.80925 C11.4724262,26.7797037 11.4683972,26.7474714 11.4603391,26.715239 C11.452281,26.6789776 11.4401939,26.6440593 11.4388509,26.6064549 C11.4388509,26.5997398 11.4348218,26.5930247 11.4348218,26.5863096 L11.4563101,20.2808579 C11.4576531,20.2633987 11.4657112,20.2486255 11.4670542,20.2311663 C11.4710832,20.1949049 11.4777983,20.1613296 11.4885424,20.1264112 C11.4979435,20.0928359 11.5100306,20.0619465 11.5261468,20.0324002 C11.542263,20.0015109 11.5610652,19.9759936 11.5825534,19.9491333 C11.6040416,19.9222731 11.6268729,19.8980988 11.6537332,19.8752676 C11.6792504,19.8524363 11.7074537,19.8349771 11.737,19.818861 C11.7678894,19.8014018 11.8001217,19.7866286 11.8350401,19.7758845 C11.8524993,19.7705124 11.8645864,19.7597683 11.8820456,19.7557393 L17.2594745,18.6047761 Z"/>
  </defs>
  <use fill="#AAA" fill-rule="evenodd" xlink:href="#a"/>
</svg>
