<svg xmlns="http://www.w3.org/2000/svg" xmlns:xlink="http://www.w3.org/1999/xlink" width="32" height="32" viewBox="0 0 32 32">
  <defs>
    <path id="-148-a" d="M24.3571429,15.6153846 L1.10714286,15.6153846 C0.494892857,15.6153846 0,16.1139615 0,16.7307692 C0,17.3475769 0.494892857,17.8461538 1.10714286,17.8461538 L23.0651071,17.8461538 C26.2248929,17.8461538 28.7857143,19.8438077 28.7857143,22.3076923 C28.7857143,24.7715769 26.8936071,26.7692308 22.1428571,26.7692308 L22.1428571,29 L24.3571429,29 C28.0251071,29 31,26.0029615 31,22.3076923 C31,18.6124231 28.0251071,15.6153846 24.3571429,15.6153846 L24.3571429,15.6153846 Z M15.5022143,20.0769231 L15.5,20.0769231 L6.64285714,20.0769231 C6.03060714,20.0769231 5.53571429,20.5766154 5.53571429,21.1923077 C5.53571429,21.8091154 6.03060714,22.3076923 6.64285714,22.3076923 L15.5,22.3076923 C16.7222857,22.3076923 17.7142857,23.3070769 17.7142857,24.5384615 C17.7142857,25.7698462 16.7222857,26.7692308 15.5,26.7692308 L15.5,29 C17.9456786,29 19.9285714,27.0023462 19.9285714,24.5384615 C19.9285714,22.0756923 17.9467857,20.0791538 15.5022143,20.0769231 L15.5022143,20.0769231 Z M9.96428571,8.92307692 L23.25,8.92307692 C23.86225,8.92307692 24.3571429,8.4245 24.3571429,7.80769231 C24.3571429,7.192 23.86225,6.69230769 23.25,6.69230769 L9.96428571,6.69230769 C9.35203571,6.69230769 8.85714286,7.192 8.85714286,7.80769231 C8.85714286,8.4245 9.35203571,8.92307692 9.96428571,8.92307692 L9.96428571,8.92307692 Z M4.42857143,13.3846154 L24.3571429,13.3846154 C28.0251071,13.3846154 31,10.3875769 31,6.69230769 C31,2.99703846 28.0251071,0 24.3571429,0 L24.3571429,2.23076923 C27.4815,2.82303846 28.7857143,4.22842308 28.7857143,6.69230769 C28.7857143,9.15619231 26.2248929,11.1538462 23.0651071,11.1538462 L4.42857143,11.1538462 C3.81632143,11.1538462 3.32142857,11.6535385 3.32142857,12.2692308 C3.32142857,12.8860385 3.81632143,13.3846154 4.42857143,13.3846154 L4.42857143,13.3846154 Z"/>
  </defs>
  <use fill="#AAA" fill-rule="evenodd" xlink:href="#a"/>
</svg>
