<svg xmlns="http://www.w3.org/2000/svg" xmlns:xlink="http://www.w3.org/1999/xlink" width="32" height="32" viewBox="0 0 32 32">
  <defs>
    <path id="-153-a" d="M30.4,12.8888889 L1.6,12.8888889 C0.7168,12.8888889 0,13.6106667 0,14.5 C0,15.3909444 0.7168,16.1111111 1.6,16.1111111 L30.4,16.1111111 C31.2832,16.1111111 32,15.3909444 32,14.5 C32,13.6106667 31.2832,12.8888889 30.4,12.8888889 L30.4,12.8888889 Z M30.4,25.7777778 L1.6,25.7777778 C0.7168,25.7777778 0,26.4995556 0,27.3888889 C0,28.2798333 0.7168,29 1.6,29 L30.4,29 C31.2832,29 32,28.2798333 32,27.3888889 C32,26.4995556 31.2832,25.7777778 30.4,25.7777778 L30.4,25.7777778 Z M1.6,3.22222222 L30.4,3.22222222 C31.2832,3.22222222 32,2.50205556 32,1.61111111 C32,0.721777778 31.2832,0 30.4,0 L1.6,0 C0.7168,0 0,0.721777778 0,1.61111111 C0,2.50205556 0.7168,3.22222222 1.6,3.22222222 L1.6,3.22222222 Z"/>
  </defs>
  <use fill="#AAA" fill-rule="evenodd" xlink:href="#a"/>
</svg>
