<svg xmlns="http://www.w3.org/2000/svg" width="32" height="32" viewBox="0 0 32 32">
  <path fill="#AAA" fill-rule="evenodd" d="M29.7142857,30 L2.28571429,30 C1.024,30 0,28.9875 0,27.75 C0,26.5125 1.024,25.5 2.28571429,25.5 L29.7142857,25.5 C30.976,25.5 32,26.5125 32,27.75 C32,28.9875 30.976,30 29.7142857,30 L29.7142857,30 Z M29.7142857,18.75 L2.28571429,18.75 C1.024,18.75 0,17.7375 0,16.5 C0,15.2625 1.024,14.25 2.28571429,14.25 L29.7142857,14.25 C30.976,14.25 32,15.2625 32,16.5 C32,17.7375 30.976,18.75 29.7142857,18.75 L29.7142857,18.75 Z M2.28571429,3 L29.7142857,3 C30.976,3 32,4.0125 32,5.25 C32,6.4875 30.976,7.5 29.7142857,7.5 L2.28571429,7.5 C1.024,7.5 0,6.4875 0,5.25 C0,4.0125 1.024,3 2.28571429,3 L2.28571429,3 Z"/>
</svg>
