<svg xmlns="http://www.w3.org/2000/svg" xmlns:xlink="http://www.w3.org/1999/xlink" width="32" height="32" viewBox="0 0 32 32">
  <defs>
    <path id="-75-a" d="M27,14 C26.447,14 26,14.448 26,15 C26,15.553 26.447,16 27,16 C27.553,16 28,15.553 28,15 C28,14.448 27.553,14 27,14 L27,14 Z M27,10 C26.447,10 26,10.448 26,11 C26,11.553 26.447,12 27,12 C27.553,12 28,11.553 28,11 C28,10.448 27.553,10 27,10 L27,10 Z M30,18 C30,19.104 29.104,20 28,20 L4,20 C2.896,20 2,19.104 2,18 L2,4 C2,2.896 2.896,2 4,2 L28,2 C29.104,2 30,2.896 30,4 L30,18 L30,18 Z M28,0 L4,0 C1.791,0 0,1.791 0,4 L0,18 C0,20.209 1.791,22 4,22 L28,22 C30.209,22 32,20.209 32,18 L32,4 C32,1.791 30.209,0 28,0 L28,0 Z M5,10 C4.447,10 4,10.448 4,11 C4,11.553 4.447,12 5,12 C5.553,12 6,11.553 6,11 C6,10.448 5.553,10 5,10 L5,10 Z M22,15 C22,15.553 21.553,16 21,16 L11,16 C10.447,16 10,15.553 10,15 L10,7 C10,6.448 10.447,6 11,6 L21,6 C21.553,6 22,6.448 22,7 L22,15 L22,15 Z M23,4 L9,4 C8.447,4 8,4.448 8,5 L8,17 C8,17.553 8.447,18 9,18 L23,18 C23.553,18 24,17.553 24,17 L24,5 C24,4.448 23.553,4 23,4 L23,4 Z M5,14 C4.447,14 4,14.448 4,15 C4,15.553 4.447,16 5,16 C5.553,16 6,15.553 6,15 C6,14.448 5.553,14 5,14 L5,14 Z"/>
  </defs>
  <use fill="#AAA" fill-rule="evenodd" xlink:href="#a"/>
</svg>
