<svg xmlns="http://www.w3.org/2000/svg" xmlns:xlink="http://www.w3.org/1999/xlink" width="32" height="32" viewBox="0 0 32 32">
  <defs>
    <path id="-88-a" d="M30,24 C30,25.104 29.104,26 28,26 L27.056,26 C27.649,24.338 28,22.481 28,20.5 C28,18.907 27.766,17.398 27.372,16 L28,16 C29.104,16 30,16.896 30,18 L30,24 L30,24 Z M24.873,26 L24,26 C22.896,26 22,25.104 22,24 L22,18 C22,16.896 22.896,16 24,16 L25.258,16 C25.723,17.386 26,18.897 26,20.5 C26,22.5 25.578,24.363 24.873,26 L24.873,26 Z M4.629,16 C4.234,17.398 4,18.907 4,20.5 C4,22.481 4.352,24.338 4.944,26 L4,26 C2.896,26 2,25.104 2,24 L2,18 C2,16.896 2.896,16 4,16 L4.629,16 L4.629,16 Z M6.742,16 L8,16 C9.104,16 10,16.896 10,18 L10,24 C10,25.104 9.104,26 8,26 L7.127,26 C6.422,24.363 6,22.5 6,20.5 C6,18.897 6.277,17.386 6.742,16 L6.742,16 Z M29.938,14.521 C29.966,14.183 30,13.846 30,13.5 C30,6.044 23.732,0 16,0 C8.268,0 2,6.044 2,13.5 C2,13.846 2.034,14.183 2.063,14.521 C0.838,15.205 0,16.498 0,18 L0,24 C0,26.209 1.791,28 4,28 C4,28 8.004,28.006 8,28 C10.125,27.905 12,26.148 12,24 L12,18 C12,15.791 10.209,14 8,14 L4,14 C4,7.337 9.373,2 16,2 C22.628,2 28,6.867 28,14 L24,14 C21.791,14 20,15.791 20,18 L20,24 C20,26.148 21.875,27.905 24,28 C23.996,28.006 26,28 26,28 L26,31 C26,31.553 26.447,32 27,32 C27.553,32 28,31.553 28,31 L28,28 C30.209,28 32,26.209 32,24 L32,18 C32,16.498 31.162,15.205 29.938,14.521 L29.938,14.521 Z"/>
  </defs>
  <use fill="#AAA" fill-rule="evenodd" xlink:href="#a"/>
</svg>
