<svg xmlns="http://www.w3.org/2000/svg" xmlns:xlink="http://www.w3.org/1999/xlink" width="32" height="32" viewBox="0 0 32 32">
  <defs>
    <path id="-228-a" d="M9.51399251,27.5142403 L5.98916769,12.7576733 L4.76738693,15.3151464 C4.66345618,15.5326978 4.45099258,15.6700522 4.21858655,15.6700522 L0.613613286,15.6700522 C0.274745349,15.6700522 0,15.3824991 0,15.0278341 C0,14.6731691 0.274745349,14.385616 0.613613286,14.385616 L3.83937354,14.385616 L5.63334868,10.6304863 C5.74824777,10.3901362 5.99392319,10.2503734 6.24910962,10.2793535 C6.50437274,10.3086547 6.71514891,10.5012399 6.77743066,10.7619002 L9.9659187,24.1103237 L13.4299191,0.544530896 C13.4751731,0.236587304 13.7250671,0.00715487846 14.0226695,0.000170756327 C14.3209623,-0.00697392034 14.5797537,0.210818302 14.6381237,0.516273299 L18.0688355,18.4695613 L21.30066,6.63107292 C21.3746004,6.3602977 21.6083104,6.17156585 21.8773031,6.1653845 C22.1543495,6.16530422 22.3891333,6.34175365 22.4728148,6.60442087 L25.9314461,17.4640886 L27.2325364,14.740602 C27.3363904,14.5230506 27.5489307,14.385616 27.7813367,14.385616 L31.3863867,14.385616 C31.7252547,14.385616 32,14.6731691 32,15.0278341 C32,15.3824991 31.7252547,15.6700522 31.3863867,15.6700522 L28.1605498,15.6700522 L26.3665746,19.4253424 C26.2555873,19.6575043 26.0233347,19.7971065 25.7742844,19.7786427 C25.5266914,19.7603395 25.3141511,19.5875828 25.2356086,19.3412119 L21.9357498,8.97998572 L18.5535133,21.3695775 C18.4758146,21.6545618 18.2229292,21.8489131 17.9387495,21.8347843 C17.6557204,21.822823 17.4174083,21.6097671 17.3617996,21.3191634 L14.1152484,4.32944343 L10.7158308,27.4561998 C10.6713439,27.7583635 10.4295035,27.9858692 10.1376537,27.999998 C9.82885283,28.0007205 9.58256379,27.8012315 9.51399251,27.5142403 Z"/>
  </defs>
  <use fill="#AAA" fill-rule="evenodd" xlink:href="#a"/>
</svg>
