<svg xmlns="http://www.w3.org/2000/svg" xmlns:xlink="http://www.w3.org/1999/xlink" width="32" height="32" viewBox="0 0 32 32">
  <defs>
    <path id="-151-a" d="M28,13.6316764 L16,27.8970135 L4,13.5728934 C2.565,11.5862275 2,10.2441819 2,8.40696429 C2,4.98061324 4.455,1.89699692 8,1.86810358 C10.916,1.84419186 14.222,4.81123851 16,7.0479812 C17.731,4.88994794 21.084,1.86810358 24,1.86810358 C27.451,1.86810358 30,4.98061324 30,8.40696429 C30,10.2441819 29.553,11.6858597 28,13.6316764 L28,13.6316764 Z M24,0 C20.667,0 18.145,1.94880566 16,3.98528765 C13.957,1.82426542 11.333,0 8,0 C3.306,0 0,4.02115524 0,8.40696429 C0,10.7592803 0.967,12.4530276 2.026,14.04515 L14.459,28.8963244 C15.854,30.3678919 16.118,30.3678919 17.513,28.8963244 L29.974,14.04515 C31.22,12.4530276 32,10.7592803 32,8.40696429 C32,4.02115524 28.694,0 24,0 L24,0 Z"/>
  </defs>
  <use fill="#AAA" fill-rule="evenodd" xlink:href="#a"/>
</svg>
