<svg xmlns="http://www.w3.org/2000/svg" xmlns:xlink="http://www.w3.org/1999/xlink" width="32" height="32" viewBox="0 0 32 32">
  <defs>
    <path id="-160-a" d="M22.9622227,28 C22.9622227,29.104 22.0707575,30 20.9714171,30 L9.02858285,30 C7.92924245,30 7.00479712,29.104 7.00479712,28 L7.00479712,12.625 L15,2.93 L22.9952029,12.594 L22.9622227,28 L22.9622227,28 Z M15,0 L0,17.657 L1.40715571,19.071 L5.0059964,15 L5.0059964,28 C5.0059964,30.209 6.82990206,32 9.02858285,32 L20.9714171,32 C23.1700979,32 24.9940036,30.209 24.9940036,28 L24.9940036,15 L28.5928443,19.071 L30,17.657 L15,0 L15,0 Z"/>
  </defs>
  <use fill="#AAA" fill-rule="evenodd" xlink:href="#a"/>
</svg>
