<svg xmlns="http://www.w3.org/2000/svg" xmlns:xlink="http://www.w3.org/1999/xlink" width="32" height="32" viewBox="0 0 32 32">
  <defs>
    <path id="-226--a" d="M26.716672,9.88002133 C26.3821653,7.56535467 24.5820587,5.51394133 21.8479787,5.26050133 C19.101952,5.001088 16.3682987,6.94071467 15.9975253,10.0421547 C15.6544853,7.311488 13.507072,5.410688 10.977792,5.25239467 C8.31624533,5.094528 6.02376533,6.78711467 5.395712,9.36119467 C5.01512533,10.9257813 5.29245867,12.4016213 6.22429867,13.7213013 C7.15400533,15.0469547 8.45789867,15.7765547 10.0566187,15.9997013 C7.11517867,16.4293547 5.412352,18.651008 5.253632,21.0365013 C5.056512,24.0790613 7.36136533,26.4914347 10.0847787,26.7346347 C11.542272,26.868608 12.863232,26.4914347 14.0054187,25.5672747 C15.150592,24.6443947 15.7914453,23.4326613 15.9975253,21.9811413 C16.366592,24.9405013 18.9645653,26.9637547 21.7942187,26.7465813 C24.2466987,26.5622613 26.464512,24.6994347 26.740992,21.8736213 C26.8864853,20.4203947 26.4768853,19.0985813 25.5394987,17.9615147 C24.609792,16.8325547 23.401472,16.2045013 21.9584853,16.007808 C25.1111253,15.660928 27.126272,12.7058347 26.716672,9.88002133 L26.716672,9.88002133 Z M24.7702187,13.5775147 C24.0239787,14.4427947 23.075072,14.9539413 21.9478187,15.0832213 C21.4298453,15.1442347 20.9007787,15.097728 20.3644587,15.097728 L20.3644587,14.264448 L20.5940053,14.264448 C21.221632,14.2563413 21.8509653,14.313088 22.4589653,14.1023147 C23.8614187,13.6137813 24.731392,12.6512213 24.966912,11.1813547 C25.281792,9.21527467 23.9808853,7.411328 22.0297387,7.043968 C20.026112,6.66722133 18.0463787,8.09015467 17.7831253,10.103168 C17.757952,10.291328 17.7434453,10.4777813 17.7434453,10.666368 C17.740032,12.3551147 17.740032,14.045568 17.740032,15.736448 L17.740032,15.9830613 L16.906752,15.9830613 C16.901632,15.8981547 16.8956587,15.8153813 16.8956587,15.730048 C16.8935253,14.5545813 16.8956587,13.3765547 16.8956587,12.1989547 C16.8956587,11.5743147 16.877312,10.9462613 16.9007787,10.3177813 C16.9391787,9.28610133 17.3551787,8.398208 18.0322987,7.63447467 C18.7776853,6.796928 19.725312,6.29218133 20.832512,6.16674133 C22.3002453,5.998208 23.580672,6.44450133 24.622592,7.512448 C25.3120853,8.21986133 25.7255253,9.07319467 25.843712,10.0541013 C25.9994453,11.3759147 25.650432,12.5637547 24.7702187,13.5775147 L24.7702187,13.5775147 Z M20.3879253,10.4982613 C20.4412587,9.96535467 20.9037653,9.58434133 21.4153387,9.61847467 C21.9964587,9.65474133 22.3911253,10.0664747 22.3911253,10.6262613 C22.3911253,11.1997013 21.990912,11.6152747 21.3594453,11.645568 C21.2233387,11.6515413 21.0889387,11.6472747 20.952832,11.6472747 L20.952832,11.645568 C20.805632,11.645568 20.6562987,11.6579413 20.5095253,11.6395947 C20.4553387,11.6336213 20.370432,11.5542613 20.3682987,11.5077547 C20.3644587,11.1689813 20.3559253,10.832768 20.3879253,10.4982613 L20.3879253,10.4982613 Z M19.4829653,15.715968 L19.4829653,15.9851947 L18.6292053,15.9851947 C18.621952,15.9408213 18.6112853,15.900288 18.6112853,15.861888 C18.6215253,14.051968 18.6189653,12.2437547 18.648832,10.4312747 C18.6637653,9.266048 19.634432,8.161408 20.792832,7.936128 C22.3693653,7.63191467 23.8362453,8.603008 24.0922453,10.1821013 C24.3452587,11.7368747 23.3280853,13.042048 21.9542187,13.3053013 C21.486592,13.3944747 20.987392,13.358208 20.503552,13.3765547 C20.401152,13.382528 20.352512,13.336448 20.361472,13.2323413 C20.361472,13.2208213 20.3580587,13.2041813 20.361472,13.1922347 C20.3682987,12.983168 20.293632,12.701568 20.401152,12.5880747 C20.503552,12.4809813 20.7911253,12.5334613 20.9959253,12.5355947 C21.553152,12.5475413 22.0834987,12.4989013 22.5481387,12.142208 C23.1642453,11.6677547 23.4390187,10.8127147 23.1996587,10.0605013 C22.9538987,9.283968 22.2652587,8.76898133 21.4733653,8.724608 C20.5325653,8.67810133 19.693312,9.322368 19.5047253,10.267008 C19.4748587,10.4235947 19.4774187,10.589568 19.4774187,10.749568 C19.4774187,12.4054613 19.4799787,14.0617813 19.4829653,15.715968 Z M16.211712,16.8957013 C17.969152,16.8957013 19.7261653,16.883328 21.4831787,16.897408 C22.6919253,16.907648 23.727872,17.3654613 24.5760853,18.2251947 C25.4848853,19.1536213 25.9034453,20.2744747 25.8620587,21.5779413 C25.797632,23.590528 24.305152,25.4251947 22.1709653,25.7981013 C19.661312,26.2320213 17.3948587,24.5983147 16.960512,22.1552213 C16.858112,21.5877547 16.8956587,20.9942613 16.870912,20.398208 L17.740032,20.398208 C17.740032,20.4690347 17.736192,20.5462613 17.740032,20.620928 C17.752832,21.2029013 17.6845653,21.7865813 17.8633387,22.350208 C18.322432,23.7974613 19.282432,24.7058347 20.783872,24.9631147 C22.8352853,25.3176747 24.5730987,23.927168 24.943872,22.141568 C25.3645653,20.1328213 24.1033387,18.2371413 22.176512,17.827968 C21.7088853,17.7302613 21.211392,17.7430613 20.730112,17.7387947 C19.2500053,17.7302613 17.7690453,17.7349547 16.2893653,17.7349547 L16.020992,17.7349547 L16.020992,16.9055147 C16.0832853,16.9016747 16.147712,16.8957013 16.211712,16.8957013 L16.211712,16.8957013 Z M20.3866453,20.3896747 C20.805632,20.3896747 21.208832,20.3453013 21.5949653,20.4041813 C22.0711253,20.4733013 22.4538453,20.9353813 22.3668053,21.551488 C22.3023787,22.0216747 21.8535253,22.3907413 21.3504853,22.374528 C20.819712,22.3561813 20.4041387,21.9670613 20.3879253,21.4525013 C20.3764053,21.1039147 20.3866453,20.752768 20.3866453,20.3896747 L20.3866453,20.3896747 Z M16.020992,18.6450347 C16.097792,18.6386347 16.177152,18.6326613 16.2543787,18.6326613 C17.1862187,18.6326613 18.1184853,18.6347947 19.0528853,18.6326613 C19.794432,18.630528 20.5372587,18.6143147 21.2796587,18.6143147 C21.9764053,18.6104747 22.612992,18.8029013 23.1476053,19.2649813 C23.876352,19.8934613 24.201472,20.6883413 24.1199787,21.6530347 C24.023552,22.812288 23.1348053,23.8601813 21.8804053,24.0893013 C20.4514987,24.3525547 18.996992,23.4667947 18.694912,21.9670613 C18.598912,21.4904747 18.637312,20.9861547 18.6236587,20.491648 C18.6236587,20.4511147 18.6902187,20.3657813 18.7286187,20.363648 C18.9684053,20.3517013 19.2111787,20.3576747 19.4829653,20.3576747 C19.4829653,20.7083947 19.4876587,21.0365013 19.4816853,21.3650347 C19.4774187,21.8130347 19.6143787,22.211968 19.8959787,22.5609813 C20.3738453,23.148928 21.005312,23.3737813 21.7353387,23.2381013 C22.5114453,23.093888 23.026432,22.6053547 23.2205653,21.8373547 C23.5252053,20.620928 22.6351787,19.488128 21.376512,19.4821547 C19.6809387,19.4736213 17.987072,19.477888 16.2893653,19.477888 L16.020992,19.477888 L16.020992,18.6450347 Z M15.9872853,15.1139413 C15.891712,15.1216213 15.803392,15.1301547 15.7180587,15.1301547 C14.4807253,15.1301547 13.2438187,15.1280213 12.0064853,15.1301547 C11.564032,15.1301547 11.1168853,15.139968 10.6710187,15.1442347 C8.47965867,15.1702613 6.59549867,13.660288 6.20040533,11.5158613 C5.894912,9.86807467 6.348032,8.439168 7.569152,7.28759467 C8.26632533,6.626688 9.11368533,6.25378133 10.0788053,6.14839467 C11.297792,6.008448 12.4105387,6.286208 13.3833387,7.036288 C14.422272,7.838848 15.0191787,8.89911467 15.1117653,10.2166613 C15.145472,10.6847147 15.1181653,11.1549013 15.1181653,11.6434347 L14.2562987,11.6434347 C14.2562987,11.4915413 14.2524587,11.3477547 14.2562987,11.1997013 C14.264832,10.5976747 14.2524587,10.0016213 14.031872,9.42818133 C13.476352,7.99287467 12.425472,7.182208 10.900992,7.032448 C9.07144533,6.84770133 7.342592,8.18743467 7.04136533,10.107008 C6.74013867,12.006528 8.128512,13.9158613 10.0288853,14.1795413 C10.660352,14.2665813 11.308032,14.2525013 11.9450453,14.260608 C13.2284587,14.2704213 14.511872,14.264448 15.7927253,14.264448 C15.8528853,14.264448 15.9130453,14.2704213 15.9872853,14.274688 L15.9872853,15.1139413 Z M11.6220587,10.9987413 C11.6220587,11.1613013 11.6160853,11.3234347 11.6220587,11.4851413 C11.624192,11.586688 11.589632,11.6336213 11.4829653,11.6336213 C11.1399253,11.6216747 10.7951787,11.635328 10.4508587,11.6067413 C9.976832,11.568768 9.606912,11.0943147 9.62653867,10.5955413 C9.64701867,10.0848213 10.0374187,9.665408 10.5161387,9.63682133 C11.1719253,9.600128 11.6096853,10.0016213 11.624192,10.6582613 C11.628032,10.7696213 11.624192,10.885248 11.624192,10.9987413 L11.6220587,10.9987413 Z M15.9847253,13.3808213 C15.9190187,13.3867947 15.8528853,13.392768 15.788032,13.392768 C14.0246187,13.3944747 12.262912,13.4008747 10.4999253,13.3944747 C9.11368533,13.392768 7.89768533,12.180608 7.85501867,10.7922347 C7.82344533,9.58434133 8.31624533,8.67383467 9.39229867,8.13666133 C11.0720853,7.30167467 13.0978987,8.31927467 13.3564587,10.169728 C13.4221653,10.648448 13.364992,11.1369813 13.364992,11.6472747 L12.5257387,11.6472747 C12.5206187,11.5602347 12.515072,11.475328 12.512512,11.392128 C12.4941653,11.0008747 12.5223253,10.6015147 12.445952,10.224768 C12.2752853,9.367168 11.5247787,8.75703467 10.6556587,8.74295467 C9.938432,8.73442133 9.26216533,9.113728 8.91741867,9.863808 C8.593152,10.5648213 8.708352,11.232128 9.20029867,11.8277547 C9.59240533,12.3043413 10.115072,12.5151147 10.7303253,12.5151147 C12.4105387,12.517248 14.092032,12.517248 15.7748053,12.521088 L15.9847253,12.521088 L15.9847253,13.3808213 Z M11.6045653,21.5817813 C11.5478187,22.096768 11.030272,22.4248747 10.4649387,22.364288 C9.97981867,22.3075413 9.600512,21.8411947 9.62653867,21.3368747 C9.652992,20.8056747 10.0540587,20.394368 10.5626453,20.3862613 C10.903552,20.3798613 11.247872,20.384128 11.6130987,20.384128 C11.6130987,20.801408 11.6476587,21.196928 11.6045653,21.5817813 L11.6045653,21.5817813 Z M12.5257387,16.0197547 L13.3556053,16.0197547 C13.3607253,16.074368 13.3684053,16.119168 13.3684053,16.1618347 C13.3684053,17.9474347 13.3812053,19.7334613 13.362432,21.513088 C13.3500587,22.7333547 12.4041387,23.826048 11.2086187,24.062848 C9.64061867,24.375168 8.19336533,23.416448 7.91432533,21.8373547 C7.64936533,20.329088 8.65501867,18.932608 10.1095253,18.6877013 C10.6018987,18.6040747 11.1151787,18.6347947 11.630592,18.6143147 L11.630592,19.4795947 C11.2333653,19.4795947 10.8480853,19.4736213 10.4666453,19.4821547 C9.62653867,19.502208 8.82909867,20.286848 8.73224533,21.123968 C8.608512,22.2205013 9.37053867,23.0533547 10.2260053,23.2479147 C11.347712,23.4975147 12.512512,22.6237013 12.520192,21.482368 C12.5334187,19.7471147 12.525312,18.0127147 12.5257387,16.2731947 L12.5257387,16.0197547 L12.5257387,16.0197547 Z M10.5711787,16.883328 C10.9223253,16.8773547 11.272192,16.883328 11.6463787,16.883328 L11.6463787,17.7349547 L11.395072,17.7349547 C10.8365653,17.744768 10.2793387,17.7085013 9.72381867,17.8501547 C7.10237867,18.5208747 6.104832,21.7362347 7.89085867,23.767168 C9.31464533,25.3846613 11.7722453,25.4392747 13.2583253,23.882368 C13.9324587,23.177088 14.2614187,22.3301547 14.264832,21.3611947 C14.269952,19.6626347 14.264832,17.963648 14.264832,16.2693547 L14.264832,16.0176213 L15.121152,16.0176213 C15.1271253,16.0931413 15.1348053,16.167808 15.1348053,16.240768 C15.1348053,17.9030613 15.1343787,19.561088 15.1348053,21.225088 C15.1348053,22.2405547 14.886912,23.177088 14.281472,23.9979947 C13.5117653,25.045888 12.4813653,25.6765013 11.194112,25.840768 C8.867072,26.136448 6.73416533,24.618368 6.23624533,22.3561813 C5.95677867,21.0915413 6.16925867,19.901568 6.91165867,18.845568 C7.793152,17.5907413 9.015552,16.9097813 10.5711787,16.883328 L10.5711787,16.883328 Z M7.90186667,1.28 C4.25045333,1.28 1.28,4.25045333 1.28,7.90186667 L1.28,24.0981333 C1.28,27.7495467 4.25045333,30.72 7.90186667,30.72 L24.09856,30.72 C27.7499733,30.72 30.72,27.7495467 30.72,24.0981333 L30.72,7.90186667 C30.72,4.25045333 27.7499733,1.28 24.09856,1.28 L7.90186667,1.28 Z M24.09856,32 L7.90186667,32 C3.54474667,32 0,28.4552533 0,24.0981333 L0,7.90186667 C0,3.54474667 3.54474667,0 7.90186667,0 L24.09856,0 C28.45568,0 32,3.54474667 32,7.90186667 L32,24.0981333 C32,28.4552533 28.45568,32 24.09856,32 L24.09856,32 Z"/>
  </defs>
  <use fill="#AAA" fill-rule="evenodd" xlink:href="#a"/>
</svg>
