<svg xmlns="http://www.w3.org/2000/svg" xmlns:xlink="http://www.w3.org/1999/xlink" width="32" height="32" viewBox="0 0 32 32">
  <defs>
    <path id="-6-a" d="M8,10 C6.896,10 6,9.104 6,8 C6,6.896 6.896,6 8,6 C9.104,6 10,6.896 10,8 C10,9.104 9.104,10 8,10 L8,10 Z M8,4 C5.791,4 4,5.791 4,8 C4,10.209 5.791,12 8,12 C10.209,12 12,10.209 12,8 C12,5.791 10.209,4 8,4 L8,4 Z M30,17.128 L24,11 L14.059,21.111 L10,17 L2,24.337 L2,4 C2,2.896 2.896,2 4,2 L28,2 C29.104,2 30,2.896 30,4 L30,17.128 L30,17.128 Z M30,28 C30,29.104 29.104,30 28,30 L22.832,30 L15.464,22.535 L24,13.999 L30,19.999 L30,28 L30,28 Z M4,30 C2.896,30 2,29.104 2,28 L2,27.061 L9.945,19.945 L20.001,30 L4,30 L4,30 Z M28,0 L4,0 C1.791,0 0,1.791 0,4 L0,28 C0,30.209 1.791,32 4,32 L28,32 C30.209,32 32,30.209 32,28 L32,4 C32,1.791 30.209,0 28,0 L28,0 Z"/>
  </defs>
  <use fill="#AAA" fill-rule="evenodd" xlink:href="#a"/>
</svg>
