<svg xmlns="http://www.w3.org/2000/svg" xmlns:xlink="http://www.w3.org/1999/xlink" width="32" height="32" viewBox="0 0 32 32">
  <defs>
    <path id="-164-a" d="M12.5714286,12.5714286 C12.5725714,11.9371429 12.0628571,11.4274286 11.4285714,11.4285714 C10.7942857,11.4297143 10.2868571,11.9371429 10.2857143,12.5714286 L10.2857143,20.5714286 C10.2857143,21.2057143 10.7942857,21.7154286 11.4285714,21.7142857 L19.4285714,21.7142857 C20.0628571,21.7131429 20.5702857,21.2068571 20.5714286,20.5714286 C20.5725714,19.936 20.0628571,19.4274286 19.4285714,19.4285714 L14.296,19.4285714 L31.192,2.53371429 C31.6388571,2.08685714 31.6388571,1.36228571 31.192,0.916571429 C30.7451429,0.470857143 30.0217143,0.470857143 29.576,0.916571429 L12.5714286,17.9211429 L12.5714286,12.5714286 L12.5714286,12.5714286 Z M29.7142857,14.8571429 L29.7142857,27.4285714 C29.7142857,28.6708571 28.6697143,29.7142857 27.4285714,29.7142857 L4.49714286,29.752 C3.25485714,29.752 2.248,28.7451429 2.248,27.5028571 L2.28571429,4.57142857 C2.28571429,3.32914286 3.33028571,2.28571429 4.57142857,2.28571429 L17.1428571,2.28571429 L17.1428571,0 L4.57142857,0 C2.088,0 0,2.53828571 0,5.02171429 L0,27.5028571 C0,29.9862857 2.01371429,32 4.49714286,32 L26.9782857,32 C29.4617143,32 32,29.912 32,27.4285714 L32,14.8571429 L29.7142857,14.8571429 L29.7142857,14.8571429 Z"/>
  </defs>
  <use fill="#AAA" fill-rule="evenodd" xlink:href="#a"/>
</svg>
