<svg xmlns="http://www.w3.org/2000/svg" xmlns:xlink="http://www.w3.org/1999/xlink" width="32" height="32" viewBox="0 0 32 32">
  <defs>
    <path id="-167-a" d="M26,24 C26,25.104 25.104,26 24,26 L4,26 C2.896,26 2,25.104 2,24 L2,4 C2,2.896 2.896,2 4,2 L24,2 C25.104,2 26,2.896 26,4 L26,7 L28,7 L28,4 C28,1.791 26.209,0 24,0 L4,0 C1.791,0 0,1.791 0,4 L0,24 C0,26.209 1.791,28 4,28 L24,28 C26.209,28 28,26.209 28,24 L28,21 L26,21 L26,24 L26,24 Z M31,13 L9.414,13 L14.657,7.757 C15.048,7.367 15.048,6.733 14.657,6.343 C14.267,5.952 13.633,5.952 13.242,6.343 L6.343,13.242 C6.135,13.451 6.046,13.728 6.06,14 C6.046,14.272 6.135,14.549 6.343,14.758 L13.242,21.657 C13.633,22.048 14.267,22.048 14.657,21.657 C15.048,21.267 15.048,20.633 14.657,20.242 L9.414,15 L31,15 C31.553,15 32,14.553 32,14 C32,13.448 31.553,13 31,13 L31,13 Z"/>
  </defs>
  <use fill="#AAA" fill-rule="evenodd" xlink:href="#a"/>
</svg>
