<svg xmlns="http://www.w3.org/2000/svg" width="32" height="32" viewBox="0 0 32 32">
  <path fill="#AAA" fill-rule="evenodd" d="M26,0 L6,0 C3.791,0 2,1.791 2,4 L2,24 C2,26.209 3.791,28 6,28 L9,28 L9,26 L6,26 C4.896,26 4,25.104 4,24 L4,4 C4,2.896 4.896,2 6,2 L26,2 C27.104,2 28,2.896 28,4 L28,24 C28,25.104 27.104,26 26,26 L23,26 L23,28 L26,28 C28.209,28 30,26.209 30,24 L30,4 C30,1.791 28.209,0 26,0 L26,0 Z M23.657,13.243 L16.758,6.343 C16.549,6.135 16.272,6.046 16,6.06 C15.728,6.046 15.451,6.135 15.243,6.343 L8.343,13.243 C7.952,13.633 7.952,14.267 8.343,14.657 C8.733,15.048 9.367,15.048 9.758,14.657 L15,9.414 L15,31 C15,31.553 15.447,32 16,32 C16.552,32 17,31.553 17,31 L17,9.414 L22.243,14.657 C22.633,15.048 23.267,15.048 23.657,14.657 C24.048,14.267 24.048,13.633 23.657,13.243 L23.657,13.243 Z"/>
</svg>
