<svg xmlns="http://www.w3.org/2000/svg" xmlns:xlink="http://www.w3.org/1999/xlink" width="32" height="32" viewBox="0 0 32 32">
  <defs>
    <path id="-166-a" d="M28,0 L8,0 C5.791,0 4,1.791 4,4 L4,8 L6,8 L6,4 C6,2.896 6.896,2 8,2 L28,2 C29.104,2 30,2.896 30,4 L30,24 C30,25.104 29.104,26 28,26 L8,26 C6.896,26 6,25.104 6,24 L6,20 L4,20 L4,24 C4,26.209 5.791,28 8,28 L28,28 C30.209,28 32,26.209 32,24 L32,4 C32,1.791 30.209,0 28,0 L28,0 Z M17.343,20.243 C16.953,20.633 16.953,21.267 17.343,21.657 C17.733,22.048 18.367,22.048 18.758,21.657 L25.657,14.758 C25.865,14.549 25.954,14.272 25.94,14 C25.954,13.728 25.865,13.451 25.657,13.243 L18.758,6.344 C18.367,5.953 17.733,5.953 17.343,6.344 C16.953,6.733 16.953,7.367 17.343,7.758 L22.586,13 L1,13 C0.447,13 0,13.448 0,14 C0,14.553 0.447,15 1,15 L22.586,15 L17.343,20.243 L17.343,20.243 Z"/>
  </defs>
  <use fill="#AAA" fill-rule="evenodd" xlink:href="#a"/>
</svg>
