<svg xmlns="http://www.w3.org/2000/svg" xmlns:xlink="http://www.w3.org/1999/xlink" width="32" height="32" viewBox="0 0 32 32">
  <defs>
    <path id="-132-a" d="M30,28 C30,29.104 29.104,30 28,30 L4,30 C2.896,30 2,29.104 2,28 L2,4 C2,2.896 2.896,2 4,2 L28,2 C29.104,2 30,2.896 30,4 L30,28 L30,28 Z M28,0 L4,0 C1.791,0 0,1.791 0,4 L0,28 C0,30.209 1.791,32 4,32 L28,32 C30.209,32 32,30.209 32,28 L32,4 C32,1.791 30.209,0 28,0 L28,0 Z M25,26 L7,26 C6.448,26 6,26.448 6,27 C6,27.553 6.448,28 7,28 L25,28 C25.552,28 26,27.553 26,27 C26,26.448 25.552,26 25,26 L25,26 Z M15.224,23.686 C15.433,23.896 15.71,23.985 15.984,23.971 C16.258,23.985 16.536,23.896 16.745,23.686 L21.687,17.705 C22.079,17.312 22.079,16.675 21.687,16.281 C21.295,15.888 20.659,15.888 20.267,16.281 L17,20.235 L17,5 C17,4.448 16.552,4 16,4 C15.448,4 15,4.448 15,5 L15,20.272 L11.702,16.281 C11.31,15.888 10.674,15.888 10.282,16.281 C9.89,16.675 9.89,17.312 10.282,17.705 L15.224,23.686 L15.224,23.686 Z"/>
  </defs>
  <use fill="#AAA" fill-rule="evenodd" xlink:href="#a"/>
</svg>
