<svg xmlns="http://www.w3.org/2000/svg" xmlns:xlink="http://www.w3.org/1999/xlink" width="32" height="32" viewBox="0 0 32 32">
  <defs>
    <path id="-236-a" d="M16,30 C8.268,30 2,23.73 2,16 C2,8.27 8.268,2 16,2 C23.732,2 30,8.27 30,16 C30,23.73 23.732,30 16,30 L16,30 Z M16,0 C7.163,0 0,7.16 0,16 C0,24.84 7.163,32 16,32 C24.837,32 32,24.84 32,16 C32,7.16 24.837,0 16,0 L16,0 Z M18.5454545,9.09575171 C18.5454545,9.69837476 18.3384108,10.2127564 17.9223611,10.6356686 C17.5072924,11.0607332 17.0068553,11.2727273 16.4220306,11.2727273 C15.8352433,11.2727273 15.333825,11.0607332 14.9138502,10.6356686 C14.4948566,10.2127564 14.2848693,9.69837476 14.2848693,9.09575171 C14.2848693,8.49420469 14.4948566,7.97874669 14.9138502,7.55045375 C15.3328436,7.12216105 15.8352433,6.90909091 16.4220306,6.90909091 C17.0068553,6.90909091 17.5072924,7.12323709 17.9223611,7.55045375 C18.3384108,7.97874669 18.5454545,8.49420469 18.5454545,9.09575171 L18.5454545,9.09575171 Z M18.3372519,23.4423232 C17.7126441,23.7424795 17.2131291,23.9707235 16.8412776,24.1280972 C16.4694262,24.2854706 16.0367416,24.3636364 15.5440812,24.3636364 C14.787526,24.3636364 14.1989037,24.1385191 13.7790712,23.6903689 C13.3592389,23.2411768 13.1493227,22.6710881 13.1493227,21.9801032 C13.1493227,21.7122554 13.164745,21.4371121 13.1964466,21.1567578 C13.2281484,20.8764035 13.2786995,20.5595719 13.3481005,20.2062628 L14.1295029,16.8440948 C14.1989037,16.5220521 14.2580229,16.2166848 14.3051471,15.9279926 C14.3531279,15.6413852 14.3762616,15.377706 14.3762616,15.1400825 C14.3762616,14.7106919 14.3034336,14.4105356 14.1577773,14.2416977 C14.0121211,14.0728599 13.7345178,13.9873986 13.3223964,13.9873986 C13.1201914,13.9873986 12.9128457,14.0270024 12.7012158,14.1030839 C12.4887292,14.1791652 12.3636364,13.2849493 12.3636364,13.2849493 C12.8751464,13.0316926 13.3643798,12.814913 13.8321929,12.6346106 C14.3000061,12.4543084 14.7421156,12.3636364 15.1602344,12.3636364 C15.9116488,12.3636364 16.4917029,12.5845845 16.8986834,13.0264813 C17.3056639,13.4683781 17.5095823,14.0415935 17.5095823,14.7482117 C17.5095823,14.8941208 17.4958735,15.1515466 17.4675992,15.5194464 C17.4393245,15.8883887 17.3870597,16.2260646 17.3108045,16.5335165 L16.5328293,19.8831777 C16.4694262,20.1520679 16.4120205,20.4595197 16.3623259,20.805533 C16.3109179,21.1494623 16.2860707,21.4120991 16.2860707,21.5882324 C16.2860707,22.0332559 16.3674668,22.3365389 16.5311159,22.4980812 C16.6956216,22.6596238 16.9792225,22.7398738 17.3819191,22.7398738 C17.571272,22.7398738 17.7863291,22.6992279 18.0253766,22.6189778 C18.2644239,22.5387275 18.3372519,23.4423232 18.3372519,23.4423232 L18.3372519,23.4423232 Z"/>
  </defs>
  <use fill="#AAA" fill-rule="evenodd" xlink:href="#a"/>
</svg>
