<svg xmlns="http://www.w3.org/2000/svg" xmlns:xlink="http://www.w3.org/1999/xlink" width="32" height="32" viewBox="0 0 32 32">
  <defs>
    <path id="-instagram-a" d="M22.5096101,24.1359962 L9.49038991,24.1359962 C9.45577359,24.1304204 9.42092495,24.123683 9.38630863,24.1195012 C8.67051754,24.0275008 8.06879766,23.4810741 7.9094232,22.7762022 C7.89083726,22.6939594 7.87898872,22.610555 7.86411997,22.5278475 L7.86411997,9.47284943 C7.86946343,9.44241495 7.87573618,9.41221279 7.87991802,9.38177831 C7.98260535,8.65135078 8.51602189,8.07077241 9.23692412,7.90651915 C9.31452043,7.88886251 9.39374301,7.87817559 9.47250094,7.86400381 L22.5274991,7.86400381 C22.5577012,7.86934727 22.587671,7.87608467 22.6183379,7.88003418 C23.3568967,7.98109524 23.9583843,8.54703718 24.1007991,9.27630309 C24.1147385,9.34739432 24.1244961,9.4189502 24.13588,9.49027375 L24.13588,22.5097263 C24.1240315,22.5822114 24.1138092,22.6556259 24.0998698,22.7278787 C23.9700005,23.3962757 23.4270587,23.9506014 22.7626112,24.0916223 C22.6789745,24.1097435 22.5941761,24.1215921 22.5096101,24.1359962 Z M20.9446738,12.041659 L20.9446738,12.0386387 C21.2123113,12.0386387 21.4808782,12.0437499 21.7487481,12.0372448 C22.093285,12.0286488 22.3739327,11.7333646 22.3739327,11.3883631 C22.374165,10.8746941 22.374165,10.3607928 22.3739327,9.84712384 C22.3739327,9.47865753 22.0823657,9.1854643 21.7143641,9.18523197 C21.2020891,9.18499965 20.689814,9.18476732 20.1773067,9.18523197 C19.8102343,9.18569662 19.517738,9.47958683 19.5175057,9.84805314 C19.5172734,10.357308 19.5158795,10.8665628 19.5193643,11.3760499 C19.519829,11.4520199 19.5342331,11.5310102 19.5583948,11.6030307 C19.6503952,11.8741532 19.8987499,12.0404973 20.2028623,12.0418913 C20.4500554,12.0423559 20.6972484,12.041659 20.9446738,12.041659 Z M16.0001162,12.7026215 C14.1954212,12.7014599 12.7282934,14.1534866 12.70297,15.9500503 C12.6769497,17.7949374 14.1538351,19.2574187 15.9243784,19.2955199 C17.76671,19.335015 19.2568379,17.8630084 19.295636,16.0727175 C19.3353635,14.2264365 17.8461649,12.7014599 16.0001162,12.7026215 Z M9.62444102,14.461781 L9.62444102,14.5056902 C9.62444102,16.9137314 9.62420869,19.3217725 9.62467334,21.7298137 C9.62467334,22.0762091 9.92460399,22.3740489 10.2709995,22.3740489 C14.0894813,22.3742812 17.9077308,22.3742812 21.7262126,22.3740489 C22.0758607,22.3740489 22.374165,22.0766738 22.374165,21.7277227 C22.3743974,19.3224695 22.374165,16.9174486 22.374165,14.5124277 L22.374165,14.4624779 L20.8208449,14.4624779 C21.040159,15.1634003 21.1075331,15.8764035 21.0215731,16.6031138 C20.9351485,17.3300565 20.7009656,18.0065848 20.3194891,18.6313048 C19.9377803,19.2567217 19.4429296,19.7748049 18.8370279,20.1871805 C17.2665158,21.2568014 15.1988297,21.3508928 13.5323677,20.4155552 C12.6899599,19.94324 12.0285326,19.2846006 11.567369,18.43592 C10.8794568,17.1695204 10.7695674,15.8403932 11.1731147,14.4613163 C10.6578194,14.461781 10.1446151,14.461781 9.62444102,14.461781 Z M16,30 C23.7319869,30 30,23.7319869 30,16 C30,8.26801307 23.7319869,2 16,2 C8.26801307,2 2,8.26801307 2,16 C2,23.7319869 8.26801307,30 16,30 Z M16,32 C7.16344357,32 0,24.8365564 0,16 C0,7.16344357 7.16344357,0 16,0 C24.8365564,0 32,7.16344357 32,16 C32,24.8365564 24.8365564,32 16,32 Z"/>
  </defs>
  <use fill="#AAA" fill-rule="evenodd" xlink:href="#a"/>
</svg>
