<svg xmlns="http://www.w3.org/2000/svg" xmlns:xlink="http://www.w3.org/1999/xlink" width="32" height="32" viewBox="0 0 32 32">
  <defs>
    <path id="-118-a" d="M5,16 L17.273,16 L13.282,19.299 C12.89,19.69 12.89,20.326 13.282,20.718 C13.676,21.11 14.313,21.11 14.706,20.718 L20.686,15.776 C20.896,15.566 20.985,15.289 20.971,15.016 C20.985,14.742 20.896,14.465 20.686,14.255 L14.706,9.313 C14.313,8.921 13.676,8.921 13.282,9.313 C12.89,9.705 12.89,10.341 13.282,10.732 L17.235,14 L5,14 C4.447,14 4,14.447 4,15 C4,15.553 4.447,16 5,16 L5,16 Z M30,26 C30,27.104 29.104,28 28,28 L26,28 L26,2 L28,2 C29.104,2 30,2.896 30,4 L30,26 L30,26 Z M24,28 L4,28 C2.896,28 2,27.104 2,26 L2,4 C2,2.896 2.896,2 4,2 L24,2 L24,28 L24,28 Z M28,0 L4,0 C1.791,0 0,1.791 0,4 L0,26 C0,28.209 1.791,30 4,30 L28,30 C30.209,30 32,28.209 32,26 L32,4 C32,1.791 30.209,0 28,0 L28,0 Z"/>
  </defs>
  <use fill="#AAA" fill-rule="evenodd" xlink:href="#a"/>
</svg>
