<svg xmlns="http://www.w3.org/2000/svg" xmlns:xlink="http://www.w3.org/1999/xlink" width="32" height="32" viewBox="0 0 32 32">
  <defs>
    <path id="-116-a" d="M19.268,13.282 L16,17.235 L16,5 C16,4.448 15.553,4 15,4 C14.447,4 14,4.448 14,5 L14,17.273 L10.701,13.282 C10.31,12.89 9.674,12.89 9.282,13.282 C8.89,13.676 8.89,14.313 9.282,14.706 L14.224,20.687 C14.434,20.896 14.711,20.985 14.984,20.971 C15.258,20.985 15.535,20.896 15.745,20.687 L20.687,14.706 C21.079,14.313 21.079,13.676 20.687,13.282 C20.295,12.89 19.659,12.89 19.268,13.282 L19.268,13.282 Z M28,24 L2,24 L2,4 C2,2.896 2.896,2 4,2 L26,2 C27.104,2 28,2.896 28,4 L28,24 L28,24 Z M28,28 C28,29.104 27.104,30 26,30 L4,30 C2.896,30 2,29.104 2,28 L2,26 L28,26 L28,28 L28,28 Z M26,0 L4,0 C1.791,0 0,1.791 0,4 L0,28 C0,30.209 1.791,32 4,32 L26,32 C28.209,32 30,30.209 30,28 L30,4 C30,1.791 28.209,0 26,0 L26,0 Z"/>
  </defs>
  <use fill="#AAA" fill-rule="evenodd" xlink:href="#a"/>
</svg>
