<svg xmlns="http://www.w3.org/2000/svg" xmlns:xlink="http://www.w3.org/1999/xlink" width="32" height="32" viewBox="0 0 32 32">
  <defs>
    <path id="-117-a" d="M10.732,18.718 L14,14.765 L14,27 C14,27.553 14.447,28 15,28 C15.553,28 16,27.553 16,27 L16,14.727 L19.299,18.718 C19.69,19.111 20.326,19.111 20.719,18.718 C21.11,18.324 21.11,17.688 20.719,17.294 L15.776,11.313 C15.567,11.104 15.289,11.015 15.016,11.029 C14.742,11.015 14.465,11.104 14.256,11.313 L9.313,17.294 C8.921,17.688 8.921,18.324 9.313,18.718 C9.705,19.111 10.341,19.111 10.732,18.718 L10.732,18.718 Z M28,6 L2,6 L2,4 C2,2.896 2.896,2 4,2 L26,2 C27.104,2 28,2.896 28,4 L28,6 L28,6 Z M28,28 C28,29.104 27.104,30 26,30 L4,30 C2.896,30 2,29.104 2,28 L2,8 L28,8 L28,28 L28,28 Z M26,0 L4,0 C1.791,0 0,1.791 0,4 L0,28 C0,30.209 1.791,32 4,32 L26,32 C28.209,32 30,30.209 30,28 L30,4 C30,1.791 28.209,0 26,0 L26,0 Z"/>
  </defs>
  <use fill="#AAA" fill-rule="evenodd" xlink:href="#a"/>
</svg>
