<svg xmlns="http://www.w3.org/2000/svg" xmlns:xlink="http://www.w3.org/1999/xlink" width="32" height="32" viewBox="0 0 32 32">
  <defs>
    <path id="-163-a" d="M30,20 C30,21.104 29.104,22 28,22 L12,22 C10.896,22 10,21.104 10,20 L10,4 C10,2.896 10.896,2 12,2 L28,2 C29.104,2 30,2.896 30,4 L30,20 L30,20 Z M28,0 L12,0 C9.791,0 8,1.791 8,4 L8,20 C8,22.209 9.791,24 12,24 L28,24 C30.209,24 32,22.209 32,20 L32,4 C32,1.791 30.209,0 28,0 L28,0 Z M22,28 C22,29.104 21.104,30 20,30 L4,30 C2.896,30 2,29.104 2,28 L2,12 C2,10.896 2.896,10 4,10 L6,10 L6,8 L4,8 C1.791,8 0,9.791 0,12 L0,28 C0,30.209 1.791,32 4,32 L20,32 C22.209,32 24,30.209 24,28 L24,26 L22,26 L22,28 L22,28 Z"/>
  </defs>
  <use fill="#AAA" fill-rule="evenodd" xlink:href="#a"/>
</svg>
