<svg xmlns="http://www.w3.org/2000/svg" xmlns:xlink="http://www.w3.org/1999/xlink" width="32" height="32" viewBox="0 0 32 32">
  <defs>
    <path id="-220-a" d="M7.31428571,28.0893222 L0,28.0893222 L0,11.3148243 L7.31428571,11.3148243 L7.31428571,28.0893222 Z M5.48571429,13.1650462 L1.82857143,13.1650462 L1.82857143,26.2391003 L5.48571429,26.2391003 L5.48571429,13.1650462 Z M28.4756696,9.43175492 C30.430358,9.43175492 32,11.2318395 32,13.2574996 L32,14.1826105 L31.867013,14.1826105 L31.867013,15.9710043 C31.867013,16.2211954 31.8634829,16.3580521 31.8459258,16.5371714 C31.817111,16.8311446 31.7567526,17.0911426 31.662976,17.2782871 L27.671559,26.9155599 C27.1307675,28.2029139 25.8290867,29 24.3899554,29 L12.4211242,29 C10.458916,29 9.17165179,27.6188681 9.17165179,25.6079706 L9.17165179,12.040447 C9.17115772,10.5125304 9.28405908,9.87678208 10.0050766,9.30181182 L19.4379686,0 L21.535174,1.78124035 L21.6083666,1.89324856 C22.0306859,2.53953278 22.2919481,3.20589103 22.2919481,3.89590825 L22.2919481,4.30293395 L22.274818,4.48117322 L21.3141617,9.43175492 L28.4756696,9.43175492 Z M28.4756696,11.2819768 L19.0916419,11.2819768 L20.4633766,4.21297155 L20.4633766,3.89590825 C20.4633766,3.66132056 20.3510286,3.35208117 20.1504921,3.02082664 L19.5294421,2.49334409 L11.2438312,10.6638175 L11.1571784,10.7391784 C11.0547407,10.8175596 10.9999249,11.1105738 11.0002115,11.9867066 L11.0002232,25.6079706 C11.0002232,26.6204791 11.4935488,27.1497781 12.4211242,27.1497781 L24.3899554,27.1497781 C25.1226628,27.1497781 25.7468245,26.7675718 25.9868942,26.1961165 L30.000638,16.5097322 C30.0040786,16.5027119 30.0173745,16.4454386 30.026282,16.3545638 C30.0360348,16.2550643 30.0384416,16.1617577 30.0384416,15.9710043 L30.0384416,12.5231186 C29.77395,11.8104654 29.1490697,11.2819768 28.4756696,11.2819768 Z"/>
  </defs>
  <use fill="#AAA" fill-rule="evenodd" xlink:href="#a"/>
</svg>
