<svg xmlns="http://www.w3.org/2000/svg" xmlns:xlink="http://www.w3.org/1999/xlink" width="32" height="32" viewBox="0 0 32 32">
  <defs>
    <path id="-122-a" d="M18.7205127,12.2945013 C18.3251429,11.9001324 17.6845436,11.9001324 17.2891737,12.2945013 L12.2794873,17.3041878 C11.8841174,17.7005586 11.8841174,18.3401569 12.2794873,18.7365277 C12.6748571,19.1308966 13.3154564,19.1308966 13.7108263,18.7365277 L18.7205127,13.7268412 C19.1158826,13.3304704 19.1158826,12.6908721 18.7205127,12.2945013 L18.7205127,12.2945013 Z M29.8138904,2.61644764 L28.3825514,1.18610959 C26.801072,-0.395369862 24.237674,-0.395369862 22.6571954,1.18610959 L15.4994995,8.34280456 C14.4425107,9.39979336 14.1091989,10.8921895 14.4655323,12.2404507 L24.0875335,2.61644764 C24.8782732,1.82670886 26.1604727,1.82670886 26.9512124,2.61644764 L28.3825514,4.04878758 C29.1732911,4.8395273 29.1732911,6.12072584 28.3825514,6.91146556 L18.7595493,16.5344677 C20.1078105,16.8898001 21.6002066,16.5564883 22.6571954,15.4994995 L29.8138904,8.34280456 C31.3953699,6.76232605 31.3953699,4.19792709 29.8138904,2.61644764 L29.8138904,2.61644764 Z M6.91146556,28.3815505 C6.12072584,29.1732911 4.83852636,29.1732911 4.04778664,28.3815505 L2.61744858,26.9512124 C1.82670886,26.1604727 1.82670886,24.8782732 2.61744858,24.0875335 L12.2404507,14.4655323 C10.8921895,14.1091989 9.39979336,14.4435117 8.34280456,15.4994995 L1.18610959,22.6571954 C-0.395369862,24.237674 -0.395369862,26.801072 1.18610959,28.3815505 L2.61744858,29.8138904 C4.19792709,31.3953699 6.76132511,31.3953699 8.34280456,29.8138904 L15.4994995,22.6571954 C16.5564883,21.6002066 16.8908011,20.1078105 16.5344677,18.7595493 L6.91146556,28.3815505 L6.91146556,28.3815505 Z"/>
  </defs>
  <use fill="#AAA" fill-rule="evenodd" xlink:href="#a"/>
</svg>
