<svg xmlns="http://www.w3.org/2000/svg" xmlns:xlink="http://www.w3.org/1999/xlink" width="32" height="32" viewBox="0 0 32 32">
  <defs>
    <path id="-linkedin-a" d="M24.979445,23.5397086 L21.358872,23.5397086 L21.358872,17.7111587 C21.358872,16.2471521 20.834933,15.2481539 19.5242179,15.2481539 C18.5239182,15.2481539 17.9281057,15.9216244 17.6664255,16.5721012 C17.5706906,16.8052201 17.5471907,17.1300247 17.5471907,17.4556246 L17.5471907,23.5399979 L13.9260392,23.5399979 C13.9260392,23.5399979 13.973762,13.6678047 13.9260392,12.6455236 L17.5471907,12.6455236 L17.5471907,14.1886345 C18.0277452,13.4468335 18.8884195,12.389411 20.8107824,12.389411 C23.1933815,12.389411 24.9795896,13.9468387 24.9795896,17.29315 L24.979445,23.5397086 Z M10.1116102,11.1582339 L10.0884718,11.1582339 C8.87291319,11.1582339 8.08707704,10.3212042 8.08707704,9.27513394 C8.08707704,8.20693763 8.89684692,7.39333547 10.1354716,7.39333547 C11.3740963,7.39333547 12.1368664,8.20693763 12.1603663,9.27513394 C12.1603663,10.3212042 11.3740963,11.1582339 10.1116102,11.1582339 Z M11.9218967,23.5397086 L8.30117907,23.5397086 L8.30117907,12.6452343 L11.9218967,12.6452343 L11.9218967,23.5397086 L11.9218967,23.5397086 Z M16,30 C23.7319869,30 30,23.7319869 30,16 C30,8.26801307 23.7319869,2 16,2 C8.26801307,2 2,8.26801307 2,16 C2,23.7319869 8.26801307,30 16,30 Z M16,32 C7.16344357,32 0,24.8365564 0,16 C0,7.16344357 7.16344357,0 16,0 C24.8365564,0 32,7.16344357 32,16 C32,24.8365564 24.8365564,32 16,32 Z"/>
  </defs>
  <use fill="#AAA" fill-rule="evenodd" xlink:href="#a"/>
</svg>
