<svg xmlns="http://www.w3.org/2000/svg" xmlns:xlink="http://www.w3.org/1999/xlink" width="32" height="32" viewBox="0 0 32 32">
  <defs>
    <path id="-5-a" d="M24,8 L8,8 C7.447,8 7,8.448 7,9 C7,9.553 7.447,10 8,10 L24,10 C24.553,10 25,9.553 25,9 C25,8.448 24.553,8 24,8 L24,8 Z M30,28 C30,29.099 28.914,30.012 27.817,30.012 L3.974,30.012 C2.877,30.012 1.987,29.122 1.987,28.023 L1.987,4.165 C1.987,3.066 2.902,2 4,2 L28,2 C29.098,2 30,2.902 30,4 L30,28 L30,28 Z M28,0 L4,0 C1.806,0 0,1.969 0,4.165 L0,28.023 C0,30.22 1.779,32 3.974,32 L27.817,32 C30.012,32 32,30.196 32,28 L32,4 C32,1.804 30.194,0 28,0 L28,0 Z M24,20 L8,20 C7.447,20 7,20.448 7,21 C7,21.553 7.447,22 8,22 L24,22 C24.553,22 25,21.553 25,21 C25,20.448 24.553,20 24,20 L24,20 Z M24,14 L8,14 C7.447,14 7,14.448 7,15 C7,15.553 7.447,16 8,16 L24,16 C24.553,16 25,15.553 25,15 C25,14.448 24.553,14 24,14 L24,14 Z"/>
  </defs>
  <use fill="#AAA" fill-rule="evenodd" xlink:href="#a"/>
</svg>
