<svg xmlns="http://www.w3.org/2000/svg" xmlns:xlink="http://www.w3.org/1999/xlink" width="32" height="32" viewBox="0 0 32 32">
  <defs>
    <path id="-43-a" d="M30,24 L23,19 L23,7 L30,2 L30,24 L30,24 Z M21,18 L18,18 L18,8 L21,8 L21,18 L21,18 Z M16,18 L8,18 C6.012,18 2,17.418 2,13 C2,8.582 5.946,7.935 8,8 L16,8 L16,18 L16,18 Z M11,27 C11,27.553 10.552,28 10,28 L9,28 C8.448,28 8,27.553 8,27 L8,20 L11,20 L11,27 L11,27 Z M30,0 L21,6 L8,6 C3.582,6 0,8.582 0,13 C0,16.733 2.542,19.339 6,20 C6.045,20.27 6,28 6,28 C6,29.104 6.896,30 8,30 L11,30 C12.104,30 13,29.104 13,28 L13,20 L21,20 L30,26 C31.104,26 32,25.104 32,24 L32,2 C32,0.896 31.104,0 30,0 L30,0 Z"/>
  </defs>
  <use fill="#AAA" fill-rule="evenodd" xlink:href="#a"/>
</svg>
