<svg xmlns="http://www.w3.org/2000/svg" xmlns:xlink="http://www.w3.org/1999/xlink" width="32" height="32" viewBox="0 0 32 32">
  <defs>
    <path id="-63-a" d="M24,17 C24,17.553 24.448,18 25,18 C25.552,18 26,17.553 26,17 L26,9 C26,8.448 25.552,8 25,8 C24.448,8 24,8.448 24,9 L24,17 L24,17 Z M30,26.5 L24,22 L16,28 L8,25 L2,28.75 L2,8.75 L8,5 L16,8 L24,2 L30,6.5 L30,26.5 L30,26.5 Z M24,0 L16,6 L8,3 L0,8 L0,32 L8,27 L16,30 L24,24 L32,30 L32,6 L24,0 L24,0 Z M17,13 C16.448,13 16,13.448 16,14 L16,20 C16,20.553 16.448,21 17,21 C17.552,21 18,20.553 18,20 L18,14 C18,13.448 17.552,13 17,13 L17,13 Z M9,10 C8.448,10 8,10.448 8,11 L8,21 C8,21.553 8.448,22 9,22 C9.552,22 10,21.553 10,21 L10,11 C10,10.448 9.552,10 9,10 L9,10 Z"/>
  </defs>
  <use fill="#AAA" fill-rule="evenodd" xlink:href="#a"/>
</svg>
