<svg xmlns="http://www.w3.org/2000/svg" xmlns:xlink="http://www.w3.org/1999/xlink" width="32" height="32" viewBox="0 0 32 32">
  <defs>
    <path id="-89-a" d="M19,11 L3,11 C2.447,11 2,10.553 2,10 C2,9.448 2.447,9 3,9 L19,9 C19.553,9 20,9.448 20,10 C20,10.553 19.553,11 19,11 L19,11 Z M11,16 C8.283,16 5.886,14.813 4.439,13 L17.561,13 C16.114,14.813 13.717,16 11,16 L11,16 Z M13,28 C12.781,29.037 12.736,30 12,30 L10,30 C9.264,30 9.281,29.006 9,28 L7.093,17.286 C8.293,17.746 9.613,18 11,18 C12.387,18 13.707,17.746 14.907,17.286 L13,28 L13,28 Z M11,2 C14.623,2 17.681,4.109 18.664,7 L3.336,7 C4.319,4.109 7.377,2 11,2 L11,2 Z M20.79,7.164 C19.848,3.074 15.823,0 11,0 C6.177,0 2.152,3.074 1.21,7.164 C0.498,7.471 0,8.177 0,9 L0,11 C0,12.104 0.896,13 2,13 L2.052,13 C2.756,14.268 3.778,15.366 5.029,16.208 L7,30 C7,31.104 7.896,32 9,32 L13,32 C14.104,32 15,31.104 15,30 L16.971,16.208 C18.222,15.366 19.244,14.268 19.948,13 L20,13 C21.104,13 22,12.104 22,11 L22,9 C22,8.177 21.502,7.471 20.79,7.164 L20.79,7.164 Z"/>
  </defs>
  <use fill="#AAA" fill-rule="evenodd" xlink:href="#a"/>
</svg>
