<svg xmlns="http://www.w3.org/2000/svg" xmlns:xlink="http://www.w3.org/1999/xlink" width="32" height="32" viewBox="0 0 32 32">
  <defs>
    <path id="-41-a" d="M6,7 C6,4.238 8.239,2 11,2 C13.761,2 16,4.238 16,7 L16,17 C16,19.762 13.761,22 11,22 C8.239,22 6,19.762 6,17 L6,7 L6,7 Z M11,24 C14.866,24 18,20.866 18,17 L18,7 C18,3.134 14.866,0 11,0 C7.134,0 4,3.134 4,7 L4,17 C4,20.866 7.134,24 11,24 L11,24 Z M22,19 L20,19 C19.089,23.007 15.282,26 11,26 C6.718,26 2.911,23.007 2,19 L0,19 C0.883,23.799 5.063,27.51 10,27.955 L10,30 L9,30 C8.448,30 8,30.448 8,31 C8,31.553 8.448,32 9,32 L13,32 C13.552,32 14,31.553 14,31 C14,30.448 13.552,30 13,30 L12,30 L12,27.955 C16.937,27.51 21.117,23.799 22,19 L22,19 Z"/>
  </defs>
  <use fill="#AAA" fill-rule="evenodd" xlink:href="#a"/>
</svg>
