<svg xmlns="http://www.w3.org/2000/svg" xmlns:xlink="http://www.w3.org/1999/xlink" width="32" height="32" viewBox="0 0 32 32">
  <defs>
    <path id="-199-a" d="M16,30 C8.268,30 2,23.73 2,16 C2,8.27 8.268,2 16,2 C23.732,2 30,8.27 30,16 C30,23.73 23.732,30 16,30 L16,30 Z M16,0 C7.163,0 0,7.16 0,16 C0,24.84 7.163,32 16,32 C24.837,32 32,24.84 32,16 C32,7.16 24.837,0 16,0 L16,0 Z M22,15 L10,15 C9.447,15 9,15.45 9,16 C9,16.55 9.447,17 10,17 L22,17 C22.553,17 23,16.55 23,16 C23,15.45 22.553,15 22,15 L22,15 Z"/>
  </defs>
  <use fill="#AAA" fill-rule="evenodd" xlink:href="#a"/>
</svg>
