<svg xmlns="http://www.w3.org/2000/svg" xmlns:xlink="http://www.w3.org/1999/xlink" width="32" height="32" viewBox="0 0 32 32">
  <defs>
    <path id="-52-a" d="M30,28 C30,29.104 29.104,30 28,30 L4,30 C2.896,30 2,29.104 2,28 L2,4 C2,2.896 2.896,2 4,2 L28,2 C29.104,2 30,2.896 30,4 L30,28 L30,28 Z M28,0 L4,0 C1.791,0 0,1.791 0,4 L0,28 C0,30.209 1.791,32 4,32 L28,32 C30.209,32 32,30.209 32,28 L32,4 C32,1.791 30.209,0 28,0 L28,0 Z M20,19.4 C18.674,19.4 17.6,18.325 17.6,17 C17.6,15.675 18.674,14.6 20,14.6 C21.326,14.6 22.4,15.675 22.4,17 C22.4,18.325 21.326,19.4 20,19.4 L20,19.4 Z M26,16 L23.858,16 C23.413,14.277 21.862,13 20,13 C18.138,13 16.588,14.277 16.142,16 L6,16 C5.448,16 5,16.448 5,17 C5,17.553 5.448,18 6,18 L16.142,18 C16.587,19.723 18.138,21 20,21 C21.862,21 23.413,19.723 23.858,18 L26,18 C26.552,18 27,17.553 27,17 C27,16.448 26.552,16 26,16 L26,16 Z M11,11.4 C9.674,11.4 8.6,10.325 8.6,9 C8.6,7.675 9.674,6.601 11,6.601 C12.326,6.601 13.4,7.675 13.4,9 C13.4,10.325 12.326,11.4 11,11.4 L11,11.4 Z M26,8 L14.858,8 C14.413,6.277 12.862,5 11,5 C9.138,5 7.587,6.277 7.142,8 L6,8 C5.448,8 5,8.448 5,9 C5,9.553 5.448,10 6,10 L7.142,10 C7.587,11.723 9.138,13 11,13 C12.862,13 14.413,11.723 14.858,10 L26,10 C26.552,10 27,9.553 27,9 C27,8.448 26.552,8 26,8 L26,8 Z M11,27.4 C9.674,27.4 8.6,26.325 8.6,25 C8.6,23.675 9.674,22.601 11,22.601 C12.326,22.601 13.4,23.675 13.4,25 C13.4,26.325 12.326,27.4 11,27.4 L11,27.4 Z M26,24 L14.858,24 C14.413,22.278 12.862,21 11,21 C9.138,21 7.587,22.278 7.142,24 L6,24 C5.448,24 5,24.447 5,25 C5,25.553 5.448,26 6,26 L7.142,26 C7.587,27.723 9.138,29 11,29 C12.862,29 14.413,27.723 14.858,26 L26,26 C26.552,26 27,25.553 27,25 C27,24.447 26.552,24 26,24 L26,24 Z"/>
  </defs>
  <use fill="#AAA" fill-rule="evenodd" xlink:href="#a"/>
</svg>
