<svg xmlns="http://www.w3.org/2000/svg" xmlns:xlink="http://www.w3.org/1999/xlink" width="32" height="32" viewBox="0 0 32 32">
  <defs>
    <path id="-20-a" d="M6,14 L8,14 L8,16 L6,16 L6,14 Z M7,18 C8.657,18 10,16.657 10,15 C10,13.343 8.657,12 7,12 C5.343,12 4,13.343 4,15 C4,16.657 5.343,18 7,18 L7,18 Z M6,22 L8,22 L8,24 L6,24 L6,22 Z M7,26 C8.657,26 10,24.657 10,23 C10,21.343 8.657,20 7,20 C5.343,20 4,21.343 4,23 C4,24.657 5.343,26 7,26 L7,26 Z M14,14 L16,14 L16,16 L14,16 L14,14 Z M15,18 C16.657,18 18,16.657 18,15 C18,13.343 16.657,12 15,12 C13.343,12 12,13.343 12,15 C12,16.657 13.343,18 15,18 L15,18 Z M28,6 L2,6 L2,4 C2,2.896 2.896,2 4,2 L26,2 C27.104,2 28,2.896 28,4 L28,6 L28,6 Z M28,28 C28,29.104 27.104,30 26,30 L4,30 C2.896,30 2,29.104 2,28 L2,8 L28,8 L28,28 L28,28 Z M26,0 L4,0 C1.791,0 0,1.791 0,4 L0,28 C0,30.209 1.791,32 4,32 L26,32 C28.209,32 30,30.209 30,28 L30,4 C30,1.791 28.209,0 26,0 L26,0 Z M14,22 L16,22 L16,24 L14,24 L14,22 Z M15,26 C16.657,26 18,24.657 18,23 C18,21.343 16.657,20 15,20 C13.343,20 12,21.343 12,23 C12,24.657 13.343,26 15,26 L15,26 Z M22,22 L24,22 L24,24 L22,24 L22,22 Z M23,26 C24.657,26 26,24.657 26,23 C26,21.343 24.657,20 23,20 C21.343,20 20,21.343 20,23 C20,24.657 21.343,26 23,26 L23,26 Z M22,14 L24,14 L24,16 L22,16 L22,14 Z M23,18 C24.657,18 26,16.657 26,15 C26,13.343 24.657,12 23,12 C21.343,12 20,13.343 20,15 C20,16.657 21.343,18 23,18 L23,18 Z"/>
  </defs>
  <use fill="#AAA" fill-rule="evenodd" xlink:href="#a"/>
</svg>
