<svg xmlns="http://www.w3.org/2000/svg" xmlns:xlink="http://www.w3.org/1999/xlink" width="32" height="32" viewBox="0 0 32 32">
  <defs>
    <path id="-149-a" d="M7,20 C6.286,18.401 6,17.213 6,15.726 C6,7.593 10.369,5.048 14,3 C16.655,1.749 19.906,1.48 22,2 C17.9,3.926 13.934,10.142 13.934,16.675 C13.934,17.823 14.048,18.928 14.221,20 L7,20 L7,20 Z M31,20 L16.434,20 C16.172,18.871 16,17.709 16,16.5 C16,9.622 20.483,3.8 26.685,1.772 C24.535,0.646 22.095,0 19.5,0 C10.939,0 4,6.939 4,15.5 C4,17.065 4.237,18.575 4.669,20 L1,20 C0.447,20 0,20.448 0,21 C0,21.553 0.447,22 1,22 L31,22 C31.553,22 32,21.553 32,21 C32,20.448 31.553,20 31,20 L31,20 Z M19,24 L5,24 C4.447,24 4,24.447 4,25 C4,25.553 4.447,26 5,26 L19,26 C19.553,26 20,25.553 20,25 C20,24.447 19.553,24 19,24 L19,24 Z M17,28 L7,28 C6.447,28 6,28.448 6,29 C6,29.553 6.447,30 7,30 L17,30 C17.553,30 18,29.553 18,29 C18,28.448 17.553,28 17,28 L17,28 Z"/>
  </defs>
  <use fill="#AAA" fill-rule="evenodd" xlink:href="#a"/>
</svg>
