<svg xmlns="http://www.w3.org/2000/svg" xmlns:xlink="http://www.w3.org/1999/xlink" width="32" height="32" viewBox="0 0 32 32">
  <defs>
    <path id="-146-a" d="M28,26 L4,26 C3.447,26 3,26.447 3,27 C3,27.553 3.447,28 4,28 L28,28 C28.553,28 29,27.553 29,27 C29,26.447 28.553,26 28,26 L28,26 Z M31,22 L1,22 C0.447,22 0,22.447 0,23 C0,23.553 0.447,24 1,24 L31,24 C31.553,24 32,23.553 32,23 C32,22.447 31.553,22 31,22 L31,22 Z M21,30 L11,30 C10.447,30 10,30.447 10,31 C10,31.553 10.447,32 11,32 L15.996,32 L16,32 L16.004,32 L21,32 C21.553,32 22,31.553 22,31 C22,30.447 21.553,30 21,30 L21,30 Z M2.588,20 C2.21,18.731 2,17.391 2,16 C2,8.269 8.268,2 16,2 C23.732,2 30,8.269 30,16 C30,17.391 29.79,18.731 29.412,20 L31.476,20 C31.806,18.72 32,17.384 32,16 C32,7.164 24.837,0 16,0 C7.163,0 0,7.164 0,16 C0,17.384 0.194,18.72 0.524,20 L2.588,20 L2.588,20 Z"/>
  </defs>
  <use fill="#AAA" fill-rule="evenodd" xlink:href="#a"/>
</svg>
