<svg xmlns="http://www.w3.org/2000/svg" xmlns:xlink="http://www.w3.org/1999/xlink" width="32" height="32" viewBox="0 0 32 32">
  <defs>
    <path id="-81-a" d="M18,28 C18,29.104 17.104,30 16,30 L4,30 C2.896,30 2,29.104 2,28 L2,8 C2,6.896 2.896,6 4,6 L16,6 C17.104,6 18,6.896 18,8 L18,28 L18,28 Z M16,4 L11,4 L11,0 L7,0 C6.448,0 6,0.448 6,1 C6,1.553 6.448,2 7,2 L9,2 L9,4 L4,4 C1.791,4 0,5.791 0,8 L0,28 C0,30.209 1.791,32 4,32 L16,32 C18.209,32 20,30.209 20,28 L20,8 C20,5.791 18.209,4 16,4 L16,4 Z M10,8 C9.448,8 9,8.447 9,9 L9,13 C9,13.553 9.448,14 10,14 C10.552,14 11,13.553 11,13 L11,9 C11,8.447 10.552,8 10,8 L10,8 Z"/>
  </defs>
  <use fill="#AAA" fill-rule="evenodd" xlink:href="#a"/>
</svg>
