<svg xmlns="http://www.w3.org/2000/svg" xmlns:xlink="http://www.w3.org/1999/xlink" width="32" height="32" viewBox="0 0 32 32">
  <defs>
    <path id="-42-a" d="M12.9975224,26 C11.060382,26 9.23713235,25.362 7.71859015,24.318 L6.31393862,25.742 C7.94637148,26.953 9.8925032,27.765 11.9984815,27.955 L11.9984815,30 L10.9994405,30 C10.4479699,30 10.0003996,30.448 10.0003996,31 C10.0003996,31.553 10.4479699,32 10.9994405,32 L14.9956042,32 C15.5470748,32 15.9946451,31.553 15.9946451,31 C15.9946451,30.448 15.5470748,30 14.9956042,30 L13.9965633,30 L13.9965633,27.955 C18.9298274,27.51 23.1048194,23.799 23.9869725,19 L21.9888907,19 C21.0787644,23.007 17.2754156,26 12.9975224,26 L12.9975224,26 Z M12.9975224,22 C12.134351,22 11.3331202,21.761 10.6248002,21.375 L9.16919757,22.85 C10.2701407,23.572 11.5818814,24 12.9975224,24 C16.8598146,24 19.9908088,20.866 19.9908088,17 L19.9908088,11.887 L17.992727,13.911 L17.992727,17 C17.992727,19.762 15.7558744,22 12.9975224,22 L12.9975224,22 Z M8.00231777,7 C8.00231777,4.238 10.2391704,2 12.9975224,2 C15.1694373,2 16.9986813,3.396 17.6870205,5.334 L19.189578,3.812 C18.0276934,1.558 15.7059223,0 12.9975224,0 C9.13523018,0 6.00423593,3.134 6.00423593,7 L6.00423593,17 C6.00423593,17.053 8.00231777,15.145 8.00231777,15.145 L8.00231777,7 L8.00231777,7 Z M23.5643782,3.013 L0,25.597 L1.42663043,27.005 L25,4.433 L23.5643782,3.013 L23.5643782,3.013 Z M4.05310902,19.145 C4.04112052,19.095 4.01714354,19.05 4.00615409,19 L2.00807225,19 C2.11696771,19.596 2.27881234,20.175 2.48561381,20.733 L4.05310902,19.145 L4.05310902,19.145 Z"/>
  </defs>
  <use fill="#AAA" fill-rule="evenodd" xlink:href="#a"/>
</svg>
