<svg xmlns="http://www.w3.org/2000/svg" xmlns:xlink="http://www.w3.org/1999/xlink" width="32" height="32" viewBox="0 0 32 32">
  <defs>
    <path id="-108-a" d="M10.7306663,28.8472723 C7.71704717,30.7165626 4.02181256,30.6221335 2.56149998,28.4715865 C1.1001655,26.322055 2.42762948,22.9297144 5.44124864,21.0594088 C8.45588971,19.1901184 12.2512717,19.3850689 13.7126062,21.5346004 C15.1739407,23.6851474 13.7453074,26.9769666 10.7306663,28.8472723 L10.7306663,28.8472723 Z M22.7003242,7.04836201 L15.8974545,0.289065096 C15.4978869,-0.107943331 14.8734985,-0.084589894 14.4524707,0.289065096 C14.1489627,0.55915267 14.2256061,1.04652874 14.2256061,1.60193439 L14.2256061,19.1951953 C11.9579829,17.5259322 8.21574034,17.5228861 4.90167898,19.4246682 C0.781328885,21.7874268 -1.11227447,26.1931034 0.670962365,29.2635727 C2.45522111,32.3340419 7.24185798,32.9067088 11.3622081,30.5429349 C14.5628372,28.7071516 16.4349804,25.6417592 16.2694306,22.9246376 L16.2694306,3.6032224 L21.2553404,8.4840907 C21.654908,8.88109912 22.3007566,8.88109912 22.7003242,8.4840907 C23.0998919,8.08809764 23.0998919,7.44537044 22.7003242,7.04836201 L22.7003242,7.04836201 Z"/>
  </defs>
  <use fill="#AAA" fill-rule="evenodd" xlink:href="#a"/>
</svg>
