<svg xmlns="http://www.w3.org/2000/svg" xmlns:xlink="http://www.w3.org/1999/xlink" width="32" height="32" viewBox="0 0 32 32">
  <defs>
    <path id="-111-a" d="M30,24 C30,25.104 29.104,26 28,26 L4,26 C2.896,26 2,25.104 2,24 L2,4 C2,2.896 2.896,2 4,2 L28,2 C29.104,2 30,2.896 30,4 L30,24 L30,24 Z M28,0 L4,0 C1.791,0 0,1.791 0,4 L0,24 C0,26.209 1.791,28 4,28 L28,28 C30.209,28 32,26.209 32,24 L32,4 C32,1.791 30.209,0 28,0 L28,0 Z M29,30 L3,30 C2.448,30 2,30.447 2,31 C2,31.553 2.448,32 3,32 L29,32 C29.552,32 30,31.553 30,31 C30,30.447 29.552,30 29,30 L29,30 Z M24.121,19.407 C22.377,20.395 20.221,20.254 19.373,19.22 C18.524,18.187 19.275,16.595 21.05,15.664 C22.824,14.733 24.369,14.786 25.425,15.528 C26.79,16.486 25.708,18.508 24.121,19.407 L24.121,19.407 Z M11.115,21.412 C9.37,22.396 7.212,22.246 6.367,21.21 C5.522,20.174 6.278,18.584 8.056,17.659 C9.833,16.734 11.419,16.737 12.432,17.537 C13.686,18.529 12.642,20.55 11.115,21.412 L11.115,21.412 Z M27,4 L14,6 C13.448,6 13,6.447 13,7 L13,15.461 C11.456,14.753 9.276,14.866 7.307,15.937 C4.519,17.452 3.237,20.276 4.444,22.245 C5.652,24.215 9.212,24.516 12,23 C14.174,21.818 15.125,19.748 15,18 C15.009,17.945 15,7.846 15,7.846 L26,6.154 L26,13.461 C24.456,12.753 22.276,12.866 20.307,13.937 C17.519,15.452 16.237,18.276 17.444,20.245 C18.652,22.215 22.212,22.516 25,21 C27.174,19.817 28.124,17.748 28,16 C28.009,15.945 28,5 28,5 C28,4.448 27.552,4 27,4 L27,4 Z"/>
  </defs>
  <use fill="#AAA" fill-rule="evenodd" xlink:href="#a"/>
</svg>
