<svg xmlns="http://www.w3.org/2000/svg" xmlns:xlink="http://www.w3.org/1999/xlink" width="32" height="32" viewBox="0 0 32 32">
  <defs>
    <path id="-110-a" d="M27.1530405,23.188 C24.2922448,24.789 20.7887197,24.555 19.4142983,22.824 C18.0388774,21.093 19.2763564,18.45 22.1751361,16.92 C25.0749153,15.391 27.7257994,15.328 29.3101324,16.743 C31.0154145,18.265 29.5540297,21.847 27.1530405,23.188 L27.1530405,23.188 Z M10.0092577,27 C7.11547589,28.571 3.81286623,28.603 2.41945283,26.874 C1.02703901,25.146 2.24952436,22.482 5.15130277,20.925 C8.0520816,19.368 10.600009,19.427 12.3142873,20.696 C14.1934962,22.087 12.4732204,25.662 10.0092577,27 L10.0092577,27 Z M31.0004208,0 C30.8494843,0 30.7095433,0.039 30.5815971,0.099 L14.0075745,4 C13.4548072,4 13.0079953,4.448 13.0079953,5 L13.0079953,19.002 C10.9078794,17.636 7.53230042,17.638 4.52156788,19.24 C0.720168193,21.263 -1.02609666,25.031 0.619210694,27.659 C2.26551763,30.286 6.68065894,30.776 10.4810591,28.754 C12.9310277,27.45 14.6223157,24.981 15.0071537,23 L15.0071537,5.765 L30.0008416,2.235 L30.0008416,15.002 C27.9007257,13.636 24.5251468,13.638 21.5144142,15.24 C17.7130145,17.263 15.9667497,21.031 17.612057,23.659 C19.258364,26.286 23.8454329,26.902 27.6608267,24.91 C30.5176241,23.419 31.7710964,21.106 32,19 L32,1 C32,0.447 31.5531881,0 31.0004208,0 L31.0004208,0 Z"/>
  </defs>
  <use fill="#AAA" fill-rule="evenodd" xlink:href="#a"/>
</svg>
