<svg xmlns="http://www.w3.org/2000/svg" xmlns:xlink="http://www.w3.org/1999/xlink" width="32" height="32" viewBox="0 0 32 32">
  <defs>
    <path id="-4-a" d="M20,28 C20,29.104 19.104,30 18,30 L4,30 C2.896,30 2,29.104 2,28 L2,6 C2,4.896 2.896,4 4,4 L18,4 C19.104,4 20,4.896 20,6 L20,28 L20,28 Z M18,2 L18,0 L16,0 L16,2 L12,2 L12,0 L10,0 L10,2 L6,2 L6,0 L4,0 L4,2 C1.791,2 0,3.791 0,6 L0,28 C0,30.209 1.791,32 4,32 L18,32 C20.209,32 22,30.209 22,28 L22,6 C22,3.791 20.209,2 18,2 L18,2 Z M17,10 L5,10 C4.448,10 4,10.448 4,11 C4,11.553 4.448,12 5,12 L17,12 C17.552,12 18,11.553 18,11 C18,10.448 17.552,10 17,10 L17,10 Z M17,22 L5,22 C4.448,22 4,22.447 4,23 C4,23.553 4.448,24 5,24 L17,24 C17.552,24 18,23.553 18,23 C18,22.447 17.552,22 17,22 L17,22 Z M17,16 L5,16 C4.448,16 4,16.448 4,17 C4,17.553 4.448,18 5,18 L17,18 C17.552,18 18,17.553 18,17 C18,16.448 17.552,16 17,16 L17,16 Z"/>
  </defs>
  <use fill="#AAA" fill-rule="evenodd" xlink:href="#a"/>
</svg>
