<svg xmlns="http://www.w3.org/2000/svg" xmlns:xlink="http://www.w3.org/1999/xlink" width="32" height="32" viewBox="0 0 32 32">
  <defs>
    <path id="-109-a" d="M11.1940191,28.6651151 C8.0242339,30.6159932 4.15926447,30.532841 2.62752054,28.2706753 C1.09683957,26.0074435 2.48827109,22.4393621 5.64848949,20.4714272 C8.8087079,18.5045583 12.7884784,18.7092406 14.3202223,20.9714063 C15.8253919,23.411603 14.0279048,26.9199854 11.1940191,28.6651151 L11.1940191,28.6651151 Z M15.9285003,0 C14.9069834,0 14.8570236,1.0681857 14.8570236,1.0681857 L14.8570236,18.5098886 C12.4802163,16.7530323 8.55784629,16.7509001 5.08192494,18.7508167 C0.763066085,21.2379197 -1.08969566,25.8731208 0.64720204,29.1032632 C2.41492596,32.3909724 7.53632935,32.9367919 11.8551882,30.4496888 C15.2099306,28.5179997 17.0074178,25.3795379 16.999977,22.3871255 L16.999977,1.0660536 C16.9808435,0.492516761 16.5078205,0 15.9285003,0 L15.9285003,0 Z"/>
  </defs>
  <use fill="#AAA" fill-rule="evenodd" xlink:href="#a"/>
</svg>
