<svg xmlns="http://www.w3.org/2000/svg" xmlns:xlink="http://www.w3.org/1999/xlink" width="32" height="32" viewBox="0 0 32 32">
  <defs>
    <path id="-133-a" d="M25,4 L7,4 C6.448,4 6,4.448 6,5 C6,5.553 6.448,6 7,6 L25,6 C25.552,6 26,5.553 26,5 C26,4.448 25.552,4 25,4 L25,4 Z M30,28 C30,29.104 29.104,30 28,30 L4,30 C2.896,30 2,29.104 2,28 L2,4 C2,2.896 2.896,2 4,2 L28,2 C29.104,2 30,2.896 30,4 L30,28 L30,28 Z M28,0 L4,0 C1.791,0 0,1.791 0,4 L0,28 C0,30.209 1.791,32 4,32 L28,32 C30.209,32 32,30.209 32,28 L32,4 C32,1.791 30.209,0 28,0 L28,0 Z M16.776,8.314 C16.567,8.104 16.29,8.015 16.016,8.029 C15.742,8.015 15.464,8.104 15.255,8.314 L10.313,14.295 C9.921,14.688 9.921,15.326 10.313,15.719 C10.705,16.112 11.341,16.112 11.733,15.719 L15,11.766 L15,27 C15,27.553 15.448,28 16,28 C16.552,28 17,27.553 17,27 L17,11.728 L20.298,15.719 C20.69,16.112 21.326,16.112 21.718,15.719 C22.11,15.326 22.11,14.688 21.718,14.295 L16.776,8.314 L16.776,8.314 Z"/>
  </defs>
  <use fill="#AAA" fill-rule="evenodd" xlink:href="#a"/>
</svg>
