<svg xmlns="http://www.w3.org/2000/svg" xmlns:xlink="http://www.w3.org/1999/xlink" width="32" height="32" viewBox="0 0 32 32">
  <defs>
    <path id="-159-a" d="M28,0 L20,0 L20,2 L28,2 C29.104,2 30,2.896 30,4 L30,12 L32,12 L32,4 C32,1.791 30.209,0 28,0 L28,0 Z M30,28 C30,29.104 29.104,30 28,30 L20,30 L20,32 L28,32 C30.209,32 32,30.209 32,28 L32,20 L30,20 L30,28 L30,28 Z M2,28 L2,20 L0,20 L0,28 C0,30.209 1.791,32 4,32 L12,32 L12,30 L4,30 C2.896,30 2,29.104 2,28 L2,28 Z M0,4 L0,12 L2,12 L2,4 C2,2.896 2.896,2 4,2 L12,2 L12,0 L4,0 C1.791,0 0,1.791 0,4 L0,4 Z"/>
  </defs>
  <use fill="#AAA" fill-rule="evenodd" xlink:href="#a"/>
</svg>
