<svg xmlns="http://www.w3.org/2000/svg" xmlns:xlink="http://www.w3.org/1999/xlink" width="32" height="32" viewBox="0 0 32 32">
  <defs>
    <path id="-49-a" d="M10,30 C5.582,30 2,26.418 2,22 C2,17.582 5.582,14 10,14 C14.268,14 18,17.732 18,22 C18,26.418 14.418,30 10,30 L10,30 Z M4,8 C4,4.687 6.687,2 10,2 C13.313,2 16,4.687 16,8 L16,14.014 C14.327,12.755 12.255,12 10,12 C7.746,12 5.673,12.755 4,14.014 L4,8 L4,8 Z M18,16.019 L18,8 C18,3.582 14.418,0 10,0 C5.582,0 2,3.582 2,8 L2,16.019 C0.75,17.688 0,19.754 0,22 C0,27.523 4.478,32 10,32 C15.522,32 20,27.523 20,22 C20,19.754 19.25,17.688 18,16.019 L18,16.019 Z M10,20 C9.447,20 9,20.448 9,21 L9,25 C9,25.553 9.447,26 10,26 C10.553,26 11,25.553 11,25 L11,21 C11,20.448 10.553,20 10,20 L10,20 Z"/>
  </defs>
  <use fill="#AAA" fill-rule="evenodd" xlink:href="#a"/>
</svg>
