<svg xmlns="http://www.w3.org/2000/svg" xmlns:xlink="http://www.w3.org/1999/xlink" width="32" height="32" viewBox="0 0 32 32">
  <defs>
    <path id="-11-a" d="M29.735,3.61089072 L17.047,16.1253818 L15.65,14.7477588 L28.339,2.23326773 C28.725,1.85264818 29.35,1.85264818 29.735,2.23326773 C30.121,2.61388728 30.121,3.23027117 29.735,3.61089072 L29.735,3.61089072 Z M13.556,19.5699388 C13.427,19.4430656 12.159,18.1923158 12.159,18.1923158 L14.254,16.1253818 L15.65,17.5030048 L13.556,19.5699388 L13.556,19.5699388 Z M11.461,24.3901208 C10.477,25.3022091 6.08,27.335177 3.491,25.3641472 C3.491,25.3641472 4.392,24.6618492 5.074,23.2522581 C6.703,18.9295789 10.763,19.5699388 10.763,19.5699388 L12.159,20.9465628 C12.173,20.9605488 13.202,22.7777324 11.461,24.3901208 L11.461,24.3901208 Z M31.132,0.855644737 C29.975,-0.285214912 28.099,-0.285214912 26.942,0.855644737 L9.764,17.7997082 C7.661,17.7517562 4.748,18.4960122 3.491,22.6099002 C2.53,24.7857253 0,24.6758352 0,24.6758352 C5.253,30.4970166 11.444,27.1983138 12.857,25.7677438 C14.1,24.5109999 14.279,22.9725377 14.146,21.7417679 L31.132,4.98851371 C32.289,3.84665506 32.289,1.99650439 31.132,0.855644737 L31.132,0.855644737 Z"/>
  </defs>
  <use fill="#AAA" fill-rule="evenodd" xlink:href="#a"/>
</svg>
