<svg xmlns="http://www.w3.org/2000/svg" xmlns:xlink="http://www.w3.org/1999/xlink" width="32" height="32" viewBox="0 0 32 32">
  <defs>
    <path id="-242-a" d="M11.3196384,32 L4.68025059,32 C4.10610681,32 3.63368883,31.520237 3.63368883,30.9371665 L3.63368883,27.0216879 C2.98645317,26.8089936 2.49473659,26.2659708 2.34013849,25.5932397 C0.843597036,17.7985888 0.0602246263,9.88001159 2.63937663e-05,1.93881727 C-0.0025690794,1.45952188 0.18635625,0.999059889 0.523307274,0.66341707 C0.962067827,0.230588755 1.5526217,-0.00808113564 2.16431612,0.000208965662 L13.8230141,0.000208965662 C15.0202808,0.000208965662 15.9873039,0.824967762 15.9873039,1.87929859 C16.1119703,9.86457925 15.3181741,17.8374035 13.6220743,25.635753 C13.4579734,26.2793199 12.9854298,26.7976001 12.3662002,27.0131852 L12.3662002,30.9371665 C12.3662002,31.520237 11.8937403,31.9999575 11.3196384,32 Z M4.88956294,30.7245998 L11.110326,30.7245998 L11.110326,27.1832386 L4.88956294,27.1832386 L4.88956294,30.7245998 Z M14.7272435,4.20477829 C14.6781388,11.3200234 13.8938036,18.4104408 12.3871314,25.3594163 C12.2379754,25.7195468 11.8744836,25.9420616 11.4912745,25.9078384 L4.48349698,25.9078384 C4.09911577,25.9404886 3.73675423,25.7113417 3.5960126,25.3466623 C2.25720894,18.37609 1.49267464,11.3042935 1.31032172,4.20477829 L14.7272435,4.20477829 Z M4.11510724,15.0499313 L11.8847818,15.0499313 L11.8847818,13.7745311 L4.11510724,13.7745311 L4.11510724,15.0499313 Z M4.27837087,12.4651203 L11.7173319,12.4651203 L11.7173319,6.04560592 L4.27837087,6.04560592 L4.27837087,12.4651203 Z M5.53424499,11.1939714 L10.4614578,11.1939714 L10.4614578,7.32100612 L5.53424499,7.32100612 L5.53424499,11.1939714 Z M2.16431612,1.27135783 C1.88768891,1.26404554 1.61884813,1.36624761 1.41497789,1.55619721 C1.31827559,1.64789848 1.26104959,1.7748008 1.25590051,1.90905793 C1.25770059,2.05785462 1.26113332,2.20745907 1.26477535,2.35719105 L1.26791504,2.48549631 C1.27155707,2.63522829 1.27498979,2.78483274 1.27683174,2.93362943 L14.7272435,2.93362943 C14.7272435,2.58927137 14.735616,2.24066198 14.7272435,1.90055526 C14.718871,1.56044854 14.3044325,1.27135783 13.8188279,1.27135783 L2.16431612,1.27135783 Z"/>
  </defs>
  <use fill="#AAA" fill-rule="evenodd" xlink:href="#a"/>
</svg>
