<svg xmlns="http://www.w3.org/2000/svg" xmlns:xlink="http://www.w3.org/1999/xlink" width="32" height="32" viewBox="0 0 32 32">
  <defs>
    <path id="-98-a" d="M6,25 C6,25.553 5.553,26 5,26 L3,26 C2.447,26 2,25.553 2,25 L2,3 C2,2.448 2.447,2 3,2 L5,2 C5.553,2 6,2.448 6,3 L6,25 L6,25 Z M6,0 L2,0 C0.896,0 0,0.896 0,2 L0,26 C0,27.104 0.896,28 2,28 L6,28 C7.104,28 8,27.104 8,26 L8,2 C8,0.896 7.104,0 6,0 L6,0 Z M18,25 C18,25.553 17.553,26 17,26 L15,26 C14.447,26 14,25.553 14,25 L14,3 C14,2.448 14.447,2 15,2 L17,2 C17.553,2 18,2.448 18,3 L18,25 L18,25 Z M18,0 L14,0 C12.896,0 12,0.896 12,2 L12,26 C12,27.104 12.896,28 14,28 L18,28 C19.104,28 20,27.104 20,26 L20,2 C20,0.896 19.104,0 18,0 L18,0 Z"/>
  </defs>
  <use fill="#AAA" fill-rule="evenodd" xlink:href="#a"/>
</svg>
