<svg xmlns="http://www.w3.org/2000/svg" xmlns:xlink="http://www.w3.org/1999/xlink" width="32" height="32" viewBox="0 0 32 32">
  <defs>
    <path id="10-a" d="M25.4350288,5.80761184 L21.1923882,1.56497116 C20.336789,0.709371952 19.2268776,0.702054627 18.3627778,1.56615434 L2.64267389,17.2862583 L0.473335109,25.1124513 C0.241560419,26.198411 0.80158899,26.7584396 1.88754867,26.5266649 L9.7137417,24.3573261 L25.4338457,8.63722215 C26.2979454,7.77312244 26.2899203,6.66391875 25.4350288,5.80761184 L25.4350288,5.80761184 Z M20.4811402,10.7615005 L16.2384995,6.51885977 L19.069293,3.68806628 C19.7465787,2.96693997 19.814487,2.9725708 20.4840982,3.68747468 L23.3125253,6.51590181 C24.0005361,7.21382034 24.0458146,7.20248297 23.3119337,7.93070696 L20.4811402,10.7615005 L20.4811402,10.7615005 Z M9.86566464,21.376976 C8.41397501,19.923871 6.0345601,17.5458715 5.62302395,17.1343354 L14.8231028,7.93425651 L19.0657435,12.1768972 L9.86566464,21.376976 L9.86566464,21.376976 Z M2.60857721,24.3914228 L4.20762721,18.5497321 L8.4502679,22.7923728 L2.60857721,24.3914228 L2.60857721,24.3914228 Z"/>
  </defs>
  <use fill="#AAA" fill-rule="evenodd" xlink:href="#a"/>
</svg>
