<svg xmlns="http://www.w3.org/2000/svg" xmlns:xlink="http://www.w3.org/1999/xlink" width="32" height="32" viewBox="0 0 32 32">
  <defs>
    <path id="-79-a" d="M11.5,29 C12.328,29 13,28.328 13,27.5 C13,26.672 12.328,26 11.5,26 C10.672,26 10,26.672 10,27.5 C10,28.328 10.672,29 11.5,29 L11.5,29 Z M21,5 L2,5 L2,4 C2,2.896 2.896,2 4,2 L19,2 C20.104,2 21,2.896 21,4 L21,5 L21,5 Z M2,7 L21,7 L21,23 L2,23 L2,7 Z M21,28 C21,29.104 20.104,30 19,30 L4,30 C2.896,30 2,29.104 2,28 L2,25 L21,25 L21,28 L21,28 Z M19,0 L4,0 C1.791,0 0,1.791 0,4 L0,28 C0,30.209 1.791,32 4,32 L19,32 C21.209,32 23,30.209 23,28 L23,4 C23,1.791 21.209,0 19,0 L19,0 Z"/>
  </defs>
  <use fill="#AAA" fill-rule="evenodd" xlink:href="#a"/>
</svg>
