<svg xmlns="http://www.w3.org/2000/svg" xmlns:xlink="http://www.w3.org/1999/xlink" width="32" height="32" viewBox="0 0 32 32">
  <defs>
    <path id="-235-a" d="M7.51786993,9.68582542 C8.79072867,9.22189374 10.8682699,9.38205597 12.9521289,10.1576126 C13.5280169,10.3495753 14.0743053,10.605648 14.6535897,10.9366676 L14.2696847,11.6085013 C13.7315036,11.3009692 13.2299122,11.0658482 12.6948603,10.8872553 C9.99305736,9.88193332 7.3927798,10.0407289 7.0773671,10.986967 L7.05574997,10.9797613 L5.89945233,14.2173947 L15.3455584,14.2173947 L15.3455584,14.9911799 L11.2659222,14.9911799 C10.4207681,14.9911799 9.61299676,16.8885033 9.61299676,19.3638628 C9.61299676,21.8392223 10.4207681,23.7365457 11.2659222,23.7365457 L16.0254977,23.7365457 C18.2653481,23.7365457 20.149765,22.0594147 20.4006828,19.8638839 L21.1694636,19.9517446 C20.8738347,22.5384972 18.6582914,24.5103308 16.0254977,24.5103308 L5.14646806,24.5103308 C2.2810297,24.5103308 0,22.2293011 0,19.3638628 C0,16.5214039 2.24459081,14.2540179 5.07764325,14.2178339 L8.72751214,3.99829875 C9.8953121,0.859836339 13.3904569,-0.786264097 16.4992182,0.370486474 C19.2388359,1.37981929 20.8581993,4.12847553 20.4195336,6.97980238 L19.6547462,6.86214279 C20.0374648,4.37447232 18.6259776,1.97865863 16.2305449,1.09612864 C13.5247397,0.0893173829 10.4727989,1.52668305 9.45446926,4.26334729 L7.51786993,9.68582542 Z M9.93230306,14.9911799 L5.14646806,14.9911799 C2.70837944,14.9911799 0.773785151,16.9257742 0.773785151,19.3638628 C0.773785151,21.8019514 2.70837944,23.7365457 5.14646806,23.7365457 L9.93230306,23.7365457 C9.2484438,22.8312384 8.83921161,21.2180074 8.83921161,19.3638628 C8.83921161,17.5097181 9.2484438,15.8964871 9.93230306,14.9911799 Z M27.5828681,16.645704 L28.1300169,16.0985552 L29.1499259,17.1184643 C30.0646339,18.0331723 30.3185894,19.2817868 29.8475177,20.4594662 L29.1290762,20.1720896 C29.4853913,19.2813017 29.2982234,18.3610592 28.6027772,17.665613 L27.5828681,16.645704 Z M20.4467022,19.0222945 L19.8995534,19.5694432 C18.8822263,18.5521161 19.7976966,16.2746046 21.7984556,14.1997435 C23.7444861,12.1816378 26.1389542,11.2517473 27.1781018,12.2908949 L26.630953,12.8380436 C26.017325,12.2244155 24.0363259,12.9937356 22.3554604,14.7368553 C20.6216757,16.5348543 19.8583263,18.4339186 20.4467022,19.0222945 Z M14.4616372,1.97848633 L14.4616372,2.75227149 C14.0189722,2.75227149 13.605662,2.85203602 13.1279011,3.05663133 C12.3376003,3.42138557 11.7374037,4.08646823 11.4997182,4.85894628 L10.7601506,4.63138702 C11.0638426,3.64438793 11.8175721,2.80917417 12.8133662,2.3497382 C13.3905212,2.10238606 13.90382,1.97848633 14.4616372,1.97848633 Z M23.8451911,22.3527948 C25.5311442,24.0387426 28.2779106,24.0387426 29.9626559,22.3539973 C31.6474012,20.669252 31.6474012,17.8544917 29.9626559,16.1697464 L22.2793412,8.48643172 C20.5945959,6.80168641 17.7798356,6.80168641 16.0950903,8.48643172 C14.410345,10.171177 14.410345,12.9859373 16.0938825,14.6694801 L23.8451911,22.3527948 Z M15.5479416,15.2178313 C13.5610144,13.2309041 13.5610144,9.9262102 15.5479416,7.93928299 C17.5348688,5.95235579 20.8395627,5.95235579 22.8264899,7.93928299 L30.5098046,15.6225977 C32.4967318,17.6095249 32.4967318,20.9142188 30.5098046,22.901146 C28.5230821,24.8878685 25.2868445,24.8880732 23.2998645,22.9017602 L15.5479416,15.2178313 Z"/>
  </defs>
  <use fill="#AAA" fill-rule="evenodd" xlink:href="#a"/>
</svg>
