<svg xmlns="http://www.w3.org/2000/svg" xmlns:xlink="http://www.w3.org/1999/xlink" width="32" height="32" viewBox="0 0 32 32">
  <defs>
    <path id="-229-a" d="M30.9060747,15.1420844 L15.1415403,30.9065489 C14.4364462,31.6117268 13.4987778,32 12.5014407,32 C11.5040401,32 10.56688,31.6117268 9.86127753,30.9065489 L1.0933534,22.1386855 C0.388259287,21.4330631 0,20.4959373 0,19.4985545 C0,18.5011717 0.388259287,17.5641093 1.0933534,16.8584235 L16.8578878,1.09389553 C17.5634903,0.388273228 18.5011587,0 19.498051,0 C20.495388,0 21.4330564,0.388273228 22.1382141,1.09389553 L30.9060747,9.86182251 C31.6116772,10.5669369 32,11.5045707 32,12.5019535 C32,13.4988283 31.6116772,14.4364621 30.9060747,15.1420844 M30.1519239,10.6160187 L21.3839998,1.84809167 C20.8799617,1.34406667 20.2106434,1.06671958 19.498051,1.06671958 C18.7860304,1.06671958 18.1161402,1.34406667 17.6120386,1.84809167 L1.84750418,17.6126197 C0.80803684,18.6526713 0.80803684,20.3445012 1.84750418,21.3844893 L10.6154283,30.1524163 C11.1194664,30.6559333 11.7893566,30.9332169 12.5014407,30.9332169 C13.2134612,30.9332169 13.8833514,30.6559333 14.3873895,30.1524163 L30.1519239,14.3873803 C31.1913913,13.3478367 31.1913913,11.6560702 30.1519239,10.6160187 M24.3959006,16.208804 C23.5926296,16.208804 22.8373986,15.8957091 22.2699427,15.3276809 C21.701343,14.7601607 21.3888292,14.0049487 21.3888292,13.2017342 C21.3888292,12.3985198 21.701343,11.6432442 22.2699427,11.075216 C22.8373986,10.5071879 23.5926296,10.1946644 24.3959006,10.1946644 C25.199108,10.1946644 25.954339,10.5071879 26.5224304,11.075216 C27.6947065,12.2475282 27.6947065,14.1553688 26.5224304,15.3276809 C25.954339,15.8957091 25.199108,16.208804 24.3959006,16.208804 M25.768216,11.8294122 C25.4012443,11.4629813 24.9142998,11.261384 24.3959006,11.261384 C23.8775013,11.261384 23.3899849,11.4629813 23.0235215,11.8294122 C22.6571217,12.195843 22.4555573,12.6832958 22.4555573,13.2017342 C22.4555573,13.7201091 22.6571217,14.2071174 23.0235215,14.5734848 C23.7568931,15.3063465 25.0347809,15.306918 25.768216,14.5734848 C26.5245273,13.8171933 26.5245273,12.5862116 25.768216,11.8294122 M18.798803,10.611193 C17.9950236,10.611193 17.2397926,10.2986696 16.6722732,9.73057791 C16.1042454,9.16261322 15.7911597,8.40733767 15.7911597,7.60412322 C15.7911597,6.80084528 16.1042454,6.04563322 16.6722732,5.47760504 C17.240301,4.90957686 17.9950236,4.59705343 18.798803,4.59705343 C19.601502,4.59705343 20.3572414,4.90957686 20.9247609,5.47760504 C22.0971006,6.65048862 22.0971006,8.55775783 20.9247609,9.73057791 C20.3572414,10.2986696 19.601502,10.611193 18.798803,10.611193 M20.1706101,6.23173769 C19.8041467,5.86537031 19.3166938,5.663773 18.798803,5.663773 C18.2804037,5.663773 17.7928873,5.86537031 17.426424,6.23173769 C17.0600241,6.59874002 16.8578878,7.08568481 16.8578878,7.60412322 C16.8578878,8.12256164 17.0600241,8.61001439 17.426424,8.97644526 C18.1587153,9.70873555 19.4377469,9.70924351 20.1706101,8.97644526 C20.9269214,8.21964582 20.9269214,6.98860063 20.1706101,6.23173769 M15.3271549,15.3276809 C14.7596355,15.8957091 14.0044045,16.208804 13.201197,16.208804 C12.3979261,16.208804 11.642695,15.8957091 11.0746672,15.3276809 C9.90232753,14.1553688 9.90232753,12.2475282 11.0746672,11.075216 C11.642695,10.5071879 12.3979261,10.1946644 13.201197,10.1946644 C14.0044045,10.1946644 14.7591271,10.5071879 15.3271549,11.075216 C15.8951827,11.6432442 16.2082684,12.3985198 16.2082684,13.2017342 C16.2082684,14.0049487 15.8951827,14.7601607 15.3271549,15.3276809 M14.5730041,11.8294122 C14.2065408,11.4629813 13.7195963,11.261384 13.201197,11.261384 C12.6827343,11.261384 12.1952814,11.4629813 11.828818,11.8294122 C11.0725067,12.5862116 11.0725067,13.8171933 11.828818,14.5734848 C12.5616812,15.3063465 13.8401409,15.306918 14.5730041,14.5734848 C14.939404,14.2071174 15.1415403,13.7201091 15.1415403,13.2017342 C15.1415403,12.6832958 14.939404,12.195843 14.5730041,11.8294122 M9.73005733,20.9252919 C9.16202954,21.4933201 8.40679851,21.8058435 7.60409944,21.8058435 C6.80032011,21.8058435 6.04508907,21.4933201 5.47756965,20.9252919 C4.30472158,19.7524084 4.30472158,17.8451391 5.47756965,16.672827 C6.04508907,16.1047988 6.80032011,15.791704 7.60409944,15.791704 C8.40679851,15.791704 9.16202954,16.1047988 9.73005733,16.672827 C10.2980851,17.2403472 10.6111708,17.9955593 10.6111708,18.7993452 C10.6111708,19.6019882 10.2980851,20.3572638 9.73005733,20.9252919 M8.97590656,17.4269597 C8.60950671,17.0605923 8.12199031,16.8584235 7.60409944,16.8584235 C7.08512831,16.8584235 6.59818381,17.0605923 6.23178396,17.4269597 C5.47490076,18.1832512 5.47490076,19.4142963 6.23178396,20.1710958 C6.96407529,20.9039575 8.24253496,20.9039575 8.97590656,20.1710958 C9.3423064,19.8047284 9.5444427,19.3172122 9.5444427,18.7993452 C9.5444427,18.2803988 9.3423064,17.7933905 8.97590656,17.4269597 M13.201197,21.388807 C14.0044045,21.388807 14.7596355,21.7019019 15.3271549,22.2699301 C15.8951827,22.8378947 16.2082684,23.5931703 16.2082684,24.3963847 C16.2082684,25.1995992 15.8951827,25.9548747 15.3271549,26.5223315 C14.7591271,27.0904231 14.0044045,27.4034545 13.201197,27.4034545 C12.3979261,27.4034545 11.642695,27.0904231 11.0746672,26.5223315 C9.90232753,25.3500828 9.90232753,23.4427501 11.0746672,22.2699301 C11.642695,21.7019019 12.3979261,21.388807 13.201197,21.388807 M11.828818,25.7682623 C12.5616812,26.5010606 13.8401409,26.5015685 14.5730041,25.7682623 C14.939404,25.4017679 15.1415403,24.9148232 15.1415403,24.3963847 C15.1415403,23.8780098 14.939404,23.3904936 14.5730041,23.0240627 C14.2065408,22.6576318 13.7195963,22.4555266 13.201197,22.4555266 C12.6827343,22.4555266 12.1952814,22.6576318 11.828818,23.0240627 C11.0725067,23.7809256 11.0725067,25.0119073 11.828818,25.7682623 M16.6722732,16.672827 C17.2397926,16.1047988 17.9950236,15.791704 18.798803,15.791704 C19.601502,15.791704 20.3572414,16.1047988 20.9247609,16.672827 C22.0971006,17.8451391 22.0971006,19.7524084 20.9247609,20.9252919 C20.3572414,21.4933201 19.601502,21.8058435 18.798803,21.8058435 C17.9950236,21.8058435 17.240301,21.4933201 16.6722732,20.9252919 C16.1042454,20.3572638 15.7911597,19.6019882 15.7911597,18.7993452 C15.7911597,17.9955593 16.1042454,17.2403472 16.6722732,16.672827 M17.426424,20.1710958 C18.1587153,20.9039575 19.4377469,20.9039575 20.1706101,20.1710958 C20.9269214,19.4142963 20.9269214,18.1832512 20.1706101,17.4269597 C19.8041467,17.0605923 19.3166938,16.8584235 18.798803,16.8584235 C18.2804037,16.8584235 17.7928873,17.0605923 17.426424,17.4269597 C17.0600241,17.7933905 16.8578878,18.2803988 16.8578878,18.7993452 C16.8578878,19.3172122 17.0600241,19.8047284 17.426424,20.1710958"/>
  </defs>
  <use fill="#AAA" fill-rule="evenodd" xlink:href="#a"/>
</svg>
