<svg xmlns="http://www.w3.org/2000/svg" xmlns:xlink="http://www.w3.org/1999/xlink" width="32" height="32" viewBox="0 0 32 32">
  <defs>
    <path id="-pinterest-a" d="M16.5107755,7.28606164 C11.6452215,7.28606164 9.19197134,10.7744562 9.19197134,13.683461 C9.19197134,15.444833 9.8588268,17.0118239 11.2891027,17.5957631 C11.5236338,17.6916457 11.7337109,17.5990616 11.8017272,17.339394 C11.8490429,17.1596854 11.9609627,16.7063192 12.0108944,16.5175114 C12.0794794,16.2606873 12.0528643,16.1706056 11.8636016,15.946766 C11.4511817,15.4603015 11.1876469,14.8305252 11.1876469,13.9384653 C11.1876469,11.3504337 13.1239504,9.03355736 16.2297248,9.03355736 C18.9798354,9.03355736 20.4907527,10.7139467 20.4907527,12.9581434 C20.4907527,15.910938 19.183998,18.4030871 17.2440549,18.4030871 C16.1727413,18.4030871 15.3707631,17.5170553 15.6278147,16.4303869 C15.9355941,15.1330726 16.5318173,13.7329378 16.5318173,12.7965194 C16.5318173,11.9582583 16.0818633,11.2591007 15.1506769,11.2591007 C14.055478,11.2591007 13.175702,12.3920612 13.175702,13.9098029 C13.175702,14.876476 13.5023622,15.5302514 13.5023622,15.5302514 C13.5023622,15.5302514 12.3815718,20.2789948 12.1851435,21.110659 C11.7938792,22.7669355 12.1263401,24.7973017 12.1544338,25.0023743 C12.170926,25.1238482 12.3270906,25.1527381 12.3978366,25.0609502 C12.4988374,24.929126 13.8032035,23.3188002 14.2466743,21.7097257 C14.3721292,21.2540847 14.9669874,18.8947835 14.9669874,18.8947835 C15.322765,19.5734679 16.3626865,20.1712834 17.4685769,20.1712834 C20.7606568,20.1712834 22.994162,17.1700357 22.994162,13.1527519 C22.994162,10.1151075 20.4212578,7.28606164 16.5107755,7.28606164 L16.5107755,7.28606164 Z M16,30 C23.7319869,30 30,23.7319869 30,16 C30,8.26801307 23.7319869,2 16,2 C8.26801307,2 2,8.26801307 2,16 C2,23.7319869 8.26801307,30 16,30 Z M16,32 C7.16344357,32 0,24.8365564 0,16 C0,7.16344357 7.16344357,0 16,0 C24.8365564,0 32,7.16344357 32,16 C32,24.8365564 24.8365564,32 16,32 Z"/>
  </defs>
  <use fill="#AAA" fill-rule="evenodd" xlink:href="#a"/>
</svg>
