<svg xmlns="http://www.w3.org/2000/svg" xmlns:xlink="http://www.w3.org/1999/xlink" width="32" height="32" viewBox="0 0 32 32">
  <defs>
    <path id="-45-a" d="M29.8567638,4.14794353 L22.4024729,11.6300094 L26.9098582,24.0300905 C27.1319264,24.7403816 26.993884,25.6207423 26.7067958,25.90786 C25.8915452,26.7241945 25.3103666,26.3360354 25.0012716,25.9938952 L17.7940566,16.2559049 L9.81560465,24.2631861 L11.2520461,29.595371 C10.6848718,29.0271382 7.37585485,24.5953221 7.29683056,24.5142889 C7.24381427,24.4622676 2.89047637,21.2169378 2.42133219,20.7447443 L7.53390342,22.12531 L15.6634018,14.1410383 L5.99543061,6.98610651 C5.71834545,6.73800484 5.35323324,6.00570477 6.09946258,5.25639773 C6.38755112,4.96928008 7.25781857,4.88224442 7.96603623,5.10533583 L20.3108301,9.57916905 L27.8661521,2.15912858 C28.3943144,1.63091214 29.427632,1.68493427 29.8907743,2.14812407 C30.3529163,2.61131387 30.3849262,3.62072749 29.8567638,4.14794353 L29.8567638,4.14794353 Z M31.2101798,0.803573122 C29.9637967,-0.446939295 27.7731235,-0.153819184 26.5197383,1.10269569 L20.1407779,7.46730369 L8.30914167,3.04549178 C7.17579336,2.75237167 6.0344426,2.37321631 4.62901067,3.7827939 C3.91179025,4.50108823 2.42133219,5.99570067 4.62901067,8.20760704 L12.7415039,14.850329 L7.46288159,20.1184877 L2.53736785,18.8869831 C1.80714343,18.698906 1.31499218,18.8459663 0.939876899,19.260136 C0.750818797,19.4962327 -0.620602678,20.5126492 0.335691217,21.4710419 L6.0624512,25.9268678 L10.5178205,31.6542146 C11.2100332,32.3484991 11.8532309,31.9153216 12.7325011,31.0799793 C13.2896723,30.5217506 13.1696354,30.2346329 13.0015838,29.4212997 L11.8892419,24.5292951 L17.1318531,19.2681393 L23.7638913,27.3834646 C25.9705695,29.595371 27.4620279,28.0997581 28.1792483,27.3834646 C29.5856805,25.9728866 29.2075643,24.8304185 28.9144742,23.6949532 L24.5301268,11.8420963 L30.8830793,5.46648382 C32.1364645,4.21096935 32.4575631,2.05308513 31.2101798,0.803573122 L31.2101798,0.803573122 Z"/>
  </defs>
  <use fill="#AAA" fill-rule="evenodd" xlink:href="#a"/>
</svg>
