<svg xmlns="http://www.w3.org/2000/svg" xmlns:xlink="http://www.w3.org/1999/xlink" width="32" height="32" viewBox="0 0 32 32">
  <defs>
    <path id="-181-a" d="M30,28 C30,29.1 29.104,30 28,30 L4,30 C2.896,30 2,29.1 2,28 L2,4 C2,2.9 2.896,2 4,2 L28,2 C29.104,2 30,2.9 30,4 L30,28 L30,28 Z M28,0 L4,0 C1.791,0 0,1.79 0,4 L0,28 C0,30.21 1.791,32 4,32 L28,32 C30.209,32 32,30.21 32,28 L32,4 C32,1.79 30.209,0 28,0 L28,0 Z M22,15 L17,15 L17,10 C17,9.45 16.552,9 16,9 C15.448,9 15,9.45 15,10 L15,15 L10,15 C9.448,15 9,15.45 9,16 C9,16.55 9.448,17 10,17 L15,17 L15,22 C15,22.55 15.448,23 16,23 C16.552,23 17,22.55 17,22 L17,17 L22,17 C22.552,17 23,16.55 23,16 C23,15.45 22.552,15 22,15 L22,15 Z"/>
  </defs>
  <use fill="#AAA" fill-rule="evenodd" xlink:href="#a"/>
</svg>
