<svg xmlns="http://www.w3.org/2000/svg" xmlns:xlink="http://www.w3.org/1999/xlink" width="32" height="32" viewBox="0 0 32 32">
  <defs>
    <path id="-184-a" d="M29.7142857,18.2857143 L18.2857143,18.2857143 L18.2857143,29.7142857 C18.2857143,30.9714286 17.2617143,32 16,32 C14.7382857,32 13.7142857,30.9714286 13.7142857,29.7142857 L13.7142857,18.2857143 L2.28571429,18.2857143 C1.024,18.2857143 0,17.2571429 0,16 C0,14.7428571 1.024,13.7142857 2.28571429,13.7142857 L13.7142857,13.7142857 L13.7142857,2.28571429 C13.7142857,1.02857143 14.7382857,0 16,0 C17.2617143,0 18.2857143,1.02857143 18.2857143,2.28571429 L18.2857143,13.7142857 L29.7142857,13.7142857 C30.976,13.7142857 32,14.7428571 32,16 C32,17.2571429 30.976,18.2857143 29.7142857,18.2857143 L29.7142857,18.2857143 Z"/>
  </defs>
  <use fill="#AAA" fill-rule="evenodd" xlink:href="#a"/>
</svg>
