<svg xmlns="http://www.w3.org/2000/svg" xmlns:xlink="http://www.w3.org/1999/xlink" width="32" height="32" viewBox="0 0 32 32">
  <defs>
    <path id="-15-a" d="M28,28 C28,29.104 27.104,30 26,30 L4,30 C2.896,30 2,29.104 2,28 L2,4.222 L6,8 L24,8 L28,4.222 L28,28 L28,28 Z M4,2 L26,2 C26.398,2 26.768,2.12 27.079,2.32 L23,6 L7,6 L2.921,2.32 C3.233,2.12 3.602,2 4,2 L4,2 Z M26,0 L4,0 C1.791,0 0,1.791 0,4 L0,28 C0,30.209 1.791,32 4,32 L26,32 C28.209,32 30,30.209 30,28 L30,4 C30,1.791 28.209,0 26,0 L26,0 Z"/>
  </defs>
  <use fill="#AAA" fill-rule="evenodd" xlink:href="#a"/>
</svg>
