<svg xmlns="http://www.w3.org/2000/svg" xmlns:xlink="http://www.w3.org/1999/xlink" width="32" height="32" viewBox="0 0 32 32">
  <defs>
    <path id="-38-a" d="M26,9 C26,9.553 25.553,10 25,10 L23,10 C22.447,10 22,9.553 22,9 L22,7 C22,6.448 22.447,6 23,6 L25,6 C25.553,6 26,6.448 26,7 L26,9 L26,9 Z M26,4 L22,4 C20.896,4 20,4.896 20,6 L20,10 C20,11.104 20.896,12 22,12 L26,12 C27.104,12 28,11.104 28,10 L28,6 C28,4.896 27.104,4 26,4 L26,4 Z M30,20 C30,21.104 29.104,22 28,22 L4,22 C2.896,22 2,21.104 2,20 L2,4 C2,2.896 2.896,2 4,2 L28,2 C29.104,2 30,2.896 30,4 L30,20 L30,20 Z M28,0 L4,0 C1.791,0 0,1.791 0,4 L0,20 C0,22.209 1.791,24 4,24 L28,24 C30.209,24 32,22.209 32,20 L32,4 C32,1.791 30.209,0 28,0 L28,0 Z M17,18 L5,18 C4.447,18 4,18.447 4,19 C4,19.553 4.447,20 5,20 L17,20 C17.553,20 18,19.553 18,19 C18,18.447 17.553,18 17,18 L17,18 Z M17,14 L5,14 C4.447,14 4,14.448 4,15 C4,15.553 4.447,16 5,16 L17,16 C17.553,16 18,15.553 18,15 C18,14.448 17.553,14 17,14 L17,14 Z"/>
  </defs>
  <use fill="#AAA" fill-rule="evenodd" xlink:href="#a"/>
</svg>
