<svg xmlns="http://www.w3.org/2000/svg" xmlns:xlink="http://www.w3.org/1999/xlink" width="32" height="32" viewBox="0 0 32 32">
  <defs>
    <path id="-136-a" d="M30.0837635,14.3346074 C30.0837635,14.8628508 29.5979571,15.6372078 29.0821626,16.1534457 L18.8142537,26.3971674 L5.6305066,13.210089 L15.8824218,2.98237469 C16.3522347,2.51215795 17.1029355,1.9108808 17.6327245,1.9108808 L29.1261451,1.9108808 C29.6549344,1.9108808 30.0837635,2.33907817 30.0837635,2.86632119 L30.0837635,14.3346074 L30.0837635,14.3346074 Z M15.8824218,29.3245168 C15.0717449,30.1318889 13.7582682,30.1318889 12.9485908,29.3245168 L2.68168152,19.0787941 C1.87100452,18.271422 1.87100452,16.9608179 2.68168152,16.1534457 L4.16309127,14.6737637 L17.3328439,27.875849 L15.8824218,29.3245168 L15.8824218,29.3245168 Z M30.0837635,0 L16.675106,0 C15.6165278,0 15.4236047,0.462213051 14.4150065,1.51870003 L1.21526579,14.6897711 C-0.405088598,16.3055158 -0.405088598,18.926724 1.21526579,20.5424688 L11.4811755,30.7881914 C13.1015299,32.4039362 15.7274836,32.4039362 17.347838,30.7881914 L30.5495779,17.6171204 C31.3982398,16.7687293 32,16.3465347 32,15.2900478 L32,1.9108808 C32,0.856394744 31.1413421,0 30.0837635,0 L30.0837635,0 Z M23.9482081,11.0310846 C23.1375311,11.8384568 21.8250541,11.8384568 21.0143771,11.0310846 C20.2046997,10.222712 20.2046997,8.91210792 21.0143771,8.10373532 C21.8250541,7.29536271 23.1375311,7.29536271 23.9482081,8.10373532 C24.7588851,8.91210792 24.7588851,10.222712 23.9482081,11.0310846 L23.9482081,11.0310846 Z M19.548961,6.64006065 C17.9286066,8.25680587 17.9286066,10.8770136 19.548961,12.4937588 C21.1683157,14.1105041 23.7952691,14.1105041 25.4156235,12.4937588 C27.0349783,10.8770136 27.0349783,8.25680587 25.4156235,6.64006065 C23.7952691,5.0243159 21.1683157,5.0243159 19.548961,6.64006065 L19.548961,6.64006065 Z"/>
  </defs>
  <use fill="#AAA" fill-rule="evenodd" xlink:href="#a"/>
</svg>
