<svg xmlns="http://www.w3.org/2000/svg" xmlns:xlink="http://www.w3.org/1999/xlink" width="32" height="32" viewBox="0 0 32 32">
  <defs>
    <path id="-135-a" d="M10.9962064,14.5981178 C9.89236338,14.5981178 8.99662194,13.6814401 8.99662194,12.5508376 C8.99662194,11.4202351 9.89236338,10.5035573 10.9962064,10.5035573 C12.1000494,10.5035573 12.9957908,11.4202351 12.9957908,12.5508376 C12.9957908,13.6814401 12.1000494,14.5981178 10.9962064,14.5981178 L10.9962064,14.5981178 Z M10.9962064,8.45627709 C8.78751508,8.45627709 6.99804284,10.2896326 6.99804284,12.5508376 C6.99804284,14.8130423 8.78751508,16.6463978 10.9962064,16.6463978 C13.2048977,16.6463978 14.9943699,14.8130423 14.9943699,12.5508376 C14.9943699,10.2896326 13.2048977,8.45627709 10.9962064,8.45627709 L10.9962064,8.45627709 Z M20.1064296,28.0014058 C20.1064296,29.1320083 19.200635,30.0007029 18.0957867,30.0007029 L4.02128593,30.0007029 C2.91643762,30.0007029 1.99857911,29.036042 1.99857911,27.9054395 L2.01064296,12.0070288 C2.01064296,11.3502597 2.1011219,10.9494006 2.46102699,10.5795306 L10.294492,2.55935023 C10.6554024,2.18948026 11.2404995,2.18948026 11.6004046,2.55935023 L19.4338696,10.5795306 C19.7937747,10.9494006 20.1064296,11.2852825 20.1064296,12.0070288 L20.1064296,28.0014058 L20.1064296,28.0014058 Z M21.3922358,9.91176539 L12.2528582,0.554055215 C11.5320427,-0.184685072 10.3638592,-0.184685072 9.64203833,0.554055215 L0.502660741,9.91176539 C-0.0150798222,10.4415791 -0.00100532148,10.817447 0.0140745007,11.5281971 L0,11.5281971 L0,27.9054395 C0,30.1666445 1.79047756,32 3.99916886,32 L17.9932439,32 C20.2019352,32 21.9924127,30.1666445 21.9924127,27.9054395 L21.9924127,12.5508376 C21.9924127,11.3642548 22.1130513,10.6505057 21.3922358,9.91176539 L21.3922358,9.91176539 Z"/>
  </defs>
  <use fill="#AAA" fill-rule="evenodd" xlink:href="#a"/>
</svg>
