<svg xmlns="http://www.w3.org/2000/svg" xmlns:xlink="http://www.w3.org/1999/xlink" width="32" height="32" viewBox="0 0 32 32">
  <defs>
    <path id="-21-a" d="M30,21 C30,22.104 29.104,23 28,23 L25.858,23 C25.413,21.278 23.862,20 22,20 L10,20 C8.138,20 6.587,21.278 6.142,23 L4,23 C2.896,23 2,22.104 2,21 L2,19 C2,17.896 2.896,17 4,17 L28,17 C29.104,17 30,17.896 30,19 L30,21 L30,21 Z M22,26 L10,26 C8.896,26 8,25.104 8,24 C8,22.896 8.896,22 10,22 L22,22 C23.104,22 24,22.896 24,24 C24,25.104 23.104,26 22,26 L22,26 Z M8,4 C8,2.896 8.896,2 10,2 L22,2 C23.104,2 24,2.896 24,4 L24,15 L8,15 L8,4 L8,4 Z M28,15 L26,15 L26,4 C26,1.791 24.209,0 22,0 L10,0 C7.791,0 6,1.791 6,4 L6,15 L4,15 C1.791,15 0,16.791 0,19 L0,21 C0,23.209 1.791,25 4,25 L6.142,25 C6.587,26.723 8.138,28 10,28 L22,28 C23.862,28 25.413,26.723 25.858,25 L28,25 C30.209,25 32,23.209 32,21 L32,19 C32,16.791 30.209,15 28,15 L28,15 Z"/>
  </defs>
  <use fill="#AAA" fill-rule="evenodd" xlink:href="#a"/>
</svg>
