<svg xmlns="http://www.w3.org/2000/svg" xmlns:xlink="http://www.w3.org/1999/xlink" width="32" height="32" viewBox="0 0 32 32">
  <defs>
    <path id="-222-a" d="M8.32015181,8.64285714 L8.25168523,8.64285714 L8.50734382,8.64285714 L9.96599773,8.64285714 C12.2584612,8.64285714 14.1185206,10.4036963 14.1185206,12.5714445 L14.1185206,18.0714127 C14.1185206,20.2402316 12.2574774,22 9.96632793,22 L4.15343091,22 C1.86116349,22 0.00113579356,20.2391909 0.000908048619,18.0714908 L2.27518804e-09,9.42857143 C-2.62590673e-10,3.83408944 3.71137383,-3.55271368e-15 9.13551333,-3.55271368e-15 C10.4506619,-3.55271368e-15 11.5238325,0.266130314 12.82005,0.861125456 L15,1.86177519 L12.6295798,2.33669452 C10.1465018,2.83418508 8.30501212,5.4500483 8.30487662,7.84295014 L8.32015181,8.64285714 Z M25.1201518,8.64285714 L25.0516852,8.64285714 L25.3073438,8.64285714 L26.7659977,8.64285714 C29.0584612,8.64285714 30.9185206,10.4036963 30.9185206,12.5714445 L30.9185206,18.0714127 C30.9185206,20.2402316 29.0574774,22 26.7663279,22 L20.9534309,22 C18.6611635,22 16.8011358,20.2391909 16.800908,18.0714908 L16.8,9.42857143 C16.8,3.83408944 20.5113738,-3.55271368e-15 25.9355133,-3.55271368e-15 C27.2506619,-3.55271368e-15 28.3238325,0.266130314 29.62005,0.861125456 L31.8,1.86177519 L29.4295798,2.33669452 C26.9465018,2.83418508 25.1050121,5.4500483 25.1048766,7.84295014 L25.1201518,8.64285714 Z"/>
  </defs>
  <use fill="#AAA" fill-rule="evenodd" xlink:href="#a"/>
</svg>
