<svg xmlns="http://www.w3.org/2000/svg" xmlns:xlink="http://www.w3.org/1999/xlink" width="32" height="32" viewBox="0 0 32 32">
  <defs>
    <path id="-85-a" d="M30,24.0012833 C30,25.1049291 29.104,26.0006417 28,26.0006417 L4,26.0006417 C2.896,26.0006417 2,25.1049291 2,24.0012833 L2,10.005775 C2,8.90212916 2.896,8.00641663 4,8.00641663 L28,8.00641663 C29.104,8.00641663 30,8.90212916 30,10.005775 L30,24.0012833 L30,24.0012833 Z M28,6.00705829 L25.9,6.00705829 L15.366,0.128944781 C14.888,-0.136969877 14.276,0.0219791103 14,0.480831849 C13.724,0.939684587 13.888,1.52649626 14.366,1.79141124 L21.975,6.00705829 L4,6.00705829 C1.791,6.00705829 0,7.79748368 0,10.005775 L0,24.0012833 C0,26.2095746 1.791,28 4,28 L28,28 C30.209,28 32,26.2095746 32,24.0012833 L32,10.005775 C32,7.79748368 30.209,6.00705829 28,6.00705829 L28,6.00705829 Z M21,21.0022458 C18.791,21.0022458 17,19.2118204 17,17.0035291 C17,14.7952379 18.791,13.0048125 21,13.0048125 C23.209,13.0048125 25,14.7952379 25,17.0035291 C25,19.2118204 23.209,21.0022458 21,21.0022458 L21,21.0022458 Z M21,11.0054541 C17.687,11.0054541 15,13.6915921 15,17.0035291 C15,20.3164659 17.687,23.0016042 21,23.0016042 C24.313,23.0016042 27,20.3164659 27,17.0035291 C27,13.6915921 24.313,11.0054541 21,11.0054541 L21,11.0054541 Z M11,16.00385 L5,16.00385 C4.447,16.00385 4,16.4507066 4,17.0035291 C4,17.5563517 4.447,18.0032083 5,18.0032083 L11,18.0032083 C11.553,18.0032083 12,17.5563517 12,17.0035291 C12,16.4507066 11.553,16.00385 11,16.00385 L11,16.00385 Z M11,20.0025667 L5,20.0025667 C4.447,20.0025667 4,20.4504229 4,21.0022458 C4,21.5550684 4.447,22.001925 5,22.001925 L11,22.001925 C11.553,22.001925 12,21.5550684 12,21.0022458 C12,20.4504229 11.553,20.0025667 11,20.0025667 L11,20.0025667 Z M11,12.0051333 L5,12.0051333 C4.447,12.0051333 4,12.4519899 4,13.0048125 C4,13.5576351 4.447,14.0044916 5,14.0044916 L11,14.0044916 C11.553,14.0044916 12,13.5576351 12,13.0048125 C12,12.4519899 11.553,12.0051333 11,12.0051333 L11,12.0051333 Z"/>
  </defs>
  <use fill="#AAA" fill-rule="evenodd" xlink:href="#a"/>
</svg>
