<svg xmlns="http://www.w3.org/2000/svg" xmlns:xlink="http://www.w3.org/1999/xlink" width="32" height="32" viewBox="0 0 32 32">
  <defs>
    <path id="-137-a" d="M21,6 L7,6 C6.447,6 6,6.448 6,7 C6,7.553 6.447,8 7,8 L21,8 C21.553,8 22,7.553 22,7 C22,6.448 21.553,6 21,6 L21,6 Z M21,11.978 L7,11.978 C6.447,11.978 6,12.425 6,12.978 C6,13.529 6.447,13.978 7,13.978 L21,13.978 C21.553,13.978 22,13.529 22,12.978 C22,12.425 21.553,11.978 21,11.978 L21,11.978 Z M21,18 L7,18 C6.447,18 6,18.447 6,19 C6,19.553 6.447,20 7,20 L21,20 C21.553,20 22,19.553 22,19 C22,18.447 21.553,18 21,18 L21,18 Z M26,30.027 L22,27 L18,30.188 L14,27 L10,30.188 L6,27 L2,30.059 L2,4 C2,2.896 2.896,2 4,2 L24,2 C25.104,2 26,2.896 26,4 L26,30.027 L26,30.027 Z M24,0 L4,0 C1.791,0 0,1.791 0,4 L0,32 L1.867,32 L6,29 L10,32 L14,29 L18,32 L22,29 L26.134,32 L28,32 L28,4 C28,1.791 26.209,0 24,0 L24,0 Z"/>
  </defs>
  <use fill="#AAA" fill-rule="evenodd" xlink:href="#a"/>
</svg>
