<svg xmlns="http://www.w3.org/2000/svg" xmlns:xlink="http://www.w3.org/1999/xlink" width="32" height="33" viewBox="0 0 32 33">
  <defs>
    <path id="-212-a" d="M19.539015,23.2984209 L19.539015,17.1662057 C19.539015,17.1662057 16.8239874,17.1433669 16.0720452,17.1433669 C11.2848718,17.1433669 4.77569344,20.8546704 2.29830247,24.0178428 C2.33503857,19.7241502 7.96484642,10.5429566 16.0720452,10.2917299 C16.6701549,10.2688911 19.539015,10.3031493 19.539015,10.3031493 L19.539015,4.12525649 L28.3292757,13.7175484 L19.539015,23.2984209 L19.539015,23.2984209 Z M30.6689063,12.8496744 L19.201502,0.334017308 C18.7468928,-0.111339103 18.0098747,-0.111339103 17.5552654,0.334017308 C17.2935207,0.596663395 17.2005324,0.939245249 17.2395645,1.2818271 L17.2395645,8.01927023 C7.71917373,8.01927023 0,15.6931038 0,25.1597823 C0,27.5921135 0.514305447,29.8988313 1.43041203,32 C2.79079585,24.8514586 9.64322714,19.427246 17.2200485,19.427246 C17.2200485,19.8155054 17.2395645,26.1532697 17.2395645,26.1532697 C17.2005324,26.4844322 17.2935207,26.8384334 17.5552654,27.0896601 C17.5575614,27.1010795 17.5621534,27.1010795 17.5644494,27.1010795 C17.773386,27.318048 18.0638308,27.4550807 18.3898638,27.4550807 C18.7468928,27.4550807 19.0534096,27.2837898 19.2646422,27.0211437 L30.6689063,14.5854224 C30.911135,14.3456151 31.0144553,14.0258721 30.9983832,13.7175484 C31.0144553,13.3978053 30.911135,13.0894817 30.6689063,12.8496744 L30.6689063,12.8496744 Z"/>
  </defs>
  <use fill="#AAA" fill-rule="evenodd" xlink:href="#a"/>
</svg>
