<svg xmlns="http://www.w3.org/2000/svg" xmlns:xlink="http://www.w3.org/1999/xlink" width="32" height="32" viewBox="0 0 32 32">
  <defs>
    <path id="-203-a" d="M31,20 L21,20 C20.448,20 20,20.45 20,21 C20,21.55 20.448,22 21,22 L28.635,22 C26.386,26.73 21.582,30 16,30 C8.949,30 3.132,24.78 2.159,18 L0.138,18 C1.125,25.89 7.842,32 16,32 C22.028,32 27.272,28.66 30,23.74 L30,31 C30,31.55 30.448,32 31,32 C31.552,32 32,31.55 32,31 L32,21 C32,19.94 31,20 31,20 L31,20 Z M1,12 L11,12 C11.552,12 12,11.55 12,11 C12,10.45 11.552,10 11,10 L3.359,10 C5.606,5.27 10.417,2 16,2 C23.051,2 28.868,7.22 29.841,14 L31.862,14 C30.875,6.11 24.158,0 16,0 C9.972,0 4.728,3.34 2,8.26 L2,1 C2,0.45 1.552,0 1,0 C0.448,0 0,0.45 0,1 L0,11 C0,11.97 1,12 1,12 L1,12 Z"/>
  </defs>
  <use fill="#AAA" fill-rule="evenodd" xlink:href="#a"/>
</svg>
