<svg xmlns="http://www.w3.org/2000/svg" xmlns:xlink="http://www.w3.org/1999/xlink" width="32" height="32" viewBox="0 0 32 32">
  <defs>
    <path id="-202-a" d="M23.74,2 L31,2 C31.552,2 32,1.55 32,1 C32,0.45 31.552,0 31,0 L21,0 C20.879,0 20,0 20,1 L20,11 C20,11.55 20.448,12 21,12 C21.552,12 22,11.55 22,11 L22,3.36 C26.728,5.61 30,10.42 30,16 C30,23.73 23.732,30 16,30 C8.268,30 2,23.73 2,16 C2,8.95 7.218,3.13 14,2.16 L14,0.14 C6.109,1.13 0,7.84 0,16 C0,24.84 7.164,32 16,32 C24.836,32 32,24.84 32,16 C32,9.97 28.664,4.73 23.74,2"/>
  </defs>
  <use fill="#AAA" fill-rule="evenodd" xlink:href="#a"/>
</svg>
