<svg xmlns="http://www.w3.org/2000/svg" xmlns:xlink="http://www.w3.org/1999/xlink" width="32" height="32" viewBox="0 0 32 32">
  <defs>
    <path id="-107-a" d="M31.6721835,11 L28.8308741,11 C27.866448,4.772 22.4956436,0 15.9955112,0 C10.9834934,0 6.64107711,2.839 4.46936928,6.991 L6.33226086,7.736 C8.20014946,4.318 11.8269915,2 15.9955112,2 C21.3893019,2 25.8676373,5.881 26.8100765,11 L23.3961078,11 C23.0862922,11.301 22.7904682,11.486 23.2342042,12.007 L26.9619861,15.801 C27.2718018,16.101 27.7725039,16.101 28.0803207,15.801 L31.8340872,12.007 C32.1429035,11.706 31.9809998,11.301 31.6721835,11 L31.6721835,11 Z M15.9955112,24 C10.9595076,24 6.71903073,20.616 5.41380734,16 L8.66287414,16 C8.9726898,15.7 9.13359406,15.294 8.82577721,14.994 L5.07201071,11.199 C4.76319446,10.899 4.26249237,10.899 3.95367612,11.199 L0.224894755,14.994 C-0.217841816,15.515 0.0779821681,15.7 0.386798422,16 L3.36602577,16 C4.72121943,21.73 9.84916829,26 15.9955112,26 C20.6727282,26 24.7602961,23.524 27.0519326,19.82 L25.1700523,19.068 C23.2002244,22.039 19.8282307,24 15.9955112,24 L15.9955112,24 Z"/>
  </defs>
  <use fill="#AAA" fill-rule="evenodd" xlink:href="#a"/>
</svg>
