<svg xmlns="http://www.w3.org/2000/svg" xmlns:xlink="http://www.w3.org/1999/xlink" width="32" height="32" viewBox="0 0 32 32">
  <defs>
    <path id="-154-a" d="M28,30 C26.896,30 26,29.104 26,28 C26,26.896 26.896,26 28,26 C29.104,26 30,26.896 30,28 C30,29.104 29.104,30 28,30 L28,30 Z M24.142,27 L7.858,27 C7.496,25.6 6.401,24.505 5,24.142 L5,7.858 C6.401,7.496 7.496,6.4 7.858,5 L24.142,5 C24.504,6.4 25.599,7.496 27,7.858 L27,24.142 C25.599,24.505 24.504,25.6 24.142,27 L24.142,27 Z M4,30 C2.896,30 2,29.104 2,28 C2,26.896 2.896,26 4,26 C5.104,26 6,26.896 6,28 C6,29.104 5.104,30 4,30 L4,30 Z M2,4 C2,2.896 2.896,2 4,2 C5.104,2 6,2.896 6,4 C6,5.104 5.104,6 4,6 C2.896,6 2,5.104 2,4 L2,4 Z M28,2 C29.104,2 30,2.896 30,4 C30,5.104 29.104,6 28,6 C26.896,6 26,5.104 26,4 C26,2.896 26.896,2 28,2 L28,2 Z M29,24.142 L29,7.858 C30.722,7.413 32,5.862 32,4 C32,1.791 30.209,0 28,0 C26.138,0 24.587,1.278 24.142,3 L7.858,3 C7.413,1.278 5.862,0 4,0 C1.791,0 0,1.791 0,4 C0,5.862 1.278,7.413 3,7.858 L3,24.142 C1.278,24.588 0,26.139 0,28 C0,30.209 1.791,32 4,32 C5.862,32 7.413,30.723 7.858,29 L24.142,29 C24.587,30.723 26.138,32 28,32 C30.209,32 32,30.209 32,28 C32,26.139 30.722,24.588 29,24.142 L29,24.142 Z"/>
  </defs>
  <use fill="#AAA" fill-rule="evenodd" xlink:href="#a"/>
</svg>
