<svg xmlns="http://www.w3.org/2000/svg" xmlns:xlink="http://www.w3.org/1999/xlink" width="32" height="32" viewBox="0 0 32 32">
  <defs>
    <path id="-172-a" d="M24.972,6 L20,6 C19.448,6 19,6.448 19,7 C19,7.553 19.448,8 20,8 L22.628,8 L17.83,12.799 L19.244,14.213 L24.022,9.435 L24,12 C24,12.553 24.448,13 25,13 C25.552,13 26,12.553 26,12 L26,7 C26,6.704 25.877,6.465 25.684,6.301 C25.502,6.115 25.251,6 24.972,6 L24.972,6 Z M30,28 C30,29.1 29.104,30 28,30 L4,30 C2.896,30 2,29.1 2,28 L2,4 C2,2.896 2.896,2 4,2 L28,2 C29.104,2 30,2.896 30,4 L30,28 L30,28 Z M28,0 L4,0 C1.791,0 0,1.791 0,4 L0,28 C0,30.21 1.791,32 4,32 L28,32 C30.209,32 32,30.21 32,28 L32,4 C32,1.791 30.209,0 28,0 L28,0 Z M12.756,17.79 L7.978,22.57 L8,20 C8,19.45 7.552,19 7,19 C6.448,19 6,19.45 6,20 L6,25 C6,25.3 6.123,25.54 6.316,25.7 C6.497,25.88 6.749,26 7.028,26 L12,26 C12.552,26 13,25.55 13,25 C13,24.45 12.552,24 12,24 L9.372,24 L14.17,19.2 L12.756,17.79 L12.756,17.79 Z M25,19 C24.448,19 24,19.45 24,20 L24.022,22.57 L19.244,17.79 L17.83,19.2 L22.628,24 L20,24 C19.448,24 19,24.45 19,25 C19,25.55 19.448,26 20,26 L24.972,26 C25.251,26 25.503,25.88 25.684,25.7 C25.877,25.54 26,25.3 26,25 L26,20 C26,19.45 25.552,19 25,19 L25,19 Z M12,8 C12.552,8 13,7.553 13,7 C13,6.448 12.552,6 12,6 L7.028,6 C6.749,6 6.498,6.115 6.316,6.301 C6.123,6.465 6,6.704 6,7 L6,12 C6,12.553 6.448,13 7,13 C7.552,13 8,12.553 8,12 L7.978,9.435 L12.756,14.213 L14.17,12.799 L9.372,8 L12,8 L12,8 Z"/>
  </defs>
  <use fill="#AAA" fill-rule="evenodd" xlink:href="#a"/>
</svg>
