<svg xmlns="http://www.w3.org/2000/svg" xmlns:xlink="http://www.w3.org/1999/xlink" width="32" height="32" viewBox="0 0 32 32">
  <defs>
    <path id="-213-a" d="M12.2804516,24.3785757 L8.00646729,28.6278534 L8.00646729,3.37214658 L12.2804516,7.62142426 C12.6736342,8.02135627 13.3109301,8.02135627 13.7051131,7.62142426 C14.0982956,7.23149054 14.0982956,6.60159761 13.7051131,6.2016656 L7.76235395,0.282671755 C7.5522564,0.0727074464 7.27412727,-0.0172772573 6.99899954,0.00271934351 C6.72487226,-0.0172772573 6.44674313,0.0727074464 6.23664559,0.282671755 L0.294886912,6.2016656 C-0.0982956373,6.60159761 -0.0982956373,7.23149054 0.294886912,7.62142426 C0.688069461,8.02135627 1.32536535,8.02135627 1.71954836,7.62142426 L5.99253225,3.37214658 L5.99253225,28.6278534 L1.71954836,24.3785757 C1.32536535,23.9786437 0.688069461,23.9786437 0.294886912,24.3785757 C-0.0982956373,24.7685095 -0.0982956373,25.3984024 0.294886912,25.7983344 L6.23664559,31.7173282 C6.44674313,31.9272926 6.72487226,32.0172773 6.99899954,31.9972807 C7.27412727,32.0172773 7.5522564,31.9272926 7.76235395,31.7173282 L13.7051131,25.7983344 C14.0982956,25.3984024 14.0982956,24.7685095 13.7051131,24.3785757 C13.3109301,23.9786437 12.6736342,23.9786437 12.2804516,24.3785757"/>
  </defs>
  <use fill="#AAA" fill-rule="evenodd" xlink:href="#a"/>
</svg>
