<svg xmlns="http://www.w3.org/2000/svg" xmlns:xlink="http://www.w3.org/1999/xlink" width="32" height="32" viewBox="0 0 32 32">
  <defs>
    <path id="-214-a" d="M31.7144622,6.2325 L25.7927953,0.2925 C25.4018834,-0.0975 24.7660265,-0.0975 24.3741147,0.2925 C23.982203,0.6925 23.982203,1.3225 24.3741147,1.7225 L28.6321561,5.9925 L3.36784387,5.9925 L7.62588526,1.7225 C8.01779703,1.3225 8.01779703,0.6925 7.62588526,0.2925 C7.23397349,-0.0975 6.59911642,-0.0975 6.20720465,0.2925 L0.285537794,6.2325 C0.0765848354,6.4425 -0.0133949075,6.7225 0.00160171632,6.9925 C-0.0133949075,7.2725 0.0765848354,7.5525 0.285537794,7.7625 L6.20720465,13.7025 C6.59911642,14.0925 7.23397349,14.0925 7.62588526,13.7025 C8.01779703,13.3025 8.01779703,12.6725 7.62588526,12.2725 L3.36784387,8.0025 L28.6321561,8.0025 L24.3741147,12.2725 C23.982203,12.6725 23.982203,13.3025 24.3741147,13.7025 C24.7660265,14.0925 25.4018834,14.0925 25.7927953,13.7025 L31.7144622,7.7625 C31.9234152,7.5525 32.0133949,7.2725 31.9983983,6.9925 C32.0133949,6.7225 31.9234152,6.4425 31.7144622,6.2325"/>
  </defs>
  <use fill="#AAA" fill-rule="evenodd" xlink:href="#a"/>
</svg>
