<svg xmlns="http://www.w3.org/2000/svg" xmlns:xlink="http://www.w3.org/1999/xlink" width="32" height="32" viewBox="0 0 32 32">
  <defs>
    <path id="-101-a" d="M29.99975,25.2476703 L17.98775,16.8342797 L17.98775,25.2476703 L1.97275,14.0298162 L17.98775,2.81196203 L17.98775,11.2253526 L29.99975,2.81196203 L29.99975,25.2476703 L29.99975,25.2476703 Z M29.58475,0.380091506 L19.98975,7.27606702 L19.98975,1.96160862 C19.98975,-0.368099301 18.69975,-0.224871342 17.57375,0.380091506 L0.58575,12.5885222 C-0.19525,13.383788 -0.19525,14.6758444 0.58575,15.4721117 L17.57375,27.6795408 C18.60575,28.3486057 19.98975,28.0210844 19.98975,26.0349233 L19.98975,20.7845669 L29.58475,27.6795408 C30.61675,28.3486057 31.96975,28.0521338 32.00175,26.0038739 L32.00175,2.02470905 C32.03275,-0.242900036 30.71075,-0.224871342 29.58475,0.380091506 L29.58475,0.380091506 Z"/>
  </defs>
  <use fill="#AAA" fill-rule="evenodd" xlink:href="#a"/>
</svg>
