<svg xmlns="http://www.w3.org/2000/svg" xmlns:xlink="http://www.w3.org/1999/xlink" width="32" height="32" viewBox="0 0 32 32">
  <defs>
    <path id="-rss-a" d="M12.4084001,22.5480619 C11.3686887,22.5480619 10.5239583,21.7094436 10.5239583,20.6704691 C10.5239583,19.6369565 11.3686887,18.7888883 12.4084001,18.7888883 C13.4521863,18.7888883 14.2953561,19.6369565 14.2953561,20.6704691 C14.2953128,21.709487 13.452143,22.5480619 12.4084001,22.5480619 Z M17.1425226,22.5440738 C17.1425226,20.7709074 16.4531096,19.1018204 15.2035052,17.8528229 C13.9526003,16.6011811 12.2910127,15.9102942 10.5239583,15.9102942 L10.5239583,13.1969443 C15.6748757,13.1969443 19.8682702,17.3896452 19.8682702,22.5440305 L17.1425226,22.5440305 L17.1425226,22.5440738 Z M21.9544122,22.5426 C21.9544122,16.2340635 16.8250389,11.0999219 10.5239583,11.0999219 L10.5239583,8.38527147 C18.3267143,8.38527147 24.6760417,14.7385002 24.6760417,22.5426867 L21.9544122,22.5426 Z M16,30 C23.7319869,30 30,23.7319869 30,16 C30,8.26801307 23.7319869,2 16,2 C8.26801307,2 2,8.26801307 2,16 C2,23.7319869 8.26801307,30 16,30 Z M16,32 C7.16344357,32 0,24.8365564 0,16 C0,7.16344357 7.16344357,0 16,0 C24.8365564,0 32,7.16344357 32,16 C32,24.8365564 24.8365564,32 16,32 Z"/>
  </defs>
  <use fill="#AAA" fill-rule="evenodd" xlink:href="#a"/>
</svg>
