<svg xmlns="http://www.w3.org/2000/svg" xmlns:xlink="http://www.w3.org/1999/xlink" width="32" height="32" viewBox="0 0 32 32">
  <defs>
    <path id="-231-a" d="M27.9238826,15.0319247 C27.6966578,15.067601 27.4294023,15.0936505 27.1301798,15.1095066 C26.1921935,15.1601897 22.8051329,15.2329582 22.6614255,15.2360728 L22.6524978,15.2360728 C22.6026753,15.2360728 22.5534289,15.226729 22.5067744,15.2088908 C22.3135325,15.133574 22.0517488,14.9127203 21.9258968,14.6363701 L20.8943135,12.2027324 C20.8450671,12.0863595 20.8560107,11.9535641 20.9239766,11.8468181 L21.4844068,10.9642528 C21.5615884,10.8419339 21.7021279,10.7708643 21.8481393,10.7821901 C21.9944386,10.7923834 22.1231705,10.8812911 22.1822087,11.0132371 L23.3275484,13.5649466 C23.4179775,13.7662632 23.6126593,13.9030226 23.8358522,13.9217102 L27.4921843,14.2269413 C27.6004689,14.2345863 27.7502241,14.2450626 27.9014193,14.2600694 C28.0992691,14.2798896 28.2516162,14.4409995 28.2570881,14.6363701 C28.2631359,14.8317406 28.1202924,15.0010618 27.9238826,15.0319247 L27.9238826,15.0319247 Z M16.3406019,16.792525 C16.1666554,17.0668932 16.242685,17.4247894 16.5139724,17.6077016 L21.0213175,20.6441566 C21.4717352,20.9488214 21.6488496,21.5295533 21.4438001,22.0250584 C21.4389042,22.0363842 21.4337204,22.0477101 21.4279606,22.0587527 L17.8871129,28.7121116 C17.2028466,29.944645 16.7005905,30.4426984 16.398776,30.6442982 C16.3319622,30.6890352 16.2542046,30.7116868 16.1761591,30.7116868 C16.1145291,30.7116868 16.052899,30.6978127 15.9964528,30.6694981 C15.8677209,30.6049409 15.7850675,30.4766759 15.7804597,30.3345367 C15.76894,29.9712607 15.8587932,29.2931266 16.3532735,28.1274156 L18.6978072,22.4376018 C18.8066677,22.1731436 18.7101908,21.8670631 18.4682784,21.7099172 L12.9100547,18.096128 C12.8956551,18.0867842 12.8824075,18.0765909 12.86916,18.0655482 C11.6316632,17.010264 11.7889062,16.2052807 12.6096802,14.8003115 L16.5528512,9.03772917 C16.6660316,8.87208891 16.6884949,8.66256105 16.6130413,8.47710059 C16.5372997,8.29220641 16.3737208,8.15629645 16.1752951,8.11354145 L13.247868,7.48665676 C13.1056005,7.45579387 12.9581491,7.47646351 12.8311452,7.54300276 L8.34971926,9.88405182 C8.31487236,9.9050046 8.27368967,9.92708997 8.23049104,9.94804276 C8.05740853,10.032137 7.84775117,9.98145395 7.73457076,9.8282721 C7.62110236,9.67480711 7.63665387,9.46329723 7.7711456,9.32738727 C7.87107843,9.22687053 7.99059464,9.11644369 8.12652633,8.99978764 L12.3254332,5.81071707 C12.3372408,5.8016564 12.3493364,5.79372832 12.362008,5.78608339 C12.5506421,5.67339138 12.7752749,5.63544985 12.993572,5.678488 L18.1503365,6.7807744 C18.2842523,6.80937212 18.4106803,6.87364621 18.5264526,6.97133149 C18.544308,6.98605507 18.5644674,7.00134494 18.5854907,7.01521908 L20.9380881,8.56770723 C21.0553004,8.64528916 21.1221143,8.77865081 21.1126106,8.91710908 C21.1031069,9.05018758 21.0578923,9.34947264 20.9519117,9.53068592 C20.9470158,9.53889715 20.94212,9.54682523 20.9366482,9.55475331 L16.3406019,16.792525 Z M12.8009061,19.9470517 L10.6185113,23.0115382 C10.3558636,23.3912366 9.95152447,23.6262476 9.53652963,23.6404049 C9.53220976,23.6404049 9.52731392,23.640688 9.52270607,23.640688 C9.51464232,23.640688 9.50686657,23.6404049 9.49851483,23.6398386 C8.9824352,23.6089757 4.41461203,23.3334749 3.02678403,23.2241806 C2.4885291,23.1817088 1.77776763,23.0851561 1.42670676,22.8662844 C1.33858156,22.8164508 1.27205567,22.7343385 1.24325658,22.6360869 C1.23058498,22.591633 1.22396119,22.5378354 1.22396119,22.4763927 C1.22396119,22.4316557 1.22856905,22.4024917 1.23058498,22.3903164 C1.23778475,22.3410491 1.25477622,22.2931974 1.2804074,22.2498761 C1.43016265,21.9987258 1.9206111,21.8257238 2.5924938,21.7869328 C4.14937244,21.6977419 8.44072437,21.4044029 8.62244661,21.3919445 C8.80935268,21.3792029 8.97725136,21.2851986 9.08351999,21.1339987 L10.9306934,18.5072556 C11.0000992,18.4084377 11.1121277,18.346712 11.2342358,18.3399165 C11.3618158,18.3342536 11.4747082,18.3823883 11.5550576,18.4727118 C11.7218043,18.6610038 11.9127423,18.8458979 12.1229756,19.0220146 C12.1402551,19.036455 12.1598385,19.0508954 12.1802858,19.0642033 L12.6952135,19.3988816 C12.7844906,19.4569265 12.8458327,19.5478162 12.8657041,19.6508813 C12.8855754,19.7542295 12.8622482,19.8609754 12.8009061,19.9470517 L12.8009061,19.9470517 Z M22.4483122,1.20336943 C23.7315995,1.20336943 24.7755664,2.22892334 24.7755664,3.48948821 C24.7755664,4.75090253 23.7315995,5.77702272 22.4483122,5.77702272 C21.1667529,5.77702272 20.1239379,4.75090253 20.1239379,3.48948821 C20.1239379,2.22892334 21.1667529,1.20336943 22.4483122,1.20336943 L22.4483122,1.20336943 Z M27.5880853,13.0272528 L27.5829014,13.0266865 L24.5348061,12.7724216 C24.3905227,12.7605295 24.2646706,12.6719049 24.2062085,12.5416578 L22.2879013,8.2667233 C22.2700459,8.22764918 22.2441267,8.18744249 22.2069759,8.14044029 C22.1920004,8.12175267 22.1787528,8.10164932 22.1675211,8.08041339 C22.0848678,7.92496638 21.9780231,7.80519572 21.8409395,7.71430594 L21.7646219,7.663906 C21.6125627,7.5636724 21.5503567,7.37424789 21.6137147,7.20549303 C21.6776487,7.03673816 21.8495792,6.9342394 22.0315894,6.95377646 C22.1850886,6.97161464 22.3215963,6.98039216 22.4483122,6.98039216 C24.4066501,6.98039216 25.9995276,5.41431302 25.9995276,3.48948821 C25.9995276,1.5652297 24.4066501,0 22.4483122,0 C20.4917023,0 18.8999767,1.5652297 18.8999767,3.48948821 C18.8999767,4.08947406 19.0609636,4.68436328 19.36537,5.21016493 C19.4509033,5.35796701 19.429016,5.54342748 19.3112277,5.66801161 C19.1931514,5.79259574 19.0056694,5.82685637 18.8504423,5.75408792 C18.7084628,5.68726552 18.5604355,5.63714872 18.4112562,5.60515325 L13.2498839,4.50201741 C12.6963654,4.38847597 12.1091521,4.50088483 11.6423189,4.81036313 L11.6097759,4.83329794 L7.34635907,8.07191902 C5.49832167,9.64592624 6.12786971,10.560487 6.33493514,10.8609047 C6.87290208,11.6486161 8.1970841,11.3722659 8.96486775,10.9248956 L13.0785293,8.77638564 C13.1608947,8.73334749 13.2556437,8.72032279 13.3486648,8.73985984 L14.4646294,8.97883486 C14.5924973,9.00629999 14.6987659,9.09435832 14.7474364,9.21412897 C14.7963949,9.33361648 14.7819953,9.46952644 14.7085576,9.57655553 L11.5896165,14.1337864 C11.5815528,14.1456785 11.574353,14.1570043 11.5674412,14.1686133 C11.1921891,14.8073901 10.7604908,15.652297 10.753291,16.5252354 C10.7527151,16.6033836 10.7282358,16.6792667 10.6830213,16.7435407 L8.35231118,20.0577617 C8.28405734,20.1548807 8.17404483,20.2163234 8.05395264,20.2245346 C6.49736199,20.3301479 3.70817043,20.5175904 2.52078407,20.5855454 C0.245656211,20.716925 0,21.9517236 0,22.4763927 C0,24.0144404 1.67121101,24.324485 2.92829115,24.4238692 C4.41029216,24.5402421 9.41326954,24.8403766 9.46107602,24.8429249 C9.47835547,24.8440575 9.50110675,24.8443406 9.51435433,24.8443406 C10.3408881,24.8443406 11.1299831,24.4153748 11.6247514,23.6967509 L13.8345054,20.5943229 C13.9113989,20.4861613 14.034371,20.4281164 14.1590711,20.4281164 C14.2342367,20.4281164 14.3102663,20.4490692 14.3773681,20.4926736 L17.1052176,22.2662986 C17.2621727,22.3685142 17.3243787,22.5653005 17.2535329,22.73717 L15.2214694,27.6698521 C14.2647637,29.9256742 14.3379134,31.4150209 15.4256549,31.8680541 C15.6361762,31.9558293 15.8475615,32 16.054051,32 C17.4568545,32 18.5932665,29.9520068 18.9665026,29.2789693 L22.5459411,22.5511432 C23.0162302,21.5139803 22.6660333,20.2950379 21.7142235,19.6517307 C21.7127836,19.6508813 21.7110556,19.6500319 21.7096157,19.6488993 L18.0025972,17.1515538 C17.8274987,17.0337651 17.7782523,16.8013025 17.8905687,16.6243364 L19.6144821,13.9092518 C19.6928156,13.7858002 19.8322032,13.7147307 19.9828224,13.7271891 C20.1302737,13.7390812 20.2590057,13.8311036 20.3160278,13.9655978 L20.8018684,15.1112055 C21.0593323,15.6803284 21.7012639,16.3443052 22.4935268,16.4374602 C22.517718,16.4405748 22.5419093,16.4417074 22.5661005,16.4417074 C22.614771,16.4408579 26.2034252,16.3649749 27.1969937,16.3111772 C28.3780442,16.2483188 29.9530663,16.0223685 29.9982809,14.7892688 C30.0512712,13.3942097 28.8710846,13.1178594 27.5880853,13.0272528 L27.5880853,13.0272528 Z"/>
  </defs>
  <use fill="#AAA" fill-rule="evenodd" xlink:href="#a"/>
</svg>
