<svg xmlns="http://www.w3.org/2000/svg" xmlns:xlink="http://www.w3.org/1999/xlink" width="32" height="32" viewBox="0 0 32 32">
  <defs>
    <path id="-82-a" d="M19,10 C19.552,10 20,9.553 20,9 L20,5 C20,4.447 19.552,4 19,4 C18.448,4 18,4.447 18,5 L18,9 C18,9.553 18.448,10 19,10 L19,10 Z M30,28 C30,29.104 29.104,30 28,30 L4,30 C2.896,30 2,29.104 2,28 L2,4 C2,2.896 2.896,2 4,2 L6,2 L6,12 C6,13.104 6.896,14 8,14 L24,14 C25.104,14 26,13.104 26,12 L26,2 L28,2 C29.104,2 30,2.896 30,4 L30,28 L30,28 Z M8,2 L24,2 L24,11 C24,11.553 23.552,12 23,12 L9,12 C8.448,12 8,11.553 8,11 L8,2 L8,2 Z M28,0 L4,0 C1.791,0 0,1.791 0,4 L0,28 C0,30.209 1.791,32 4,32 L28,32 C30.209,32 32,30.209 32,28 L32,4 C32,1.791 30.209,0 28,0 L28,0 Z"/>
  </defs>
  <use fill="#AAA" fill-rule="evenodd" xlink:href="#a"/>
</svg>
