<svg xmlns="http://www.w3.org/2000/svg" xmlns:xlink="http://www.w3.org/1999/xlink" width="32" height="30" viewBox="0 0 32 30">
  <defs>
    <path id="-59-a" d="M14,14.184 L14,9 C14,8.448 13.553,8 13,8 C12.447,8 12,8.448 12,9 L12,14.184 C10.838,14.597 10,15.695 10,17 C10,18.657 11.343,20 13,20 C14.657,20 16,18.657 16,17 C16,15.695 15.162,14.597 14,14.184 L14,14.184 Z M13,28 C6.925,28 2,23.075 2,17 C2,10.925 6.925,6 13,6 C19.075,6 24,10.925 24,17 C24,23.075 19.075,28 13,28 L13,28 Z M13.99,4.05 C13.991,4.032 14,4.018 14,4 L14,2 L18,2 C18.553,2 19,1.553 19,1 C19,0.447 18.553,0 18,0 L8,0 C7.447,0 7,0.447 7,1 C7,1.553 7.447,2 8,2 L12,2 L12,4 C12,4.018 12.009,4.032 12.01,4.05 C5.295,4.558 0,10.154 0,17 C0,24.18 5.82,30 13,30 C20.18,30 26,24.18 26,17 C26,10.154 20.705,4.558 13.99,4.05 L13.99,4.05 Z"/>
  </defs>
  <use fill="#AAA" fill-rule="evenodd" xlink:href="#a"/>
</svg>
