<svg xmlns="http://www.w3.org/2000/svg" xmlns:xlink="http://www.w3.org/1999/xlink" width="32" height="32" viewBox="0 0 32 32">
  <defs>
    <path id="-125-a" d="M22.9583333,29.5384615 C20.956125,29.5384615 19.3333333,27.8855385 19.3333333,25.8461538 C19.3333333,23.8067692 20.956125,22.1538462 22.9583333,22.1538462 C24.9605417,22.1538462 26.5833333,23.8067692 26.5833333,25.8461538 C26.5833333,27.8855385 24.9605417,29.5384615 22.9583333,29.5384615 L22.9583333,29.5384615 Z M6.04166667,19.6923077 C4.03945833,19.6923077 2.41666667,18.0393846 2.41666667,16 C2.41666667,13.9618462 4.03945833,12.3076923 6.04166667,12.3076923 C8.043875,12.3076923 9.66666667,13.9618462 9.66666667,16 C9.66666667,18.0393846 8.043875,19.6923077 6.04166667,19.6923077 L6.04166667,19.6923077 Z M22.9583333,2.46153846 C24.9605417,2.46153846 26.5833333,4.11446154 26.5833333,6.15384615 C26.5833333,8.19323077 24.9605417,9.84615385 22.9583333,9.84615385 C20.956125,9.84615385 19.3333333,8.19323077 19.3333333,6.15384615 C19.3333333,4.11446154 20.956125,2.46153846 22.9583333,2.46153846 L22.9583333,2.46153846 Z M22.9583333,19.6923077 C20.8195833,19.6923077 18.9527083,20.8307692 17.8785,22.5378462 L11.407875,18.7716923 C11.8259583,17.9347692 12.0833333,17.0018462 12.0833333,16 C12.0833333,15.3809231 11.966125,14.7950769 11.799375,14.2313846 L18.531,10.3138462 C19.6342083,11.5323077 21.202625,12.3076923 22.9583333,12.3076923 C26.29575,12.3076923 29,9.55323077 29,6.15384615 C29,2.75446154 26.29575,0 22.9583333,0 C19.6209167,0 16.9166667,2.75446154 16.9166667,6.15384615 C16.9166667,6.77292308 17.033875,7.35876923 17.200625,7.92369231 L10.469,11.84 C9.36579167,10.6227692 7.797375,9.84615385 6.04166667,9.84615385 C2.70425,9.84615385 0,12.6006154 0,16 C0,19.3993846 2.70425,22.1538462 6.04166667,22.1538462 C7.41916667,22.1538462 8.674625,21.6664615 9.69083333,20.8763077 L9.66666667,20.9230769 L16.983125,25.1815385 C16.9589583,25.4030769 16.9166667,25.6172308 16.9166667,25.8461538 C16.9166667,29.2455385 19.6209167,32 22.9583333,32 C26.29575,32 29,29.2455385 29,25.8461538 C29,22.4467692 26.29575,19.6923077 22.9583333,19.6923077 L22.9583333,19.6923077 Z"/>
  </defs>
  <use fill="#AAA" fill-rule="evenodd" xlink:href="#a"/>
</svg>
