<svg xmlns="http://www.w3.org/2000/svg" xmlns:xlink="http://www.w3.org/1999/xlink" width="32" height="32" viewBox="0 0 32 32">
  <defs>
    <path id="244-a" d="M9.8675559,1.12282434 C10.3772927,2.22584385 10.9867864,3.28209202 11.7431471,4.24068733 C12.8789657,5.68022548 14.3339819,6.87693298 15.9568639,7.72268266 C16.5956524,8.05554544 17.2715904,8.34484771 17.9735747,8.50024715 C18.3385687,8.5810097 18.7397055,8.64165707 19.1010267,8.53508094 L19.185406,8.51632062 C19.2143243,8.5138007 19.2429387,8.5093221 19.2718829,8.50885044 C19.3881196,8.50650415 19.5049383,8.53544266 19.6079586,8.5921329 C19.6766703,8.62995783 19.6898105,8.64585584 19.7496479,8.69594916 C19.7695622,8.71751812 19.7893846,8.739179 19.8092989,8.76074796 C19.8544141,8.82443201 19.8692114,8.83886159 19.9012993,8.9102933 C19.9333896,8.98191122 19.9342049,9.00221462 19.9515449,9.0778349 C19.9762828,9.23053219 20.003062,9.38269678 20.0316113,9.53497684 C20.2387985,10.5779444 20.531876,11.6038464 20.8640684,12.6164661 C20.887254,12.6611622 20.9058152,12.70822 20.9182716,12.7583656 C20.9230727,12.7773231 20.9268485,12.7961746 20.9298818,12.8152028 C21.1599661,13.5047272 21.4088783,14.1888115 21.6766868,14.8655015 C21.7278619,14.9372678 21.7662736,15.0155749 21.7872032,15.1026903 C21.792808,15.1263124 21.7972037,15.1500122 21.8001097,15.1736932 C21.881397,15.374115 21.964353,15.5739995 22.0488812,15.773066 C22.3424661,16.4637659 22.6558853,17.1476422 23.0063949,17.8127184 C23.2607655,18.2954302 23.5311732,18.7802065 23.8670194,19.2133092 C24.0167265,19.4064048 24.1932096,19.5747985 24.3603164,19.7525685 C24.488245,19.8944697 24.4877712,19.8938121 24.6129468,20.0388435 C25.0151004,20.5257517 25.3718527,21.0441079 25.6428749,21.6142533 C26.1584337,22.6991944 26.3423838,23.928881 26.0707899,25.0870854 C25.9495234,25.6043286 25.7412923,26.1052054 25.4365038,26.5378377 C25.3546598,26.6539997 25.2655821,26.7649504 25.1685001,26.8686321 C25.1169726,26.9235536 25.063833,26.9761275 24.9995542,27.0164591 C24.8833688,27.0890872 24.7459231,27.1367781 24.6147944,27.1760779 C24.2988485,27.2712197 23.9639763,27.2977958 23.6328639,27.2830886 C23.1465792,27.2613918 22.6642362,27.1539182 22.1974451,27.0101509 C21.585054,26.8213493 20.9922103,26.5662372 20.4174028,26.2798898 C19.5056342,25.825539 18.6332192,25.2884656 17.7996319,24.7006853 C16.9076237,24.0717659 16.0587639,23.3804651 15.2814498,22.6125274 C10.3138954,17.5251031 5.22590305,12.5567968 0.198130848,7.5290246 C0.139295386,7.46246745 0.0888674105,7.39825076 0.0535693416,7.31588719 C-0.0382230802,7.10183478 -0.0105705805,6.85205824 0.125162705,6.66899631 C0.177331372,6.59853729 0.240292662,6.54971803 0.31181467,6.5006347 L2.44939317,5.23552477 C2.51124744,5.09918917 2.57761068,4.96607559 2.64367929,4.83174814 C2.72690023,4.66989755 2.81153536,4.50946117 2.90019393,4.35065817 C3.29218982,3.66658235 3.75573527,3.01655075 4.31975274,2.46460114 C4.36765733,2.41763935 4.43659609,2.36303117 4.48339988,2.3247126 C4.56475791,2.25843939 4.64604757,2.19412017 4.72939019,2.13019926 C4.97822067,1.93944535 5.23566128,1.75969159 5.49965431,1.59016727 C6.46014284,0.972858518 7.50216198,0.494257599 8.57223139,0.0916916998 L8.71334694,0.0397651731 C8.72493882,0.0362813862 8.73634685,0.0329814489 8.74775724,0.0298677165 C8.79458203,0.0152867399 8.84324054,0.00584877542 8.89299501,0.00210301665 C8.91549755,0.000153555232 8.93857519,-0.000485405411 8.96241649,0.000374695031 C8.98355664,0.00110754033 9.00471092,0.00295761538 9.02569313,0.00592256481 C9.04182224,0.00789525021 9.05786884,0.0107046802 9.07410871,0.0140750805 C9.10397688,0.0204104961 9.13284564,0.0286881093 9.16090122,0.0389102754 C9.2287904,0.0632270943 9.29300016,0.0983886184 9.3502519,0.142770887 L9.35852029,0.148833081 L9.36539096,0.154784508 C9.3978446,0.181538808 9.42800718,0.211149844 9.45522817,0.243702473 L9.45588814,0.244362434 L9.45636189,0.245020039 C9.46316891,0.25329785 9.46978972,0.261573306 9.47632096,0.270126891 C9.50245298,0.304899848 9.51556728,0.326103527 9.528163,0.350465625 L9.5321581,0.357218466 C9.57867786,0.450987577 9.62038691,0.547116112 9.66376004,0.642334821 C9.73363733,0.80174687 9.80175627,0.961974465 9.8675559,1.12282434 Z M21.7608236,18.2422008 C19.0853098,18.2871096 16.4060184,18.2615033 13.7281607,18.1652617 C13.8774995,18.4175563 14.0277623,18.6693041 14.1802431,18.9197767 C14.4953068,19.4319271 14.8173967,19.9402568 15.1661661,20.430958 C15.425848,20.7963535 15.6993917,21.1537326 16.0022075,21.4850451 C16.2058171,21.7079589 16.4252567,21.9165513 16.6479843,22.1201586 C17.0233704,22.4631872 17.4151923,22.7882716 17.8179037,23.0985067 C18.7625504,23.8265786 19.7688622,24.4843116 20.8288327,25.0274808 C21.213356,25.2244775 21.606155,25.4060333 22.008585,25.5615533 C22.3512387,25.693883 22.7018616,25.8086269 23.0600085,25.8853001 C23.4389727,25.9666117 23.8622161,26.0234429 24.2355817,25.9050108 L24.2446633,25.9017745 C24.4867559,25.6198957 24.6468553,25.2657678 24.7486442,24.9086681 C24.9228009,24.2970516 24.9193231,23.6394369 24.7658439,23.0156705 C24.6625134,22.5959347 24.4935772,22.1925903 24.2789852,21.8152915 C24.0626797,21.4349921 23.8010932,21.0809292 23.5113471,20.7525747 C23.3735544,20.5962132 23.2267508,20.4486742 23.0824268,20.298467 C22.9976384,20.2039346 22.9980155,20.2043117 22.9163596,20.1072124 C22.4970378,19.5803386 22.1577068,18.9968554 21.8448736,18.4034677 C21.8166417,18.3498645 21.7885935,18.2960774 21.7608236,18.2422008 Z M9.0481878,12.9774962 C8.70285255,12.5007085 8.33639822,12.0395716 7.93916563,11.6031791 C7.81622437,11.4728838 7.81669577,11.4733552 7.69089306,11.3449786 L2.87600546,6.53009102 L1.72105706,7.21363864 L11.6010518,17.0936334 C11.3524461,16.6619135 11.1021763,16.2311034 10.8503368,15.8012974 C10.3444208,14.9488249 9.82999123,14.0929867 9.2608642,13.2769496 C9.21591135,13.2408216 9.17553824,13.1987938 9.14116145,13.1524668 C9.10053625,13.097869 9.06962911,13.0388329 9.0481878,12.9774962 Z M20.6903874,15.9076148 C17.9190842,15.9523359 15.1436757,15.9227212 12.3700285,15.8189379 C12.5583519,16.14331 12.7453813,16.4684105 12.9325049,16.7936052 C15.6563565,16.7507041 18.3841131,16.7810193 21.1100941,16.8843858 C21.017743,16.6776802 20.9275227,16.4701638 20.839063,16.2620181 C20.7889797,16.1440942 20.7394525,16.0259912 20.6903874,15.9076148 Z M19.8062788,13.5703589 C16.8591273,13.6219783 13.9073144,13.592087 10.9575409,13.4805838 C11.0978032,13.6997175 11.2356612,13.920124 11.3717633,14.1415323 C11.435534,14.2450145 11.4987485,14.3486759 11.5616872,14.4526131 C14.423505,14.4031724 17.289956,14.4330079 20.1542448,14.5421266 C20.0342704,14.21955 19.9182818,13.8956274 19.8062788,13.5703589 Z M19.3633259,12.2055841 C19.1354296,11.4535325 18.9341559,10.6940915 18.7732699,9.92631791 L18.7692937,9.90634688 C18.6868285,9.9071655 18.687472,9.90652203 18.6054404,9.90483278 C18.4979531,9.89974964 18.4983255,9.89975435 18.3908004,9.89169193 C17.7480521,9.82715056 17.1231262,9.64824382 16.5191642,9.41198104 C15.896867,9.16859786 15.296625,8.86582451 14.7203802,8.52472337 C13.263638,7.66255081 11.9521191,6.55069257 10.8776857,5.23946088 C10.9381054,6.32171667 10.8199098,7.4055297 10.4686025,8.42886592 C10.3180436,8.86754498 10.1268945,9.29118895 9.89861067,9.6933254 C9.65502949,10.1224499 9.36918948,10.5223689 9.05042914,10.8954346 C9.39221787,11.2831858 9.71289929,11.6875187 10.0180879,12.1033848 C13.1304975,12.046595 16.248245,12.0806332 19.3633259,12.2055841 Z M8.6917536,1.68844546 C8.68046367,1.66428606 8.66917138,1.63994045 8.65797337,1.61568912 L8.60682459,1.50184762 C7.73827187,1.85148236 6.89332418,2.2642498 6.11362746,2.77977352 C5.84332694,2.95843373 5.58371777,3.15072688 5.33131392,3.3533508 L5.24646982,3.42367576 C4.9342578,3.74041322 4.65161677,4.08414779 4.40187017,4.45268739 C4.15970857,4.81005935 3.95075491,5.18758592 3.75989841,5.57548796 L8.11837577,9.93396533 C8.43160427,9.55040383 8.70517844,9.13748359 8.92433157,8.69054961 C9.31191135,7.90020499 9.52282339,7.02989753 9.56877682,6.14428503 C9.60802097,5.39058585 9.5318558,4.63105171 9.3763153,3.88847943 C9.22920316,3.18669304 9.0119859,2.4988208 8.74808759,1.82953412 C8.72952644,1.78247628 8.71077908,1.73541609 8.6917536,1.68844546 Z"/>
  </defs>
  <use fill="#AAA" fill-rule="evenodd" xlink:href="#a"/>
</svg>
