<svg xmlns="http://www.w3.org/2000/svg" xmlns:xlink="http://www.w3.org/1999/xlink" width="32" height="32" viewBox="0 0 32 32">
  <defs>
    <path id="-126-a" d="M2.04,10 L6.699,2 L25.271,2 L30.029,10 L2.04,10 L2.04,10 Z M30,14 C29.985,15.381 28.394,16.001 27,16 C25.393,15.999 23.945,15.026 23.945,14 L23,14 C23,15.009 21.209,16 19.667,16 C18.188,16 16.468,14.978 16.468,14 L15.499,14 C15.499,15.009 13.749,16 12.271,16 C10.729,16 8.969,15.29 8.969,14 L8.022,14 C8.022,15.006 6.478,16.031 4.995,16.031 C3.491,16.031 2,15.381 2,14 L2,12 L30,12 L30,14 L30,14 Z M29,24 L3.003,24 L3,18 L4.964,18 C6.038,18 7.741,17.042 8.462,15.576 C9.271,17.001 10.781,18 12.223,18 C13.746,18 15.423,17.094 15.983,15.784 C16.544,17.063 18.186,18 19.678,18 C21.158,18 22.691,16.912 23.467,15.426 C24.374,16.926 25.106,18 27,18 C27.293,18 28.744,18.048 29,18 L29,24 L29,24 Z M29,28 C29,29.104 27.95,30 26.811,30 L5.156,30 C4.017,30 3.003,29.104 3.003,28 L3.003,26 L29,26 L29,28 L29,28 Z M26.154,0 L5.813,0 L0,10 L0,14 C0,15.065 0.383,16.229 1.001,17 L1.031,28 C1.031,30.209 2.878,32 5.156,32 L26.811,32 C29.089,32 31,30.209 31,28 L31,17 C31.7,16.176 32,15.33 32,14 L32,10 L26.154,0 L26.154,0 Z"/>
  </defs>
  <use fill="#AAA" fill-rule="evenodd" xlink:href="#a"/>
</svg>
