<svg xmlns="http://www.w3.org/2000/svg" xmlns:xlink="http://www.w3.org/1999/xlink" width="32" height="32" viewBox="0 0 32 32">
  <defs>
    <path id="-62-a" d="M21.537,17.822 C21.38,17.925 21.202,18 21,18 L3,18 C2.448,18 2,17.553 2,17 L2,9 C2,8.448 2.448,8 3,8 L21,8 C21.213,8 21.399,8.081 21.561,8.194 L23.963,12.984 L21.537,17.822 L21.537,17.822 Z M14,28 C14,29.104 13.104,30 12,30 L10,30 C8.896,30 8,29.104 8,28 L8,20 L14,20 L14,28 L14,28 Z M8,4 C8,2.896 8.896,2 10,2 L12,2 C13.104,2 14,2.896 14,4 L14,6 L8,6 L8,4 L8,4 Z M25.717,12.224 L22.737,6.282 C22.524,6.069 22.241,5.982 21.962,6 L16,6 L16,4 C16,1.791 14.209,0 12,0 L10,0 C7.791,0 6,1.791 6,4 L6,6 L2,6 C0.896,6 0,6.896 0,8 L0,18 C0,19.104 0.896,20 2,20 L6,20 L6,28 C6,30.209 7.791,32 10,32 L12,32 C14.209,32 16,30.209 16,28 L16,20 L22,20 L22,19.976 C22.266,19.982 22.534,19.89 22.737,19.688 L25.717,13.745 C25.942,13.325 25.972,13.188 26.002,12.984 C26.016,12.711 25.927,12.604 25.717,12.224 L25.717,12.224 Z"/>
  </defs>
  <use fill="#AAA" fill-rule="evenodd" xlink:href="#a"/>
</svg>
