<svg xmlns="http://www.w3.org/2000/svg" xmlns:xlink="http://www.w3.org/1999/xlink" width="32" height="32" viewBox="0 0 32 32">
  <defs>
    <path id="-112-a" d="M22.1006154,28.6769725 C18.8946154,30.5946757 14.9164615,30.5381157 13.412,28.2565078 C11.9075385,25.9727656 13.4453846,22.3294497 16.6513846,20.4117466 C19.8584615,18.4940434 23.9798462,18.5730139 25.4843077,20.855689 C26.9887692,23.1394312 25.3076923,26.7603365 22.1006154,28.6769725 L22.1006154,28.6769725 Z M26.9230769,0 C26.3286154,0 25.8461538,0.477024662 25.8461538,1.06716927 L25.8461538,18.5377973 C23.4596923,16.7630948 19.5256923,16.7257439 16.0203077,18.7320221 C11.6781538,21.2163922 9.75261538,25.8062872 11.5629231,29.0728923 C13.4421538,32.4664906 18.4875385,32.9018957 22.8286154,30.4175256 C26.1627692,28.5104941 28.1055385,25.3388671 27.9795385,22.5087342 C27.9827692,22.4745848 28,22.444704 28,22.4105546 L28,1.06716927 C28,0.477024662 27.5175385,0 26.9230769,0 L26.9230769,0 Z M1.07692308,16.007539 L12.9230769,16.007539 C13.5175385,16.007539 14,15.5305143 14,14.9403697 C14,14.3512923 13.5175385,13.8732005 12.9230769,13.8732005 L1.07692308,13.8732005 C0.482461538,13.8732005 0,14.3512923 0,14.9403697 C0,15.5305143 0.482461538,16.007539 1.07692308,16.007539 L1.07692308,16.007539 Z M7.53846154,20.2762161 L1.07692308,20.2762161 C0.482461538,20.2762161 0,20.7532407 0,21.3433853 C0,21.9335299 0.482461538,22.4105546 1.07692308,22.4105546 L7.53846154,22.4105546 C8.13292308,22.4105546 8.61538462,21.9335299 8.61538462,21.3433853 C8.61538462,20.7532407 8.13292308,20.2762161 7.53846154,20.2762161 L7.53846154,20.2762161 Z M1.07692308,9.6045234 L20.4615385,9.6045234 C21.056,9.6045234 21.5384615,9.12749874 21.5384615,8.53735414 C21.5384615,7.94720953 21.056,7.47018487 20.4615385,7.47018487 L1.07692308,7.47018487 C0.482461538,7.47018487 0,7.94720953 0,8.53735414 C0,9.12749874 0.482461538,9.6045234 1.07692308,9.6045234 L1.07692308,9.6045234 Z M1.07692308,3.2015078 L20.4615385,3.2015078 C21.056,3.2015078 21.5384615,2.72448314 21.5384615,2.13433853 C21.5384615,1.54419393 21.056,1.06716927 20.4615385,1.06716927 L1.07692308,1.06716927 C0.482461538,1.06716927 0,1.54419393 0,2.13433853 C0,2.72448314 0.482461538,3.2015078 1.07692308,3.2015078 L1.07692308,3.2015078 Z"/>
  </defs>
  <use fill="#AAA" fill-rule="evenodd" xlink:href="#a"/>
</svg>
