<svg xmlns="http://www.w3.org/2000/svg" xmlns:xlink="http://www.w3.org/1999/xlink" width="32" height="32" viewBox="0 0 32 32">
  <defs>
    <path id="-96-a" d="M5,20 C3.343,20 2,18.657 2,17 C2,15.344 3.343,14 5,14 C6.657,14 8,15.344 8,17 C8,18.657 6.657,20 5,20 L5,20 Z M6,12.101 L6,1 C6,0.448 5.553,0 5,0 C4.447,0 4,0.448 4,1 L4,12.101 C1.718,12.564 0,14.581 0,17 C0,19.419 1.718,21.436 4,21.899 L4,27 C4,27.553 4.447,28 5,28 C5.553,28 6,27.553 6,27 L6,21.899 C8.282,21.436 10,19.419 10,17 C10,14.581 8.282,12.564 6,12.101 L6,12.101 Z M15,10 C13.343,10 12,8.657 12,7 C12,5.344 13.343,4 15,4 C16.657,4 18,5.344 18,7 C18,8.657 16.657,10 15,10 L15,10 Z M16,2.101 L16,1 C16,0.448 15.553,0 15,0 C14.447,0 14,0.448 14,1 L14,2.101 C11.718,2.564 10,4.581 10,7 C10,9.419 11.718,11.436 14,11.899 L14,27 C14,27.553 14.447,28 15,28 C15.553,28 16,27.553 16,27 L16,11.899 C18.282,11.436 20,9.419 20,7 C20,4.581 18.282,2.564 16,2.101 L16,2.101 Z M25,24 C23.343,24 22,22.657 22,21 C22,19.344 23.343,18 25,18 C26.657,18 28,19.344 28,21 C28,22.657 26.657,24 25,24 L25,24 Z M26,16.101 L26,1 C26,0.448 25.553,0 25,0 C24.447,0 24,0.448 24,1 L24,16.101 C21.718,16.564 20,18.581 20,21 C20,23.419 21.718,25.436 24,25.899 L24,27 C24,27.553 24.447,28 25,28 C25.553,28 26,27.553 26,27 L26,25.899 C28.282,25.436 30,23.419 30,21 C30,18.581 28.282,16.564 26,16.101 L26,16.101 Z"/>
  </defs>
  <use fill="#AAA" fill-rule="evenodd" xlink:href="#a"/>
</svg>
