<svg xmlns="http://www.w3.org/2000/svg" xmlns:xlink="http://www.w3.org/1999/xlink" width="32" height="32" viewBox="0 0 32 32">
  <defs>
    <path id="-91-a" d="M12,12.008 C10.339,12.008 8.993,10.661 8.993,9 C8.993,7.339 10.339,5.992 12,5.992 C13.661,5.992 15.007,7.339 15.007,9 C15.007,10.661 13.661,12.008 12,12.008 L12,12.008 Z M12,4 C9.239,4 7,6.238 7,9 C7,11.762 9.239,14 12,14 C14.761,14 17,11.762 17,9 C17,6.238 14.761,4 12,4 L12,4 Z M22,28 C22,29.104 21.104,30 20,30 L4,30 C2.896,30 2,29.104 2,28 L2,4 C2,2.896 2.896,2 4,2 L20,2 C21.104,2 22,2.896 22,4 L22,28 L22,28 Z M20,0 L4,0 C1.791,0 0,1.791 0,4 L0,28 C0,30.209 1.791,32 4,32 L20,32 C22.209,32 24,30.209 24,28 L24,4 C24,1.791 22.209,0 20,0 L20,0 Z M12,28 C9.239,28 7,25.762 7,23 C7,20.238 9.239,18 12,18 C14.761,18 17,20.238 17,23 C17,25.762 14.761,28 12,28 L12,28 Z M19,23 C19,19.134 15.866,16 12,16 C8.134,16 5,19.134 5,23 C5,26.866 8.134,30 12,30 C15.866,30 19,26.866 19,23 L19,23 Z"/>
  </defs>
  <use fill="#AAA" fill-rule="evenodd" xlink:href="#a"/>
</svg>
