<svg xmlns="http://www.w3.org/2000/svg" xmlns:xlink="http://www.w3.org/1999/xlink" width="32" height="32" viewBox="0 0 32 32">
  <defs>
    <path id="-36-a" d="M30,22 C30,23.463 28.473,25 27,25 L19,25 L16,29 L13,25 L5,25 C3.527,25 2,23.463 2,22 L2,5 C2,3.537 3.527,2 5,2 L27,2 C28.473,2 30,3.537 30,5 L30,22 L30,22 Z M26.667,0 L5.333,0 C2.388,0 0,2.371 0,5.297 L0,22.187 C0,25.111 2.055,27 5,27 L11.639,27 L16,32.001 L20.361,27 L27,27 C29.945,27 32,25.111 32,22.187 L32,5.297 C32,2.371 29.612,0 26.667,0 L26.667,0 Z"/>
  </defs>
  <use fill="#AAA" fill-rule="evenodd" xlink:href="#a"/>
</svg>
