<svg xmlns="http://www.w3.org/2000/svg" xmlns:xlink="http://www.w3.org/1999/xlink" width="32" height="32" viewBox="0 0 32 32">
  <defs>
    <path id="-35-a" d="M19.494,24.633 L16,29 L12.506,24.633 C6.464,23.355 1.992,18.863 1.992,13.501 C1.992,7.146 8.264,1.994 16,1.994 C23.736,1.994 30.008,7.146 30.008,13.501 C30.008,18.863 25.536,23.355 19.494,24.633 L19.494,24.633 Z M16,0 C7.163,0 0,6.143 0,13.72 C0,19.969 4.877,25.232 11.542,26.889 L16,32.001 L20.459,26.889 C27.123,25.232 32,19.969 32,13.72 C32,6.143 24.837,0 16,0 L16,0 Z"/>
  </defs>
  <use fill="#AAA" fill-rule="evenodd" xlink:href="#a"/>
</svg>
