<svg xmlns="http://www.w3.org/2000/svg" xmlns:xlink="http://www.w3.org/1999/xlink" width="32" height="32" viewBox="0 0 32 32">
  <defs>
    <path id="-34-a" d="M2,11.5 C2,6.254 6.753,2 13,2 C17.973,2 23,6.254 23,11.5 C23,16.747 19.075,21 13,21 C12.107,21 10.244,20.898 9.413,20.725 L6,23 L6,19.456 C3.561,17.477 2,14.834 2,11.5 L2,11.5 Z M9.637,22.736 C10.414,22.863 12.181,23 13,23 C20.18,23 25,17.657 25,11.375 C25,5.093 18.977,0 13,0 C5.811,0 0,5.093 0,11.375 C0,15.015 1.387,18.104 4,20.329 L4,26 L9.637,22.736 L9.637,22.736 Z M26.949,9.139 C26.968,9.425 27,9.709 27,10 C27,10.636 26.938,11.259 26.849,11.874 C28.195,13.45 29,15.392 29,17.5 C29,20.834 27.008,23.761 24,25.456 L24,29 L20.587,26.725 C19.756,26.898 18.893,27 18,27 C15.41,27 14.034,26.222 12.154,24.929 C11.609,24.973 11.059,25 10.5,25 C10.102,25 9.712,24.972 9.32,24.949 C11.701,27.276 14.149,28.75 18,28.75 C18.819,28.75 19.618,28.676 20.395,28.549 L26,32 L26,26.329 C29.04,24.246 31,21.015 31,17.375 C31,14.131 29.439,11.211 26.949,9.139 L26.949,9.139 Z M18.5,13 C19.329,13 20,12.329 20,11.5 C20,10.672 19.329,10 18.5,10 C17.671,10 17,10.672 17,11.5 C17,12.329 17.671,13 18.5,13 L18.5,13 Z M6.5,13 C7.329,13 8,12.329 8,11.5 C8,10.672 7.329,10 6.5,10 C5.671,10 5,10.672 5,11.5 C5,12.329 5.671,13 6.5,13 L6.5,13 Z M12.5,13 C13.329,13 14,12.329 14,11.5 C14,10.672 13.329,10 12.5,10 C11.671,10 11,10.672 11,11.5 C11,12.329 11.671,13 12.5,13 L12.5,13 Z"/>
  </defs>
  <use fill="#AAA" fill-rule="evenodd" xlink:href="#a"/>
</svg>
