<svg xmlns="http://www.w3.org/2000/svg" xmlns:xlink="http://www.w3.org/1999/xlink" width="32" height="32" viewBox="0 0 32 32">
  <defs>
    <path id="-32-a" d="M16,26 C14.832,26 13.704,25.864 12.62,25.633 L7.912,28.463 L7.975,23.824 C4.366,21.654 2,18.066 2,14 C2,7.373 8.268,2 16,2 C23.732,2 30,7.373 30,14 C30,20.628 23.732,26 16,26 L16,26 Z M16,0 C7.164,0 0,6.269 0,14 C0,18.419 2.345,22.354 6,24.919 L6,32 L13.009,27.747 C13.979,27.907 14.977,28 16,28 C24.836,28 32,21.732 32,14 C32,6.269 24.836,0 16,0 L16,0 Z M23,11 L9,11 C8.448,11 8,11.448 8,12 C8,12.553 8.448,13 9,13 L23,13 C23.552,13 24,12.553 24,12 C24,11.448 23.552,11 23,11 L23,11 Z M21,17 L11,17 C10.448,17 10,17.447 10,18 C10,18.553 10.448,19 11,19 L21,19 C21.552,19 22,18.553 22,18 C22,17.447 21.552,17 21,17 L21,17 Z"/>
  </defs>
  <use fill="#AAA" fill-rule="evenodd" xlink:href="#a"/>
</svg>
