<svg xmlns="http://www.w3.org/2000/svg" xmlns:xlink="http://www.w3.org/1999/xlink" width="32" height="32" viewBox="0 0 32 32">
  <defs>
    <path id="-73-a" d="M7,14 C4.239,14 2,11.313 2,8 C2,4.687 4.239,2 7,2 C9.761,2 12,4.687 12,8 C12,11.313 9.761,14 7,14 L7,14 Z M14,8 C14,3.582 10.866,0 7,0 C3.134,0 0,3.582 0,8 C0,12.036 2.618,15.365 6.018,15.912 C6.015,15.942 6,15.969 6,16 L6,31 C6,31.553 6.448,32 7,32 C7.552,32 8,31.553 8,31 L8,16 C8,15.969 7.985,15.942 7.982,15.912 C11.382,15.365 14,12.036 14,8 L14,8 Z"/>
  </defs>
  <use fill="#AAA" fill-rule="evenodd" xlink:href="#a"/>
</svg>
