<svg xmlns="http://www.w3.org/2000/svg" xmlns:xlink="http://www.w3.org/1999/xlink" width="32" height="32" viewBox="0 0 32 32">
  <defs>
    <path id="-22-a" d="M0.915,17.0620453 L14.492,23.1727616 C15.691,23.7395701 16.209,23.7395701 17.509,23.1727616 L31.085,17.0620453 C31.755,16.7485982 32,15.2774998 32,14.4853699 C31.127,14.9229941 29.891,15.546884 29.867,15.5528926 L16,21.9540232 L2.133,15.5528926 C2.181,15.581934 0.906,15.0041098 0,14.4853699 C0,15.2604755 0.194,16.6784982 0.915,17.0620453 L0.915,17.0620453 Z M16,28.3561552 L2.133,21.9540232 C2.181,21.984066 0.906,21.4062418 0,20.8875019 C0,21.6616061 0.194,23.0796288 0.915,23.4631759 L14.492,29.5748936 C15.691,30.1417021 16.209,30.1417021 17.509,29.5748936 L31.085,23.4631759 C31.755,23.1507302 32,21.6796318 32,20.8875019 C31.127,21.3241247 29.891,21.9490161 29.867,21.9540232 L16,28.3561552 L16,28.3561552 Z M16,1.68110584 L29.867,9.14975915 L16,15.002107 L2.133,9.14975915 L16,1.68110584 L16,1.68110584 Z M0.915,10.6589118 L14.492,16.771631 C15.691,17.3374381 16.209,17.3374381 17.509,16.771631 L31.085,10.6589118 C32.085,10.1922462 32.118,8.20841642 31.085,7.64060649 L17.509,0.462367428 C16.442,-0.170535346 15.691,-0.137488208 14.492,0.462367428 L0.915,7.64060649 C-0.118,8.30755783 -0.151,10.0931047 0.915,10.6589118 L0.915,10.6589118 Z M16,1.68110584 C16.1,1.79827297 16.074,1.70614155 16,1.68110584 L16,1.68110584 Z"/>
  </defs>
  <use fill="#AAA" fill-rule="evenodd" xlink:href="#a"/>
</svg>
