<svg xmlns="http://www.w3.org/2000/svg" xmlns:xlink="http://www.w3.org/1999/xlink" width="32" height="32" viewBox="0 0 32 32">
  <defs>
    <path id="-99-a" d="M26,25 C26,25.553 25.553,26 25,26 L3,26 C2.447,26 2,25.553 2,25 L2,3 C2,2.448 2.447,2 3,2 L25,2 C25.553,2 26,2.448 26,3 L26,25 L26,25 Z M26,0 L2,0 C0.896,0 0,0.896 0,2 L0,26 C0,27.104 0.896,28 2,28 L26,28 C27.104,28 28,27.104 28,26 L28,2 C28,0.896 27.104,0 26,0 L26,0 Z"/>
  </defs>
  <use fill="#AAA" fill-rule="evenodd" xlink:href="#a"/>
</svg>
