<svg xmlns="http://www.w3.org/2000/svg" xmlns:xlink="http://www.w3.org/1999/xlink" width="32" height="32" viewBox="0 0 32 32">
  <defs>
    <path id="227-a" d="M30.3903183,26.7858513 L26.785861,30.3903153 C26.461143,30.714955 26.0295817,30.8936332 25.5705193,30.8936332 C25.111457,30.8936332 24.6798167,30.714955 24.3552567,30.3903153 L22.7567967,28.7919314 L28.7918583,22.7568586 L30.3903183,24.3552425 C30.7148783,24.6798822 30.8936353,25.1115233 30.8936353,25.5705074 C30.8936353,26.0296496 30.7148783,26.4612117 30.3903183,26.7858513 L30.3903183,26.7858513 Z M1.10634499,6.42949258 C1.10634499,5.97042938 1.28510192,5.53878828 1.60974095,5.21414865 L5.21419827,1.60968466 C5.53883729,1.28512406 5.97039857,1.1063668 6.42946091,1.1063668 C6.88852326,1.1063668 7.32016356,1.28512406 7.64480259,1.60968466 L9.92423007,3.88911636 L3.88916843,9.92411015 L1.60974095,7.64475748 C1.28510192,7.32011785 1.10634499,6.88855577 1.10634499,6.42949258 L1.10634499,6.42949258 Z M28.0095004,21.9744202 L21.9744388,28.009493 L4.67144733,10.7064695 L10.706509,4.67139671 L28.0095004,21.9744202 Z M31.1725972,23.5729622 L24.7547334,17.1550074 C24.8244344,17.1280595 24.889947,17.0868078 24.9462925,17.0305412 C25.1623498,16.8144045 25.1623498,16.4642394 24.9462925,16.2481818 L22.2639902,13.5659535 C22.0480911,13.3498959 21.6977686,13.3498959 21.4817113,13.5659535 C21.4254448,13.6222202 21.3841142,13.6877329 21.3571663,13.757513 L20.2843086,12.6846534 C20.3540886,12.6577054 20.4196012,12.6163747 20.4759468,12.5601081 C20.691925,12.3440504 20.691925,11.9938063 20.4759468,11.7777487 L15.2166049,6.51847608 C15.0005476,6.30249747 14.6503042,6.30249747 14.4342469,6.51847608 C14.3779804,6.57482176 14.3366498,6.64033448 14.3097809,6.71003559 L8.42708149,0.82740431 C7.87547964,0.275801437 7.15247027,0 6.42946091,0 C5.70653058,0 4.98352122,0.275801437 4.43191936,0.82740431 L0.827462047,4.4318683 C-0.275820682,5.53515308 -0.275820682,7.32383208 0.827462047,8.42711685 L23.5728988,31.1726747 C24.1245796,31.7241986 24.84751,32 25.5705193,32 C26.2935287,32 27.0165381,31.7241986 27.5681399,31.1726747 L31.1725972,27.5681317 C32.2758009,26.4648469 32.2758009,24.6762469 31.1725972,23.5729622 L31.1725972,23.5729622 Z M19.8517435,23.199499 L8.80050103,12.1482565 L12.1482565,8.80050103 L23.199499,19.8517435 L19.8517435,23.199499 Z M7.25333333,12.1482565 L19.8517435,24.7466667 L24.7466667,19.8517435 L12.1482565,7.25333333 L7.25333333,12.1482565 Z"/>
  </defs>
  <use fill="#AAA" fill-rule="evenodd" xlink:href="#a"/>
</svg>
