<svg xmlns="http://www.w3.org/2000/svg" xmlns:xlink="http://www.w3.org/1999/xlink" width="32" height="32" viewBox="0 0 32 32">
  <defs>
    <path id="-147-a" d="M16,22.998 C12.135,22.998 9.002,19.865 9.002,16 C9.002,12.135 12.135,9.002 16,9.002 C19.865,9.002 22.998,12.135 22.998,16 C22.998,19.865 19.865,22.998 16,22.998 L16,22.998 Z M16,6.994 C11.026,6.994 6.994,11.026 6.994,16 C6.994,20.974 11.026,25.006 16,25.006 C20.974,25.006 25.006,20.974 25.006,16 C25.006,11.026 20.974,6.994 16,6.994 L16,6.994 Z M7.41,23.189 L5.309,25.291 C4.922,25.678 4.922,26.305 5.309,26.691 C5.695,27.078 6.322,27.078 6.709,26.691 L8.811,24.59 C9.197,24.203 9.197,23.576 8.811,23.189 C8.424,22.803 7.797,22.803 7.41,23.189 L7.41,23.189 Z M31,15 L28,15 C27.447,15 27,15.447 27,16 C27,16.553 27.447,17 28,17 L31,17 C31.553,17 32,16.553 32,16 C32,15.447 31.553,15 31,15 L31,15 Z M25.192,23.778 C24.802,23.388 24.169,23.388 23.778,23.778 C23.388,24.169 23.388,24.802 23.778,25.192 L25.899,27.313 C26.29,27.704 26.923,27.704 27.313,27.313 C27.704,26.924 27.704,26.29 27.313,25.899 L25.192,23.778 L25.192,23.778 Z M16,27 C15.447,27 15,27.447 15,28 L15,31 C15,31.553 15.447,32 16,32 C16.553,32 17,31.553 17,31 L17,28 C17,27.447 16.553,27 16,27 L16,27 Z M16,5 C16.553,5 17,4.553 17,4 L17,1 C17,0.447 16.553,0 16,0 C15.447,0 15,0.447 15,1 L15,4 C15,4.553 15.447,5 16,5 L16,5 Z M6.808,8.222 C7.198,8.612 7.831,8.612 8.222,8.222 C8.612,7.831 8.612,7.198 8.222,6.808 L6.101,4.687 C5.71,4.296 5.077,4.296 4.687,4.687 C4.296,5.077 4.296,5.71 4.687,6.101 L6.808,8.222 L6.808,8.222 Z M25.621,7.779 L27.723,5.679 C28.109,5.291 28.109,4.664 27.723,4.277 C27.336,3.891 26.709,3.891 26.321,4.277 L24.221,6.379 C23.834,6.766 23.834,7.393 24.221,7.779 C24.607,8.167 25.234,8.167 25.621,7.779 L25.621,7.779 Z M4,15 L1,15 C0.447,15 0,15.447 0,16 C0,16.553 0.447,17 1,17 L4,17 C4.553,17 5,16.553 5,16 C5,15.447 4.553,15 4,15 L4,15 Z"/>
  </defs>
  <use fill="#AAA" fill-rule="evenodd" xlink:href="#a"/>
</svg>
