<svg xmlns="http://www.w3.org/2000/svg" xmlns:xlink="http://www.w3.org/1999/xlink" width="32" height="32" viewBox="0 0 32 32">
  <defs>
    <path id="-144-a" d="M28,22 L2,22 C1.448,22 1,22.448 1,23 C1,23.553 1.448,24 2,24 L28,24 C28.552,24 29,23.553 29,23 C29,22.448 28.552,22 28,22 L28,22 Z M3,8.414 C3.391,8.805 4.024,8.805 4.414,8.414 C4.805,8.023 4.805,7.391 4.414,7 L3,5.586 C2.609,5.195 1.977,5.195 1.586,5.586 C1.195,5.977 1.195,6.609 1.586,7 L3,8.414 L3,8.414 Z M29,18 L1,18 C0.448,18 0,18.447 0,19 C0,19.553 0.448,20 1,20 L29,20 C29.552,20 30,19.553 30,19 C30,18.447 29.552,18 29,18 L29,18 Z M25,26 L5,26 C4.448,26 4,26.448 4,27 C4,27.553 4.448,28 5,28 L25,28 C25.552,28 26,27.553 26,27 C26,26.448 25.552,26 25,26 L25,26 Z M15,4 C15.552,4 16,3.553 16,3 L16,1 C16,0.447 15.552,0 15,0 C14.448,0 14,0.447 14,1 L14,3 C14,3.553 14.448,4 15,4 L15,4 Z M27,8.414 L28.414,7 C28.805,6.609 28.805,5.977 28.414,5.586 C28.024,5.195 27.391,5.195 27,5.586 L25.586,7 C25.195,7.391 25.195,8.023 25.586,8.414 C25.977,8.805 26.609,8.805 27,8.414 L27,8.414 Z M5.218,16 C6.146,11.438 10.161,8 15,8 C19.839,8 23.854,11.438 24.782,16 L26.886,16 C26.118,10.359 21.096,6 15,6 C8.904,6 3.882,10.359 3.114,16 L5.218,16 L5.218,16 Z"/>
  </defs>
  <use fill="#AAA" fill-rule="evenodd" xlink:href="#a"/>
</svg>
