<svg xmlns="http://www.w3.org/2000/svg" xmlns:xlink="http://www.w3.org/1999/xlink" width="32" height="32" viewBox="0 0 32 32">
  <defs>
    <path id="-106-a" d="M26.7052918,18.5044414 C26.3520347,18.1444496 25.2484025,18.2384136 24.8939599,18.5996256 L24.8939599,21.9628024 L20.1522532,21.9628024 L15.96177,16.0577181 L14.4705033,18.0480451 L18.9668266,24.2923758 L24.8939599,24.2923758 L24.8939599,27.7971087 C25.2484025,28.1571004 26.3520347,27.9972397 26.7052918,27.6360276 L31.7350571,23.7224907 C32.0883143,23.362499 32.0883143,22.7791904 31.7350571,22.4179783 L26.7052918,18.5044414 L26.7052918,18.5044414 Z M24.8939599,6.09876099 L24.8939599,9.37895663 C25.2484025,9.73772803 26.3520347,9.88782626 26.7052918,9.52905487 L31.7350571,5.61551789 C32.0883143,5.25430587 32.0883143,4.66977696 31.7350571,4.30978525 L26.7052918,0.395027962 C26.3520347,0.0350362536 25.2484025,-0.172416595 24.8939599,0.187575113 L24.8939599,3.65813924 L18.9668266,3.65813924 L5.9271333,21.9628024 L1.18542666,21.9628024 C0.529885717,21.9628024 0,22.4179783 0,23.0854884 C0,23.7517781 0.529885717,24.4034241 1.18542666,24.4034241 L7.11255997,24.4034241 L20.1522532,6.09876099 L24.8939599,6.09876099 L24.8939599,6.09876099 Z M1.18542666,6.09876099 L5.9271333,6.09876099 L10.08561,11.9599141 L11.5768768,9.96958709 C11.5768768,9.96958709 7.41365834,4.05229966 7.11255997,3.65813924 L1.18542666,3.65813924 C0.529885717,3.65813924 0,4.30978525 0,4.97607499 C0,5.64358504 0.529885717,6.09876099 1.18542666,6.09876099 L1.18542666,6.09876099 Z"/>
  </defs>
  <use fill="#AAA" fill-rule="evenodd" xlink:href="#a"/>
</svg>
