<svg xmlns="http://www.w3.org/2000/svg" xmlns:xlink="http://www.w3.org/1999/xlink" width="32" height="32" viewBox="0 0 32 32">
  <defs>
    <path id="-209-a" d="M22.7115871,7.28271981 C22.3175871,6.89271981 21.6795871,6.89271981 21.2845871,7.28271981 L18.9845871,9.58271981 L16.7455871,7.34271981 C16.3555871,6.95271981 15.7215871,6.95271981 15.3305871,7.34271981 C14.9395871,7.73271981 14.9395871,8.37271981 15.3305871,8.76271981 L17.5695871,10.9927198 L15.3015871,13.2627198 C14.9075871,13.6527198 14.9075871,14.2927198 15.3015871,14.6927198 C15.6955871,15.0827198 16.3345871,15.0827198 16.7285871,14.6927198 L18.9965871,12.4227198 L21.2355871,14.6627198 C21.6265871,15.0527198 22.2605871,15.0527198 22.6505871,14.6627198 C23.0425871,14.2727198 23.0425871,13.6327198 22.6505871,13.2427198 L20.4115871,11.0127198 L22.7115871,8.71271981 C23.1065871,8.31271981 23.1065871,7.68271981 22.7115871,7.28271981 L22.7115871,7.28271981 Z M30.0015871,18.0027198 C30.0015871,19.1027198 29.1055871,20.0027198 27.9995871,20.0027198 L10.4705871,20.0027198 L2.31958706,10.9827198 L10.4415871,2.00271981 L27.9995871,2.00271981 C29.1055871,2.00271981 30.0015871,2.90271981 30.0015871,4.00271981 L30.0015871,18.0027198 L30.0015871,18.0027198 Z M27.9995871,0.00271980577 L10.0545871,0.00271980577 C9.77458706,-0.0172801942 9.48858706,0.0727198058 9.27458706,0.282719806 L0.288587057,10.2227198 C0.0775870566,10.4327198 -0.0134129434,10.7127198 0.00158705657,10.9827198 C-0.0134129434,11.2627198 0.0775870566,11.5427198 0.288587057,11.7527198 L9.27458706,21.6927198 C9.47058706,21.8827198 9.72658706,21.9827198 9.98258706,21.9827198 L9.98258706,22.0027198 L27.9995871,22.0027198 C30.2105871,22.0027198 32.0035871,20.2127198 32.0035871,18.0027198 L32.0035871,4.00271981 C32.0035871,1.79271981 30.2105871,0.00271980577 27.9995871,0.00271980577 L27.9995871,0.00271980577 Z"/>
  </defs>
  <use fill="#AAA" fill-rule="evenodd" xlink:href="#a"/>
</svg>
