<svg xmlns="http://www.w3.org/2000/svg" xmlns:xlink="http://www.w3.org/1999/xlink" width="32" height="32" viewBox="0 0 32 32">
  <defs>
    <path id="-210-a" d="M29.9982748,18.0027198 C29.9982748,19.1027198 29.1015019,20.0027198 27.9965496,20.0027198 L10.4684431,20.0027198 L2.32042081,10.9827198 L10.440419,2.00271981 L27.9965496,2.00271981 C29.1015019,2.00271981 29.9982748,2.90271981 29.9982748,4.00271981 L29.9982748,18.0027198 L29.9982748,18.0027198 Z M27.9965496,0.00271980577 L10.0530852,0.00271980577 C9.77284364,-0.0172801942 9.48859867,0.0727198058 9.27341321,0.282719806 L0.288669756,10.2227198 C0.0764868877,10.4327198 -0.0125898826,10.7127198 0.00142219363,10.9827198 C-0.0125898826,11.2627198 0.0764868877,11.5427198 0.288669756,11.7527198 L9.27341321,21.6927198 C9.46858142,21.8827198 9.72480224,21.9827198 9.98102306,21.9827198 L9.98102306,22.0027198 L27.9965496,22.0027198 C30.2074551,22.0027198 32,20.2127198 32,18.0027198 L32,4.00271981 C32,1.79271981 30.2074551,0.00271980577 27.9965496,0.00271980577 L27.9965496,0.00271980577 Z"/>
  </defs>
  <use fill="#AAA" fill-rule="evenodd" xlink:href="#a"/>
</svg>
