<svg xmlns="http://www.w3.org/2000/svg" xmlns:xlink="http://www.w3.org/1999/xlink" width="32" height="32" viewBox="0 0 32 32">
  <defs>
    <path id="-238-a" d="M31.0454758,3.57424787 L28.0830321,0.613546121 C27.2657353,-0.204515374 25.9389146,-0.204515374 25.1205884,0.613546121 L20.6769228,6.53494962 C19.998587,7.53663652 19.859626,8.67758988 20.6769228,9.49565138 L22.4906219,11.3081785 C21.1463024,13.1134845 19.5322955,15.0817838 17.7155084,16.8974058 C15.6609436,18.9502965 13.3758063,20.8164671 11.3212415,22.3494297 L9.56827355,20.5987987 C8.75097671,19.7807373 7.60943742,19.9189721 6.60582984,20.5987987 L0.680942403,25.0398514 C-0.312371768,25.7258676 -0.13738378,27.1824916 0.680942403,28.0005531 L3.64338612,30.9602233 C5.28003849,32.5963463 7.40768656,32.0722917 9.56827355,30.9602233 C9.56827355,30.9602233 16.1076776,27.2918416 21.7062639,21.6964248 C26.9723731,16.4331842 31.0454758,9.49565138 31.0454758,9.49565138 C31.8946822,7.16113289 32.6821282,5.20933926 31.0454758,3.57424787 L31.0454758,3.57424787 Z"/>
  </defs>
  <use fill="#AAA" fill-rule="evenodd" xlink:href="#a"/>
</svg>
