<svg xmlns="http://www.w3.org/2000/svg" xmlns:xlink="http://www.w3.org/1999/xlink" width="32" height="32" viewBox="0 0 32 32">
  <defs>
    <path id="-44-a" d="M29.5652833,8.0142689 C27.8154034,11.3463479 23.9296407,16.47548 20.6769228,19.8581075 C16.9270332,23.9226249 8.08705169,29.480904 8.08705169,29.480904 C7.40459854,29.839902 5.51061089,29.8667237 4.98976429,29.345764 L3.10504072,27.4620562 C2.71594978,26.8100828 2.54096179,26.0549491 3.10504072,25.5783483 L6.87551721,22.751755 C7.5137087,22.3195132 8.23939418,22.2318269 8.76024078,22.751755 L11.0834637,25.0728627 C11.6300438,24.6880746 20.3567977,18.9564861 25.2111704,11.0657517 L22.8323631,8.68790592 C22.3115165,8.1679778 22.4000398,7.44172901 22.8323631,6.80316651 L25.6599631,3.0357509 C26.1808097,2.33941861 27.0248694,2.51479118 27.5446867,3.0357509 L29.4304396,4.9194587 C30.1695065,5.61475939 29.9554036,7.23540833 29.5652833,8.0142689 L29.5652833,8.0142689 Z M31.0454758,3.57424787 L28.0830321,0.613546121 C27.2657353,-0.204515374 25.9389146,-0.204515374 25.1205884,0.613546121 L20.6769228,6.53494962 C19.998587,7.53663652 19.859626,8.67758988 20.6769228,9.49565138 L22.4906219,11.3081785 C21.1463024,13.1134845 19.5322955,15.0817838 17.7155084,16.8974058 C15.6609436,18.9502965 13.3758063,20.8164671 11.3212415,22.3494297 L9.56827355,20.5987987 C8.75097671,19.7807373 7.60943742,19.9189721 6.60582984,20.5987987 L0.680942403,25.0398514 C-0.312371768,25.7258676 -0.13738378,27.1824916 0.680942403,28.0005531 L3.64338612,30.9602233 C5.28003849,32.5963463 7.40768656,32.0722917 9.56827355,30.9602233 C9.56827355,30.9602233 16.1076776,27.2918416 21.7062639,21.6964248 C26.9723731,16.4331842 31.0454758,9.49565138 31.0454758,9.49565138 C31.8946822,7.16113289 32.6821282,5.20933926 31.0454758,3.57424787 L31.0454758,3.57424787 Z"/>
  </defs>
  <use fill="#AAA" fill-rule="evenodd" xlink:href="#a"/>
</svg>
