<svg xmlns="http://www.w3.org/2000/svg" xmlns:xlink="http://www.w3.org/1999/xlink" width="32" height="32" viewBox="0 0 32 32">
  <defs>
    <path id="-29-a" d="M28.0004136,13.9876017 L14.0062043,13.9876017 C13.4534331,13.9876017 13.006618,14.4366017 13.006618,14.9886017 C13.006618,15.5416017 13.4534331,15.9896017 14.0062043,15.9896017 L28.0004136,15.9896017 C28.5531849,15.9896017 29,15.5416017 29,14.9886017 C29,14.4366017 28.5531849,13.9876017 28.0004136,13.9876017 L28.0004136,13.9876017 Z M28.0004136,7.98160172 L20.0037226,8.00360172 C19.4509513,8.00360172 19.0041362,8.42960172 19.0041362,8.98260172 C19.0041362,9.53560172 19.4509513,10.0036017 20.0037226,10.0036017 L28.0004136,9.98260172 C28.5531849,9.98260172 29,9.53560172 29,8.98260172 C29,8.42960172 28.5531849,7.98160172 28.0004136,7.98160172 L28.0004136,7.98160172 Z M28.0004136,19.9946017 L14.0062043,19.9946017 C13.4534331,19.9946017 13.006618,20.4426017 13.006618,20.9956017 C13.006618,21.5486017 13.4534331,21.9966017 14.0062043,21.9966017 L28.0004136,21.9966017 C28.5531849,21.9966017 29,21.5486017 29,20.9956017 C29,20.4426017 28.5531849,19.9946017 28.0004136,19.9946017 L28.0004136,19.9946017 Z M16.0053771,4.00360172 L28.0004136,4.00360172 C28.5531849,4.00360172 29,3.52860172 29,2.97660172 C29,2.42260172 28.5531849,1.97460172 28.0004136,1.97460172 L16.0053771,1.97460172 C15.4526058,1.97460172 15.0057907,2.42260172 15.0057907,2.97660172 C15.0057907,3.52860172 15.4526058,4.00360172 16.0053771,4.00360172 L16.0053771,4.00360172 Z M15.6925065,9.70060172 C16.0843444,9.30760172 16.0843444,8.66960172 15.6925065,8.27460172 L8.75337791,0.286601718 C8.54346477,0.0766017178 8.26657935,-0.0133982822 7.99269268,0.0016017178 C7.7198056,-0.0133982822 7.44292017,0.0766017178 7.23300703,0.286601718 L0.293878395,8.27460172 C-0.097959465,8.66960172 -0.097959465,9.30760172 0.293878395,9.70060172 C0.685716255,10.0946017 1.32145319,10.0946017 1.71229147,9.70060172 L7.00909968,3.60460172 L7.00909968,28.0036017 L9.00827244,28.0036017 L9.00827244,3.63960172 L14.2740935,9.70060172 C14.6649318,10.0946017 15.3006687,10.0946017 15.6925065,9.70060172 L15.6925065,9.70060172 Z M28.0004136,26.0036017 L14.0062043,26.0036017 C13.4534331,26.0036017 13.006618,26.4496017 13.006618,27.0026017 C13.006618,27.5556017 13.4534331,28.0036017 14.0062043,28.0036017 L28.0004136,28.0036017 C28.5531849,28.0036017 29,27.5556017 29,27.0026017 C29,26.4496017 28.5531849,26.0036017 28.0004136,26.0036017 L28.0004136,26.0036017 Z"/>
  </defs>
  <use fill="#AAA" fill-rule="evenodd" xlink:href="#a"/>
</svg>
