<svg xmlns="http://www.w3.org/2000/svg" xmlns:xlink="http://www.w3.org/1999/xlink" width="32" height="32" viewBox="0 0 32 32">
  <defs>
    <path id="-28-a" d="M28.0004136,12.014 L14.0062043,12.014 C13.4534331,12.014 13.006618,12.462 13.006618,13.015 C13.006618,13.567 13.4534331,14 14.0062043,14 L28.0004136,14.016 C28.5531849,14.016 29,13.567 29,13.015 C29,12.462 28.5531849,12.014 28.0004136,12.014 L28.0004136,12.014 Z M28.0004136,6.007 L14.0062043,6.007 C13.4534331,6.007 13.006618,6.455 13.006618,7.008 C13.006618,7.561 13.4534331,8 14.0062043,8 L28.0004136,8 C28.5531849,8 29,7.561 29,7.008 C29,6.455 28.5531849,6.007 28.0004136,6.007 L28.0004136,6.007 Z M28.0004136,18.021 L20.0037226,18.021 C19.4509513,18.021 19.0041362,18.469 19.0041362,19.021 C19.0041362,19.574 19.4509513,20 20.0037226,20 L28.0004136,20 C28.5531849,20 29,19.574 29,19.021 C29,18.469 28.5531849,18.021 28.0004136,18.021 L28.0004136,18.021 Z M28.0004136,24.027 L16.0053771,24.027 C15.4526058,24.027 15.0057907,24.476 15.0057907,25.028 C15.0057907,25.581 15.4526058,26.029 16.0053771,26.029 L28.0004136,26 C28.5531849,26 29,25.581 29,25.028 C29,24.476 28.5531849,24.027 28.0004136,24.027 L28.0004136,24.027 Z M14.0062043,2.002 L28.0004136,2 C28.5531849,2 29,1.554 29,1.001 C29,0.448 28.5531849,0 28.0004136,0 L14.0062043,0 C13.4534331,0 13.006618,0.448 13.006618,1.001 C13.006618,1.554 13.4534331,2.002 14.0062043,2.002 L14.0062043,2.002 Z M15.6925065,18.303 C15.3006687,17.909 14.6649318,17.909 14.2740935,18.303 L9.00827244,24.364 L9.00827244,0 L7.00909968,0 L7.00909968,24.4 L1.71229147,18.303 C1.32145319,17.909 0.685716255,17.909 0.293878395,18.303 C-0.097959465,18.697 -0.097959465,19.335 0.293878395,19.729 L7.23300703,27.717 C7.44292017,27.927 7.7198056,28.017 7.99269268,28.002 C8.26657935,28.017 8.54346477,27.927 8.75337791,27.717 L15.6925065,19.729 C16.0843444,19.335 16.0843444,18.697 15.6925065,18.303 L15.6925065,18.303 Z"/>
  </defs>
  <use fill="#AAA" fill-rule="evenodd" xlink:href="#a"/>
</svg>
