<svg xmlns="http://www.w3.org/2000/svg" xmlns:xlink="http://www.w3.org/1999/xlink" width="32" height="32" viewBox="0 0 32 32">
  <defs>
    <path id="-188-a" d="M25.2728507,25.2784227 C24.3045564,26.2442405 22.7357217,26.2442405 21.7661892,25.2784227 L12.9995357,16.5117691 L4.23288209,25.2784227 C3.26458787,26.2442405 1.69451489,26.2442405 0.726220666,25.2784227 C-0.242073555,24.3002226 -0.242073555,22.7400555 0.726220666,21.7618554 L9.49287424,12.9952019 L0.726220666,4.2285483 C-0.242073555,3.26273053 -0.242073555,1.69018109 0.726220666,0.724363325 C1.69451489,-0.241454442 3.26458787,-0.241454442 4.23288209,0.724363325 L12.9995357,9.49101689 L21.7661892,0.724363325 C22.7357217,-0.241454442 24.3045564,-0.241454442 25.2728507,0.724363325 C26.2423831,1.69018109 26.2423831,3.26273053 25.2728507,4.2285483 L16.5061971,12.9952019 L25.2728507,21.7618554 C26.2423831,22.7400555 26.2423831,24.3002226 25.2728507,25.2784227 L25.2728507,25.2784227 Z"/>
  </defs>
  <use fill="#AAA" fill-rule="evenodd" xlink:href="#a"/>
</svg>
