<svg xmlns="http://www.w3.org/2000/svg" xmlns:xlink="http://www.w3.org/1999/xlink" width="32" height="32" viewBox="0 0 32 32">
  <defs>
    <path id="-183-a" d="M20.95,11.05 C20.559,10.66 19.926,10.66 19.536,11.05 L16,14.59 L12.464,11.05 C12.074,10.66 11.441,10.66 11.05,11.05 C10.66,11.44 10.66,12.07 11.05,12.46 L14.586,16 L11.05,19.54 C10.66,19.93 10.66,20.56 11.05,20.95 C11.441,21.34 12.074,21.34 12.464,20.95 L16,17.41 L19.536,20.95 C19.926,21.34 20.559,21.34 20.95,20.95 C21.34,20.56 21.34,19.93 20.95,19.54 L17.414,16 L20.95,12.46 C21.34,12.07 21.34,11.44 20.95,11.05 L20.95,11.05 Z M30,28 C30,29.1 29.104,30 28,30 L4,30 C2.896,30 2,29.1 2,28 L2,4 C2,2.9 2.896,2 4,2 L28,2 C29.104,2 30,2.9 30,4 L30,28 L30,28 Z M4,0 C1.791,0 0,1.79 0,4 L0,28 C0,30.21 1.791,32 4,32 L28,32 C30.209,32 32,30.21 32,28 L32,4 C32,1.79 30.209,0 28,0 L4,0 Z"/>
  </defs>
  <use fill="#AAA" fill-rule="evenodd" xlink:href="#a"/>
</svg>
