<svg xmlns="http://www.w3.org/2000/svg" xmlns:xlink="http://www.w3.org/1999/xlink" width="32" height="32" viewBox="0 0 32 32">
  <defs>
    <path id="-200-a" d="M16,30 C8.268,30 2,23.73 2,16 C2,8.27 8.268,2 16,2 C23.732,2 30,8.27 30,16 C30,23.73 23.732,30 16,30 L16,30 Z M16,0 C7.163,0 0,7.16 0,16 C0,24.84 7.163,32 16,32 C24.837,32 32,24.84 32,16 C32,7.16 24.837,0 16,0 L16,0 Z M21.717,10.28 C21.323,9.89 20.686,9.89 20.292,10.28 L15.994,14.58 L11.758,10.34 C11.367,9.95 10.733,9.95 10.344,10.34 C9.953,10.73 9.953,11.37 10.344,11.76 L14.58,15.99 L10.314,20.26 C9.921,20.65 9.921,21.29 10.314,21.69 C10.708,22.08 11.346,22.08 11.74,21.69 L16.006,17.42 L20.242,21.66 C20.633,22.05 21.267,22.05 21.657,21.66 C22.048,21.27 22.048,20.63 21.657,20.24 L17.42,16.01 L21.717,11.71 C22.11,11.31 22.11,10.68 21.717,10.28 L21.717,10.28 Z"/>
  </defs>
  <use fill="#AAA" fill-rule="evenodd" xlink:href="#a"/>
</svg>
