<svg xmlns="http://www.w3.org/2000/svg" xmlns:xlink="http://www.w3.org/1999/xlink" width="32" height="32" viewBox="0 0 32 32">
  <defs>
    <path id="-53-a" d="M10,14 C7.791,14 6,12.209 6,10 C6,7.791 7.791,6 10,6 C12.209,6 14,7.791 14,10 C14,12.209 12.209,14 10,14 L10,14 Z M10,4 C6.687,4 4,6.687 4,10 C4,13.313 6.687,16 10,16 C13.314,16 16,13.313 16,10 C16,6.687 13.314,4 10,4 L10,4 Z M22,18 L10,18 C5.582,18 2,14.418 2,10 C2,5.582 5.582,2 10,2 L22,2 C26.418,2 30,5.582 30,10 C30,14.418 26.418,18 22,18 L22,18 Z M22,0 L10,0 C4.477,0 0,4.478 0,10 C0,15.522 4.477,20 10,20 L22,20 C27.523,20 32,15.522 32,10 C32,4.478 27.523,0 22,0 L22,0 Z"/>
  </defs>
  <use fill="#AAA" fill-rule="evenodd" xlink:href="#a"/>
</svg>
