<svg xmlns="http://www.w3.org/2000/svg" xmlns:xlink="http://www.w3.org/1999/xlink" width="32" height="32" viewBox="0 0 32 32">
  <defs>
    <path id="-54-a" d="M22,18 L10,18 C5.582,18 2,14.418 2,10 C2,5.582 5.582,2 10,2 L22,2 C26.418,2 30,5.582 30,10 C30,14.418 26.418,18 22,18 L22,18 Z M22,0 L10,0 C4.477,0 0,4.478 0,10 C0,15.522 4.477,20 10,20 L22,20 C27.523,20 32,15.522 32,10 C32,4.478 27.523,0 22,0 L22,0 Z M22,14 C19.791,14 18,12.209 18,10 C18,7.791 19.791,6 22,6 C24.209,6 26,7.791 26,10 C26,12.209 24.209,14 22,14 L22,14 Z M22,4 C18.687,4 16,6.687 16,10 C16,13.313 18.687,16 22,16 C25.313,16 28,13.313 28,10 C28,6.687 25.313,4 22,4 L22,4 Z"/>
  </defs>
  <use fill="#AAA" fill-rule="evenodd" xlink:href="#a"/>
</svg>
