<svg xmlns="http://www.w3.org/2000/svg" xmlns:xlink="http://www.w3.org/1999/xlink" width="32" height="32" viewBox="0 0 32 32">
  <defs>
    <path id="-121-a" d="M30.9333333,0 L1.06666667,0 C0.477866667,0 0,0.482394713 0,1.07677391 L0,9.69096523 C0,10.2864212 0.477866667,10.7677391 1.06666667,10.7677391 C1.65546667,10.7677391 2.13333333,10.2864212 2.13333333,9.69096523 L2.13333333,2.15354783 L29.8666667,2.15354783 L29.8666667,9.69096523 C29.8666667,10.2864212 30.3445333,10.7677391 30.9333333,10.7677391 C31.5221333,10.7677391 32,10.2864212 32,9.69096523 L32,1.07677391 C32,0.48131794 31.5221333,0 30.9333333,0 L30.9333333,0 Z M20.5514667,19.7049626 L17.0666667,23.9689873 L17.0666667,8.61634486 C17.0666667,8.02088889 16.5888,7.5374174 16,7.5374174 C15.4112,7.5374174 14.9333333,8.02088889 14.9333333,8.61634486 L14.9333333,24.0099047 L11.4154667,19.7049626 C10.9973333,19.2796369 10.3189333,19.2796369 9.9008,19.7049626 C9.48266667,20.1281348 9.48266667,20.8161933 9.9008,21.2404422 L15.1722667,27.6913947 C15.3952,27.9175173 15.6906667,28.0144269 15.9829333,27.9982753 C16.2752,28.0144269 16.5717333,27.9175173 16.7946667,27.6913947 L22.0661333,21.2404422 C22.4842667,20.8161933 22.4842667,20.1281348 22.0661333,19.7049626 C21.648,19.2796369 20.9696,19.2796369 20.5514667,19.7049626 L20.5514667,19.7049626 Z"/>
  </defs>
  <use fill="#AAA" fill-rule="evenodd" xlink:href="#a"/>
</svg>
