<svg xmlns="http://www.w3.org/2000/svg" xmlns:xlink="http://www.w3.org/1999/xlink" width="32" height="32" viewBox="0 0 32 32">
  <defs>
    <path id="-120-a" d="M11.4474667,8.29503737 L14.9333333,4.03101267 L14.9333333,19.3836551 C14.9333333,19.9801879 15.4101333,20.4625826 16,20.4625826 C16.5898667,20.4625826 17.0666667,19.9801879 17.0666667,19.3836551 L17.0666667,3.99009527 L20.5856,8.29503737 C21.0026667,8.72036307 21.6810667,8.72036307 22.1002667,8.29503737 C22.5173333,7.87186523 22.5173333,7.18380669 22.1002667,6.75955777 L16.8277333,0.308605253 C16.6037333,0.0824827315 16.3082667,-0.0144269208 16.0170667,0.00172468794 C15.7248,-0.0144269208 15.4293333,0.0824827315 15.2064,0.308605253 L9.93386667,6.75955777 C9.51573333,7.18380669 9.51573333,7.87186523 9.93386667,8.29503737 C10.352,8.72036307 11.0304,8.72036307 11.4474667,8.29503737 L11.4474667,8.29503737 Z M30.9333333,17.2322609 C30.3434667,17.2322609 29.8666667,17.7146556 29.8666667,18.3090348 L29.8666667,25.8464522 L2.13333333,25.8464522 L2.13333333,18.3090348 C2.13333333,17.7146556 1.65653333,17.2322609 1.06666667,17.2322609 C0.4768,17.2322609 0,17.7146556 0,18.3090348 L0,26.9232261 C0,27.5186821 0.4768,28 1.06666667,28 L30.9333333,28 C31.5232,28 32,27.5186821 32,26.9232261 L32,18.3090348 C32,17.7146556 31.5232,17.2322609 30.9333333,17.2322609 L30.9333333,17.2322609 Z"/>
  </defs>
  <use fill="#AAA" fill-rule="evenodd" xlink:href="#a"/>
</svg>
