<svg xmlns="http://www.w3.org/2000/svg" xmlns:xlink="http://www.w3.org/1999/xlink" width="32" height="32" viewBox="0 0 32 32">
  <defs>
    <path id="-129-a" d="M22,26 C23.104,26 24,26.896 24,28 C24,29.104 23.104,30 22,30 C20.896,30 20,29.104 20,28 C20,26.896 20.896,26 22,26 L22,26 Z M18,28 C18,30.209 19.791,32 22,32 C24.209,32 26,30.209 26,28 C26,25.791 24.209,24 22,24 C19.791,24 18,25.791 18,28 L18,28 Z M6,6 L30,6 L27.443,16.229 L6,18 L6,6 L6,6 Z M8,22 C6.896,22 6,21.104 6,20 L29,18 C29,18 32,5.875 32,5 C32,4.447 31.553,4 31,4 L6,4 L6,2 L7,2 C7.553,2 8,1.553 8,1 C8,0.448 7.553,0 7,0 L1,0 C0.447,0 0,0.448 0,1 C0,1.553 0.447,2 1,2 L4,2 L4,20 C4,22.209 5.791,24 8,24 L31,24 C31.031,24 31,23.009 31,22 L8,22 L8,22 Z M10,26 C11.104,26 12,26.896 12,28 C12,29.104 11.104,30 10,30 C8.896,30 8,29.104 8,28 C8,26.896 8.896,26 10,26 L10,26 Z M6,28 C6,30.209 7.791,32 10,32 C12.209,32 14,30.209 14,28 C14,25.791 12.209,24 10,24 C7.791,24 6,25.791 6,28 L6,28 Z"/>
  </defs>
  <use fill="#AAA" fill-rule="evenodd" xlink:href="#a"/>
</svg>
