<svg xmlns="http://www.w3.org/2000/svg" xmlns:xlink="http://www.w3.org/1999/xlink" width="32" height="32" viewBox="0 0 32 32">
  <defs>
    <path id="-86-a" d="M30,27.998595 C30,29.1029828 29.104,29.9992975 28,29.9992975 L4,29.9992975 C2.896,29.9992975 2,29.1029828 2,27.998595 L2,11.9929751 C2,10.8885873 2.896,9.99227262 4,9.99227262 L28,9.99227262 C29.104,9.99227262 30,10.8885873 30,11.9929751 L30,27.998595 L30,27.998595 Z M28,7.99157013 L18.746,7.99157013 L27.518,1.95445037 C27.981,1.63533832 28.113,0.977107203 27.813,0.484934391 C27.514,-0.00723842141 26.895,-0.148287947 26.431,0.1708241 C26.431,0.1708241 16.821,6.80815461 16.009,7.29832672 L5.569,0.1708241 C5.106,-0.148287947 4.486,-0.00723842141 4.187,0.484934391 C3.887,0.977107203 4.019,1.63533832 4.482,1.95445037 L13.254,7.99157013 L4,7.99157013 C1.791,7.99157013 0,9.78319921 0,11.9929751 L0,27.998595 C0,30.2083709 1.791,32 4,32 L28,32 C30.209,32 32,30.2083709 32,27.998595 L32,11.9929751 C32,9.78319921 30.209,7.99157013 28,7.99157013 L28,7.99157013 Z M27,22.9968388 L23,22.9968388 C22.447,22.9968388 22,23.4439958 22,23.99719 C22,24.5503843 22.447,24.9975413 23,24.9975413 L27,24.9975413 C27.553,24.9975413 28,24.5503843 28,23.99719 C28,23.4439958 27.553,22.9968388 27,22.9968388 L27,22.9968388 Z M18,24.9975413 C18,25.5507355 17.553,25.9978925 17,25.9978925 L7,25.9978925 C6.447,25.9978925 6,25.5507355 6,24.9975413 L6,14.9940288 C6,14.441835 6.447,13.9936776 7,13.9936776 L17,13.9936776 C17.553,13.9936776 18,14.441835 18,14.9940288 L18,24.9975413 L18,24.9975413 Z M18,11.9929751 L6,11.9929751 C4.896,11.9929751 4,12.8892898 4,13.9936776 L4,25.9978925 C4,27.1022803 4.896,27.998595 6,27.998595 L18,27.998595 C19.104,27.998595 20,27.1022803 20,25.9978925 L20,13.9936776 C20,12.8892898 19.104,11.9929751 18,11.9929751 L18,11.9929751 Z M27,25.9978925 L23,25.9978925 C22.447,25.9978925 22,26.4450495 22,26.9982438 C22,27.551438 22.447,27.998595 23,27.998595 L27,27.998595 C27.553,27.998595 28,27.551438 28,26.9982438 C28,26.4450495 27.553,25.9978925 27,25.9978925 L27,25.9978925 Z M24,13.9936776 L26,13.9936776 L26,15.9943801 L24,15.9943801 L24,13.9936776 Z M25,11.9929751 C23.343,11.9929751 22,13.3364468 22,14.9940288 C22,16.6516109 23.343,17.9950826 25,17.9950826 C26.657,17.9950826 28,16.6516109 28,14.9940288 C28,13.3364468 26.657,11.9929751 25,11.9929751 L25,11.9929751 Z"/>
  </defs>
  <use fill="#AAA" fill-rule="evenodd" xlink:href="#a"/>
</svg>
