<svg xmlns="http://www.w3.org/2000/svg" xmlns:xlink="http://www.w3.org/1999/xlink" width="32" height="32" viewBox="0 0 32 32">
  <defs>
    <path id="-twitter-a" d="M18.6891756,10.150976 C17.2922356,10.6594173 16.4093695,11.970066 16.5099492,13.4050004 L16.5434758,13.9586365 L15.9846998,13.8908443 C13.9507552,13.6309743 12.1738476,12.7496761 10.6651524,11.2695469 L9.92756813,10.5351317 L9.7375843,11.0774691 C9.33526559,12.2864295 9.59230254,13.5631822 10.4304665,14.421883 C10.8774873,14.8964283 10.7769076,14.9642204 10.0057968,14.681753 C9.7375843,14.5913635 9.50289839,14.5235713 9.48054735,14.5574674 C9.40231871,14.6365583 9.67053118,15.6647396 9.88286605,16.0714926 C10.1734296,16.6364274 10.7657321,17.1900635 11.4139122,17.5177257 L11.9615127,17.7775957 L11.3133326,17.7888944 C10.6875035,17.7888944 10.6651524,17.8001931 10.7322055,18.0374657 C10.9557159,18.7718809 11.838582,19.551491 12.8220277,19.8904518 L13.5149099,20.1277244 L12.9114319,20.4892827 C12.0173903,21.0090227 10.9668915,21.3027888 9.91639261,21.3253862 C9.41349423,21.3366849 9,21.3818797 9,21.4157758 C9,21.5287627 10.3634134,22.1614897 11.1568753,22.410061 C13.537261,23.1444762 16.3646675,22.8281128 18.4880162,21.5739575 C19.9967114,20.6813605 21.5054065,18.9074653 22.2094643,17.1900635 C22.5894319,16.2748692 22.9693996,14.6026622 22.9693996,13.8004548 C22.9693996,13.2807148 23.0029262,13.2129226 23.6287553,12.5914943 C23.9975474,12.229936 24.3439885,11.8344817 24.4110416,11.7214947 C24.5227968,11.5068195 24.5116213,11.5068195 23.9416698,11.6988973 C22.9917506,12.0378582 22.8576444,11.9926634 23.3270162,11.4842221 C23.6734573,11.1226639 24.0869516,10.4673395 24.0869516,10.2752617 C24.0869516,10.2413656 23.9193188,10.2978591 23.7293349,10.3995473 C23.5281756,10.5125343 23.0811548,10.6820147 22.7458892,10.783703 L22.1424111,10.9757808 L21.5948107,10.6029238 C21.2930716,10.3995473 20.8684019,10.1735734 20.6448915,10.1057812 C20.07494,9.94759949 19.2032495,9.97019688 18.6891756,10.150976 L18.6891756,10.150976 Z M16,30 C23.7319869,30 30,23.7319869 30,16 C30,8.26801307 23.7319869,2 16,2 C8.26801307,2 2,8.26801307 2,16 C2,23.7319869 8.26801307,30 16,30 Z M16,32 C7.16344357,32 0,24.8365564 0,16 C0,7.16344357 7.16344357,0 16,0 C24.8365564,0 32,7.16344357 32,16 C32,24.8365564 24.8365564,32 16,32 Z"/>
  </defs>
  <use fill="#AAA" fill-rule="evenodd" xlink:href="#a"/>
</svg>
