<svg xmlns="http://www.w3.org/2000/svg" xmlns:xlink="http://www.w3.org/1999/xlink" width="32" height="32" viewBox="0 0 32 32">
  <defs>
    <path id="-211-a" d="M14.9279548,17.1433669 C14.1771607,17.1433669 11.460985,17.1662057 11.460985,17.1662057 L11.460985,23.2984209 L2.67072427,13.7175484 L11.460985,4.12525649 L11.460985,10.3031493 C11.460985,10.3031493 14.3309931,10.2688911 14.9279548,10.2917299 C23.0351536,10.5429566 28.6649614,19.7241502 28.7016975,24.0178428 C26.2243066,20.8546704 19.7151282,17.1433669 14.9279548,17.1433669 L14.9279548,17.1433669 Z M13.7604355,8.01927023 L13.7604355,1.2818271 C13.7994676,0.939245249 13.7064793,0.596663395 13.4447346,0.334017308 C12.9901253,-0.111339103 12.2531072,-0.111339103 11.798498,0.334017308 L0.331093683,12.8496744 C0.0888650016,13.0894817 -0.0144552892,13.3978053 0.00161675604,13.7175484 C-0.0144552892,14.0258721 0.0888650016,14.3456151 0.331093683,14.5854224 L11.7353578,27.0211437 C11.9465904,27.2837898 12.2531072,27.4550807 12.6101362,27.4550807 C12.9361692,27.4550807 13.226614,27.318048 13.4355506,27.1010795 C13.4378466,27.1010795 13.4424386,27.1010795 13.4447346,27.0896601 C13.7064793,26.8384334 13.7994676,26.4844322 13.7604355,26.1532697 C13.7604355,26.1532697 13.7799515,19.8155054 13.7799515,19.427246 C21.3567729,19.427246 28.2092041,24.8514586 29.569588,32 C30.4856946,29.8988313 31,27.5921135 31,25.1597823 C31,15.6931038 23.2808263,8.01927023 13.7604355,8.01927023 L13.7604355,8.01927023 Z"/>
  </defs>
  <use fill="#AAA" fill-rule="evenodd" xlink:href="#a"/>
</svg>
