<svg xmlns="http://www.w3.org/2000/svg" xmlns:xlink="http://www.w3.org/1999/xlink" width="32" height="32" viewBox="0 0 32 32">
  <defs>
    <path id="-46-a" d="M20,25.5 C20,27.985 17.802,30 15.091,30 L6.909,30 C4.198,30 2,27.985 2,25.5 L2,22.5 C2,20.374 3.613,18.604 5.775,18.133 C7.25,19.304 9.05,20 11,20 C12.95,20 14.75,19.304 16.225,18.133 C18.387,18.604 20,20.374 20,22.5 L20,25.5 L20,25.5 Z M4,10 C4,5.582 7.134,2 11,2 C14.866,2 18,5.582 18,10 C18,14.418 14.866,18 11,18 C7.134,18 4,14.418 4,10 L4,10 Z M17.951,16.353 C19.23,14.625 20,12.412 20,10 C20,4.478 15.971,0 11,0 C6.029,0 2,4.478 2,10 C2,12.412 2.77,14.625 4.049,16.353 C1.699,17.165 0,19.373 0,22 L0,26 C0,29.313 2.687,32 6,32 L16,32 C19.313,32 22,29.313 22,26 L22,22 C22,19.373 20.301,17.165 17.951,16.353 L17.951,16.353 Z"/>
  </defs>
  <use fill="#AAA" fill-rule="evenodd" xlink:href="#a"/>
</svg>
