<svg xmlns="http://www.w3.org/2000/svg" xmlns:xlink="http://www.w3.org/1999/xlink" width="32" height="32" viewBox="0 0 32 32">
  <defs>
    <path id="-240-a" d="M26.4679421,6.39624928 C24.7077504,5.5145737 22.9594803,5.20614124 21.9371097,5.09834388 L21.9371097,3.62903124 C21.9371097,1.62802304 20.3119457,0 18.3144516,0 L3.62265808,0 C1.62510123,-6.28556056e-05 0,1.62796018 0,3.62896839 L0,18.3467341 C0,20.3478052 1.62510123,21.9758282 3.62265808,21.9758282 L4.1331532,21.9758282 C4.2946594,22.6624629 4.64151498,23.3138355 5.17497485,23.848171 C5.91624689,24.5909357 6.90166059,25 7.94975676,25 C8.99779019,25 9.98320389,24.5909357 10.7245387,23.848171 C11.2579985,23.3138355 11.6049169,22.6624629 11.7663603,21.9758282 L20.2336397,21.9758282 C20.3950831,22.6624629 20.7420642,23.3138355 21.2754613,23.848171 C22.0167334,24.5909357 23.0022098,25 24.0502432,25 C25.0983394,25 26.0836904,24.5909357 26.8250251,23.848171 C27.358485,23.3138355 27.7054033,22.6624629 27.8668468,21.9758282 L31.0943355,21.9758282 C31.5944776,21.9758282 32,21.5695925 32,21.0685076 L32,16.0281166 C32.0000627,10.3574724 28.9916804,7.66021265 26.4679421,6.39624928 L26.4679421,6.39624928 Z M9.44384597,22.5652881 C9.04459813,22.9651755 8.51389905,23.1854844 7.94975676,23.1854844 C7.38561448,23.1854844 6.85497815,22.9651755 6.45560481,22.5652881 C6.05641972,22.1652122 5.83649772,21.6336423 5.83649772,21.0685076 C5.83649772,20.5034357 6.05641972,19.971803 6.45560481,19.5717899 C6.8549154,19.1719025 7.38555174,18.9515936 7.94975676,18.9515936 C8.5138363,18.9515936 9.04453538,19.1719025 9.44384597,19.5717899 C9.84303106,19.9717401 10.0629531,20.5033728 10.0629531,21.0685076 C10.0629531,21.6336423 9.84303106,22.1652122 9.44384597,22.5652881 L9.44384597,22.5652881 Z M25.5443952,22.5652881 C25.1450846,22.9651755 24.6144483,23.1854844 24.0502432,23.1854844 C23.4861637,23.1854844 22.9554646,22.9651755 22.556154,22.5652881 C22.1569689,22.1652122 21.9370469,21.6336423 21.9370469,21.0685076 C21.9370469,20.5034357 22.1569689,19.971803 22.556154,19.5717899 C22.9554019,19.1719025 23.486101,18.9515936 24.0502432,18.9515936 C24.6143855,18.9515936 25.1450219,19.1719025 25.5443952,19.5717899 C25.9435803,19.9717401 26.1635023,20.5033728 26.1635023,21.0685076 C26.1635023,21.6336423 25.943643,22.1652122 25.5443952,22.5652881 L25.5443952,22.5652881 Z M30.1887337,20.1613126 L27.8669095,20.1613126 C27.7054661,19.474678 27.3585478,18.8233054 26.8250879,18.288907 C26.0838159,17.5462052 25.0984022,17.1371409 24.050306,17.1371409 C23.0022726,17.1371409 22.0168589,17.5462052 21.2755241,18.288907 C20.7420015,18.8233054 20.3951459,19.474678 20.2337024,20.1613126 L11.7663603,20.1613126 C11.6049169,19.474678 11.2579985,18.8233054 10.7245387,18.288907 C9.98326663,17.5462052 8.99779019,17.1371409 7.94975676,17.1371409 C6.90166059,17.1371409 5.91630964,17.5462052 5.17497485,18.288907 C4.64145224,18.8233054 4.29459666,19.474678 4.1331532,20.1613126 L3.62265808,20.1613126 C2.62381691,20.1613126 1.81132904,19.3473954 1.81132904,18.3467341 L1.81132904,3.62896839 C1.81132904,2.62837 2.62381691,1.81445277 3.62265808,1.81445277 L18.3143889,1.81445277 C19.31323,1.81445277 20.1257179,2.62837 20.1257179,3.62896839 L20.1257179,15.1208588 C20.1257179,15.6218808 20.5312403,16.0281166 21.0313824,16.0281166 C21.5315873,16.0281166 21.9371097,15.6218808 21.9371097,15.1208588 L21.9371097,6.92448779 C22.8230095,7.032788 24.2415534,7.3097298 25.6579013,8.01924387 C28.6644013,9.5249499 30.1887337,12.2195697 30.1887337,16.0281166 L30.1887337,20.1613126 Z"/>
  </defs>
  <use fill="#AAA" fill-rule="evenodd" xlink:href="#a"/>
</svg>
