<svg xmlns="http://www.w3.org/2000/svg" xmlns:xlink="http://www.w3.org/1999/xlink" width="32" height="32" viewBox="0 0 32 32">
  <defs>
    <path id="-94-a" d="M14,24.0098674 L7,19.6303314 L7,8.36866755 L14,3.9891316 L14,24.0098674 L14,24.0098674 Z M5,17.0026098 C5,17.5561832 4.552,18.0036466 4,18.0036466 L3,18.0036466 C2.448,18.0036466 2,17.5561832 2,17.0026098 L2,10.9963891 C2,10.4438168 2.448,9.99535233 3,9.99535233 L4,9.99535233 C4.552,9.99535233 5,10.4438168 5,10.9963891 L5,17.0026098 L5,17.0026098 Z M14,1.98705802 L5,7.99327875 L2,7.99327875 C0.896,7.99327875 0,8.89020772 0,9.99535233 L0,18.0036466 C0,19.1087912 0.896,20.0057202 2,20.0057202 L5,20.0057202 L14,26.0119409 C15.104,26.0119409 16,25.115012 16,24.0098674 L16,3.9891316 C16,2.88398699 15.104,1.98705802 14,1.98705802 L14,1.98705802 Z M25,13.9994995 C25,10.4728469 22.388,7.58285367 19,7.09334668 L19,9.09542026 C21.282,9.55890029 23,11.5779915 23,13.9994995 C23,16.4210075 21.282,18.4400987 19,18.9035787 L19,20.9056523 C22.388,20.4161453 25,17.5261521 25,13.9994995 L25,13.9994995 Z M19,0 L19,2.05512853 C24.872,3.18730113 29,7.98126631 29,13.9994995 C29,19.9836974 25,24.6194988 19,25.9438704 L19,28 C25.776,27.0069715 31,21.1499053 31,13.9994995 C31,6.8490937 25.776,0.992027457 19,0 L19,0 Z"/>
  </defs>
  <use fill="#AAA" fill-rule="evenodd" xlink:href="#a"/>
</svg>
