<svg xmlns="http://www.w3.org/2000/svg" xmlns:xlink="http://www.w3.org/1999/xlink" width="32" height="32" viewBox="0 0 32 32">
  <defs>
    <path id="-134-a" d="M28,18.0628636 L23,18.0628636 C22.448,18.0628636 22,18.508852 22,19.0583734 L22,23.0404123 C22,23.5909292 22.448,24.0359221 23,24.0359221 L28,24.0359221 L28,29.0134708 C28,29.5639877 27.552,30.0089805 27,30.0089805 L3,30.0089805 C2.448,30.0089805 2,29.5639877 2,29.0134708 L2,10.0987857 L27,10.0987857 C27.552,10.0987857 28,10.5437785 28,11.0942954 L28,18.0628636 L28,18.0628636 Z M28,21.0493928 L28,22.0449026 L24,22.0449026 L24,21.0493928 L24,20.0538831 L28,20.0538831 L28,21.0493928 L28,21.0493928 Z M26,2.13470775 L26,8.1077662 L6.5,8.1077662 L26,2.13470775 L26,2.13470775 Z M28,8.1077662 L28,1.13919801 C28,0.588681119 27.764,0.284055138 27.25,0.0819666604 C26.854,-0.074328369 26.469,0.0192495467 26,0.143688264 L0,8.1077662 L0,30.0089805 C0,31.1080233 0.896,32 2,32 L28,32 C29.104,32 30,31.1080233 30,30.0089805 L30,10.0987857 C30,8.99974293 29.104,8.1077662 28,8.1077662 L28,8.1077662 Z"/>
  </defs>
  <use fill="#AAA" fill-rule="evenodd" xlink:href="#a"/>
</svg>
