<svg xmlns="http://www.w3.org/2000/svg" xmlns:xlink="http://www.w3.org/1999/xlink" width="32" height="32" viewBox="0 0 32 32">
  <defs>
    <path id="-whatsapp-a" d="M18.5429687,16.9069767 C18.6445318,16.9069767 19.0253873,17.0775177 19.6855469,17.4186047 C20.3457064,17.7596916 20.6953123,17.9651159 20.734375,18.0348837 C20.7500001,18.0736436 20.7578125,18.1317826 20.7578125,18.2093023 C20.7578125,18.4651176 20.6914069,18.7596883 20.5585937,19.0930233 C20.4335931,19.3953503 20.1562521,19.6492238 19.7265625,19.8546512 C19.2968729,20.0600785 18.8984393,20.1627907 18.53125,20.1627907 C18.0859353,20.1627907 17.3437552,19.922483 16.3046875,19.4418605 C15.5390587,19.0930215 14.8750028,18.6356617 14.3125,18.0697674 C13.7499972,17.5038731 13.171878,16.786826 12.578125,15.9186047 C12.0156222,15.0891431 11.7382812,14.3372127 11.7460937,13.6627907 L11.7460937,13.5697674 C11.7695314,12.8643376 12.058591,12.2519406 12.6132812,11.7325581 C12.8007822,11.5620147 13.0039052,11.4767442 13.2226562,11.4767442 C13.2695315,11.4767442 13.3398433,11.4825581 13.4335937,11.494186 C13.5273442,11.505814 13.6015622,11.5116279 13.65625,11.5116279 C13.8046882,11.5116279 13.9082028,11.5368215 13.9667969,11.5872093 C14.0253909,11.6375972 14.0859372,11.7441852 14.1484375,11.9069767 C14.2109378,12.0620163 14.3398428,12.4030981 14.5351562,12.9302326 C14.7304697,13.457367 14.828125,13.7480617 14.828125,13.8023256 C14.828125,13.9651171 14.6933607,14.1879831 14.4238281,14.4709302 C14.1542955,14.7538774 14.0195312,14.9341081 14.0195312,15.0116279 C14.0195312,15.0658917 14.0390623,15.1240307 14.078125,15.1860465 C14.3437513,15.7519408 14.7421848,16.2829433 15.2734375,16.7790698 C15.7109397,17.1899245 16.3007775,17.5813935 17.0429687,17.9534884 C17.1367192,18.0077522 17.2226559,18.0348837 17.3007812,18.0348837 C17.4179693,18.0348837 17.6289047,17.8469011 17.9335937,17.4709302 C18.2382828,17.0949594 18.4414057,16.9069767 18.5429687,16.9069767 Z M16.1640625,23.0697674 C17.156255,23.0697674 18.1074173,22.8759709 19.0175781,22.4883721 C19.9277389,22.1007733 20.7109342,21.5813986 21.3671875,20.9302326 C22.0234408,20.2790665 22.546873,19.5019425 22.9375,18.5988372 C23.328127,17.6957319 23.5234375,16.7519429 23.5234375,15.7674419 C23.5234375,14.7829408 23.328127,13.8391518 22.9375,12.9360465 C22.546873,12.0329412 22.0234408,11.2558172 21.3671875,10.6046512 C20.7109342,9.95348512 19.9277389,9.43411047 19.0175781,9.04651163 C18.1074173,8.65891279 17.156255,8.46511628 16.1640625,8.46511628 C15.17187,8.46511628 14.2207077,8.65891279 13.3105469,9.04651163 C12.4003861,9.43411047 11.6171908,9.95348512 10.9609375,10.6046512 C10.3046842,11.2558172 9.78125195,12.0329412 9.390625,12.9360465 C8.99999805,13.8391518 8.8046875,14.7829408 8.8046875,15.7674419 C8.8046875,17.3410931 9.27343281,18.7674355 10.2109375,20.0465116 L9.28515625,22.755814 L12.1210938,21.8604651 C13.3554749,22.6666707 14.7031177,23.0697674 16.1640625,23.0697674 Z M16.1640625,7 C17.359381,7 18.5019477,7.23255581 19.5917969,7.69767442 C20.6816461,8.16279302 21.6210898,8.78681779 22.4101563,9.56976744 C23.1992227,10.3527171 23.8281227,11.2848783 24.296875,12.3662791 C24.7656273,13.4476798 25,14.5813894 25,15.7674419 C25,16.9534943 24.7656273,18.0872039 24.296875,19.1686047 C23.8281227,20.2500054 23.1992227,21.1821666 22.4101563,21.9651163 C21.6210898,22.7480659 20.6816461,23.3720907 19.5917969,23.8372093 C18.5019477,24.3023279 17.359381,24.5348837 16.1640625,24.5348837 C14.6406174,24.5348837 13.2148504,24.1705463 11.8867188,23.4418605 L7,25 L8.59375,20.2906977 C7.74999578,18.9108458 7.328125,17.403109 7.328125,15.7674419 C7.328125,14.5813894 7.56249766,13.4476798 8.03125,12.3662791 C8.50000234,11.2848783 9.1289023,10.3527171 9.91796875,9.56976744 C10.7070352,8.78681779 11.6464789,8.16279302 12.7363281,7.69767442 C13.8261773,7.23255581 14.968744,7 16.1640625,7 Z M16,30 C23.7319869,30 30,23.7319869 30,16 C30,8.26801307 23.7319869,2 16,2 C8.26801307,2 2,8.26801307 2,16 C2,23.7319869 8.26801307,30 16,30 Z M16,32 C7.16344357,32 0,24.8365564 0,16 C0,7.16344357 7.16344357,0 16,0 C24.8365564,0 32,7.16344357 32,16 C32,24.8365564 24.8365564,32 16,32 Z"/>
  </defs>
  <use fill="#AAA" fill-rule="evenodd" xlink:href="#a"/>
</svg>
