<svg xmlns="http://www.w3.org/2000/svg" xmlns:xlink="http://www.w3.org/1999/xlink" width="32" height="32" viewBox="0 0 32 32">
  <defs>
    <path id="-138-a" d="M29.8666667,10.7370667 C29.8666667,11.6021333 29.7973333,11.7333333 28.8,11.7333333 L25.6,12.0533333 L25.6,3.94666667 L28.8,4.26666667 C29.7973333,4.26666667 29.8666667,4.39786667 29.8666667,5.26293333 L29.8666667,10.7370667 L29.8666667,10.7370667 Z M23.4666667,12.2666667 L17.0666667,12.9066667 L17.0666667,3.09333333 L23.4666667,3.73333333 L23.4666667,12.2666667 L23.4666667,12.2666667 Z M14.9333333,13.12 L7.46666667,13.8666667 C6.46933333,13.8666667 6.4,13.6650667 6.4,12.8 L6.4,3.2 C6.4,2.336 6.46933333,2.13333333 7.46666667,2.13333333 L14.9333333,2.88 L14.9333333,13.12 L14.9333333,13.12 Z M29.8666667,2.13333333 L6.4,0 C5.2224,0 4.26666667,0.955733333 4.26666667,2.13333333 L4.26666667,13.8666667 C4.26666667,15.0442667 5.2224,16 6.4,16 L29.8666667,13.8666667 C31.0442667,13.8666667 32,12.9109333 32,11.7333333 L32,4.26666667 C32,3.08906667 31.0442667,2.13333333 29.8666667,2.13333333 L29.8666667,2.13333333 Z M1.06666667,0 C0.4768,0 0,0.477866667 0,1.06666667 L0,30.9333333 C0,31.5232 0.4768,32 1.06666667,32 C1.65653333,32 2.13333333,31.5232 2.13333333,30.9333333 L2.13333333,1.06666667 C2.13333333,0.477866667 1.65653333,0 1.06666667,0 L1.06666667,0 Z"/>
  </defs>
  <use fill="#AAA" fill-rule="evenodd" xlink:href="#a"/>
</svg>
