<svg xmlns="http://www.w3.org/2000/svg" xmlns:xlink="http://www.w3.org/1999/xlink" width="32" height="32" viewBox="0 0 32 32">
  <defs>
    <path id="-90-a" d="M27,4 C26.447,4 26,4.447 26,5 C26,5.553 26.447,6 27,6 C27.553,6 28,5.553 28,5 C28,4.447 27.553,4 27,4 L27,4 Z M30,28 C30,29.104 29.104,30 28,30 L4,30 C2.896,30 2,29.104 2,28 L2,4 C2,2.896 2.896,2 4,2 L28,2 C29.104,2 30,2.896 30,4 L30,28 L30,28 Z M28,0 L4,0 C1.791,0 0,1.791 0,4 L0,28 C0,30.209 1.791,32 4,32 L28,32 C30.209,32 32,30.209 32,28 L32,4 C32,1.791 30.209,0 28,0 L28,0 Z M16,20 C13.791,20 12,18.209 12,16 C12,13.791 13.791,12 16,12 C18.209,12 20,13.791 20,16 C20,18.209 18.209,20 16,20 L16,20 Z M16,10 C12.687,10 10,12.687 10,16 C10,19.313 12.687,22 16,22 C19.313,22 22,19.313 22,16 C22,12.687 19.313,10 16,10 L16,10 Z M16,26 C10.478,26 6,21.523 6,16 C6,10.478 10.478,6 16,6 C21.522,6 26,10.478 26,16 C26,21.523 21.522,26 16,26 L16,26 Z M16,4 C9.373,4 4,9.373 4,16 C4,22.628 9.373,28 16,28 C22.627,28 28,22.628 28,16 C28,9.373 22.627,4 16,4 L16,4 Z M5,26 C4.447,26 4,26.447 4,27 C4,27.553 4.447,28 5,28 C5.553,28 6,27.553 6,27 C6,26.447 5.553,26 5,26 L5,26 Z M5,6 C5.553,6 6,5.553 6,5 C6,4.447 5.553,4 5,4 C4.447,4 4,4.447 4,5 C4,5.553 4.447,6 5,6 L5,6 Z M27,26 C26.447,26 26,26.447 26,27 C26,27.553 26.447,28 27,28 C27.553,28 28,27.553 28,27 C28,26.447 27.553,26 27,26 L27,26 Z"/>
  </defs>
  <use fill="#AAA" fill-rule="evenodd" xlink:href="#a"/>
</svg>
