<svg xmlns="http://www.w3.org/2000/svg" xmlns:xlink="http://www.w3.org/1999/xlink" width="32" height="32" viewBox="0 0 32 32">
  <defs>
    <path id="-50-a" d="M27.5966659,15.2494721 C25.1458321,17.6985295 21.461586,18.1074175 18.5587498,16.544462 L5.92613534,29.1719472 C5.07116853,30.0260213 3.68531209,30.0260213 2.82927922,29.1719472 C1.97537845,28.3168055 1.97537845,26.9332055 2.82927922,26.0780639 L15.4640258,13.4505786 C13.9022722,10.5509971 14.3116328,6.87100542 16.7614006,4.42194799 C18.2304084,2.95400817 20.1471545,2.25580261 22.0713629,2.23231557 C20.0554748,4.37604151 20.0821259,7.74109338 22.1790333,9.83677765 C24.2748746,11.9313943 27.6414397,11.9580841 29.7863191,9.94353691 C29.7628661,11.8662712 29.0656737,13.7815323 27.5966659,15.2494721 L27.5966659,15.2494721 Z M31.0879581,5.73615448 C30.5485401,6.34254708 29.6530636,7.11441653 28.3695474,8.28983598 C27.010342,9.64781376 25.0861336,9.64781376 23.7269283,8.28983598 C22.3666569,6.92972301 22.3666569,5.00805633 23.7269283,3.64901095 C24.9795293,2.39672483 26.3259421,0.913838716 26.3046213,0.90743316 C22.664083,-0.771889998 18.2133517,-0.122793698 15.2135056,2.87500632 C12.4791042,5.60697578 11.6998265,9.5421221 12.8500873,12.9701619 L1.28245023,24.5321898 C-0.427483409,26.2403379 -0.427483409,29.0107407 1.28245023,30.7188889 C2.99238387,32.427037 5.76409675,32.427037 7.47403038,30.7188889 L19.0406014,19.1579286 C22.4732612,20.309861 26.4101596,19.5283833 29.1445609,16.7964138 C32.1401429,13.8018166 32.7627123,9.37130728 31.0879581,5.73615448 L31.0879581,5.73615448 Z"/>
  </defs>
  <use fill="#AAA" fill-rule="evenodd" xlink:href="#a"/>
</svg>
