<svg xmlns="http://www.w3.org/2000/svg" xmlns:xlink="http://www.w3.org/1999/xlink" width="32" height="32" viewBox="0 0 32 32">
  <defs>
    <path id="-youtube-a" d="M15.9969289,15.4551719 C15.9969289,15.4545937 22.4398104,15.4647687 23.2041706,16.2284333 C23.9717156,16.9932542 23.980019,20.7689885 23.980019,20.7908031 C23.980019,20.7908031 23.9738009,24.5861937 23.2041706,25.353674 C22.4398104,26.116876 15.9969289,26.1333333 15.9969289,26.1333333 C15.9969289,26.1333333 9.55495735,26.116876 8.78858768,25.3537125 C8.02214218,24.5888531 8.02001896,20.8194396 8.02001896,20.7908031 C8.02001896,20.7690656 8.02210427,16.9932542 8.78858768,16.2284333 C9.55503318,15.4647687 15.9969289,15.4545937 15.9969289,15.4551719 Z M11.3396019,6.4 L12.1060853,9.22572083 L12.1802464,9.22572083 L12.9090427,6.4 L14.108891,6.4 L12.7357725,10.5361375 L12.7357725,13.4690813 L11.5557156,13.4690813 L11.5557156,10.6682969 L10.1512796,6.4 L11.3396019,6.4 Z M14.6174408,8.48163542 C14.8994123,8.24225313 15.2794692,8.12235 15.7546161,8.12235 C16.1879431,8.12235 16.5440758,8.2486125 16.8218389,8.50129167 C17.0974787,8.75339271 17.2363981,9.07872292 17.2363981,9.47628021 L17.2363981,12.1703427 C17.2363981,12.6161542 17.1006635,12.9654188 16.830218,13.2196781 C16.5565877,13.4733594 16.1838104,13.6007781 15.7066161,13.6007781 C15.2492512,13.6007781 14.8817062,13.4691198 14.6059905,13.2080771 C14.3323981,12.9458396 14.1935545,12.5929135 14.1935545,12.1497615 L14.1934787,9.44706563 C14.1934787,9.04210833 14.3344455,8.72047813 14.6174408,8.48163542 Z M15.38491,12.5800406 C15.4590711,12.6585885 15.5656114,12.6973229 15.704455,12.6973229 C15.8465213,12.6973229 15.958218,12.6570469 16.0428057,12.5779208 C16.1264076,12.4972146 16.1681896,12.3874094 16.1681896,12.2483125 L16.1681896,9.40721354 C16.1681896,9.29316875 16.1253081,9.20132396 16.0396967,9.13071562 C15.9540853,9.06068542 15.8423507,9.02615208 15.704455,9.02615208 C15.5760379,9.02615208 15.4726825,9.06068542 15.3922654,9.13071562 C15.31291,9.20132396 15.2721896,9.29309167 15.2721896,9.40721354 L15.2721896,12.248351 C15.2721517,12.3911094 15.3107867,12.5009531 15.38491,12.5800406 Z M21.0770806,13.4691198 L20.0286635,13.4691198 L20.0286635,12.8932688 C19.8375355,13.1050167 19.6360569,13.2680094 19.4260853,13.3783542 C19.2172512,13.4892771 19.0146351,13.5445458 18.8182749,13.5445458 C18.5739905,13.5445458 18.3932891,13.466499 18.2701422,13.3115229 C18.1479431,13.1560073 18.0863318,12.9235625 18.0863318,12.6124927 L18.0863318,8.25393125 L19.1326256,8.25393125 L19.1326256,12.252051 C19.1326256,12.3757313 19.1567014,12.4648781 19.2005308,12.5200698 C19.2433365,12.5753385 19.3153744,12.6033969 19.4135735,12.6033969 C19.489782,12.6033969 19.587981,12.5662813 19.7059336,12.4935531 C19.8228626,12.420324 19.9314882,12.3268219 20.0285877,12.2122375 L20.0285877,8.25393125 L21.0770806,8.25393125 L21.0770806,13.4691198 Z M11.6883412,18.4528271 L12.7733081,18.4528271 L12.7732701,17.5208125 L9.55389573,17.5208125 L9.55389573,18.4528271 L10.6388626,18.4528271 L10.6388626,23.9380771 L11.6883412,23.9380771 L11.6883412,18.4528271 Z M14.9108246,23.9381156 L15.8412512,23.9381156 L15.8412891,19.203349 L14.9108626,19.203349 L14.9108626,22.8001729 C14.8221422,22.9025781 14.727128,22.9864448 14.6216493,23.0533531 C14.5172322,23.1196833 14.4295355,23.1531375 14.3616303,23.1531375 C14.2749573,23.1531375 14.2112607,23.1287021 14.1705403,23.07775 C14.132891,23.0278771 14.1130616,22.9472094 14.1130616,22.8347062 L14.1130616,19.2032719 L13.1825972,19.2032719 L13.1825972,23.1616552 C13.1825972,23.4445896 13.2379526,23.6541406 13.3455166,23.7959354 C13.4561517,23.9381156 13.6159242,24.0071052 13.8321137,24.0071052 C14.007545,24.0071052 14.1871848,23.95835 14.3730806,23.8564073 C14.5599621,23.7565844 14.7375166,23.6106271 14.9108246,23.4174562 L14.9108246,23.9381156 Z M18.9990521,23.7306073 C19.1451374,23.5516969 19.2183128,23.2947781 19.2183886,22.9599281 L19.2183886,20.3327354 C19.2183886,19.945276 19.1410806,19.6496615 18.984455,19.4474719 C18.8299147,19.246824 18.6053839,19.1459604 18.3098389,19.1459604 C18.1658389,19.1459604 18.022673,19.1831531 17.8807204,19.2585021 C17.7407773,19.3327333 17.6081517,19.4436562 17.4818199,19.5869927 L17.4818199,17.5208125 L16.5410047,17.5208125 L16.5410047,23.9381156 L17.4818199,23.9381156 L17.4818199,23.5751302 C17.6028815,23.7205094 17.7376682,23.8266917 17.8796209,23.8956427 C18.0216493,23.9646708 18.183545,23.9980094 18.3662938,23.9980094 C18.6419716,23.9980094 18.8539147,23.9099417 18.9990521,23.7306073 Z M17.8712417,19.8974844 C17.9965118,19.8974844 18.0936872,19.9388781 18.1615924,20.020625 C18.2272986,20.103374 18.2597156,20.2248958 18.2597156,20.3846896 L18.2597156,22.829349 C18.2597156,22.9816271 18.2315071,23.08885 18.1783507,23.1552187 C18.1251185,23.2231677 18.0415166,23.2566219 17.9276967,23.2566219 C17.8483791,23.2566219 17.7742559,23.2385073 17.7031659,23.2051302 C17.6311659,23.1721771 17.5569668,23.114326 17.4818199,23.0379365 L17.4818199,20.0880729 C17.5454787,20.0227833 17.6091754,19.9744906 17.6738957,19.9436573 C17.7386919,19.9118219 17.804436,19.8974844 17.8712417,19.8974844 Z M20.6655924,21.6840448 L22.4459526,21.6840062 L22.4459526,20.4771125 C22.4459526,20.0280635 22.3320569,19.6841177 22.1033934,19.4453135 C21.8747299,19.2059312 21.5468057,19.0860281 21.1207962,19.0860281 C20.7030521,19.0860281 20.3647014,19.2149885 20.1016114,19.473449 C19.8384455,19.7314083 19.7058199,20.0679156 19.7058199,20.4771125 L19.7058199,22.6033021 C19.7058199,23.059674 19.8269573,23.4174948 20.0661611,23.6769573 C20.3052891,23.9380771 20.634237,24.067076 21.0509194,24.067076 C21.5145024,24.067076 21.8633555,23.9455927 22.095128,23.7014312 C22.3300095,23.454649 22.4459905,23.0890042 22.4459905,22.6033406 L22.4459905,22.3602198 L21.4884171,22.3602198 L21.4884171,22.5762073 C21.4884171,22.8549021 21.4560758,23.034275 21.3954882,23.1160219 C21.3338768,23.1977302 21.2262749,23.2386615 21.0718104,23.2386615 C20.9234882,23.2386615 20.8190711,23.1913323 20.756436,23.0952865 C20.6959621,22.9981615 20.6655924,22.8256875 20.6655924,22.5762073 L20.6655924,21.6840448 Z M20.7617062,20.0450604 C20.8265024,19.956376 20.9330047,19.9144813 21.0812512,19.9144813 C21.2222559,19.9144813 21.3276967,19.956376 21.3903318,20.0450604 C21.455128,20.1278865 21.4885308,20.2711458 21.4885308,20.4691344 L21.4885308,20.9473208 L20.6656682,20.9473208 L20.6656682,20.4691344 C20.6656682,20.2711073 20.6969858,20.1277708 20.7617062,20.0450604 Z M16,30 C23.7319869,30 30,23.7319869 30,16 C30,8.26801307 23.7319869,2 16,2 C8.26801307,2 2,8.26801307 2,16 C2,23.7319869 8.26801307,30 16,30 Z M16,32 C7.16344357,32 0,24.8365564 0,16 C0,7.16344357 7.16344357,0 16,0 C24.8365564,0 32,7.16344357 32,16 C32,24.8365564 24.8365564,32 16,32 Z"/>
  </defs>
  <use fill="#AAA" fill-rule="evenodd" xlink:href="#a"/>
</svg>
