<svg xmlns="http://www.w3.org/2000/svg" xmlns:xlink="http://www.w3.org/1999/xlink" width="32" height="32" viewBox="0 0 32 32">
  <defs>
    <path id="-206-a" d="M13.4634711,24.457643 C7.17184899,24.457643 2.07153407,19.4460769 2.07153407,13.2541419 C2.07153407,7.06220694 7.17184899,2.0406377 13.4634711,2.0406377 C19.7550931,2.0406377 24.8564083,7.06220694 24.8564083,13.2541419 C24.8564083,19.4460769 19.7550931,24.457643 13.4634711,24.457643 L13.4634711,24.457643 Z M31.6961717,30.2594561 L23.4350418,22.1269147 C25.5985996,19.7761801 26.9269421,16.675211 26.9269421,13.2541419 C26.9269421,5.9318537 20.8993881,0 13.4634711,0 C6.02755398,0 0,5.9318537 0,13.2541419 C0,20.566427 6.02755398,26.4982807 13.4634711,26.4982807 C16.6762994,26.4982807 19.6230591,25.3879337 21.9376558,23.5373554 L30.2327944,31.6999062 C30.6368986,32.1000313 31.2920675,32.1000313 31.6961717,31.6999062 C32.1012761,31.3097843 32.1012761,30.6595811 31.6961717,30.2594561 L31.6961717,30.2594561 Z M18.6938195,12.4138793 L8.64522885,12.4138793 C8.10408934,12.4138793 7.66497613,12.8440138 7.66497613,13.3741794 C7.66497613,13.9043451 8.10408934,14.3344795 8.64522885,14.3344795 L18.6938195,14.3344795 C19.234959,14.3344795 19.6740722,13.9043451 19.6740722,13.3741794 C19.6740722,12.8440138 19.234959,12.4138793 18.6938195,12.4138793 L18.6938195,12.4138793 Z"/>
  </defs>
  <use fill="#AAA" fill-rule="evenodd" xlink:href="#a"/>
</svg>
